<?xml version="1.0" encoding="UTF-8"?>
<svg xmlns="http://www.w3.org/2000/svg" xmlns:xlink="http://www.w3.org/1999/xlink" width="332px" height="325px" viewBox="0 0 330 325" version="1.1">
<defs>
<filter id="alpha" filterUnits="objectBoundingBox" x="0%" y="0%" width="100%" height="100%">
  <feColorMatrix type="matrix" in="SourceGraphic" values="0 0 0 0 1 0 0 0 0 1 0 0 0 0 1 0 0 0 1 0"/>
</filter>
<mask id="mask0">
  <g filter="url(#alpha)">
<rect x="0" y="0" width="330" height="325" style="fill:rgb(0%,0%,0%);fill-opacity:0.14902;stroke:none;"/>
  </g>
</mask>
<clipPath id="clip1">
  <rect x="0" y="0" width="330" height="325"/>
</clipPath>
<g id="surface5" clip-path="url(#clip1)">
<path style=" stroke:none;fill-rule:nonzero;fill:rgb(24.313725%,71.372549%,65.098039%);fill-opacity:1;" d="M 32.914062 149.839844 C 29.160156 142.820312 25.859375 133.449219 31.230469 127.578125 C 35.679688 122.714844 43.910156 123.167969 48.519531 118.464844 C 52.328125 114.570312 52.472656 108.472656 54.671875 103.488281 C 58.386719 95.082031 67.84375 90.519531 76.964844 89.605469 C 86.089844 88.691406 95.226562 90.699219 104.332031 91.800781 C 109.769531 92.460938 115.554688 92.742188 120.433594 90.265625 C 127.953125 86.457031 130.988281 77.558594 134.789062 70.027344 C 138.589844 62.496094 145.9375 54.804688 154.082031 56.9375 C 160.328125 58.566406 163.761719 65.332031 165.128906 71.648438 C 166.492188 77.972656 166.660156 84.742188 169.859375 90.359375 C 172.773438 95.496094 178.285156 99.179688 184.175781 99.5 C 190.074219 99.832031 196.113281 96.597656 198.804688 91.339844 C 200.28125 88.453125 200.75 85.136719 202.226562 82.253906 C 206.628906 73.683594 220.523438 72.476562 226.328125 80.160156 C 231.152344 86.550781 230.382812 96.523438 236.609375 101.554688 C 239.46875 103.863281 243.269531 104.609375 246.515625 106.34375 C 252.542969 109.566406 256.296875 116.183594 257.230469 122.960938 C 258.160156 129.746094 256.542969 136.664062 253.898438 142.980469 C 251.78125 148.03125 248.96875 152.914062 248.152344 158.332031 C 247.324219 163.753906 249.121094 170.097656 254.03125 172.527344 C 255.949219 173.480469 258.140625 173.734375 260.117188 174.582031 C 267.5 177.730469 269.121094 188.410156 264.972656 195.289062 C 260.824219 202.171875 252.863281 205.78125 245.085938 207.734375 C 237.304688 209.691406 229.167969 210.429688 221.757812 213.511719 C 211.011719 217.988281 201.859375 227.320312 190.234375 227.734375 C 177.160156 228.195312 166.304688 217.148438 153.351562 215.320312 C 137.714844 213.113281 123.792969 224.492188 108.816406 229.503906 C 100.304688 232.359375 90.003906 232.824219 83.222656 226.933594 C 78.03125 222.425781 75.996094 215.140625 71.003906 210.410156 C 66.46875 206.109375 60.128906 204.472656 54.125 202.753906 C 47.910156 200.984375 42.414062 198.757812 37.964844 193.953125 C 36.160156 192 34.148438 190.371094 34.003906 187.65625 C 33.84375 184.414062 36.113281 180.757812 36.847656 177.628906 C 38.878906 168.992188 37.035156 157.542969 32.914062 149.839844 Z M 32.914062 149.839844 "/>
</g>
</defs>
<g id="surface1">
<use xlink:href="#surface5" mask="url(#mask0)"/>
<path style=" stroke:none;fill-rule:nonzero;fill:rgb(100%,100%,100%);fill-opacity:1;" d="M 107.164062 167.15625 L 107.132812 190.757812 C 107.132812 192.105469 108.433594 193.066406 109.710938 192.679688 C 113.390625 191.558594 119.890625 189.890625 121.65625 191.453125 C 124.160156 193.667969 127.707031 197.921875 124.554688 202.058594 C 121.402344 206.195312 115.207031 204.046875 115.207031 204.046875 C 115.207031 204.046875 108.96875 200.871094 107.734375 203.433594 C 106.503906 206 107.539062 228.347656 107.539062 228.347656 C 107.539062 228.347656 134.5625 229.183594 135.203125 227.335938 C 135.851562 225.5 132.769531 218.988281 133.605469 214.640625 C 134.132812 211.945312 139.164062 208.296875 142.71875 209.996094 C 146.277344 211.691406 148.382812 213.453125 147.292969 217.515625 C 146.199219 221.578125 143.226562 227.828125 147.6875 228.128906 C 152.144531 228.429688 171.769531 227.515625 171.769531 227.515625 L 170.929688 202.625 C 170.929688 202.625 176.90625 204.480469 183.394531 204.460938 C 185.550781 204.453125 189.207031 201.824219 188.285156 197.074219 C 187.363281 192.3125 179.90625 190.738281 183.828125 189.945312 C 187.75 189.15625 166.972656 193.132812 168.785156 192.433594 C 170.609375 191.738281 170.582031 193.8125 171.183594 185.121094 C 171.785156 176.429688 170.914062 164.054688 170.914062 164.054688 L 146.105469 164.320312 C 146.105469 164.320312 144.339844 164.339844 146.605469 157.128906 C 148.871094 149.917969 144.054688 147.191406 142.351562 146.710938 C 140.652344 146.242188 135.007812 145.402344 133.726562 150.171875 C 132.449219 154.941406 135.675781 163.054688 135.675781 163.054688 L 133.359375 164.660156 L 107.125 165.09375 Z M 107.164062 167.15625 "/>
<path style=" stroke:none;fill-rule:nonzero;fill:rgb(100%,100%,100%);fill-opacity:1;" d="M 77.324219 86.777344 L 103.210938 83.722656 C 103.210938 83.722656 101.234375 94.375 103.890625 96.410156 C 106.542969 98.445312 111.375 101.121094 114.828125 97.238281 C 118.289062 93.355469 115 87.664062 115 87.664062 C 115 87.664062 110.699219 82.128906 112.984375 80.433594 C 115.269531 78.738281 137.359375 75.496094 137.359375 75.496094 C 137.359375 75.496094 142.917969 99.832031 141.234375 100.820312 C 139.550781 101.808594 131.121094 100.886719 128.488281 101.667969 C 125.855469 102.449219 123.332031 108.339844 125.675781 111.519531 C 128.015625 114.695312 130.144531 116.429688 133.90625 114.582031 C 137.667969 112.734375 143.238281 108.625 144.375 112.949219 C 145.523438 117.285156 148.769531 138.832031 148.769531 138.832031 L 124.21875 142.753906 C 124.21875 142.753906 122.363281 142.039062 123.511719 135.9375 C 124.660156 129.839844 121.6875 126.382812 116.851562 126.382812 C 112.015625 126.371094 109.910156 129.40625 109.878906 133.414062 C 109.851562 137.417969 114.160156 140.660156 113.832031 142.585938 C 113.503906 144.507812 115.523438 144.082031 107.125 146.335938 C 98.722656 148.589844 86.429688 150.078125 86.429688 150.078125 L 81.566406 123.535156 C 81.566406 123.535156 81.191406 120.800781 74.550781 124.402344 C 67.917969 128.003906 64.390625 124.78125 63.609375 123.195312 C 62.820312 121.613281 60.785156 115.117188 65.21875 112.949219 C 69.648438 110.78125 77.792969 112.949219 77.792969 112.949219 L 79.488281 110.933594 L 77.003906 90.753906 Z M 77.324219 86.777344 "/>
<path style=" stroke:none;fill-rule:nonzero;fill:rgb(100%,100%,100%);fill-opacity:1;" d="M 173.375 100.367188 L 196.929688 100.339844 C 198.277344 100.339844 199.234375 101.640625 198.851562 102.921875 C 197.730469 106.609375 196.066406 113.121094 197.628906 114.890625 C 199.839844 117.398438 204.082031 120.953125 208.210938 117.796875 C 212.339844 114.636719 210.195312 108.425781 210.195312 108.425781 C 210.195312 108.425781 207.023438 102.175781 209.582031 100.941406 C 212.140625 99.707031 234.445312 100.746094 234.445312 100.746094 C 234.445312 100.746094 235.28125 125.703125 233.4375 126.34375 C 231.605469 126.996094 225.105469 123.902344 220.769531 124.742188 C 218.078125 125.269531 214.4375 130.3125 216.128906 133.875 C 217.832031 137.4375 219.582031 139.550781 223.636719 138.457031 C 227.691406 137.363281 233.929688 134.382812 234.230469 138.851562 C 234.53125 143.328125 233.617188 165.101562 233.617188 165.101562 L 208.773438 164.261719 C 208.773438 164.261719 207.089844 163.207031 209.375 157.4375 C 211.664062 151.671875 209.394531 147.710938 204.65625 146.789062 C 199.902344 145.863281 197.269531 148.4375 196.480469 152.367188 C 195.691406 156.296875 199.3125 160.292969 198.613281 162.121094 C 197.917969 163.953125 199.988281 163.921875 191.316406 164.527344 C 182.640625 165.128906 170.292969 164.253906 170.292969 164.253906 L 170.554688 137.269531 C 170.554688 137.269531 171.175781 134.941406 163.980469 137.203125 C 156.78125 139.472656 153.460938 135.214844 152.992188 133.5 C 152.523438 131.792969 151.683594 126.136719 156.445312 124.855469 C 161.203125 123.574219 169.304688 126.804688 169.304688 126.804688 L 170.902344 124.488281 L 171.335938 100.320312 Z M 173.375 100.367188 "/>
<path style=" stroke:none;fill-rule:nonzero;fill:rgb(100%,100%,100%);fill-opacity:1;" d="M 234.199219 167.15625 L 234.230469 190.757812 C 234.230469 192.105469 232.929688 193.066406 231.652344 192.679688 C 227.972656 191.558594 221.472656 189.890625 219.707031 191.453125 C 217.203125 193.667969 213.65625 197.921875 216.808594 202.058594 C 219.960938 206.195312 226.160156 204.046875 226.160156 204.046875 C 226.160156 204.046875 232.394531 200.871094 233.628906 203.433594 C 234.859375 206 233.824219 228.347656 233.824219 228.347656 C 233.824219 228.347656 208.914062 229.183594 208.277344 227.335938 C 207.625 225.5 210.710938 218.988281 209.875 214.640625 C 209.347656 211.945312 204.316406 208.296875 200.761719 209.996094 C 197.203125 211.691406 195.097656 213.453125 196.1875 217.515625 C 197.28125 221.578125 200.253906 227.828125 195.792969 228.128906 C 191.335938 228.429688 169.59375 227.515625 169.59375 227.515625 L 170.433594 202.625 C 170.433594 202.625 164.460938 204.480469 157.96875 204.460938 C 155.8125 204.453125 152.15625 201.824219 153.078125 197.074219 C 154 192.320312 161.457031 190.738281 157.535156 189.945312 C 153.613281 189.15625 174.394531 193.132812 172.578125 192.433594 C 170.753906 191.738281 170.78125 193.8125 170.179688 185.121094 C 169.578125 176.429688 170.453125 164.054688 170.453125 164.054688 L 197.382812 164.320312 C 197.382812 164.320312 199.707031 164.941406 197.449219 157.730469 C 195.183594 150.519531 199.433594 147.191406 201.144531 146.722656 C 202.847656 146.25 208.492188 145.410156 209.773438 150.179688 C 211.050781 154.949219 207.824219 163.066406 207.824219 163.066406 L 210.136719 164.667969 L 234.257812 165.101562 Z M 234.199219 167.15625 "/>
<path style="fill:none;stroke-width:3;stroke-linecap:butt;stroke-linejoin:miter;stroke:rgb(24.313725%,71.372549%,65.098039%);stroke-opacity:1;stroke-miterlimit:10;" d="M 207.330039 106.361311 L 181.692007 106.361311 L 181.692007 129.801981 L 181.708617 131.799577 C 181.708617 132.429524 181.47192 133.059472 180.990221 133.540221 C 180.45869 134.070703 179.740294 134.311077 179.050966 134.248912 L 169.848847 131.637946 C 165.658894 131.637946 162.270388 135.04049 162.270388 139.218035 C 162.270388 143.408013 165.671351 146.798124 169.848847 146.798124 " transform="matrix(0.94068,0,0,0.942539,0,0.0627957)"/>
<path style="fill:none;stroke-width:3;stroke-linecap:butt;stroke-linejoin:miter;stroke:rgb(24.313725%,71.372549%,65.098039%);stroke-opacity:1;stroke-miterlimit:10;" d="M 181.671244 172.058181 L 181.671244 148.621656 L 181.692007 146.619916 C 181.692007 145.989968 181.451157 145.360021 180.969458 144.879272 C 180.437928 144.34879 179.719531 144.108415 179.030203 144.170581 L 169.828084 146.781547 " transform="matrix(0.94068,0,0,0.942539,0,0.0627957)"/>
<path style="fill:none;stroke-width:3;stroke-linecap:butt;stroke-linejoin:miter;stroke:rgb(24.313725%,71.372549%,65.098039%);stroke-opacity:1;stroke-miterlimit:10;" d="M 226.141228 106.382033 L 224.139685 106.361311 C 223.508492 106.361311 222.881453 106.601686 222.399753 107.078291 C 221.868223 107.608773 221.631526 108.329896 221.689662 109.02201 L 224.301635 118.218411 C 224.301635 122.408389 220.900672 125.7985 216.719023 125.7985 C 212.541527 125.7985 209.140564 122.400101 209.140564 118.218411 " transform="matrix(0.94068,0,0,0.942539,0,0.0627957)"/>
<path style="fill:none;stroke-width:3;stroke-linecap:butt;stroke-linejoin:miter;stroke:rgb(24.313725%,71.372549%,65.098039%);stroke-opacity:1;stroke-miterlimit:10;" d="M 207.330039 106.398611 L 209.331583 106.382033 C 209.958622 106.382033 210.589815 106.618263 211.071514 107.099013 C 211.598892 107.629495 211.839741 108.350618 211.781605 109.038587 L 209.169632 118.239133 " transform="matrix(0.94068,0,0,0.942539,0,0.0627957)"/>
<path style="fill:none;stroke-width:3;stroke-linecap:butt;stroke-linejoin:miter;stroke:rgb(24.313725%,71.372549%,65.098039%);stroke-opacity:1;stroke-miterlimit:10;" d="M 225.58063 106.361311 L 249.030252 106.361311 L 249.030252 130.108666 " transform="matrix(0.94068,0,0,0.942539,0,0.0627957)"/>
<path style="fill:none;stroke-width:3;stroke-linecap:butt;stroke-linejoin:miter;stroke:rgb(24.313725%,71.372549%,65.098039%);stroke-opacity:1;stroke-miterlimit:10;" d="M 249.030252 148.041441 L 249.030252 174.660858 " transform="matrix(0.94068,0,0,0.942539,0,0.0627957)"/>
<path style="fill:none;stroke-width:3;stroke-linecap:butt;stroke-linejoin:miter;stroke:rgb(24.313725%,71.372549%,65.098039%);stroke-opacity:1;stroke-miterlimit:10;" d="M 181.692007 174.619414 L 181.692007 153.93062 " transform="matrix(0.94068,0,0,0.942539,0,0.0627957)"/>
<path style="fill:none;stroke-width:3;stroke-linecap:butt;stroke-linejoin:miter;stroke:rgb(24.313725%,71.372549%,65.098039%);stroke-opacity:1;stroke-miterlimit:10;" d="M 249.009489 129.801981 L 249.030252 131.799577 C 249.030252 132.429524 248.789402 133.059472 248.311856 133.540221 C 247.780325 134.070703 247.061929 134.311077 246.368448 134.248912 L 237.170482 131.637946 C 232.980529 131.637946 229.592023 135.04049 229.592023 139.218035 C 229.592023 143.408013 232.988834 146.798124 237.170482 146.798124 " transform="matrix(0.94068,0,0,0.942539,0,0.0627957)"/>
<path style="fill:none;stroke-width:3;stroke-linecap:butt;stroke-linejoin:miter;stroke:rgb(24.313725%,71.372549%,65.098039%);stroke-opacity:1;stroke-miterlimit:10;" d="M 248.988726 148.621656 L 249.009489 146.619916 C 249.009489 145.989968 248.76864 145.360021 248.291093 144.879272 C 247.759562 144.34879 247.041166 144.108415 246.351838 144.170581 L 237.149719 146.781547 " transform="matrix(0.94068,0,0,0.942539,0,0.0627957)"/>
<path style="fill:none;stroke-width:3;stroke-linecap:butt;stroke-linejoin:miter;stroke:rgb(57.647059%,32.54902%,61.176471%);stroke-opacity:1;stroke-miterlimit:10;" d="M 91.410754 156.649339 L 87.241564 133.581665 L 86.901052 131.608935 C 86.788932 130.991421 86.440116 130.419495 85.879517 130.029923 C 85.260783 129.598906 84.509166 129.491152 83.8406 129.681794 L 75.248911 133.880061 " transform="matrix(0.94068,0,0,0.942539,0,0.0627957)"/>
<path style="fill:none;stroke-width:3;stroke-linecap:butt;stroke-linejoin:miter;stroke:rgb(57.647059%,32.54902%,61.176471%);stroke-opacity:1;stroke-miterlimit:10;" d="M 135.631584 151.27821 L 133.671566 151.651205 C 133.048679 151.758959 132.388419 151.638772 131.831973 151.249199 C 131.209086 150.818183 130.851964 150.159225 130.78137 149.458823 L 131.711548 139.939159 C 130.968236 135.819635 127.019132 133.080194 122.899772 133.830328 C 118.780412 134.56803 116.039709 138.521778 116.791326 142.641301 " transform="matrix(0.94068,0,0,0.942539,0,0.0627957)"/>
<path style="fill:none;stroke-width:3;stroke-linecap:butt;stroke-linejoin:miter;stroke:rgb(57.647059%,32.54902%,61.176471%);stroke-opacity:1;stroke-miterlimit:10;" d="M 117.111075 154.6103 L 119.079398 154.27046 C 119.698133 154.158561 120.271189 153.810432 120.661531 153.25094 C 121.089247 152.629281 121.201367 151.879147 121.010348 151.2119 L 116.807937 142.620579 " transform="matrix(0.94068,0,0,0.942539,0,0.0627957)"/>
<path style="fill:none;stroke-width:3;stroke-linecap:butt;stroke-linejoin:miter;stroke:rgb(57.647059%,32.54902%,61.176471%);stroke-opacity:1;stroke-miterlimit:10;" d="M 123.501896 84.110081 L 121.529421 84.449921 C 120.910686 84.56182 120.341783 84.909949 119.95144 85.469441 C 119.519572 86.0911 119.411605 86.841234 119.598471 87.508481 L 123.800882 96.099802 C 124.540042 100.219325 121.811796 104.168929 117.688284 104.910775 C 113.568924 105.648476 109.61982 102.921468 108.880661 98.801944 " transform="matrix(0.94068,0,0,0.942539,0,0.0627957)"/>
<path style="fill:none;stroke-width:3;stroke-linecap:butt;stroke-linejoin:miter;stroke:rgb(57.647059%,32.54902%,61.176471%);stroke-opacity:1;stroke-miterlimit:10;" d="M 104.989693 87.47947 L 106.949711 87.11062 C 107.568445 86.998721 108.228705 87.118908 108.789304 87.508481 C 109.408038 87.939498 109.769313 88.598456 109.839907 89.298858 L 108.909729 98.818521 " transform="matrix(0.94068,0,0,0.942539,0,0.0627957)"/>
<path style="fill:none;stroke-width:3;stroke-linecap:butt;stroke-linejoin:miter;stroke:rgb(57.647059%,32.54902%,61.176471%);stroke-opacity:1;stroke-miterlimit:10;" d="M 122.941298 84.188825 L 146.008883 80.032002 L 150.232057 103.398072 " transform="matrix(0.94068,0,0,0.942539,0,0.0627957)"/>
<path style="fill:none;stroke-width:3;stroke-linecap:butt;stroke-linejoin:miter;stroke:rgb(57.647059%,32.54902%,61.176471%);stroke-opacity:1;stroke-miterlimit:10;" d="M 153.421239 121.040741 L 158.151028 147.241574 L 135.129122 151.390109 " transform="matrix(0.94068,0,0,0.942539,0,0.0627957)"/>
<path style="fill:none;stroke-width:3;stroke-linecap:butt;stroke-linejoin:miter;stroke:rgb(57.647059%,32.54902%,61.176471%);stroke-opacity:1;stroke-miterlimit:10;" d="M 117.111075 154.6103 L 91.879996 159.169129 L 88.209115 138.811885 " transform="matrix(0.94068,0,0,0.942539,0,0.0627957)"/>
<path style="fill:none;stroke-width:3;stroke-linecap:butt;stroke-linejoin:miter;stroke:rgb(57.647059%,32.54902%,61.176471%);stroke-opacity:1;stroke-miterlimit:10;" d="M 79.750308 92.001 L 83.919499 115.068675 L 84.289079 117.028971 C 84.401199 117.65063 84.280774 118.309588 83.890431 118.86908 C 83.458563 119.490739 82.798302 119.851301 82.100669 119.921755 L 72.578802 118.989268 C 68.459442 119.731113 65.718739 123.680717 66.470356 127.800241 C 67.209515 131.919764 71.158619 134.659206 75.277979 133.909072 " transform="matrix(0.94068,0,0,0.942539,0,0.0627957)"/>
<path style="fill:none;stroke-width:3;stroke-linecap:butt;stroke-linejoin:miter;stroke:rgb(57.647059%,32.54902%,61.176471%);stroke-opacity:1;stroke-miterlimit:10;" d="M 91.410754 156.649339 L 87.241564 133.581665 L 86.901052 131.608935 C 86.788932 130.991421 86.440116 130.419495 85.879517 130.029923 C 85.260783 129.598906 84.509166 129.491152 83.8406 129.681794 L 75.248911 133.880061 " transform="matrix(0.94068,0,0,0.942539,0,0.0627957)"/>
<path style="fill:none;stroke-width:3;stroke-linecap:butt;stroke-linejoin:miter;stroke:rgb(57.647059%,32.54902%,61.176471%);stroke-opacity:1;stroke-miterlimit:10;" d="M 91.879996 159.169129 L 88.209115 138.811885 " transform="matrix(0.94068,0,0,0.942539,0,0.0627957)"/>
<path style="fill:none;stroke-width:3;stroke-linecap:butt;stroke-linejoin:miter;stroke:rgb(57.647059%,32.54902%,61.176471%);stroke-opacity:1;stroke-miterlimit:10;" d="M 150.161463 103.099676 L 150.531043 105.059973 C 150.63901 105.681631 150.518585 106.340589 150.128243 106.900082 C 149.700527 107.52174 149.040266 107.878158 148.33848 107.948613 L 138.820766 107.020269 C 134.701406 107.757971 131.960703 111.711719 132.708167 115.831242 C 133.451479 119.950766 137.400583 122.690208 141.519943 121.940073 " transform="matrix(0.94068,0,0,0.942539,0,0.0627957)"/>
<path style="fill:none;stroke-width:3;stroke-linecap:butt;stroke-linejoin:miter;stroke:rgb(57.647059%,32.54902%,61.176471%);stroke-opacity:1;stroke-miterlimit:10;" d="M 153.491833 121.620955 L 153.151321 119.648226 C 153.039201 119.030711 152.690385 118.458786 152.129786 118.069213 C 151.511052 117.638196 150.759435 117.530442 150.090869 117.721084 L 141.49918 121.919351 " transform="matrix(0.94068,0,0,0.942539,0,0.0627957)"/>
<path style="fill:none;stroke-width:3;stroke-linecap:butt;stroke-linejoin:miter;stroke:rgb(57.647059%,32.54902%,61.176471%);stroke-opacity:1;stroke-miterlimit:10;" d="M 249.030252 200.281477 L 249.030252 174.640136 L 226.041567 174.640136 L 224.040023 174.660858 C 223.40883 174.660858 222.781791 174.420484 222.300092 173.939735 C 221.768561 173.409253 221.531864 172.688129 221.59 172.00016 L 224.201973 162.799614 C 224.201973 158.609636 220.80101 155.219525 216.619361 155.219525 C 212.429408 155.219525 209.040902 158.622069 209.040902 162.799614 " transform="matrix(0.94068,0,0,0.942539,0,0.0627957)"/>
<path style="fill:none;stroke-width:3;stroke-linecap:butt;stroke-linejoin:miter;stroke:rgb(57.647059%,32.54902%,61.176471%);stroke-opacity:1;stroke-miterlimit:10;" d="M 183.328124 174.619414 L 206.76944 174.619414 L 209.219463 174.640136 C 209.850655 174.640136 210.481847 174.399762 210.959394 173.919013 C 211.490924 173.388531 211.731774 172.671551 211.669485 171.979438 L 209.061665 162.778892 " transform="matrix(0.94068,0,0,0.942539,0,0.0627957)"/>
<path style="fill:none;stroke-width:3;stroke-linecap:butt;stroke-linejoin:miter;stroke:rgb(57.647059%,32.54902%,61.176471%);stroke-opacity:1;stroke-miterlimit:10;" d="M 249.009489 219.101152 L 249.030252 217.099412 C 249.030252 216.469465 248.789402 215.839517 248.311856 215.358768 C 247.780325 214.828286 247.061929 214.592056 246.368448 214.650077 L 237.170482 217.261043 C 232.980529 217.261043 229.592023 213.858499 229.592023 209.680954 C 229.592023 205.490976 232.988834 202.100865 237.170482 202.100865 " transform="matrix(0.94068,0,0,0.942539,0,0.0627957)"/>
<path style="fill:none;stroke-width:3;stroke-linecap:butt;stroke-linejoin:miter;stroke:rgb(57.647059%,32.54902%,61.176471%);stroke-opacity:1;stroke-miterlimit:10;" d="M 248.988726 200.281477 L 249.009489 202.279073 C 249.009489 202.909021 248.76864 203.538968 248.291093 204.019717 C 247.759562 204.550199 247.041166 204.790574 246.351838 204.728408 L 237.149719 202.121587 " transform="matrix(0.94068,0,0,0.942539,0,0.0627957)"/>
<path style="fill:none;stroke-width:3;stroke-linecap:butt;stroke-linejoin:miter;stroke:rgb(57.647059%,32.54902%,61.176471%);stroke-opacity:1;stroke-miterlimit:10;" d="M 249.030252 218.529227 L 249.030252 241.978185 L 225.281644 241.978185 " transform="matrix(0.94068,0,0,0.942539,0,0.0627957)"/>
<path style="fill:none;stroke-width:3;stroke-linecap:butt;stroke-linejoin:miter;stroke:rgb(57.647059%,32.54902%,61.176471%);stroke-opacity:1;stroke-miterlimit:10;" d="M 207.350802 241.978185 L 182.140486 241.978185 L 182.140486 218.578959 " transform="matrix(0.94068,0,0,0.942539,0,0.0627957)"/>
<path style="fill:none;stroke-width:3;stroke-linecap:butt;stroke-linejoin:miter;stroke:rgb(57.647059%,32.54902%,61.176471%);stroke-opacity:1;stroke-miterlimit:10;" d="M 182.140486 200.281477 L 182.140486 174.640136 L 201.449985 174.640136 " transform="matrix(0.94068,0,0,0.942539,0,0.0627957)"/>
<path style="fill:none;stroke-width:3;stroke-linecap:butt;stroke-linejoin:miter;stroke:rgb(57.647059%,32.54902%,61.176471%);stroke-opacity:1;stroke-miterlimit:10;" d="M 225.58063 241.961608 L 223.579086 241.978185 C 222.952047 241.978185 222.320854 241.741955 221.839155 241.261206 C 221.311777 240.730724 221.070928 240.0096 221.129064 239.321631 L 223.741037 230.121085 C 223.741037 225.931107 220.340074 222.540996 216.158425 222.540996 C 211.968471 222.540996 208.579966 225.939396 208.579966 230.121085 " transform="matrix(0.94068,0,0,0.942539,0,0.0627957)"/>
<path style="fill:none;stroke-width:3;stroke-linecap:butt;stroke-linejoin:miter;stroke:rgb(57.647059%,32.54902%,61.176471%);stroke-opacity:1;stroke-miterlimit:10;" d="M 206.76944 241.940886 L 208.770984 241.961608 C 209.398024 241.961608 210.029216 241.721233 210.510915 241.240484 C 211.038293 240.710002 211.279143 239.988878 211.221007 239.300909 L 208.609034 230.100363 " transform="matrix(0.94068,0,0,0.942539,0,0.0627957)"/>
<path style="fill-rule:nonzero;fill:rgb(100%,100%,100%);fill-opacity:1;stroke-width:3;stroke-linecap:butt;stroke-linejoin:miter;stroke:rgb(57.647059%,32.54902%,61.176471%);stroke-opacity:1;stroke-miterlimit:10;" d="M 84.268316 116.059184 C 83.159577 108.400351 82.561605 102.250076 83.18034 100.488711 C 85.181884 94.810896 88.479033 93.289905 92.967972 94.520789 C 97.461064 95.751673 104.541214 94.910362 108.909729 90.388832 C 113.278243 85.871447 113.070614 77.52879 109.528463 78.349379 C 105.990464 79.169968 99.840493 76.529992 94.629004 74.760337 C 89.421668 72.990683 83.151272 75.788146 74.451616 81.121976 C 65.75196 86.451662 60.581997 99.398736 59.751481 105.461979 C 58.92927 111.521077 55.461865 122.168015 55.461865 122.168015 L 83.250934 157.378752 L 91.830165 157.871935 L 91.128379 155.211236 " transform="matrix(0.94068,0,0,0.942539,0,0.0627957)"/>
<path style="fill-rule:nonzero;fill:rgb(100%,100%,100%);fill-opacity:1;stroke-width:3;stroke-linecap:butt;stroke-linejoin:miter;stroke:rgb(57.647059%,32.54902%,61.176471%);stroke-opacity:1;stroke-miterlimit:10;" d="M 73.26813 175.539469 L 79.638189 170.578634 C 81.818293 168.879434 82.208636 165.708976 80.518536 163.529027 L 48.859262 122.868417 C 47.160857 120.688467 43.988285 120.298895 41.80818 121.989806 L 35.438122 126.950641 C 33.258017 128.649841 32.871827 131.820299 34.561927 134.000248 L 66.221201 174.660858 C 67.919607 176.840808 71.088025 177.238669 73.26813 175.539469 Z M 73.26813 175.539469 " transform="matrix(0.94068,0,0,0.942539,0,0.0627957)"/>
<path style="fill:none;stroke-width:3;stroke-linecap:butt;stroke-linejoin:miter;stroke:rgb(57.647059%,32.54902%,61.176471%);stroke-opacity:1;stroke-miterlimit:10;" d="M 91.410754 156.649339 L 87.241564 133.581665 L 86.901052 131.608935 C 86.788932 130.991421 86.440116 130.419495 85.879517 130.029923 C 85.260783 129.598906 84.509166 129.491152 83.8406 129.681794 L 75.248911 133.880061 " transform="matrix(0.94068,0,0,0.942539,0,0.0627957)"/>
<path style="fill:none;stroke-width:3;stroke-linecap:butt;stroke-linejoin:miter;stroke:rgb(57.647059%,32.54902%,61.176471%);stroke-opacity:1;stroke-miterlimit:10;" d="M 84.330605 115.060386 L 84.289079 117.020682 C 84.401199 117.638196 84.280774 118.301299 83.890431 118.860791 C 83.458563 119.478306 82.798302 119.838868 82.100669 119.909322 L 72.578802 118.980979 C 68.459442 119.71868 65.718739 123.668284 66.470356 127.791952 C 67.209515 131.911476 71.158619 134.650917 75.277979 133.900783 " transform="matrix(0.94068,0,0,0.942539,0,0.0627957)"/>
<path style="fill:none;stroke-width:3;stroke-linecap:butt;stroke-linejoin:miter;stroke:rgb(57.647059%,32.54902%,61.176471%);stroke-opacity:1;stroke-miterlimit:10;" d="M 91.410754 156.649339 L 87.241564 133.581665 L 86.901052 131.608935 C 86.788932 130.991421 86.440116 130.419495 85.879517 130.029923 C 85.260783 129.598906 84.509166 129.491152 83.8406 129.681794 L 75.248911 133.880061 " transform="matrix(0.94068,0,0,0.942539,0,0.0627957)"/>
<path style="fill:none;stroke-width:3;stroke-linecap:butt;stroke-linejoin:miter;stroke:rgb(24.313725%,71.372549%,65.098039%);stroke-opacity:1;stroke-miterlimit:10;" d="M 182.140486 200.281477 L 182.140486 174.640136 L 158.699169 174.640136 L 156.701777 174.660858 C 156.070585 174.660858 155.439393 174.420484 154.961846 173.939735 C 154.430316 173.409253 154.189466 172.688129 154.251755 172.00016 L 156.859576 162.799614 C 156.859576 158.609636 153.458612 155.219525 149.281116 155.219525 C 145.099468 155.219525 141.698504 158.622069 141.698504 162.799614 " transform="matrix(0.94068,0,0,0.942539,0,0.0627957)"/>
<path style="fill:none;stroke-width:3;stroke-linecap:butt;stroke-linejoin:miter;stroke:rgb(24.313725%,71.372549%,65.098039%);stroke-opacity:1;stroke-miterlimit:10;" d="M 116.438357 174.619414 L 139.879674 174.619414 L 141.881218 174.640136 C 142.508257 174.640136 143.13945 174.399762 143.621149 173.919013 C 144.148527 173.388531 144.389376 172.671551 144.33124 171.979438 L 141.719267 162.778892 " transform="matrix(0.94068,0,0,0.942539,0,0.0627957)"/>
<path style="fill:none;stroke-width:3;stroke-linecap:butt;stroke-linejoin:miter;stroke:rgb(24.313725%,71.372549%,65.098039%);stroke-opacity:1;stroke-miterlimit:10;" d="M 113.859605 219.101152 L 113.838842 217.099412 C 113.838842 216.469465 114.079691 215.839517 114.561391 215.358768 C 115.088768 214.828286 115.811317 214.592056 116.500646 214.650077 L 125.698612 217.261043 C 129.888565 217.261043 133.281223 213.858499 133.281223 209.680954 C 133.281223 205.490976 129.88026 202.100865 125.698612 202.100865 " transform="matrix(0.94068,0,0,0.942539,0,0.0627957)"/>
<path style="fill:none;stroke-width:3;stroke-linecap:butt;stroke-linejoin:miter;stroke:rgb(24.313725%,71.372549%,65.098039%);stroke-opacity:1;stroke-miterlimit:10;" d="M 113.880367 200.281477 L 113.859605 202.279073 C 113.859605 202.909021 114.100454 203.538968 114.578001 204.019717 C 115.109531 204.550199 115.827928 204.790574 116.521409 204.728408 L 125.719374 202.121587 " transform="matrix(0.94068,0,0,0.942539,0,0.0627957)"/>
<path style="fill:none;stroke-width:3;stroke-linecap:butt;stroke-linejoin:miter;stroke:rgb(24.313725%,71.372549%,65.098039%);stroke-opacity:1;stroke-miterlimit:10;" d="M 182.119723 219.101152 L 182.140486 217.099412 C 182.140486 216.469465 181.899636 215.839517 181.417937 215.358768 C 180.890559 214.828286 180.16801 214.592056 179.478681 214.650077 L 170.280716 217.261043 C 166.090762 217.261043 162.698104 213.858499 162.698104 209.680954 C 162.698104 205.490976 166.099067 202.100865 170.280716 202.100865 " transform="matrix(0.94068,0,0,0.942539,0,0.0627957)"/>
<path style="fill:none;stroke-width:3;stroke-linecap:butt;stroke-linejoin:miter;stroke:rgb(24.313725%,71.372549%,65.098039%);stroke-opacity:1;stroke-miterlimit:10;" d="M 182.09896 200.281477 L 182.119723 202.279073 C 182.119723 202.909021 181.878873 203.538968 181.401326 204.019717 C 180.869796 204.550199 180.1514 204.790574 179.462071 204.728408 L 170.259953 202.121587 " transform="matrix(0.94068,0,0,0.942539,0,0.0627957)"/>
<path style="fill:none;stroke-width:3;stroke-linecap:butt;stroke-linejoin:miter;stroke:rgb(24.313725%,71.372549%,65.098039%);stroke-opacity:1;stroke-miterlimit:10;" d="M 182.140486 218.529227 L 182.140486 241.978185 L 158.391878 241.978185 " transform="matrix(0.94068,0,0,0.942539,0,0.0627957)"/>
<path style="fill:none;stroke-width:3;stroke-linecap:butt;stroke-linejoin:miter;stroke:rgb(24.313725%,71.372549%,65.098039%);stroke-opacity:1;stroke-miterlimit:10;" d="M 140.46934 241.978185 L 113.838842 241.978185 L 113.838842 218.578959 " transform="matrix(0.94068,0,0,0.942539,0,0.0627957)"/>
<path style="fill:none;stroke-width:3;stroke-linecap:butt;stroke-linejoin:miter;stroke:rgb(24.313725%,71.372549%,65.098039%);stroke-opacity:1;stroke-miterlimit:10;" d="M 113.880367 200.281477 L 113.880367 174.640136 L 134.568523 174.640136 " transform="matrix(0.94068,0,0,0.942539,0,0.0627957)"/>
<path style="fill:none;stroke-width:3;stroke-linecap:butt;stroke-linejoin:miter;stroke:rgb(24.313725%,71.372549%,65.098039%);stroke-opacity:1;stroke-miterlimit:10;" d="M 158.699169 241.961608 L 156.701777 241.978185 C 156.070585 241.978185 155.439393 241.741955 154.961846 241.261206 C 154.430316 240.730724 154.189466 240.0096 154.251755 239.321631 L 156.859576 230.121085 C 156.859576 225.931107 153.458612 222.540996 149.281116 222.540996 C 145.099468 222.540996 141.698504 225.939396 141.698504 230.121085 " transform="matrix(0.94068,0,0,0.942539,0,0.0627957)"/>
<path style="fill:none;stroke-width:3;stroke-linecap:butt;stroke-linejoin:miter;stroke:rgb(24.313725%,71.372549%,65.098039%);stroke-opacity:1;stroke-miterlimit:10;" d="M 139.879674 241.940886 L 141.881218 241.961608 C 142.508257 241.961608 143.13945 241.721233 143.621149 241.240484 C 144.148527 240.710002 144.389376 239.988878 144.33124 239.300909 L 141.719267 230.100363 " transform="matrix(0.94068,0,0,0.942539,0,0.0627957)"/>
</g>
</svg>
