<?xml version="1.0" encoding="utf-8"?>
<!-- Generator: Adobe Illustrator 24.0.0, SVG Export Plug-In . SVG Version: 6.00 Build 0)  -->
<svg version="1.1" xmlns="http://www.w3.org/2000/svg" xmlns:xlink="http://www.w3.org/1999/xlink" x="0px" y="0px"
	 viewBox="0 0 536.17 376.85" style="enable-background:new 0 0 536.17 376.85;" xml:space="preserve">
<style type="text/css">
	.st0{opacity:0.15;fill:#3EB6A6;}
	.st1{fill:#3EB6A6;}
	.st2{opacity:0.3;}
	.st3{fill:#FFFFFF;stroke:#3EB6A6;stroke-width:3;stroke-miterlimit:10;}
	.st4{fill:#93539C;}
	.st5{fill:#FFFFFF;stroke:#93539C;stroke-width:7;stroke-miterlimit:10;}
	.st6{fill:none;stroke:#000000;stroke-width:10;stroke-miterlimit:10;}
	.st7{fill:#FFFFFF;}
	.st8{fill:#FFFFFF;stroke:#3EB6A6;stroke-width:3;stroke-linecap:round;stroke-miterlimit:10;}
	.st9{fill:#FFFFFF;stroke:#93539C;stroke-width:3;stroke-miterlimit:10;}
	.st10{fill:none;stroke:#3EB6A6;stroke-width:3;stroke-miterlimit:10;}
	.st11{fill:none;stroke:#93539C;stroke-width:3;stroke-miterlimit:10;}
	.st12{fill:#FFFFFF;stroke:#93539C;stroke-width:2;stroke-miterlimit:10;}
	.st13{fill-rule:evenodd;clip-rule:evenodd;fill:#FFFFFF;stroke:#3EB6A6;stroke-width:3;stroke-miterlimit:10;}
	.st14{fill:none;stroke:#93539C;stroke-width:0.5;stroke-miterlimit:10;}
	.st15{fill:none;stroke:#93539C;stroke-width:0.25;stroke-linecap:round;stroke-linejoin:round;stroke-miterlimit:10;}
	.st16{fill:none;stroke:#93539C;stroke-width:0.5;stroke-linecap:round;stroke-linejoin:round;stroke-miterlimit:10;}
	.st17{fill:none;stroke:#000000;stroke-width:0.5;stroke-miterlimit:10;}
	.st18{fill:#FFFFFF;stroke:#3EB6A6;stroke-width:2;stroke-miterlimit:10;}
	.st19{fill:none;stroke:#93539C;stroke-width:2;stroke-linecap:round;stroke-miterlimit:10;}
	.st20{fill:none;stroke:#93539C;stroke-width:3;stroke-linecap:round;stroke-miterlimit:10;}
	.st21{fill:#FFFFFF;stroke:#3EB6A6;stroke-miterlimit:10;}
	.st22{fill:none;stroke:#93539C;stroke-linecap:round;stroke-miterlimit:10;}
	.st23{fill:none;stroke:#3EB6A6;stroke-miterlimit:10;}
	.st24{fill:none;stroke:#FFFFFF;stroke-width:3;stroke-miterlimit:10;}
	.st25{opacity:0.35;fill:#FFFFFF;stroke:#93539C;stroke-width:2;stroke-miterlimit:10;}
	.st26{fill:none;stroke:#93539C;stroke-width:2;stroke-miterlimit:10;}
	.st27{fill:#E1F1F0;}
	.st28{fill:#010202;}
	.st29{fill:none;}
	.st30{fill:#1A1533;}
	.st31{fill:#FFFFFF;stroke:#010202;stroke-miterlimit:10;}
	.st32{fill:none;stroke:#010202;stroke-miterlimit:10;}
	.st33{fill:none;stroke:#3EB6A6;stroke-width:2;stroke-miterlimit:10;}
	.st34{fill:none;stroke:#34B4A4;stroke-width:0.75;stroke-miterlimit:10;}
	.st35{fill:#FFFFFF;stroke:#000000;stroke-width:3;stroke-miterlimit:10;}
	.st36{fill:none;stroke:#000000;stroke-miterlimit:10;}
	.st37{fill:#3EB6A6;stroke:#010202;stroke-miterlimit:10;}
	.st38{fill:#93539C;stroke:#E9DCEB;stroke-miterlimit:10;}
	.st39{fill:#E9DCEB;}
	.st40{fill:none;stroke:#93539C;stroke-miterlimit:10;}
	.st41{fill:none;stroke:#000000;stroke-width:3;stroke-miterlimit:10;}
	.st42{stroke:#000000;stroke-miterlimit:10;}
	.st43{fill:none;stroke:#010202;stroke-width:3;stroke-miterlimit:10;}
	.st44{fill:none;stroke:#93539C;stroke-width:5;stroke-miterlimit:10;}
	.st45{fill:none;stroke:#3EB6A6;stroke-width:7;stroke-miterlimit:10;}
	.st46{fill:none;stroke:#93539C;stroke-width:4;stroke-miterlimit:10;}
	.st47{fill:none;stroke:#3EB6A6;stroke-width:5;stroke-miterlimit:10;}
	.st48{fill:#FFFFFF;stroke:#000000;stroke-miterlimit:10;}
	.st49{fill:#FFFFFF;stroke:#000000;stroke-width:2;stroke-miterlimit:10;}
	.st50{fill:#FFFFFF;stroke:#93539C;stroke-miterlimit:10;}
	.st51{fill:#FFFFFF;stroke:#3EB6A6;stroke-width:0.5;stroke-miterlimit:10;}
	.st52{fill:#FFFFFF;stroke:#93539C;stroke-linecap:round;stroke-miterlimit:10;}
	.st53{fill:none;stroke:#3EB6A6;stroke-width:0.25;stroke-miterlimit:10;}
	.st54{fill:#E1F1F0;stroke:#010202;stroke-miterlimit:10;}
	.st55{fill:none;stroke:#000000;stroke-linecap:round;stroke-miterlimit:10;}
	.st56{fill:#FFFFFF;stroke:#000000;stroke-width:0.75;stroke-miterlimit:10;}
	.st57{fill:#FFFFFF;stroke:#000000;stroke-width:0.5;stroke-miterlimit:10;}
	.st58{fill:#FFFFFF;stroke:#000000;stroke-linecap:round;stroke-linejoin:round;stroke-miterlimit:10;}
</style>
<g id="Capa_5">
	<g>
		<rect x="447.57" y="178.49" class="st7" width="19.26" height="31.12"/>
		<polygon class="st1" points="425.44,177.41 447.44,173.46 450.49,173.46 450.49,214.92 447.57,214.92 425.44,211.01 		"/>
		<path class="st1" d="M449.73,178.87h16.66v30.35h-16.66v1.47h15.83c0,0,2.23,0.43,2.23-2.28c0-2.71,0-28.58,0-28.58
			s0.32-2.42-2.1-2.42s-16.47,0-16.47,0L449.73,178.87z"/>
		<rect x="456.47" y="181.86" class="st1" width="6.61" height="3.24"/>
		<rect x="456.47" y="186.96" class="st1" width="6.61" height="3.24"/>
		<rect x="456.47" y="192.44" class="st1" width="6.61" height="3.24"/>
		<rect x="456.47" y="197.54" class="st1" width="6.61" height="3.24"/>
		<rect x="456.47" y="203.02" class="st1" width="6.61" height="3.24"/>
		<rect x="447.57" y="181.86" class="st1" width="6.61" height="3.24"/>
		<rect x="447.57" y="186.96" class="st1" width="6.61" height="3.24"/>
		<rect x="447.57" y="192.44" class="st1" width="6.61" height="3.24"/>
		<rect x="447.57" y="197.54" class="st1" width="6.61" height="3.24"/>
		<rect x="447.57" y="203.02" class="st1" width="6.61" height="3.24"/>
		<polygon class="st7" points="431.95,186.62 435.19,186.48 437.25,191.96 439.68,186.22 442.95,186.01 439.13,193.89 
			443.03,201.97 439.58,201.84 437.08,195.88 434.94,201.42 431.65,201.33 435.34,193.99 		"/>
	</g>
	<path class="st26" d="M420.27,130.88c-9.68,0-9.3,0-9.3,0s-7.34,0.89-7.34,8.56c0,7.67,0,9.41,0,9.41"/>
	<path class="st26" d="M116.6,144.55v18.59c0,0-1.48,8.56,7.08,8.56s25.08,0,25.08,0s6.49,0.89,6.49,8.56s0,7.67,0,7.67
		s0,5.9,5.9,5.9s7.67,0,7.67,0"/>
	<path class="st26" d="M102.73,200.62c8.56,0,25.08,0,25.08,0s6.49,0.89,6.49,8.56c0,7.67,0,30.21,0,30.21s0,5.9,5.9,5.9
		s28.48,0,28.48,0"/>
	<path class="st26" d="M114.15,280.37c8.56,0,34.62,0,34.62,0s6.49-1.02,6.49-9.81c0-8.8,0-30.47,0-30.47s0-6.77,5.9-6.77
		s7.67,0,7.67,0"/>
	<line class="st26" x1="168.84" y1="267.02" x2="135.71" y2="267.02"/>
	<path class="st26" d="M154.96,124.61v18.59c0,0-1.48,8.56,7.08,8.56c8.56,0,20.75,0,20.75,0s6.49,0.89,6.49,8.56s0,19.81,0,19.81"
		/>
	<line class="st26" x1="212.52" y1="180.6" x2="212.52" y2="156.97"/>
	<line class="st26" x1="275.67" y1="180.6" x2="275.67" y2="163.75"/>
	<line class="st26" x1="332.33" y1="180.26" x2="332.33" y2="135.4"/>
	<line class="st26" x1="361.25" y1="280.37" x2="410.24" y2="280.37"/>
	<path class="st26" d="M200.29,77.56v32.46c0,0-1.48,8.56,7.08,8.56s39.82,0,39.82,0s6.49,0.89,6.49,8.56s0,53.62,0,53.62"/>
	<path class="st26" d="M271.51,104.44v28.99c0,0,1.53,8.56-7.36,8.56c-8.89,0-20.57,0-20.57,0s-6.75,0.89-6.75,8.56s0,30.21,0,30.21
		"/>
	<path class="st26" d="M362.86,107.04v42c0,0,1.86,8.56-8.92,8.56s-51.21,0-51.21,0s-8.18,0.89-8.18,8.56c0,7.67,0,14.61,0,14.61"/>
	<path class="st26" d="M291.31,130.68v8.19c0,0-1.48,8.56,7.08,8.56c8.56,0,6.88,0,6.88,0s6.49,0.89,6.49,8.56
		c0,7.67,0,24.14,0,24.14"/>
	<path class="st26" d="M425.44,194.19c-9.68,0-9.3,0-9.3,0s-7.34,0.89-7.34,8.56c0,7.67,0,9.41,0,9.41s0,5.9-6.67,5.9
		s-40.87,0-40.87,0"/>
	<path class="st26" d="M404.64,233.32c-9.68,0-13.63,0-13.63,0s-7.34-0.83-7.34-8.04c0-7.21,0-22.68,0-22.68s0-5.54-6.67-5.54
		c-6.67,0-15.73,0-15.73,0"/>
	<path class="st26" d="M388,247.7c-5,0-11.38,0-11.38,0s-3.79-0.43-3.79-4.15c0-3.72,0-11.72,0-11.72s0-2.86-3.45-2.86
		c-3.45,0-8.13,0-8.13,0"/>
	<path class="st26" d="M430.64,262.49c-9.68,0-49.17,0-49.17,0s-7.34,0.89-7.34,8.56c0,7.67,0,12.87,0,12.87s0,5.9-6.67,5.9
		c-6.67,0-6.2,0-6.2,0"/>
	<circle class="st18" cx="132.51" cy="267.02" r="3.43"/>
	<circle class="st18" cx="116.71" cy="141.13" r="3.43"/>
	<circle class="st18" cx="332.33" cy="132.11" r="3.43"/>
	<circle class="st18" cx="291.21" cy="127.13" r="3.43"/>
	<circle class="st18" cx="275.67" cy="161.05" r="3.43"/>
	<circle class="st18" cx="212.19" cy="154.03" r="3.43"/>
	<circle class="st18" cx="413.67" cy="280.45" r="3.43"/>
	<circle class="st18" cx="391.87" cy="247.7" r="3.43"/>
	<path class="st18" d="M72.38,181.57c0,0,4.37,0.49,4.37-2.68c0-3.4,0.93-3.65,3.95-3.65c4.66,0,23.42,0,23.42,0
		s1.41-0.03,1.41,1.96c0,2.4,0,7.19,0,7.19"/>
	<path class="st18" d="M100.51,226.01H41.43c-2.77,0-5.02-2.25-5.02-5.02v-34.4c0-2.77,2.25-5.02,5.02-5.02h59.08
		c2.77,0,5.02,2.25,5.02,5.02v34.4C105.53,223.76,103.29,226.01,100.51,226.01z"/>
	<rect x="269.05" y="227.87" class="st18" width="43.38" height="5.26"/>
	<g>
		<rect x="107.58" y="83.96" class="st18" width="81.71" height="46.15"/>
		<path class="st18" d="M177.01,125.97l-0.17,1.23h-56.77l-0.14-1.09c-0.54-4.1-3.44-7.5-7.41-8.66l-1.3-0.38V96.42l1.26-0.35
			c3.82-1.05,6.71-4.16,7.47-8.05l0.23-1.15h56.67l0.15,0.88c0.71,4.2,3.9,7.56,8.07,8.46l0.94,0.2v20.55l-1.4,0.38
			C180.57,118.45,177.59,121.84,177.01,125.97z"/>
		<circle class="st18" cx="148.6" cy="106.92" r="12.85"/>
	</g>
	<rect x="70.97" y="260.48" class="st7" width="45.54" height="42"/>
	<ellipse class="st7" cx="93.74" cy="287.28" rx="22.77" ry="7.23"/>
	<ellipse class="st7" cx="93.74" cy="273.61" rx="22.77" ry="7.23"/>
	<ellipse class="st18" cx="93.74" cy="259.94" rx="22.77" ry="7.23"/>
	<path class="st18" d="M116.51,300.95c0,3.99-10.19,7.23-22.77,7.23s-22.77-3.24-22.77-7.23"/>
	<path class="st18" d="M116.51,287.28c0,3.99-10.19,7.23-22.77,7.23s-22.77-3.24-22.77-7.23"/>
	<path class="st18" d="M116.51,273.61c0,3.99-10.19,7.23-22.77,7.23s-22.77-3.24-22.77-7.23"/>
	<line class="st18" x1="116.51" y1="259.94" x2="116.51" y2="300.95"/>
	<line class="st18" x1="70.97" y1="259.94" x2="70.97" y2="300.95"/>
	<g>
		<path class="st18" d="M421.02,138.87v-8.47c0-4.52,3.3-8.18,7.37-8.18h0c4.07,0,7.37,3.66,7.37,8.18v8.62"/>
		<path class="st18" d="M436.03,138.87v-8.47c0-4.52,3.3-8.18,7.37-8.18h0c4.07,0,7.37,3.66,7.37,8.18v8.62"/>
		<path class="st18" d="M451.04,138.87v-8.47c0-4.52,3.3-8.18,7.37-8.18l0,0c4.07,0,7.37,3.66,7.37,8.18v8.62"/>
		<circle class="st18" cx="428.17" cy="114.18" r="5.38"/>
		<circle class="st18" cx="443.4" cy="114.18" r="5.38"/>
		<circle class="st18" cx="458.4" cy="114.18" r="5.38"/>
	</g>
	<g>
		<path class="st18" d="M247.86,73.13c2.82-10.12,12.25-17.79,23.27-17.79c13.26,0,24.02,11.22,24.02,24.49"/>
		<path class="st18" d="M248.25,72.79c-8.92,0-16.65,7.06-16.65,15.98s7.23,16.16,16.16,16.16h58.24"/>
		<path class="st18" d="M294.84,79.43c4.98,1.45,9.2,5.91,10.6,10.91"/>
		<path class="st18" d="M305.05,89.99c4.12,0,7.85,3.34,7.85,7.46c0,4.12-2.79,7.48-6.91,7.48"/>
	</g>
	<polygon class="st7" points="337.25,91.84 348.18,85.87 390.08,111.29 336.25,121.73 	"/>
	<polygon class="st7" points="388.61,93.88 378.67,87.92 340.55,113.33 389.52,123.77 	"/>
	<g>
		<polyline class="st33" points="390.08,94.92 362.77,77 335.88,94.92 		"/>
		<rect x="336.44" y="94.92" class="st33" width="53.07" height="28.99"/>
		<polyline class="st18" points="344.07,99.12 344.07,73.5 381.68,73.5 381.68,98.74 		"/>
		<polyline class="st33" points="389.52,94.92 362.77,109.42 336.44,94.92 		"/>
		<polyline class="st18" points="336.44,123.91 362.98,105.84 390.08,123.91 		"/>
		<line class="st33" x1="389.52" y1="123.91" x2="336.44" y2="123.91"/>
		<g>
			<g>
				<path class="st1" d="M368.62,95.51c-1.31,0.78-3.03,1.39-5.82,1.39c-4.95,0-9.02-3.3-9.02-8.93c0-5.34,3.88-9.58,9.84-9.58
					c4.79,0,8.6,2.98,8.6,7.59c0,3.99-2.36,6.32-5.41,6.32c-1.32,0-2.17-0.57-2.3-1.55c-0.7,0.96-1.54,1.55-3.05,1.55
					c-1.83,0-3.09-1.4-3.09-3.73c0-3.32,2.06-5.8,4.53-5.8c1.52,0,2.11,0.75,2.33,1.4l0.28-1.19h2.29l-1.15,5.65
					c-0.24,1.35,0.09,1.76,0.82,1.76c1.61,0,2.57-1.8,2.57-4.37c0-3.46-2.56-5.74-6.54-5.74c-4.52,0-7.4,3.17-7.4,7.77
					c0,4.34,2.91,6.87,6.94,6.87c2.54,0,4-0.52,5.1-1.08L368.62,95.51z M360.85,88.54c0,1.27,0.5,1.9,1.37,1.9
					c1.14,0,1.98-1.12,2.3-2.93c0.29-1.6,0.16-2.92-1.27-2.92C361.67,84.58,360.85,86.68,360.85,88.54z"/>
			</g>
		</g>
	</g>
	<polygon class="st18" points="499.76,249.98 427.81,249.98 427.81,285.68 464.7,285.68 	"/>
	<path class="st1" d="M428.48,277.27c0,0,2.14-4.5,2.14-4.5c1.88,1.34,4.81,2.07,7.08,1.64c0.55-0.11,1.1-0.36,1.44-0.81
		c0.34-0.45,0.43-1.11,0.12-1.58c-0.23-0.35-0.62-0.55-1-0.72c-1.8-0.82-3.71-1.31-5.58-1.92c-2.51-0.81-5.16-4.35-4.21-8.12
		c0.96-3.76,5.53-5.61,10.11-5.24c4.55,0.37,6.98,1.97,7.01,1.99c0.03,0.02-2.31,3.87-2.51,4.21c-0.83-0.28-1.67-0.62-2.52-0.83
		c-1.64-0.4-3.39-0.63-5.01-0.08c-0.43,0.15-0.89,0.39-1.04,0.82c-0.12,0.34-0.01,0.73,0.2,1.02c0.58,0.82,1.68,1.26,2.62,1.5
		c2.95,0.74,7.53,2.07,8.26,5.98c2.43-6.12,5.39-14.09,5.39-14.09h6.64l5.83,16.53v-16.75h8.48c0,0,4.94-0.3,7.45,2.8
		c2.72,3.36,1.6,9.26-1.9,11.59c-2.39,1.6-5.26,1.19-7.99,1.32v6.94h-10.7l-0.96-3.1c0,0-5.39,0.89-7.38,0.07
		c-0.44,1.55-1.03,3.02-1.03,3.02h-6.79l0.59-1.7c0,0-1.84,2.14-6.49,2.29S428.48,277.27,428.48,277.27z"/>
	<path class="st7" d="M451.86,270.71l2.29-7.23l2.29,7.23C456.44,270.71,453.34,271.22,451.86,270.71z"/>
	<path class="st7" d="M469.65,267.21v-5.94h2.43c0,0,2.8,0.11,2.8,2.97c0,2.86-2.62,2.97-2.62,2.97H469.65z"/>
	<circle class="st34" cx="474.88" cy="283.77" r="2.43"/>
	<g>
		<g>
			<path class="st1" d="M474.19,283.78v1.41h-0.25v-3.03h1.09c0.6,0,0.92,0.32,0.92,0.8c0,0.39-0.23,0.64-0.56,0.71
				c0.31,0.07,0.52,0.28,0.52,0.79v0.12c0,0.21-0.02,0.5,0.04,0.61h-0.25c-0.06-0.13-0.04-0.37-0.04-0.63v-0.08
				c0-0.49-0.15-0.7-0.72-0.7H474.19z M474.19,283.55h0.73c0.53,0,0.77-0.2,0.77-0.59c0-0.37-0.24-0.58-0.71-0.58h-0.79V283.55z"/>
		</g>
	</g>
	<circle class="st33" cx="200.66" cy="75.14" r="3.43"/>
	<path class="st26" d="M403.62,139.66v15.99c0,0,0.67,8.56-8.23,8.56s-42.25,0-42.25,0s-6.75,0.89-6.75,8.56c0,7.67,0,8.54,0,8.54"
		/>
	<circle class="st18" cx="408.06" cy="233.92" r="3.43"/>
	<g>
		<path class="st35" d="M361.25,299.19H168.84V187.41c0-3.95,3.2-7.15,7.15-7.15H354.1c3.95,0,7.15,3.2,7.15,7.15V299.19z"/>
		<rect x="176.73" y="190.44" class="st35" width="177.07" height="99.38"/>
		<path class="st35" d="M362.84,312.73H167.25c-1.08,0-3.69-0.88-3.69-1.96l-5.2-9.63c0-1.08,0.88-1.96,1.96-1.96h209.46
			c1.08,0,1.96,0.88,1.96,1.96l-5.2,9.63C366.53,311.85,363.92,312.73,362.84,312.73z"/>
	</g>
	<g>
		<line class="st36" x1="243.58" y1="303.77" x2="290.28" y2="303.77"/>
		<circle class="st36" cx="170.6" cy="304.2" r="1.76"/>
		<circle class="st36" cx="179.27" cy="304.2" r="1.76"/>
		<circle class="st36" cx="265.27" cy="185.6" r="1.76"/>
		<g>
			<line class="st23" x1="187.57" y1="198.45" x2="307.62" y2="198.45"/>
			<line class="st23" x1="187.57" y1="203.68" x2="332.82" y2="203.68"/>
			<line class="st23" x1="277.19" y1="213.86" x2="304.29" y2="213.86"/>
			<line class="st23" x1="277.19" y1="220.84" x2="342" y2="220.84"/>
			<line class="st23" x1="277.19" y1="232.01" x2="342" y2="232.01"/>
			<line class="st23" x1="277.19" y1="247.14" x2="342" y2="247.14"/>
			<line class="st23" x1="277.19" y1="257.83" x2="342" y2="257.83"/>
			<line class="st23" x1="326.64" y1="213.86" x2="342" y2="213.86"/>
			<line class="st23" x1="307.44" y1="213.86" x2="319.65" y2="213.86"/>
			<line class="st23" x1="277.19" y1="241.79" x2="308.48" y2="241.79"/>
			<line class="st23" x1="326.64" y1="241.79" x2="342" y2="241.79"/>
			<line class="st23" x1="311.63" y1="241.79" x2="322.45" y2="241.79"/>
			<line class="st23" x1="277.19" y1="226.42" x2="284.74" y2="226.42"/>
			<line class="st23" x1="330.83" y1="226.42" x2="342" y2="226.42"/>
			<line class="st23" x1="287.89" y1="226.42" x2="326.64" y2="226.42"/>
			<line class="st23" x1="277.19" y1="252.48" x2="283.34" y2="252.48"/>
			<line class="st23" x1="330.83" y1="252.48" x2="342" y2="252.48"/>
			<line class="st23" x1="286.49" y1="252.48" x2="326.64" y2="252.48"/>
		</g>
		<polygon class="st4" points="186.64,286.12 186.64,255.07 201.08,276.28 214.42,272.3 229.7,280.44 254.84,268.32 269.56,283.28 
			281.92,279.87 290.54,283.47 301.93,281.77 316.65,285.36 331.91,283.66 342.31,286.12 		"/>
		<circle class="st1" cx="203.22" cy="230.75" r="16.23"/>
		<circle class="st1" cx="246.95" cy="230.5" r="16.23"/>
		<path class="st4" d="M203.22,230.75v16.23c5.47,0,10.3-2.7,13.24-6.84"/>
		<path class="st4" d="M203.23,230.75l11.47-11.47c-3.38-3.38-7.89-4.96-12.31-4.73"/>
		<path class="st4" d="M246.95,230.51l-16.2-0.94c-0.32,5.46,2.1,10.44,6.07,13.61"/>
		<path class="st4" d="M246.95,230.5l-15.98,2.79c0.94,5.38,4.43,9.68,9.02,11.87"/>
		<path class="st4" d="M246.95,230.49l15.72,4.03c1.36-5.29-0.06-10.65-3.34-14.53"/>
		<circle class="st7" cx="203.22" cy="230.75" r="8.86"/>
		<circle class="st7" cx="246.95" cy="230.75" r="8.86"/>
	</g>
	<polygon class="st7" points="248.4,75.64 249.85,71.14 280.32,76.75 285.19,92.83 261.51,92.83 	"/>
</g>
<g id="integracion">
</g>
</svg>
