<?xml version="1.0" encoding="utf-8"?>
<!-- Generator: Adobe Illustrator 24.0.0, SVG Export Plug-In . SVG Version: 6.00 Build 0)  -->
<svg version="1.1" xmlns="http://www.w3.org/2000/svg" xmlns:xlink="http://www.w3.org/1999/xlink" x="0px" y="0px"
	 viewBox="0 0 312.51 280.44" style="enable-background:new 0 0 312.51 280.44;" xml:space="preserve">
<style type="text/css">
	.st0{opacity:0.15;fill:#3EB6A6;}
	.st1{fill:#3EB6A6;}
	.st2{opacity:0.3;}
	.st3{fill:#FFFFFF;stroke:#3EB6A6;stroke-width:3;stroke-miterlimit:10;}
	.st4{fill:#93539C;}
	.st5{fill:#FFFFFF;stroke:#93539C;stroke-width:7;stroke-miterlimit:10;}
	.st6{fill:none;stroke:#000000;stroke-width:10;stroke-miterlimit:10;}
	.st7{fill:#FFFFFF;}
	.st8{fill:#FFFFFF;stroke:#3EB6A6;stroke-width:3;stroke-linecap:round;stroke-miterlimit:10;}
	.st9{fill:#FFFFFF;stroke:#93539C;stroke-width:3;stroke-miterlimit:10;}
	.st10{fill:none;stroke:#3EB6A6;stroke-width:3;stroke-miterlimit:10;}
	.st11{fill:none;stroke:#93539C;stroke-width:3;stroke-miterlimit:10;}
	.st12{fill:#FFFFFF;stroke:#93539C;stroke-width:2;stroke-miterlimit:10;}
	.st13{fill-rule:evenodd;clip-rule:evenodd;fill:#FFFFFF;stroke:#3EB6A6;stroke-width:3;stroke-miterlimit:10;}
	.st14{fill:none;stroke:#93539C;stroke-width:0.5;stroke-miterlimit:10;}
	.st15{fill:none;stroke:#93539C;stroke-width:0.25;stroke-linecap:round;stroke-linejoin:round;stroke-miterlimit:10;}
	.st16{fill:none;stroke:#93539C;stroke-width:0.5;stroke-linecap:round;stroke-linejoin:round;stroke-miterlimit:10;}
	.st17{fill:none;stroke:#000000;stroke-width:0.5;stroke-miterlimit:10;}
	.st18{fill:#FFFFFF;stroke:#3EB6A6;stroke-width:2;stroke-miterlimit:10;}
	.st19{fill:none;stroke:#93539C;stroke-width:2;stroke-linecap:round;stroke-miterlimit:10;}
	.st20{fill:none;stroke:#93539C;stroke-width:3;stroke-linecap:round;stroke-miterlimit:10;}
	.st21{fill:#FFFFFF;stroke:#3EB6A6;stroke-miterlimit:10;}
	.st22{fill:none;stroke:#93539C;stroke-linecap:round;stroke-miterlimit:10;}
	.st23{fill:none;stroke:#3EB6A6;stroke-miterlimit:10;}
	.st24{fill:none;stroke:#FFFFFF;stroke-width:3;stroke-miterlimit:10;}
	.st25{opacity:0.35;fill:#FFFFFF;stroke:#93539C;stroke-width:2;stroke-miterlimit:10;}
	.st26{fill:none;stroke:#93539C;stroke-width:2;stroke-miterlimit:10;}
	.st27{fill:#E1F1F0;}
	.st28{fill:#010202;}
	.st29{fill:none;}
	.st30{fill:#1A1533;}
	.st31{fill:#FFFFFF;stroke:#010202;stroke-miterlimit:10;}
	.st32{fill:none;stroke:#010202;stroke-miterlimit:10;}
	.st33{fill:none;stroke:#3EB6A6;stroke-width:2;stroke-miterlimit:10;}
	.st34{fill:none;stroke:#34B4A4;stroke-width:0.75;stroke-miterlimit:10;}
	.st35{fill:#FFFFFF;stroke:#000000;stroke-width:3;stroke-miterlimit:10;}
	.st36{fill:none;stroke:#000000;stroke-miterlimit:10;}
	.st37{fill:#3EB6A6;stroke:#010202;stroke-miterlimit:10;}
	.st38{fill:#93539C;stroke:#E9DCEB;stroke-miterlimit:10;}
	.st39{fill:#E9DCEB;}
	.st40{fill:none;stroke:#93539C;stroke-miterlimit:10;}
	.st41{fill:none;stroke:#000000;stroke-width:3;stroke-miterlimit:10;}
	.st42{stroke:#000000;stroke-miterlimit:10;}
	.st43{fill:none;stroke:#010202;stroke-width:3;stroke-miterlimit:10;}
	.st44{fill:none;stroke:#93539C;stroke-width:5;stroke-miterlimit:10;}
	.st45{fill:none;stroke:#3EB6A6;stroke-width:7;stroke-miterlimit:10;}
	.st46{fill:none;stroke:#93539C;stroke-width:4;stroke-miterlimit:10;}
	.st47{fill:none;stroke:#3EB6A6;stroke-width:5;stroke-miterlimit:10;}
	.st48{fill:#FFFFFF;stroke:#000000;stroke-miterlimit:10;}
	.st49{fill:#FFFFFF;stroke:#000000;stroke-width:2;stroke-miterlimit:10;}
	.st50{fill:#FFFFFF;stroke:#93539C;stroke-miterlimit:10;}
	.st51{fill:#FFFFFF;stroke:#3EB6A6;stroke-width:0.5;stroke-miterlimit:10;}
	.st52{fill:#FFFFFF;stroke:#93539C;stroke-linecap:round;stroke-miterlimit:10;}
	.st53{fill:none;stroke:#3EB6A6;stroke-width:0.25;stroke-miterlimit:10;}
	.st54{fill:#E1F1F0;stroke:#010202;stroke-miterlimit:10;}
	.st55{fill:none;stroke:#000000;stroke-linecap:round;stroke-miterlimit:10;}
	.st56{fill:#FFFFFF;stroke:#000000;stroke-width:0.75;stroke-miterlimit:10;}
	.st57{fill:#FFFFFF;stroke:#000000;stroke-width:0.5;stroke-miterlimit:10;}
	.st58{fill:#FFFFFF;stroke:#000000;stroke-linecap:round;stroke-linejoin:round;stroke-miterlimit:10;}
</style>
<g id="Capa_5">
	<path class="st0" d="M36.02,136.21c-3.99-7.45-7.5-17.39-1.79-23.62c4.73-5.16,13.48-4.68,18.38-9.67
		c4.05-4.13,4.2-10.6,6.54-15.89c3.95-8.92,14-13.76,23.7-14.73s19.41,1.16,29.09,2.33c5.78,0.7,11.93,1,17.12-1.63
		c7.99-4.04,11.22-13.48,15.26-21.47s11.85-16.15,20.51-13.89c6.64,1.73,10.29,8.91,11.74,15.61s1.63,13.89,5.03,19.85
		c3.1,5.45,8.96,9.36,15.22,9.7s12.69-3.08,15.55-8.66c1.57-3.06,2.07-6.58,3.64-9.64c4.68-9.09,19.45-10.37,25.62-2.22
		c5.13,6.78,4.31,17.36,10.93,22.7c3.04,2.45,7.08,3.24,10.53,5.08c6.41,3.42,10.4,10.44,11.39,17.63
		c0.99,7.2-0.73,14.54-3.54,21.24c-2.25,5.36-5.24,10.54-6.11,16.29c-0.88,5.75,1.03,12.48,6.25,15.06
		c2.04,1.01,4.37,1.28,6.47,2.18c7.85,3.34,9.57,14.67,5.16,21.97s-12.87,11.13-21.14,13.2s-16.92,2.86-24.8,6.13
		c-11.42,4.75-21.15,14.65-33.51,15.09c-13.9,0.49-25.44-11.23-39.21-13.17c-16.62-2.34-31.42,9.73-47.34,15.05
		c-9.05,3.03-20,3.52-27.21-2.73c-5.52-4.78-7.68-12.51-12.99-17.53c-4.82-4.56-11.56-6.3-17.94-8.12
		c-6.61-1.88-12.45-4.24-17.18-9.34c-1.92-2.07-4.06-3.8-4.21-6.68c-0.17-3.44,2.24-7.32,3.02-10.64
		C42.36,156.53,40.4,144.38,36.02,136.21z"/>
	<g>
		<line class="st10" x1="234.63" y1="211.93" x2="73.54" y2="50.84"/>
		<line class="st10" x1="234.63" y1="50.84" x2="73.54" y2="211.93"/>
	</g>
	<g>
		<rect x="122.88" y="102.71" class="st7" width="65.27" height="60.21"/>
		<ellipse class="st7" cx="155.52" cy="141.13" rx="32.63" ry="10.36"/>
		<ellipse class="st7" cx="155.52" cy="121.53" rx="32.63" ry="10.36"/>
		<ellipse class="st9" cx="155.52" cy="101.94" rx="32.63" ry="10.36"/>
		<path class="st9" d="M188.15,160.72c0,5.72-14.61,10.36-32.63,10.36s-32.63-4.64-32.63-10.36"/>
		<path class="st9" d="M188.15,141.13c0,5.72-14.61,10.36-32.63,10.36s-32.63-4.64-32.63-10.36"/>
		<path class="st9" d="M188.15,121.53c0,5.72-14.61,10.36-32.63,10.36s-32.63-4.64-32.63-10.36"/>
		<line class="st9" x1="122.88" y1="101.94" x2="122.88" y2="160.72"/>
		<line class="st9" x1="188.15" y1="101.94" x2="188.15" y2="160.72"/>
	</g>
	<g>
		<rect x="225.29" y="178.87" class="st7" width="43.27" height="39.91"/>
		<ellipse class="st7" cx="246.92" cy="204.33" rx="21.63" ry="6.87"/>
		<ellipse class="st7" cx="246.92" cy="191.34" rx="21.63" ry="6.87"/>
		<ellipse class="st3" cx="246.92" cy="178.35" rx="21.63" ry="6.87"/>
		<path class="st3" d="M268.56,217.32c0,3.79-9.69,6.87-21.63,6.87c-11.95,0-21.63-3.08-21.63-6.87"/>
		<path class="st3" d="M268.56,204.33c0,3.79-9.69,6.87-21.63,6.87c-11.95,0-21.63-3.08-21.63-6.87"/>
		<path class="st3" d="M268.56,191.34c0,3.79-9.69,6.87-21.63,6.87c-11.95,0-21.63-3.08-21.63-6.87"/>
		<line class="st3" x1="225.29" y1="178.35" x2="225.29" y2="217.32"/>
		<line class="st3" x1="268.56" y1="178.35" x2="268.56" y2="217.32"/>
	</g>
	<g>
		<rect x="225.29" y="46.26" class="st7" width="43.27" height="39.91"/>
		<ellipse class="st7" cx="246.92" cy="71.72" rx="21.63" ry="6.87"/>
		<ellipse class="st7" cx="246.92" cy="58.73" rx="21.63" ry="6.87"/>
		<ellipse class="st3" cx="246.92" cy="45.74" rx="21.63" ry="6.87"/>
		<path class="st3" d="M268.56,84.71c0,3.79-9.69,6.87-21.63,6.87c-11.95,0-21.63-3.08-21.63-6.87"/>
		<path class="st3" d="M268.56,71.72c0,3.79-9.69,6.87-21.63,6.87c-11.95,0-21.63-3.08-21.63-6.87"/>
		<path class="st3" d="M268.56,58.73c0,3.79-9.69,6.87-21.63,6.87c-11.95,0-21.63-3.08-21.63-6.87"/>
		<line class="st3" x1="225.29" y1="45.74" x2="225.29" y2="84.71"/>
		<line class="st3" x1="268.56" y1="45.74" x2="268.56" y2="84.71"/>
	</g>
	<g>
		<rect x="36.95" y="178.87" class="st7" width="43.27" height="39.91"/>
		<ellipse class="st7" cx="58.58" cy="204.33" rx="21.63" ry="6.87"/>
		<ellipse class="st7" cx="58.58" cy="191.34" rx="21.63" ry="6.87"/>
		<ellipse class="st3" cx="58.58" cy="178.35" rx="21.63" ry="6.87"/>
		<path class="st3" d="M80.22,217.32c0,3.79-9.69,6.87-21.63,6.87s-21.63-3.08-21.63-6.87"/>
		<path class="st3" d="M80.22,204.33c0,3.79-9.69,6.87-21.63,6.87s-21.63-3.08-21.63-6.87"/>
		<path class="st3" d="M80.22,191.34c0,3.79-9.69,6.87-21.63,6.87s-21.63-3.08-21.63-6.87"/>
		<line class="st3" x1="36.95" y1="178.35" x2="36.95" y2="217.32"/>
		<line class="st3" x1="80.22" y1="178.35" x2="80.22" y2="217.32"/>
	</g>
	<g>
		<rect x="36.95" y="46.26" class="st7" width="43.27" height="39.91"/>
		<ellipse class="st7" cx="58.58" cy="71.72" rx="21.63" ry="6.87"/>
		<ellipse class="st7" cx="58.58" cy="58.73" rx="21.63" ry="6.87"/>
		<ellipse class="st3" cx="58.58" cy="45.74" rx="21.63" ry="6.87"/>
		<path class="st3" d="M80.22,84.71c0,3.79-9.69,6.87-21.63,6.87s-21.63-3.08-21.63-6.87"/>
		<path class="st3" d="M80.22,71.72c0,3.79-9.69,6.87-21.63,6.87s-21.63-3.08-21.63-6.87"/>
		<path class="st3" d="M80.22,58.73c0,3.79-9.69,6.87-21.63,6.87s-21.63-3.08-21.63-6.87"/>
		<line class="st3" x1="36.95" y1="45.74" x2="36.95" y2="84.71"/>
		<line class="st3" x1="80.22" y1="45.74" x2="80.22" y2="84.71"/>
	</g>
</g>
<g id="integracion">
</g>
</svg>
