<?xml version="1.0" encoding="utf-8"?>
<!-- Generator: Adobe Illustrator 24.0.0, SVG Export Plug-In . SVG Version: 6.00 Build 0)  -->
<svg version="1.1" xmlns="http://www.w3.org/2000/svg" xmlns:xlink="http://www.w3.org/1999/xlink" x="0px" y="0px"
	 viewBox="0 0 350.81 344.68" style="enable-background:new 0 0 350.81 344.68;" xml:space="preserve">
<style type="text/css">
	.st0{opacity:0.15;fill:#3EB6A6;}
	.st1{fill:#3EB6A6;}
	.st2{opacity:0.3;}
	.st3{fill:#FFFFFF;stroke:#3EB6A6;stroke-width:3;stroke-miterlimit:10;}
	.st4{fill:#93539C;}
	.st5{fill:#FFFFFF;stroke:#93539C;stroke-width:7;stroke-miterlimit:10;}
	.st6{fill:none;stroke:#000000;stroke-width:10;stroke-miterlimit:10;}
	.st7{fill:#FFFFFF;}
	.st8{fill:#FFFFFF;stroke:#3EB6A6;stroke-width:3;stroke-linecap:round;stroke-miterlimit:10;}
	.st9{fill:#FFFFFF;stroke:#93539C;stroke-width:3;stroke-miterlimit:10;}
	.st10{fill:none;stroke:#3EB6A6;stroke-width:3;stroke-miterlimit:10;}
	.st11{fill:none;stroke:#93539C;stroke-width:3;stroke-miterlimit:10;}
	.st12{fill:#FFFFFF;stroke:#93539C;stroke-width:2;stroke-miterlimit:10;}
	.st13{fill-rule:evenodd;clip-rule:evenodd;fill:#FFFFFF;stroke:#3EB6A6;stroke-width:3;stroke-miterlimit:10;}
	.st14{fill:none;stroke:#93539C;stroke-width:0.5;stroke-miterlimit:10;}
	.st15{fill:none;stroke:#93539C;stroke-width:0.25;stroke-linecap:round;stroke-linejoin:round;stroke-miterlimit:10;}
	.st16{fill:none;stroke:#93539C;stroke-width:0.5;stroke-linecap:round;stroke-linejoin:round;stroke-miterlimit:10;}
	.st17{fill:none;stroke:#000000;stroke-width:0.5;stroke-miterlimit:10;}
	.st18{fill:#FFFFFF;stroke:#3EB6A6;stroke-width:2;stroke-miterlimit:10;}
	.st19{fill:none;stroke:#93539C;stroke-width:2;stroke-linecap:round;stroke-miterlimit:10;}
	.st20{fill:none;stroke:#93539C;stroke-width:3;stroke-linecap:round;stroke-miterlimit:10;}
	.st21{fill:#FFFFFF;stroke:#3EB6A6;stroke-miterlimit:10;}
	.st22{fill:none;stroke:#93539C;stroke-linecap:round;stroke-miterlimit:10;}
	.st23{fill:none;stroke:#3EB6A6;stroke-miterlimit:10;}
	.st24{fill:none;stroke:#FFFFFF;stroke-width:3;stroke-miterlimit:10;}
	.st25{opacity:0.35;fill:#FFFFFF;stroke:#93539C;stroke-width:2;stroke-miterlimit:10;}
	.st26{fill:none;stroke:#93539C;stroke-width:2;stroke-miterlimit:10;}
	.st27{fill:#E1F1F0;}
	.st28{fill:#010202;}
	.st29{fill:none;}
	.st30{fill:#1A1533;}
	.st31{fill:#FFFFFF;stroke:#010202;stroke-miterlimit:10;}
	.st32{fill:none;stroke:#010202;stroke-miterlimit:10;}
	.st33{fill:none;stroke:#3EB6A6;stroke-width:2;stroke-miterlimit:10;}
	.st34{fill:none;stroke:#34B4A4;stroke-width:0.75;stroke-miterlimit:10;}
	.st35{fill:#FFFFFF;stroke:#000000;stroke-width:3;stroke-miterlimit:10;}
	.st36{fill:none;stroke:#000000;stroke-miterlimit:10;}
	.st37{fill:#3EB6A6;stroke:#010202;stroke-miterlimit:10;}
	.st38{fill:#93539C;stroke:#E9DCEB;stroke-miterlimit:10;}
	.st39{fill:#E9DCEB;}
	.st40{fill:none;stroke:#93539C;stroke-miterlimit:10;}
	.st41{fill:none;stroke:#000000;stroke-width:3;stroke-miterlimit:10;}
	.st42{stroke:#000000;stroke-miterlimit:10;}
	.st43{fill:none;stroke:#010202;stroke-width:3;stroke-miterlimit:10;}
	.st44{fill:none;stroke:#93539C;stroke-width:5;stroke-miterlimit:10;}
	.st45{fill:none;stroke:#3EB6A6;stroke-width:7;stroke-miterlimit:10;}
	.st46{fill:none;stroke:#93539C;stroke-width:4;stroke-miterlimit:10;}
	.st47{fill:none;stroke:#3EB6A6;stroke-width:5;stroke-miterlimit:10;}
	.st48{fill:#FFFFFF;stroke:#000000;stroke-miterlimit:10;}
	.st49{fill:#FFFFFF;stroke:#000000;stroke-width:2;stroke-miterlimit:10;}
	.st50{fill:#FFFFFF;stroke:#93539C;stroke-miterlimit:10;}
	.st51{fill:#FFFFFF;stroke:#3EB6A6;stroke-width:0.5;stroke-miterlimit:10;}
	.st52{fill:#FFFFFF;stroke:#93539C;stroke-linecap:round;stroke-miterlimit:10;}
	.st53{fill:none;stroke:#3EB6A6;stroke-width:0.25;stroke-miterlimit:10;}
	.st54{fill:#E1F1F0;stroke:#010202;stroke-miterlimit:10;}
	.st55{fill:none;stroke:#000000;stroke-linecap:round;stroke-miterlimit:10;}
	.st56{fill:#FFFFFF;stroke:#000000;stroke-width:0.75;stroke-miterlimit:10;}
	.st57{fill:#FFFFFF;stroke:#000000;stroke-width:0.5;stroke-miterlimit:10;}
	.st58{fill:#FFFFFF;stroke:#000000;stroke-linecap:round;stroke-linejoin:round;stroke-miterlimit:10;}
</style>
<g id="Capa_5">
	<path class="st0" d="M34.99,158.91c-3.99-7.45-7.5-17.39-1.79-23.62c4.73-5.16,13.48-4.68,18.38-9.67
		c4.05-4.13,4.2-10.6,6.54-15.89c3.95-8.92,14-13.76,23.7-14.73c9.7-0.97,19.41,1.16,29.09,2.33c5.78,0.7,11.93,1,17.12-1.63
		c7.99-4.04,11.22-13.48,15.26-21.47s11.85-16.15,20.51-13.89c6.64,1.73,10.29,8.91,11.74,15.61c1.45,6.71,1.63,13.89,5.03,19.85
		c3.1,5.45,8.96,9.36,15.22,9.7c6.27,0.35,12.69-3.08,15.55-8.66c1.57-3.06,2.07-6.58,3.64-9.64c4.68-9.09,19.45-10.37,25.62-2.22
		c5.13,6.78,4.31,17.36,10.93,22.7c3.04,2.45,7.08,3.24,10.53,5.08c6.41,3.42,10.4,10.44,11.39,17.63
		c0.99,7.2-0.73,14.54-3.54,21.24c-2.25,5.36-5.24,10.54-6.11,16.29c-0.88,5.75,1.03,12.48,6.25,15.06
		c2.04,1.01,4.37,1.28,6.47,2.18c7.85,3.34,9.57,14.67,5.16,21.97c-4.41,7.3-12.87,11.13-21.14,13.2
		c-8.27,2.08-16.92,2.86-24.8,6.13c-11.42,4.75-21.15,14.65-33.51,15.09c-13.9,0.49-25.44-11.23-39.21-13.17
		c-16.62-2.34-31.42,9.73-47.34,15.05c-9.05,3.03-20,3.52-27.21-2.73c-5.52-4.78-7.68-12.51-12.99-17.53
		c-4.82-4.56-11.56-6.3-17.94-8.12c-6.61-1.88-12.45-4.24-17.18-9.34c-1.92-2.07-4.06-3.8-4.21-6.68
		c-0.17-3.44,2.24-7.32,3.02-10.64C41.33,179.23,39.37,167.08,34.99,158.91z"/>
	<g>
		<path class="st7" d="M113.92,177.28l-0.03,25.04c0,1.43,1.38,2.45,2.74,2.04c3.91-1.19,10.82-2.96,12.7-1.3
			c2.66,2.35,6.43,6.86,3.08,11.25c-3.35,4.39-9.94,2.11-9.94,2.11s-6.63-3.37-7.94-0.65c-1.31,2.72-0.21,26.43-0.21,26.43
			s28.73,0.89,29.41-1.07c0.69-1.95-2.59-8.86-1.7-13.47c0.56-2.86,5.91-6.73,9.69-4.93s6.02,3.67,4.86,7.98s-4.32,10.94,0.42,11.26
			c4.74,0.32,25.6-0.65,25.6-0.65l-0.89-26.41c0,0,6.35,1.97,13.25,1.95c2.29-0.01,6.18-2.8,5.2-7.84
			c-0.98-5.05-8.91-6.72-4.74-7.56s-17.92,3.38-15.99,2.64c1.94-0.74,1.91,1.46,2.55-7.76c0.64-9.22-0.29-22.35-0.29-22.35
			l-26.37,0.28c0,0-1.88,0.02,0.53-7.63c2.41-7.65-2.71-10.54-4.52-11.05c-1.81-0.5-7.81-1.39-9.17,3.67s2.07,13.67,2.07,13.67
			l-2.46,1.7l-27.89,0.46L113.92,177.28z"/>
		<path class="st7" d="M82.2,92l27.52-3.24c0,0-2.1,11.3,0.72,13.46c2.82,2.16,7.96,5,11.63,0.88c3.68-4.12,0.18-10.16,0.18-10.16
			s-4.57-5.87-2.14-7.67c2.43-1.8,25.91-5.24,25.91-5.24s5.91,25.82,4.12,26.87c-1.79,1.05-10.75,0.07-13.55,0.9
			c-2.8,0.83-5.48,7.08-2.99,10.45c2.49,3.37,4.75,5.21,8.75,3.25c4-1.96,9.92-6.32,11.13-1.73c1.22,4.6,4.67,27.46,4.67,27.46
			l-26.1,4.16c0,0-1.97-0.76-0.75-7.23c1.22-6.47-1.94-10.14-7.08-10.14c-5.14-0.01-7.38,3.21-7.41,7.46
			c-0.03,4.25,4.55,7.69,4.2,9.73c-0.35,2.04,1.8,1.59-7.13,3.98s-22,3.97-22,3.97l-5.17-28.16c0,0-0.4-2.9-7.46,0.92
			c-7.05,3.82-10.8,0.4-11.63-1.28c-0.84-1.68-3-8.57,1.71-10.87c4.71-2.3,13.37,0,13.37,0l1.8-2.14l-2.64-21.41L82.2,92z"/>
		<path class="st7" d="M184.31,106.42l25.04-0.03c1.43,0,2.45,1.38,2.04,2.74c-1.19,3.91-2.96,10.82-1.3,12.7
			c2.35,2.66,6.86,6.43,11.25,3.08c4.39-3.35,2.11-9.94,2.11-9.94s-3.37-6.63-0.65-7.94c2.72-1.31,26.43-0.21,26.43-0.21
			s0.89,26.48-1.07,27.16c-1.95,0.69-8.86-2.59-13.47-1.7c-2.86,0.56-6.73,5.91-4.93,9.69c1.81,3.78,3.67,6.02,7.98,4.86
			s10.94-4.32,11.26,0.42c0.32,4.75-0.65,27.85-0.65,27.85l-26.41-0.89c0,0-1.79-1.12,0.64-7.24c2.43-6.12,0.02-10.32-5.02-11.3
			c-5.05-0.98-7.85,1.75-8.69,5.92c-0.84,4.17,3.01,8.41,2.27,10.35c-0.74,1.94,1.46,1.91-7.76,2.55
			c-9.22,0.64-22.35-0.29-22.35-0.29l0.28-28.63c0,0,0.66-2.47-6.99-0.07c-7.65,2.41-11.18-2.11-11.68-3.93
			c-0.5-1.81-1.39-7.81,3.67-9.17c5.06-1.36,13.67,2.07,13.67,2.07l1.7-2.46l0.46-25.64L184.31,106.42z"/>
		<path class="st7" d="M248.97,177.28l0.03,25.04c0,1.43-1.38,2.45-2.74,2.04c-3.91-1.19-10.82-2.96-12.7-1.3
			c-2.66,2.35-6.43,6.86-3.08,11.25c3.35,4.39,9.94,2.11,9.94,2.11s6.63-3.37,7.94-0.65c1.31,2.72,0.21,26.43,0.21,26.43
			s-26.48,0.89-27.16-1.07c-0.69-1.95,2.59-8.86,1.7-13.47c-0.56-2.86-5.91-6.73-9.69-4.93s-6.02,3.67-4.86,7.98
			s4.32,10.94-0.42,11.26c-4.74,0.32-27.85-0.65-27.85-0.65l0.89-26.41c0,0-6.35,1.97-13.25,1.95c-2.29-0.01-6.18-2.8-5.2-7.84
			s8.91-6.72,4.74-7.56s17.92,3.38,15.99,2.64c-1.94-0.74-1.91,1.46-2.55-7.76s0.29-22.35,0.29-22.35l28.63,0.28
			c0,0,2.47,0.66,0.07-6.99c-2.41-7.65,2.11-11.18,3.93-11.68c1.81-0.5,7.81-1.39,9.17,3.67c1.36,5.06-2.07,13.67-2.07,13.67
			l2.46,1.7l25.64,0.46L248.97,177.28z"/>
		<g>
			<path class="st10" d="M207.33,106.36h-25.64v23.44l0.02,2c0,0.63-0.24,1.26-0.72,1.74c-0.53,0.53-1.25,0.77-1.94,0.71l-9.2-2.61
				c-4.19,0-7.58,3.4-7.58,7.58c0,4.19,3.4,7.58,7.58,7.58"/>
			<path class="st10" d="M181.67,172.06v-23.44l0.02-2c0-0.63-0.24-1.26-0.72-1.74c-0.53-0.53-1.25-0.77-1.94-0.71l-9.2,2.61"/>
			<path class="st10" d="M226.14,106.38l-2-0.02c-0.63,0-1.26,0.24-1.74,0.72c-0.53,0.53-0.77,1.25-0.71,1.94l2.61,9.2
				c0,4.19-3.4,7.58-7.58,7.58s-7.58-3.4-7.58-7.58"/>
			<path class="st10" d="M207.33,106.4l2-0.02c0.63,0,1.26,0.24,1.74,0.72c0.53,0.53,0.77,1.25,0.71,1.94l-2.61,9.2"/>
			<polyline class="st10" points="225.58,106.36 249.03,106.36 249.03,130.11 			"/>
			<line class="st10" x1="249.03" y1="148.04" x2="249.03" y2="174.66"/>
			<line class="st10" x1="181.69" y1="174.62" x2="181.69" y2="153.93"/>
			<path class="st10" d="M249.01,129.8l0.02,2c0,0.63-0.24,1.26-0.72,1.74c-0.53,0.53-1.25,0.77-1.94,0.71l-9.2-2.61
				c-4.19,0-7.58,3.4-7.58,7.58c0,4.19,3.4,7.58,7.58,7.58"/>
			<path class="st10" d="M248.99,148.62l0.02-2c0-0.63-0.24-1.26-0.72-1.74c-0.53-0.53-1.25-0.77-1.94-0.71l-9.2,2.61"/>
		</g>
		<g>
			<g>
				<path class="st11" d="M91.41,156.65l-4.17-23.07l-0.34-1.97c-0.11-0.62-0.46-1.19-1.02-1.58c-0.62-0.43-1.37-0.54-2.04-0.35
					l-8.59,4.2"/>
				<path class="st11" d="M135.63,151.28l-1.96,0.37c-0.62,0.11-1.28-0.01-1.84-0.4c-0.62-0.43-0.98-1.09-1.05-1.79l0.93-9.52
					c-0.74-4.12-4.69-6.86-8.81-6.11c-4.12,0.74-6.86,4.69-6.11,8.81"/>
				<path class="st11" d="M117.11,154.61l1.97-0.34c0.62-0.11,1.19-0.46,1.58-1.02c0.43-0.62,0.54-1.37,0.35-2.04l-4.2-8.59"/>
				<path class="st11" d="M123.5,84.11l-1.97,0.34c-0.62,0.11-1.19,0.46-1.58,1.02c-0.43,0.62-0.54,1.37-0.35,2.04l4.2,8.59
					c0.74,4.12-1.99,8.07-6.11,8.81c-4.12,0.74-8.07-1.99-8.81-6.11"/>
				<path class="st11" d="M104.99,87.48l1.96-0.37c0.62-0.11,1.28,0.01,1.84,0.4c0.62,0.43,0.98,1.09,1.05,1.79l-0.93,9.52"/>
				<polyline class="st11" points="122.94,84.19 146.01,80.03 150.23,103.4 				"/>
				<polyline class="st11" points="153.42,121.04 158.15,147.24 135.13,151.39 				"/>
				<polyline class="st11" points="117.11,154.61 91.88,159.17 88.21,138.81 				"/>
				<path class="st11" d="M79.75,92l4.17,23.07l0.37,1.96c0.11,0.62-0.01,1.28-0.4,1.84c-0.43,0.62-1.09,0.98-1.79,1.05l-9.52-0.93
					c-4.12,0.74-6.86,4.69-6.11,8.81c0.74,4.12,4.69,6.86,8.81,6.11"/>
				<path class="st11" d="M91.41,156.65l-4.17-23.07l-0.34-1.97c-0.11-0.62-0.46-1.19-1.02-1.58c-0.62-0.43-1.37-0.54-2.04-0.35
					l-8.59,4.2"/>
				<line class="st11" x1="91.88" y1="159.17" x2="88.21" y2="138.81"/>
				<path class="st11" d="M150.16,103.1l0.37,1.96c0.11,0.62-0.01,1.28-0.4,1.84c-0.43,0.62-1.09,0.98-1.79,1.05l-9.52-0.93
					c-4.12,0.74-6.86,4.69-6.11,8.81c0.74,4.12,4.69,6.86,8.81,6.11"/>
				<path class="st11" d="M153.49,121.62l-0.34-1.97c-0.11-0.62-0.46-1.19-1.02-1.58c-0.62-0.43-1.37-0.54-2.04-0.35l-8.59,4.2"/>
			</g>
			<path class="st11" d="M249.03,200.28v-25.64h-22.99l-2,0.02c-0.63,0-1.26-0.24-1.74-0.72c-0.53-0.53-0.77-1.25-0.71-1.94
				l2.61-9.2c0-4.19-3.4-7.58-7.58-7.58c-4.19,0-7.58,3.4-7.58,7.58"/>
			<path class="st11" d="M183.33,174.62h23.44l2.45,0.02c0.63,0,1.26-0.24,1.74-0.72c0.53-0.53,0.77-1.25,0.71-1.94l-2.61-9.2"/>
			<path class="st11" d="M249.01,219.1l0.02-2c0-0.63-0.24-1.26-0.72-1.74c-0.53-0.53-1.25-0.77-1.94-0.71l-9.2,2.61
				c-4.19,0-7.58-3.4-7.58-7.58c0-4.19,3.4-7.58,7.58-7.58"/>
			<path class="st11" d="M248.99,200.28l0.02,2c0,0.63-0.24,1.26-0.72,1.74c-0.53,0.53-1.25,0.77-1.94,0.71l-9.2-2.61"/>
			<polyline class="st11" points="249.03,218.53 249.03,241.98 225.28,241.98 			"/>
			<polyline class="st11" points="207.35,241.98 182.14,241.98 182.14,218.58 			"/>
			<polyline class="st11" points="182.14,200.28 182.14,174.64 201.45,174.64 			"/>
			<path class="st11" d="M225.58,241.96l-2,0.02c-0.63,0-1.26-0.24-1.74-0.72c-0.53-0.53-0.77-1.25-0.71-1.94l2.61-9.2
				c0-4.19-3.4-7.58-7.58-7.58c-4.19,0-7.58,3.4-7.58,7.58"/>
			<path class="st11" d="M206.77,241.94l2,0.02c0.63,0,1.26-0.24,1.74-0.72c0.53-0.53,0.77-1.25,0.71-1.94l-2.61-9.2"/>
		</g>
		<g>
			<path class="st9" d="M84.27,116.06c-1.11-7.66-1.71-13.81-1.09-15.57c2-5.68,5.3-7.2,9.79-5.97c4.49,1.23,11.57,0.39,15.94-4.13
				c4.37-4.52,4.16-12.86,0.62-12.04s-9.69-1.82-14.9-3.59c-5.21-1.77-11.48,1.03-20.18,6.36s-13.87,18.28-14.7,24.34
				c-0.82,6.06-4.29,16.71-4.29,16.71l27.79,35.21l8.58,0.49l-0.7-2.66"/>
			<path class="st9" d="M73.27,175.54l6.37-4.96c2.18-1.7,2.57-4.87,0.88-7.05l-31.66-40.66c-1.7-2.18-4.87-2.57-7.05-0.88
				l-6.37,4.96c-2.18,1.7-2.57,4.87-0.88,7.05l31.66,40.66C67.92,176.84,71.09,177.24,73.27,175.54z"/>
		</g>
		<path class="st11" d="M91.41,156.65l-4.17-23.07l-0.34-1.97c-0.11-0.62-0.46-1.19-1.02-1.58c-0.62-0.43-1.37-0.54-2.04-0.35
			l-8.59,4.2"/>
		<path class="st11" d="M84.33,115.06l-0.04,1.96c0.11,0.62-0.01,1.28-0.4,1.84c-0.43,0.62-1.09,0.98-1.79,1.05l-9.52-0.93
			c-4.12,0.74-6.86,4.69-6.11,8.81c0.74,4.12,4.69,6.86,8.81,6.11"/>
		<path class="st11" d="M91.41,156.65l-4.17-23.07l-0.34-1.97c-0.11-0.62-0.46-1.19-1.02-1.58c-0.62-0.43-1.37-0.54-2.04-0.35
			l-8.59,4.2"/>
		<g>
			<path class="st10" d="M182.14,200.28v-25.64H158.7l-2,0.02c-0.63,0-1.26-0.24-1.74-0.72c-0.53-0.53-0.77-1.25-0.71-1.94l2.61-9.2
				c0-4.19-3.4-7.58-7.58-7.58s-7.58,3.4-7.58,7.58"/>
			<path class="st10" d="M116.44,174.62h23.44l2,0.02c0.63,0,1.26-0.24,1.74-0.72c0.53-0.53,0.77-1.25,0.71-1.94l-2.61-9.2"/>
			<path class="st10" d="M113.86,219.1l-0.02-2c0-0.63,0.24-1.26,0.72-1.74c0.53-0.53,1.25-0.77,1.94-0.71l9.2,2.61
				c4.19,0,7.58-3.4,7.58-7.58c0-4.19-3.4-7.58-7.58-7.58"/>
			<path class="st10" d="M113.88,200.28l-0.02,2c0,0.63,0.24,1.26,0.72,1.74c0.53,0.53,1.25,0.77,1.94,0.71l9.2-2.61"/>
			<path class="st10" d="M182.12,219.1l0.02-2c0-0.63-0.24-1.26-0.72-1.74c-0.53-0.53-1.25-0.77-1.94-0.71l-9.2,2.61
				c-4.19,0-7.58-3.4-7.58-7.58c0-4.19,3.4-7.58,7.58-7.58"/>
			<path class="st10" d="M182.1,200.28l0.02,2c0,0.63-0.24,1.26-0.72,1.74c-0.53,0.53-1.25,0.77-1.94,0.71l-9.2-2.61"/>
			<polyline class="st10" points="182.14,218.53 182.14,241.98 158.39,241.98 			"/>
			<polyline class="st10" points="140.47,241.98 113.84,241.98 113.84,218.58 			"/>
			<polyline class="st10" points="113.88,200.28 113.88,174.64 134.57,174.64 			"/>
			<path class="st10" d="M158.7,241.96l-2,0.02c-0.63,0-1.26-0.24-1.74-0.72c-0.53-0.53-0.77-1.25-0.71-1.94l2.61-9.2
				c0-4.19-3.4-7.58-7.58-7.58s-7.58,3.4-7.58,7.58"/>
			<path class="st10" d="M139.88,241.94l2,0.02c0.63,0,1.26-0.24,1.74-0.72c0.53-0.53,0.77-1.25,0.71-1.94l-2.61-9.2"/>
		</g>
	</g>
</g>
<g id="integracion">
</g>
</svg>
