<?xml version="1.0" encoding="UTF-8"?>
<svg xmlns="http://www.w3.org/2000/svg" xmlns:xlink="http://www.w3.org/1999/xlink" width="100px" height="98px" viewBox="0 0 99 98" version="1.1">
<defs>
<filter id="alpha" filterUnits="objectBoundingBox" x="0%" y="0%" width="100%" height="100%">
  <feColorMatrix type="matrix" in="SourceGraphic" values="0 0 0 0 1 0 0 0 0 1 0 0 0 0 1 0 0 0 1 0"/>
</filter>
<mask id="mask0">
  <g filter="url(#alpha)">
<rect x="0" y="0" width="99" height="98" style="fill:rgb(0%,0%,0%);fill-opacity:0.14902;stroke:none;"/>
  </g>
</mask>
<clipPath id="clip1">
  <rect x="0" y="0" width="99" height="98"/>
</clipPath>
<g id="surface5" clip-path="url(#clip1)">
<path style=" stroke:none;fill-rule:nonzero;fill:rgb(24.313725%,71.372549%,65.098039%);fill-opacity:1;" d="M 9.875 45.183594 C 8.75 43.066406 7.757812 40.242188 9.371094 38.46875 C 10.703125 37.003906 13.171875 37.140625 14.554688 35.722656 C 15.699219 34.546875 15.742188 32.707031 16.402344 31.207031 C 17.515625 28.671875 20.351562 27.292969 23.089844 27.019531 C 25.828125 26.742188 28.566406 27.347656 31.300781 27.679688 C 32.929688 27.878906 34.664062 27.964844 36.128906 27.21875 C 38.386719 26.070312 39.296875 23.386719 40.4375 21.117188 C 41.578125 18.84375 43.78125 16.527344 46.226562 17.167969 C 48.097656 17.660156 49.128906 19.699219 49.539062 21.605469 C 49.949219 23.511719 50 25.550781 50.957031 27.246094 C 51.832031 28.796875 53.484375 29.90625 55.253906 30.003906 C 57.023438 30.101562 58.832031 29.128906 59.640625 27.542969 C 60.085938 26.671875 60.226562 25.671875 60.667969 24.800781 C 61.988281 22.21875 66.15625 21.855469 67.898438 24.171875 C 69.347656 26.097656 69.113281 29.105469 70.984375 30.621094 C 71.839844 31.320312 72.980469 31.542969 73.953125 32.066406 C 75.761719 33.039062 76.890625 35.035156 77.167969 37.078125 C 77.449219 39.125 76.960938 41.210938 76.167969 43.113281 C 75.535156 44.636719 74.691406 46.109375 74.445312 47.742188 C 74.195312 49.378906 74.734375 51.289062 76.210938 52.023438 C 76.785156 52.3125 77.441406 52.386719 78.035156 52.644531 C 80.25 53.59375 80.734375 56.8125 79.492188 58.886719 C 78.246094 60.960938 75.859375 62.050781 73.527344 62.640625 C 71.191406 63.230469 68.75 63.453125 66.527344 64.382812 C 63.304688 65.730469 60.558594 68.546875 57.070312 68.671875 C 53.148438 68.808594 49.890625 65.480469 46.003906 64.925781 C 41.316406 64.261719 37.136719 67.691406 32.644531 69.203125 C 30.089844 70.066406 27 70.203125 24.964844 68.429688 C 23.410156 67.070312 22.800781 64.875 21.300781 63.445312 C 19.941406 62.152344 18.039062 61.65625 16.238281 61.140625 C 14.371094 60.605469 12.722656 59.933594 11.390625 58.484375 C 10.847656 57.894531 10.242188 57.402344 10.203125 56.585938 C 10.152344 55.609375 10.832031 54.503906 11.054688 53.5625 C 11.664062 50.957031 11.109375 47.503906 9.875 45.183594 Z M 9.875 45.183594 "/>
</g>
</defs>
<g id="surface1">
<use xlink:href="#surface5" mask="url(#mask0)"/>
<path style=" stroke:none;fill-rule:nonzero;fill:rgb(100%,100%,100%);fill-opacity:1;" d="M 32.148438 50.402344 L 32.140625 57.519531 C 32.140625 57.925781 32.53125 58.21875 32.914062 58.101562 C 34.015625 57.761719 35.96875 57.257812 36.496094 57.730469 C 37.25 58.398438 38.3125 59.679688 37.367188 60.929688 C 36.421875 62.175781 34.5625 61.527344 34.5625 61.527344 C 34.5625 61.527344 32.691406 60.570312 32.320312 61.34375 C 31.949219 62.117188 32.261719 68.855469 32.261719 68.855469 C 32.261719 68.855469 40.371094 69.109375 40.5625 68.550781 C 40.757812 67.996094 39.832031 66.03125 40.082031 64.722656 C 40.238281 63.910156 41.75 62.808594 42.816406 63.320312 C 43.882812 63.832031 44.515625 64.363281 44.1875 65.589844 C 43.859375 66.8125 42.96875 68.699219 44.304688 68.789062 C 45.644531 68.878906 51.53125 68.605469 51.53125 68.605469 L 51.277344 61.097656 C 51.277344 61.097656 53.070312 61.660156 55.019531 61.652344 C 55.664062 61.648438 56.761719 60.855469 56.484375 59.425781 C 56.210938 57.988281 53.972656 57.515625 55.148438 57.277344 C 56.324219 57.039062 50.089844 58.238281 50.636719 58.027344 C 51.183594 57.816406 51.175781 58.441406 51.355469 55.820312 C 51.535156 53.199219 51.273438 49.46875 51.273438 49.46875 L 43.832031 49.546875 C 43.832031 49.546875 43.300781 49.554688 43.980469 47.378906 C 44.660156 45.207031 43.214844 44.382812 42.707031 44.238281 C 42.195312 44.097656 40.5 43.84375 40.117188 45.28125 C 39.734375 46.71875 40.703125 49.167969 40.703125 49.167969 L 40.007812 49.652344 L 32.136719 49.78125 Z M 32.148438 50.402344 "/>
<path style=" stroke:none;fill-rule:nonzero;fill:rgb(100%,100%,100%);fill-opacity:1;" d="M 23.195312 26.167969 L 30.964844 25.246094 C 30.964844 25.246094 30.371094 28.457031 31.167969 29.070312 C 31.960938 29.683594 33.414062 30.492188 34.449219 29.320312 C 35.488281 28.148438 34.5 26.433594 34.5 26.433594 C 34.5 26.433594 33.210938 24.765625 33.894531 24.253906 C 34.582031 23.742188 41.207031 22.765625 41.207031 22.765625 C 41.207031 22.765625 42.875 30.101562 42.371094 30.402344 C 41.863281 30.699219 39.335938 30.421875 38.546875 30.65625 C 37.757812 30.894531 37 32.667969 37.703125 33.628906 C 38.40625 34.585938 39.042969 35.109375 40.171875 34.550781 C 41.300781 33.992188 42.972656 32.753906 43.3125 34.058594 C 43.65625 35.367188 44.628906 41.863281 44.628906 41.863281 L 37.265625 43.046875 C 37.265625 43.046875 36.710938 42.828125 37.054688 40.992188 C 37.398438 39.152344 36.507812 38.109375 35.054688 38.109375 C 33.605469 38.105469 32.972656 39.019531 32.964844 40.230469 C 32.957031 41.4375 34.25 42.414062 34.148438 42.996094 C 34.050781 43.574219 34.65625 43.445312 32.136719 44.125 C 29.617188 44.804688 25.929688 45.253906 25.929688 45.253906 L 24.46875 37.25 C 24.46875 37.25 24.355469 36.425781 22.363281 37.511719 C 20.375 38.597656 19.316406 37.625 19.082031 37.148438 C 18.84375 36.671875 18.234375 34.710938 19.566406 34.058594 C 20.894531 33.40625 23.339844 34.058594 23.339844 34.058594 L 23.847656 33.449219 L 23.101562 27.367188 Z M 23.195312 26.167969 "/>
<path style=" stroke:none;fill-rule:nonzero;fill:rgb(100%,100%,100%);fill-opacity:1;" d="M 52.011719 30.265625 L 59.078125 30.257812 C 59.484375 30.257812 59.769531 30.648438 59.65625 31.035156 C 59.320312 32.144531 58.820312 34.109375 59.289062 34.644531 C 59.953125 35.402344 61.222656 36.472656 62.464844 35.519531 C 63.703125 34.566406 63.058594 32.695312 63.058594 32.695312 C 63.058594 32.695312 62.109375 30.808594 62.875 30.4375 C 63.644531 30.066406 70.332031 30.378906 70.332031 30.378906 C 70.332031 30.378906 70.585938 37.90625 70.03125 38.097656 C 69.480469 38.292969 67.53125 37.363281 66.230469 37.613281 C 65.421875 37.773438 64.332031 39.292969 64.839844 40.367188 C 65.351562 41.441406 65.875 42.078125 67.089844 41.75 C 68.308594 41.421875 70.179688 40.523438 70.269531 41.867188 C 70.359375 43.21875 70.085938 49.785156 70.085938 49.785156 L 62.632812 49.53125 C 62.632812 49.53125 62.128906 49.214844 62.8125 47.472656 C 63.5 45.734375 62.820312 44.539062 61.394531 44.261719 C 59.972656 43.984375 59.179688 44.757812 58.945312 45.945312 C 58.707031 47.128906 59.792969 48.335938 59.585938 48.886719 C 59.375 49.4375 59.996094 49.429688 57.394531 49.609375 C 54.792969 49.792969 51.085938 49.527344 51.085938 49.527344 L 51.167969 41.390625 C 51.167969 41.390625 51.351562 40.691406 49.195312 41.371094 C 47.035156 42.058594 46.039062 40.773438 45.898438 40.253906 C 45.757812 39.742188 45.503906 38.035156 46.933594 37.648438 C 48.359375 37.261719 50.792969 38.238281 50.792969 38.238281 L 51.269531 37.539062 L 51.402344 30.25 Z M 52.011719 30.265625 "/>
<path style=" stroke:none;fill-rule:nonzero;fill:rgb(100%,100%,100%);fill-opacity:1;" d="M 70.261719 50.402344 L 70.269531 57.519531 C 70.269531 57.925781 69.878906 58.21875 69.496094 58.101562 C 68.390625 57.761719 66.441406 57.257812 65.910156 57.730469 C 65.160156 58.398438 64.097656 59.679688 65.042969 60.929688 C 65.988281 62.175781 67.847656 61.527344 67.847656 61.527344 C 67.847656 61.527344 69.71875 60.570312 70.089844 61.34375 C 70.457031 62.117188 70.148438 68.855469 70.148438 68.855469 C 70.148438 68.855469 62.675781 69.109375 62.484375 68.550781 C 62.289062 67.996094 63.214844 66.03125 62.960938 64.722656 C 62.804688 63.910156 61.292969 62.808594 60.226562 63.320312 C 59.160156 63.832031 58.527344 64.363281 58.855469 65.589844 C 59.183594 66.8125 60.074219 68.699219 58.738281 68.789062 C 57.398438 68.878906 50.878906 68.605469 50.878906 68.605469 L 51.128906 61.097656 C 51.128906 61.097656 49.335938 61.660156 47.390625 61.652344 C 46.746094 61.648438 45.648438 60.855469 45.921875 59.425781 C 46.199219 57.992188 48.4375 57.515625 47.261719 57.277344 C 46.082031 57.039062 52.316406 58.238281 51.773438 58.027344 C 51.226562 57.816406 51.234375 58.441406 51.054688 55.820312 C 50.871094 53.199219 51.136719 49.46875 51.136719 49.46875 L 59.214844 49.546875 C 59.214844 49.546875 59.910156 49.734375 59.234375 47.5625 C 58.554688 45.386719 59.832031 44.382812 60.34375 44.242188 C 60.855469 44.101562 62.546875 43.847656 62.929688 45.285156 C 63.316406 46.722656 62.347656 49.171875 62.347656 49.171875 L 63.042969 49.652344 L 70.277344 49.785156 Z M 70.261719 50.402344 "/>
<path style="fill:none;stroke-width:3;stroke-linecap:butt;stroke-linejoin:miter;stroke:rgb(24.313725%,71.372549%,65.098039%);stroke-opacity:1;stroke-miterlimit:10;" d="M 207.324502 106.354333 L 181.689238 106.354333 L 181.689238 129.801854 L 181.70308 131.794756 C 181.70308 132.426987 181.467768 133.059218 180.9833 133.540263 C 180.457306 134.076285 179.737526 134.309936 179.045429 134.254959 L 169.854384 131.64357 C 165.660278 131.64357 162.269004 135.038376 162.269004 139.216597 C 162.269004 143.408563 165.67412 146.803368 169.854384 146.803368 " transform="matrix(0.282204,0,0,0.284212,0,0.0189353)"/>
<path style="fill:none;stroke-width:3;stroke-linecap:butt;stroke-linejoin:miter;stroke:rgb(24.313725%,71.372549%,65.098039%);stroke-opacity:1;stroke-miterlimit:10;" d="M 181.675397 172.065117 L 181.675397 148.617596 L 181.689238 146.624694 C 181.689238 145.992463 181.453926 145.360233 180.969458 144.879187 C 180.443464 144.343165 179.723684 144.109515 179.031587 144.164491 L 169.8267 146.77588 " transform="matrix(0.282204,0,0,0.284212,0,0.0189353)"/>
<path style="fill:none;stroke-width:3;stroke-linecap:butt;stroke-linejoin:miter;stroke:rgb(24.313725%,71.372549%,65.098039%);stroke-opacity:1;stroke-miterlimit:10;" d="M 226.135692 106.381822 L 224.142453 106.354333 C 223.505724 106.354333 222.882837 106.601728 222.398369 107.082773 C 221.872376 107.605051 221.623221 108.333491 221.692431 109.020699 L 224.294714 118.215535 C 224.294714 122.407501 220.90344 125.802306 216.723176 125.802306 C 212.542912 125.802306 209.137796 122.393757 209.137796 118.215535 " transform="matrix(0.282204,0,0,0.284212,0,0.0189353)"/>
<path style="fill:none;stroke-width:3;stroke-linecap:butt;stroke-linejoin:miter;stroke:rgb(24.313725%,71.372549%,65.098039%);stroke-opacity:1;stroke-miterlimit:10;" d="M 207.324502 106.395566 L 209.331583 106.381822 C 209.95447 106.381822 210.591199 106.615472 211.075666 107.096518 C 211.60166 107.632539 211.836973 108.347235 211.781605 109.034443 L 209.165479 118.243024 " transform="matrix(0.282204,0,0,0.284212,0,0.0189353)"/>
<path style="fill:none;stroke-width:3;stroke-linecap:butt;stroke-linejoin:miter;stroke:rgb(24.313725%,71.372549%,65.098039%);stroke-opacity:1;stroke-miterlimit:10;" d="M 225.582014 106.354333 L 249.030252 106.354333 L 249.030252 130.104225 " transform="matrix(0.282204,0,0,0.284212,0,0.0189353)"/>
<path style="fill:none;stroke-width:3;stroke-linecap:butt;stroke-linejoin:miter;stroke:rgb(24.313725%,71.372549%,65.098039%);stroke-opacity:1;stroke-miterlimit:10;" d="M 249.030252 148.040342 L 249.030252 174.662761 " transform="matrix(0.282204,0,0,0.284212,0,0.0189353)"/>
<path style="fill:none;stroke-width:3;stroke-linecap:butt;stroke-linejoin:miter;stroke:rgb(24.313725%,71.372549%,65.098039%);stroke-opacity:1;stroke-miterlimit:10;" d="M 181.689238 174.621529 L 181.689238 153.936582 " transform="matrix(0.282204,0,0,0.284212,0,0.0189353)"/>
<path style="fill:none;stroke-width:3;stroke-linecap:butt;stroke-linejoin:miter;stroke:rgb(24.313725%,71.372549%,65.098039%);stroke-opacity:1;stroke-miterlimit:10;" d="M 249.01641 129.801854 L 249.030252 131.794756 C 249.030252 132.426987 248.794939 133.059218 248.310472 133.540263 C 247.784478 134.076285 247.064697 134.309936 246.372601 134.254959 L 237.167714 131.64357 C 232.973608 131.64357 229.596175 135.038376 229.596175 139.216597 C 229.596175 143.408563 232.987449 146.803368 237.167714 146.803368 " transform="matrix(0.282204,0,0,0.284212,0,0.0189353)"/>
<path style="fill:none;stroke-width:3;stroke-linecap:butt;stroke-linejoin:miter;stroke:rgb(24.313725%,71.372549%,65.098039%);stroke-opacity:1;stroke-miterlimit:10;" d="M 248.988726 148.617596 L 249.01641 146.624694 C 249.01641 145.992463 248.767255 145.360233 248.29663 144.879187 C 247.756794 144.343165 247.037013 144.109515 246.344917 144.164491 L 237.153872 146.77588 " transform="matrix(0.282204,0,0,0.284212,0,0.0189353)"/>
<path style="fill:none;stroke-width:3;stroke-linecap:butt;stroke-linejoin:miter;stroke:rgb(57.647059%,32.54902%,61.176471%);stroke-opacity:1;stroke-miterlimit:10;" d="M 91.412139 156.64418 L 87.245716 133.581496 L 86.899668 131.616082 C 86.788932 130.983851 86.442884 130.420341 85.875365 130.035505 C 85.266319 129.595692 84.505013 129.485739 83.8406 129.678157 L 75.244759 133.883867 " transform="matrix(0.282204,0,0,0.284212,0,0.0189353)"/>
<path style="fill:none;stroke-width:3;stroke-linecap:butt;stroke-linejoin:miter;stroke:rgb(57.647059%,32.54902%,61.176471%);stroke-opacity:1;stroke-miterlimit:10;" d="M 135.623279 151.283961 L 133.671566 151.655053 C 133.048679 151.765007 132.384266 151.641309 131.830589 151.256473 C 131.207702 150.81666 130.847811 150.156941 130.778602 149.455989 L 131.706011 139.945037 C 130.972389 135.821792 127.013595 133.086706 122.902541 133.82889 C 118.777644 134.571074 116.036941 138.515646 116.784405 142.638891 " transform="matrix(0.282204,0,0,0.284212,0,0.0189353)"/>
<path style="fill:none;stroke-width:3;stroke-linecap:butt;stroke-linejoin:miter;stroke:rgb(57.647059%,32.54902%,61.176471%);stroke-opacity:1;stroke-miterlimit:10;" d="M 117.116612 154.610046 L 119.082167 154.266442 C 119.705054 154.156489 120.272573 153.812885 120.660147 153.249375 C 121.089247 152.630888 121.199983 151.87496 121.006196 151.215241 L 116.812089 142.625147 " transform="matrix(0.282204,0,0,0.284212,0,0.0189353)"/>
<path style="fill:none;stroke-width:3;stroke-linecap:butt;stroke-linejoin:miter;stroke:rgb(57.647059%,32.54902%,61.176471%);stroke-opacity:1;stroke-miterlimit:10;" d="M 123.497744 84.116298 L 121.532189 84.446158 C 120.909302 84.556111 120.341783 84.913459 119.954208 85.463225 C 119.525109 86.095456 119.414373 86.83764 119.594318 87.511103 L 123.802266 96.101197 C 124.535889 100.224442 121.809028 104.169013 117.684131 104.911198 C 113.573076 105.653382 109.614283 102.918296 108.880661 98.795051 " transform="matrix(0.282204,0,0,0.284212,0,0.0189353)"/>
<path style="fill:none;stroke-width:3;stroke-linecap:butt;stroke-linejoin:miter;stroke:rgb(57.647059%,32.54902%,61.176471%);stroke-opacity:1;stroke-miterlimit:10;" d="M 104.991077 87.483615 L 106.956632 87.112523 C 107.565677 87.00257 108.23009 87.126267 108.783767 87.511103 C 109.406654 87.937172 109.766544 88.596891 109.835754 89.297843 L 108.908344 98.822539 " transform="matrix(0.282204,0,0,0.284212,0,0.0189353)"/>
<path style="fill:none;stroke-width:3;stroke-linecap:butt;stroke-linejoin:miter;stroke:rgb(57.647059%,32.54902%,61.176471%);stroke-opacity:1;stroke-miterlimit:10;" d="M 122.944066 84.185019 L 146.00473 80.034285 L 150.22652 103.399341 " transform="matrix(0.282204,0,0,0.284212,0,0.0189353)"/>
<path style="fill:none;stroke-width:3;stroke-linecap:butt;stroke-linejoin:miter;stroke:rgb(57.647059%,32.54902%,61.176471%);stroke-opacity:1;stroke-miterlimit:10;" d="M 153.424007 121.04683 L 158.144107 147.243181 L 135.124969 151.393915 " transform="matrix(0.282204,0,0,0.284212,0,0.0189353)"/>
<path style="fill:none;stroke-width:3;stroke-linecap:butt;stroke-linejoin:miter;stroke:rgb(57.647059%,32.54902%,61.176471%);stroke-opacity:1;stroke-miterlimit:10;" d="M 117.116612 154.610046 L 91.882764 159.173104 L 88.214652 138.804273 " transform="matrix(0.282204,0,0,0.284212,0,0.0189353)"/>
<path style="fill:none;stroke-width:3;stroke-linecap:butt;stroke-linejoin:miter;stroke:rgb(57.647059%,32.54902%,61.176471%);stroke-opacity:1;stroke-miterlimit:10;" d="M 79.743387 92.00544 L 83.923652 115.068125 L 84.283542 117.033538 C 84.394278 117.652025 84.283542 118.311744 83.895968 118.875255 C 83.466868 119.493741 82.802455 119.851089 82.096516 119.91981 L 72.573265 118.985208 C 68.46221 119.727392 65.721507 123.685707 66.468972 127.795208 C 67.216436 131.918453 71.161388 134.653539 75.286284 133.911355 " transform="matrix(0.282204,0,0,0.284212,0,0.0189353)"/>
<path style="fill:none;stroke-width:3;stroke-linecap:butt;stroke-linejoin:miter;stroke:rgb(57.647059%,32.54902%,61.176471%);stroke-opacity:1;stroke-miterlimit:10;" d="M 91.412139 156.64418 L 87.245716 133.581496 L 86.899668 131.616082 C 86.788932 130.983851 86.442884 130.420341 85.875365 130.035505 C 85.266319 129.595692 84.505013 129.485739 83.8406 129.678157 L 75.244759 133.883867 " transform="matrix(0.282204,0,0,0.284212,0,0.0189353)"/>
<path style="fill:none;stroke-width:3;stroke-linecap:butt;stroke-linejoin:miter;stroke:rgb(57.647059%,32.54902%,61.176471%);stroke-opacity:1;stroke-miterlimit:10;" d="M 91.882764 159.173104 L 88.214652 138.804273 " transform="matrix(0.282204,0,0,0.284212,0,0.0189353)"/>
<path style="fill:none;stroke-width:3;stroke-linecap:butt;stroke-linejoin:miter;stroke:rgb(57.647059%,32.54902%,61.176471%);stroke-opacity:1;stroke-miterlimit:10;" d="M 150.157311 103.09697 L 150.531043 105.062383 C 150.641778 105.68087 150.517201 106.340589 150.129627 106.904099 C 149.700527 107.522586 149.036114 107.879934 148.344017 107.948655 L 138.820766 107.014053 C 134.695869 107.756237 131.955166 111.714552 132.716473 115.824053 C 133.450095 119.947298 137.395047 122.696128 141.519943 121.9402 " transform="matrix(0.282204,0,0,0.284212,0,0.0189353)"/>
<path style="fill:none;stroke-width:3;stroke-linecap:butt;stroke-linejoin:miter;stroke:rgb(57.647059%,32.54902%,61.176471%);stroke-opacity:1;stroke-miterlimit:10;" d="M 153.493217 121.624085 L 153.147169 119.644927 C 153.036433 119.02644 152.690385 118.46293 152.136707 118.06435 C 151.51382 117.638281 150.766356 117.528328 150.088101 117.720746 L 141.506101 121.926456 " transform="matrix(0.282204,0,0,0.284212,0,0.0189353)"/>
<path style="fill:none;stroke-width:3;stroke-linecap:butt;stroke-linejoin:miter;stroke:rgb(57.647059%,32.54902%,61.176471%);stroke-opacity:1;stroke-miterlimit:10;" d="M 249.030252 200.281858 L 249.030252 174.635273 L 226.038798 174.635273 L 224.04556 174.662761 C 223.40883 174.662761 222.785943 174.415367 222.301476 173.934321 C 221.775482 173.412044 221.526327 172.683604 221.595537 171.996396 L 224.197821 162.80156 C 224.197821 158.609594 220.806547 155.214788 216.626282 155.214788 C 212.432176 155.214788 209.040902 158.623338 209.040902 162.80156 " transform="matrix(0.282204,0,0,0.284212,0,0.0189353)"/>
<path style="fill:none;stroke-width:3;stroke-linecap:butt;stroke-linejoin:miter;stroke:rgb(57.647059%,32.54902%,61.176471%);stroke-opacity:1;stroke-miterlimit:10;" d="M 183.336429 174.621529 L 206.770825 174.621529 L 209.220847 174.635273 C 209.843734 174.635273 210.480463 174.401623 210.964931 173.920577 C 211.490924 173.384555 211.726237 172.66986 211.67087 171.982652 L 209.054744 162.774071 " transform="matrix(0.282204,0,0,0.284212,0,0.0189353)"/>
<path style="fill:none;stroke-width:3;stroke-linecap:butt;stroke-linejoin:miter;stroke:rgb(57.647059%,32.54902%,61.176471%);stroke-opacity:1;stroke-miterlimit:10;" d="M 249.01641 219.0976 L 249.030252 217.104698 C 249.030252 216.472467 248.794939 215.840236 248.310472 215.359191 C 247.784478 214.823169 247.064697 214.589519 246.372601 214.644495 L 237.167714 217.255884 C 232.973608 217.255884 229.596175 213.861079 229.596175 209.682857 C 229.596175 205.490891 232.987449 202.096086 237.167714 202.096086 " transform="matrix(0.282204,0,0,0.284212,0,0.0189353)"/>
<path style="fill:none;stroke-width:3;stroke-linecap:butt;stroke-linejoin:miter;stroke:rgb(57.647059%,32.54902%,61.176471%);stroke-opacity:1;stroke-miterlimit:10;" d="M 248.988726 200.281858 L 249.01641 202.27476 C 249.01641 202.906991 248.767255 203.539222 248.29663 204.020267 C 247.756794 204.556289 247.037013 204.789939 246.344917 204.734963 L 237.153872 202.123574 " transform="matrix(0.282204,0,0,0.284212,0,0.0189353)"/>
<path style="fill:none;stroke-width:3;stroke-linecap:butt;stroke-linejoin:miter;stroke:rgb(57.647059%,32.54902%,61.176471%);stroke-opacity:1;stroke-miterlimit:10;" d="M 249.030252 218.53409 L 249.030252 241.981611 L 225.277492 241.981611 " transform="matrix(0.282204,0,0,0.284212,0,0.0189353)"/>
<path style="fill:none;stroke-width:3;stroke-linecap:butt;stroke-linejoin:miter;stroke:rgb(57.647059%,32.54902%,61.176471%);stroke-opacity:1;stroke-miterlimit:10;" d="M 207.352186 241.981611 L 182.146022 241.981611 L 182.146022 218.575322 " transform="matrix(0.282204,0,0,0.284212,0,0.0189353)"/>
<path style="fill:none;stroke-width:3;stroke-linecap:butt;stroke-linejoin:miter;stroke:rgb(57.647059%,32.54902%,61.176471%);stroke-opacity:1;stroke-miterlimit:10;" d="M 182.146022 200.281858 L 182.146022 174.635273 L 201.455522 174.635273 " transform="matrix(0.282204,0,0,0.284212,0,0.0189353)"/>
<path style="fill:none;stroke-width:3;stroke-linecap:butt;stroke-linejoin:miter;stroke:rgb(57.647059%,32.54902%,61.176471%);stroke-opacity:1;stroke-miterlimit:10;" d="M 225.582014 241.954122 L 223.574934 241.981611 C 222.952047 241.981611 222.315318 241.734216 221.844692 241.253171 C 221.304856 240.730893 221.069543 240.016197 221.124911 239.315245 L 223.741037 230.120409 C 223.741037 225.928443 220.335921 222.533638 216.155657 222.533638 C 211.975392 222.533638 208.584118 225.942187 208.584118 230.120409 " transform="matrix(0.282204,0,0,0.284212,0,0.0189353)"/>
<path style="fill:none;stroke-width:3;stroke-linecap:butt;stroke-linejoin:miter;stroke:rgb(57.647059%,32.54902%,61.176471%);stroke-opacity:1;stroke-miterlimit:10;" d="M 206.770825 241.940378 L 208.764063 241.954122 C 209.400792 241.954122 210.023679 241.720472 210.508147 241.239426 C 211.034141 240.703405 211.283295 239.988709 211.214086 239.301501 L 208.611802 230.106665 " transform="matrix(0.282204,0,0,0.284212,0,0.0189353)"/>
<path style="fill-rule:nonzero;fill:rgb(100%,100%,100%);fill-opacity:1;stroke-width:3;stroke-linecap:butt;stroke-linejoin:miter;stroke:rgb(57.647059%,32.54902%,61.176471%);stroke-opacity:1;stroke-miterlimit:10;" d="M 84.2697 116.057704 C 83.162345 108.402212 82.5533 102.244832 83.176187 100.485581 C 85.183268 94.809247 88.477648 93.283646 92.976277 94.52062 C 97.461064 95.743849 104.534293 94.905456 108.908344 90.383631 C 113.282396 85.875549 113.074767 77.53285 109.531231 78.343755 C 105.987696 79.168404 99.841877 76.529527 94.623467 74.756531 C 89.4189 72.983536 83.148503 75.787343 74.455768 81.120073 C 65.749191 86.452803 60.586149 99.399793 59.755633 105.460964 C 58.925117 111.522134 55.464633 122.173851 55.464633 122.173851 L 83.245397 157.386364 L 91.827397 157.86741 L 91.1353 155.214788 " transform="matrix(0.282204,0,0,0.284212,0,0.0189353)"/>
<path style="fill-rule:nonzero;fill:rgb(100%,100%,100%);fill-opacity:1;stroke-width:3;stroke-linecap:butt;stroke-linejoin:miter;stroke:rgb(57.647059%,32.54902%,61.176471%);stroke-opacity:1;stroke-miterlimit:10;" d="M 73.265362 175.542387 L 79.646494 170.580749 C 81.819678 168.876474 82.207252 165.715319 80.518536 163.53 L 48.86203 122.874802 C 47.159472 120.689482 43.989669 120.304646 41.816486 121.995177 L 35.435354 126.956815 C 33.26217 128.647346 32.874596 131.822244 34.563312 133.99382 L 66.219817 174.662761 C 67.922375 176.834337 71.092178 177.246662 73.265362 175.542387 Z M 73.265362 175.542387 " transform="matrix(0.282204,0,0,0.284212,0,0.0189353)"/>
<path style="fill:none;stroke-width:3;stroke-linecap:butt;stroke-linejoin:miter;stroke:rgb(57.647059%,32.54902%,61.176471%);stroke-opacity:1;stroke-miterlimit:10;" d="M 91.412139 156.64418 L 87.245716 133.581496 L 86.899668 131.616082 C 86.788932 130.983851 86.442884 130.420341 85.875365 130.035505 C 85.266319 129.595692 84.505013 129.485739 83.8406 129.678157 L 75.244759 133.883867 " transform="matrix(0.282204,0,0,0.284212,0,0.0189353)"/>
<path style="fill:none;stroke-width:3;stroke-linecap:butt;stroke-linejoin:miter;stroke:rgb(57.647059%,32.54902%,61.176471%);stroke-opacity:1;stroke-miterlimit:10;" d="M 84.325068 115.054381 L 84.283542 117.019794 C 84.394278 117.638281 84.283542 118.298 83.895968 118.86151 C 83.466868 119.479997 82.802455 119.837345 82.096516 119.906066 L 72.573265 118.985208 C 68.46221 119.713648 65.721507 123.671963 66.468972 127.795208 C 67.216436 131.904709 71.161388 134.653539 75.286284 133.897611 " transform="matrix(0.282204,0,0,0.284212,0,0.0189353)"/>
<path style="fill:none;stroke-width:3;stroke-linecap:butt;stroke-linejoin:miter;stroke:rgb(57.647059%,32.54902%,61.176471%);stroke-opacity:1;stroke-miterlimit:10;" d="M 91.412139 156.64418 L 87.245716 133.581496 L 86.899668 131.616082 C 86.788932 130.983851 86.442884 130.420341 85.875365 130.035505 C 85.266319 129.595692 84.505013 129.485739 83.8406 129.678157 L 75.244759 133.883867 " transform="matrix(0.282204,0,0,0.284212,0,0.0189353)"/>
<path style="fill:none;stroke-width:3;stroke-linecap:butt;stroke-linejoin:miter;stroke:rgb(24.313725%,71.372549%,65.098039%);stroke-opacity:1;stroke-miterlimit:10;" d="M 182.146022 200.281858 L 182.146022 174.635273 L 158.697784 174.635273 L 156.704546 174.662761 C 156.067817 174.662761 155.44493 174.415367 154.960462 173.934321 C 154.434469 173.412044 154.185314 172.683604 154.254523 171.996396 L 156.856807 162.80156 C 156.856807 158.609594 153.465533 155.214788 149.285269 155.214788 C 145.105004 155.214788 141.699888 158.623338 141.699888 162.80156 " transform="matrix(0.282204,0,0,0.284212,0,0.0189353)"/>
<path style="fill:none;stroke-width:3;stroke-linecap:butt;stroke-linejoin:miter;stroke:rgb(24.313725%,71.372549%,65.098039%);stroke-opacity:1;stroke-miterlimit:10;" d="M 116.438357 174.621529 L 139.886595 174.621529 L 141.879833 174.635273 C 142.516563 174.635273 143.13945 174.401623 143.623917 173.920577 C 144.149911 173.384555 144.385224 172.66986 144.329856 171.982652 L 141.71373 162.774071 " transform="matrix(0.282204,0,0,0.284212,0,0.0189353)"/>
<path style="fill:none;stroke-width:3;stroke-linecap:butt;stroke-linejoin:miter;stroke:rgb(24.313725%,71.372549%,65.098039%);stroke-opacity:1;stroke-miterlimit:10;" d="M 113.863757 219.0976 L 113.836073 217.104698 C 113.836073 216.472467 114.085228 215.840236 114.555854 215.359191 C 115.095689 214.823169 115.81547 214.589519 116.493725 214.644495 L 125.698612 217.255884 C 129.892718 217.255884 133.283992 213.861079 133.283992 209.682857 C 133.283992 205.490891 129.878876 202.096086 125.698612 202.096086 " transform="matrix(0.282204,0,0,0.284212,0,0.0189353)"/>
<path style="fill:none;stroke-width:3;stroke-linecap:butt;stroke-linejoin:miter;stroke:rgb(24.313725%,71.372549%,65.098039%);stroke-opacity:1;stroke-miterlimit:10;" d="M 113.877599 200.281858 L 113.863757 202.27476 C 113.863757 202.906991 114.09907 203.539222 114.583538 204.020267 C 115.109531 204.556289 115.829312 204.789939 116.521409 204.734963 L 125.726295 202.123574 " transform="matrix(0.282204,0,0,0.284212,0,0.0189353)"/>
<path style="fill:none;stroke-width:3;stroke-linecap:butt;stroke-linejoin:miter;stroke:rgb(24.313725%,71.372549%,65.098039%);stroke-opacity:1;stroke-miterlimit:10;" d="M 182.118338 219.0976 L 182.146022 217.104698 C 182.146022 216.472467 181.896868 215.840236 181.426242 215.359191 C 180.886406 214.823169 180.166626 214.589519 179.474529 214.644495 L 170.283484 217.255884 C 166.089378 217.255884 162.698104 213.861079 162.698104 209.682857 C 162.698104 205.490891 166.10322 202.096086 170.283484 202.096086 " transform="matrix(0.282204,0,0,0.284212,0,0.0189353)"/>
<path style="fill:none;stroke-width:3;stroke-linecap:butt;stroke-linejoin:miter;stroke:rgb(24.313725%,71.372549%,65.098039%);stroke-opacity:1;stroke-miterlimit:10;" d="M 182.104497 200.281858 L 182.118338 202.27476 C 182.118338 202.906991 181.883026 203.539222 181.398558 204.020267 C 180.872564 204.556289 180.152784 204.789939 179.460687 204.734963 L 170.2558 202.123574 " transform="matrix(0.282204,0,0,0.284212,0,0.0189353)"/>
<path style="fill:none;stroke-width:3;stroke-linecap:butt;stroke-linejoin:miter;stroke:rgb(24.313725%,71.372549%,65.098039%);stroke-opacity:1;stroke-miterlimit:10;" d="M 182.146022 218.53409 L 182.146022 241.981611 L 158.393262 241.981611 " transform="matrix(0.282204,0,0,0.284212,0,0.0189353)"/>
<path style="fill:none;stroke-width:3;stroke-linecap:butt;stroke-linejoin:miter;stroke:rgb(24.313725%,71.372549%,65.098039%);stroke-opacity:1;stroke-miterlimit:10;" d="M 140.467956 241.981611 L 113.836073 241.981611 L 113.836073 218.575322 " transform="matrix(0.282204,0,0,0.284212,0,0.0189353)"/>
<path style="fill:none;stroke-width:3;stroke-linecap:butt;stroke-linejoin:miter;stroke:rgb(24.313725%,71.372549%,65.098039%);stroke-opacity:1;stroke-miterlimit:10;" d="M 113.877599 200.281858 L 113.877599 174.635273 L 134.571292 174.635273 " transform="matrix(0.282204,0,0,0.284212,0,0.0189353)"/>
<path style="fill:none;stroke-width:3;stroke-linecap:butt;stroke-linejoin:miter;stroke:rgb(24.313725%,71.372549%,65.098039%);stroke-opacity:1;stroke-miterlimit:10;" d="M 158.697784 241.954122 L 156.704546 241.981611 C 156.067817 241.981611 155.44493 241.734216 154.960462 241.253171 C 154.434469 240.730893 154.185314 240.016197 154.254523 239.315245 L 156.856807 230.120409 C 156.856807 225.928443 153.465533 222.533638 149.285269 222.533638 C 145.105004 222.533638 141.699888 225.942187 141.699888 230.120409 " transform="matrix(0.282204,0,0,0.284212,0,0.0189353)"/>
<path style="fill:none;stroke-width:3;stroke-linecap:butt;stroke-linejoin:miter;stroke:rgb(24.313725%,71.372549%,65.098039%);stroke-opacity:1;stroke-miterlimit:10;" d="M 139.886595 241.940378 L 141.879833 241.954122 C 142.516563 241.954122 143.13945 241.720472 143.623917 241.239426 C 144.149911 240.703405 144.385224 239.988709 144.329856 239.301501 L 141.71373 230.106665 " transform="matrix(0.282204,0,0,0.284212,0,0.0189353)"/>
</g>
</svg>
