<?xml version="1.0" encoding="utf-8"?>
<!-- Generator: Adobe Illustrator 24.0.0, SVG Export Plug-In . SVG Version: 6.00 Build 0)  -->
<svg version="1.1" xmlns="http://www.w3.org/2000/svg" xmlns:xlink="http://www.w3.org/1999/xlink" x="0px" y="0px"
	 viewBox="0 0 350.81 344.68" style="enable-background:new 0 0 350.81 344.68;" xml:space="preserve">
<style type="text/css">
	.st0{opacity:0.15;fill:#3EB6A6;}
	.st1{fill:#3EB6A6;}
	.st2{opacity:0.3;}
	.st3{fill:#FFFFFF;stroke:#3EB6A6;stroke-width:3;stroke-miterlimit:10;}
	.st4{fill:#93539C;}
	.st5{fill:#FFFFFF;stroke:#93539C;stroke-width:7;stroke-miterlimit:10;}
	.st6{fill:none;stroke:#000000;stroke-width:10;stroke-miterlimit:10;}
	.st7{fill:#FFFFFF;}
	.st8{fill:#FFFFFF;stroke:#3EB6A6;stroke-width:3;stroke-linecap:round;stroke-miterlimit:10;}
	.st9{fill:#FFFFFF;stroke:#93539C;stroke-width:3;stroke-miterlimit:10;}
	.st10{fill:none;stroke:#3EB6A6;stroke-width:3;stroke-miterlimit:10;}
	.st11{fill:none;stroke:#93539C;stroke-width:3;stroke-miterlimit:10;}
	.st12{fill:#FFFFFF;stroke:#93539C;stroke-width:2;stroke-miterlimit:10;}
	.st13{fill-rule:evenodd;clip-rule:evenodd;fill:#FFFFFF;stroke:#3EB6A6;stroke-width:3;stroke-miterlimit:10;}
	.st14{fill:none;stroke:#93539C;stroke-width:0.5;stroke-miterlimit:10;}
	.st15{fill:none;stroke:#93539C;stroke-width:0.25;stroke-linecap:round;stroke-linejoin:round;stroke-miterlimit:10;}
	.st16{fill:none;stroke:#93539C;stroke-width:0.5;stroke-linecap:round;stroke-linejoin:round;stroke-miterlimit:10;}
	.st17{fill:none;stroke:#000000;stroke-width:0.5;stroke-miterlimit:10;}
	.st18{fill:#FFFFFF;stroke:#3EB6A6;stroke-width:2;stroke-miterlimit:10;}
	.st19{fill:none;stroke:#93539C;stroke-width:2;stroke-linecap:round;stroke-miterlimit:10;}
	.st20{fill:none;stroke:#93539C;stroke-width:3;stroke-linecap:round;stroke-miterlimit:10;}
	.st21{fill:#FFFFFF;stroke:#3EB6A6;stroke-miterlimit:10;}
	.st22{fill:none;stroke:#93539C;stroke-linecap:round;stroke-miterlimit:10;}
	.st23{fill:none;stroke:#3EB6A6;stroke-miterlimit:10;}
	.st24{fill:none;stroke:#FFFFFF;stroke-width:3;stroke-miterlimit:10;}
	.st25{opacity:0.35;fill:#FFFFFF;stroke:#93539C;stroke-width:2;stroke-miterlimit:10;}
	.st26{fill:none;stroke:#93539C;stroke-width:2;stroke-miterlimit:10;}
	.st27{fill:#E1F1F0;}
	.st28{fill:#010202;}
	.st29{fill:none;}
	.st30{fill:#1A1533;}
	.st31{fill:#FFFFFF;stroke:#010202;stroke-miterlimit:10;}
	.st32{fill:none;stroke:#010202;stroke-miterlimit:10;}
	.st33{fill:none;stroke:#3EB6A6;stroke-width:2;stroke-miterlimit:10;}
	.st34{fill:none;stroke:#34B4A4;stroke-width:0.75;stroke-miterlimit:10;}
	.st35{fill:#FFFFFF;stroke:#000000;stroke-width:3;stroke-miterlimit:10;}
	.st36{fill:none;stroke:#000000;stroke-miterlimit:10;}
	.st37{fill:#3EB6A6;stroke:#010202;stroke-miterlimit:10;}
	.st38{fill:#93539C;stroke:#E9DCEB;stroke-miterlimit:10;}
	.st39{fill:#E9DCEB;}
	.st40{fill:none;stroke:#93539C;stroke-miterlimit:10;}
	.st41{fill:none;stroke:#000000;stroke-width:3;stroke-miterlimit:10;}
	.st42{stroke:#000000;stroke-miterlimit:10;}
	.st43{fill:none;stroke:#010202;stroke-width:3;stroke-miterlimit:10;}
	.st44{fill:none;stroke:#93539C;stroke-width:5;stroke-miterlimit:10;}
	.st45{fill:none;stroke:#3EB6A6;stroke-width:7;stroke-miterlimit:10;}
	.st46{fill:none;stroke:#93539C;stroke-width:4;stroke-miterlimit:10;}
	.st47{fill:none;stroke:#3EB6A6;stroke-width:5;stroke-miterlimit:10;}
	.st48{fill:#FFFFFF;stroke:#000000;stroke-miterlimit:10;}
	.st49{fill:#FFFFFF;stroke:#000000;stroke-width:2;stroke-miterlimit:10;}
	.st50{fill:#FFFFFF;stroke:#93539C;stroke-miterlimit:10;}
	.st51{fill:#FFFFFF;stroke:#3EB6A6;stroke-width:0.5;stroke-miterlimit:10;}
	.st52{fill:#FFFFFF;stroke:#93539C;stroke-linecap:round;stroke-miterlimit:10;}
	.st53{fill:none;stroke:#3EB6A6;stroke-width:0.25;stroke-miterlimit:10;}
	.st54{fill:#E1F1F0;stroke:#010202;stroke-miterlimit:10;}
	.st55{fill:none;stroke:#000000;stroke-linecap:round;stroke-miterlimit:10;}
	.st56{fill:#FFFFFF;stroke:#000000;stroke-width:0.75;stroke-miterlimit:10;}
	.st57{fill:#FFFFFF;stroke:#000000;stroke-width:0.5;stroke-miterlimit:10;}
	.st58{fill:#FFFFFF;stroke:#000000;stroke-linecap:round;stroke-linejoin:round;stroke-miterlimit:10;}
</style>
<g id="Capa_5">
	<path class="st0" d="M61.15,161c-3.99-7.45-7.5-17.39-1.79-23.62c4.73-5.16,13.48-4.68,18.38-9.67c4.05-4.13,4.2-10.6,6.54-15.89
		c3.95-8.92,14-13.76,23.7-14.73s19.41,1.16,29.09,2.33c5.78,0.7,11.93,1,17.12-1.63c7.99-4.04,11.22-13.48,15.26-21.47
		c4.04-7.99,11.85-16.15,20.51-13.89c6.64,1.73,10.29,8.91,11.74,15.61c1.45,6.71,1.63,13.89,5.03,19.85
		c3.1,5.45,8.96,9.36,15.22,9.7c6.27,0.35,12.69-3.08,15.55-8.66c1.57-3.06,2.07-6.58,3.64-9.64c4.68-9.09,19.45-10.37,25.62-2.22
		c5.13,6.78,4.31,17.36,10.93,22.7c3.04,2.45,7.08,3.24,10.53,5.08c6.41,3.42,10.4,10.44,11.39,17.63
		c0.99,7.2-0.73,14.54-3.54,21.24c-2.25,5.36-5.24,10.54-6.11,16.29s1.03,12.48,6.25,15.06c2.04,1.01,4.37,1.28,6.47,2.18
		c7.85,3.34,9.57,14.67,5.16,21.97c-4.41,7.3-12.87,11.13-21.14,13.2s-16.92,2.86-24.8,6.13c-11.42,4.75-21.15,14.65-33.51,15.09
		c-13.9,0.49-25.44-11.23-39.21-13.17c-16.62-2.34-31.42,9.73-47.34,15.05c-9.05,3.03-20,3.52-27.21-2.73
		c-5.52-4.78-7.68-12.51-12.99-17.53c-4.82-4.56-11.56-6.3-17.94-8.12c-6.61-1.88-12.45-4.24-17.18-9.34
		c-1.92-2.07-4.06-3.8-4.21-6.68c-0.17-3.44,2.24-7.32,3.02-10.64C67.48,181.32,65.52,169.17,61.15,161z"/>
	<polyline class="st7" points="120.89,164.45 184.7,223.31 209.58,214.53 236.62,188.6 175.23,143.59 	"/>
	<path class="st8" d="M120.89,164.45c0,0,59.5,63.32,70.8,61.33c11.3-1.99,7.76-11.3,7.76-11.3"/>
	<path class="st8" d="M180.22,199.35c0,0,23.43,19.45,29.58,21.11c6.15,1.66,12.13-4.65,9.31-10.55c-2.83-5.9-2.83-5.9-2.83-5.9"/>
	<path class="st8" d="M188.53,184.08c0,0,29.75,22.82,36.4,24.36c6.65,1.54,12.13-4.6,9.47-10.59c-2.66-5.98-5.65-7.65-5.65-7.65"/>
	<path class="st8" d="M120.89,164.45l23.1-46.87c0,0,12.63-1.99,23.93,1c11.3,2.99,77.28,57.34,79.78,62.88
		c2.49,5.54-0.83,13.58-7.98,13.68c-7.15,0.11-43.71-27.36-43.71-27.36"/>
	<path class="st9" d="M251.69,167.52l-24.38-50.97c0,0-13.96-1.99-21.27-4.43c-7.31-2.44-24.82-3.77-35.68,3.1
		c-10.86,6.87-17.51,12.41-18.39,19.28c-0.89,6.87-1.33,15.29-4.21,18.84c-2.88,3.55,6.43,8.42,13.96,5.98
		c7.53-2.44,12.41-9.97,13.52-15.73c1.11-5.76,4.65-8.64,12.19-7.76c7.53,0.89,60.05,41.66,60.05,41.66L251.69,167.52z"/>
	<path class="st9" d="M122.67,196.98l-3.09-3.09c-2.81-2.81-2.81-7.42,0-10.23l12.48-12.48c2.81-2.81,7.42-2.81,10.23,0l3.09,3.09
		c2.81,2.81,2.81,7.42,0,10.23l-12.48,12.48C130.09,199.8,125.49,199.8,122.67,196.98z"/>
	<path class="st9" d="M139.38,207.47l-2.73-2.73c-2.48-2.48-2.48-6.54,0-9.03l9.05-9.05c2.48-2.48,6.54-2.48,9.03,0l2.73,2.73
		c2.48,2.48,2.48,6.54,0,9.03l-9.05,9.05C145.92,209.95,141.86,209.95,139.38,207.47z"/>
	<path class="st9" d="M168.34,198.77l2.72,2.72c2.48,2.48,2.48,6.53,0,9.01l-7.61,7.61c-2.48,2.48-6.53,2.48-9.01,0l-2.72-2.72
		c-2.48-2.48-2.48-6.53,0-9.01l7.61-7.61C161.81,196.3,165.86,196.3,168.34,198.77z"/>
	<path class="st9" d="M170.38,224.64l-2.07-2.07c-1.89-1.89-1.89-4.97,0-6.86l5.97-5.97c1.89-1.89,4.97-1.89,6.86,0l2.07,2.07
		c1.89,1.89,1.89,4.97,0,6.86l-5.97,5.97C175.36,226.53,172.27,226.53,170.38,224.64z"/>
	<path class="st9" d="M278.94,165.72l-11.49,5.59c-2.48,1.21-5.5,0.16-6.71-2.32l-29.54-60.71c-1.21-2.48-0.16-5.5,2.32-6.71
		l11.49-5.59c2.48-1.21,5.5-0.16,6.71,2.32l29.54,60.71C282.47,161.49,281.43,164.51,278.94,165.72z"/>
	<path class="st8" d="M105.86,171.34l-11.51-5.56c-2.49-1.2-3.54-4.22-2.34-6.71l29.38-60.79c1.2-2.49,4.22-3.54,6.71-2.34
		l11.51,5.56c2.49,1.2,3.54,4.22,2.34,6.71l-29.38,60.79C111.37,171.49,108.35,172.55,105.86,171.34z"/>
</g>
<g id="integracion">
</g>
</svg>
