<?xml version="1.0" encoding="utf-8"?>
<!-- Generator: Adobe Illustrator 24.0.0, SVG Export Plug-In . SVG Version: 6.00 Build 0)  -->
<svg version="1.1" xmlns="http://www.w3.org/2000/svg" xmlns:xlink="http://www.w3.org/1999/xlink" x="0px" y="0px"
	 viewBox="0 0 1274.55 848.68" style="enable-background:new 0 0 1274.55 848.68;" xml:space="preserve">
<style type="text/css">
	.st0{opacity:0.15;fill:#3EB6A6;}
	.st1{fill:#3EB6A6;}
	.st2{opacity:0.3;}
	.st3{fill:#FFFFFF;stroke:#3EB6A6;stroke-width:3;stroke-miterlimit:10;}
	.st4{fill:#93539C;}
	.st5{fill:#FFFFFF;stroke:#93539C;stroke-width:7;stroke-miterlimit:10;}
	.st6{fill:none;stroke:#000000;stroke-width:10;stroke-miterlimit:10;}
	.st7{fill:#FFFFFF;}
	.st8{fill:#FFFFFF;stroke:#3EB6A6;stroke-width:3;stroke-linecap:round;stroke-miterlimit:10;}
	.st9{fill:#FFFFFF;stroke:#93539C;stroke-width:3;stroke-miterlimit:10;}
	.st10{fill:none;stroke:#3EB6A6;stroke-width:3;stroke-miterlimit:10;}
	.st11{fill:none;stroke:#93539C;stroke-width:3;stroke-miterlimit:10;}
	.st12{fill:#FFFFFF;stroke:#93539C;stroke-width:2;stroke-miterlimit:10;}
	.st13{fill-rule:evenodd;clip-rule:evenodd;fill:#FFFFFF;stroke:#3EB6A6;stroke-width:3;stroke-miterlimit:10;}
	.st14{fill:none;stroke:#93539C;stroke-width:0.5;stroke-miterlimit:10;}
	.st15{fill:none;stroke:#93539C;stroke-width:0.25;stroke-linecap:round;stroke-linejoin:round;stroke-miterlimit:10;}
	.st16{fill:none;stroke:#93539C;stroke-width:0.5;stroke-linecap:round;stroke-linejoin:round;stroke-miterlimit:10;}
	.st17{fill:none;stroke:#000000;stroke-width:0.5;stroke-miterlimit:10;}
	.st18{fill:#FFFFFF;stroke:#3EB6A6;stroke-width:2;stroke-miterlimit:10;}
	.st19{fill:none;stroke:#93539C;stroke-width:2;stroke-linecap:round;stroke-miterlimit:10;}
	.st20{fill:none;stroke:#93539C;stroke-width:3;stroke-linecap:round;stroke-miterlimit:10;}
	.st21{fill:#FFFFFF;stroke:#3EB6A6;stroke-miterlimit:10;}
	.st22{fill:none;stroke:#93539C;stroke-linecap:round;stroke-miterlimit:10;}
	.st23{fill:none;stroke:#3EB6A6;stroke-miterlimit:10;}
	.st24{fill:none;stroke:#FFFFFF;stroke-width:3;stroke-miterlimit:10;}
	.st25{opacity:0.35;fill:#FFFFFF;stroke:#93539C;stroke-width:2;stroke-miterlimit:10;}
	.st26{fill:none;stroke:#93539C;stroke-width:2;stroke-miterlimit:10;}
	.st27{fill:#E1F1F0;}
	.st28{fill:#010202;}
	.st29{fill:none;}
	.st30{fill:#1A1533;}
	.st31{fill:#FFFFFF;stroke:#010202;stroke-miterlimit:10;}
	.st32{fill:none;stroke:#010202;stroke-miterlimit:10;}
	.st33{fill:none;stroke:#3EB6A6;stroke-width:2;stroke-miterlimit:10;}
	.st34{fill:none;stroke:#34B4A4;stroke-width:0.75;stroke-miterlimit:10;}
	.st35{fill:#FFFFFF;stroke:#000000;stroke-width:3;stroke-miterlimit:10;}
	.st36{fill:none;stroke:#000000;stroke-miterlimit:10;}
	.st37{fill:#3EB6A6;stroke:#010202;stroke-miterlimit:10;}
	.st38{fill:#93539C;stroke:#E9DCEB;stroke-miterlimit:10;}
	.st39{fill:#E9DCEB;}
	.st40{fill:none;stroke:#93539C;stroke-miterlimit:10;}
	.st41{fill:none;stroke:#000000;stroke-width:3;stroke-miterlimit:10;}
	.st42{stroke:#000000;stroke-miterlimit:10;}
	.st43{fill:none;stroke:#010202;stroke-width:3;stroke-miterlimit:10;}
	.st44{fill:none;stroke:#93539C;stroke-width:5;stroke-miterlimit:10;}
	.st45{fill:none;stroke:#3EB6A6;stroke-width:7;stroke-miterlimit:10;}
	.st46{fill:none;stroke:#93539C;stroke-width:4;stroke-miterlimit:10;}
	.st47{fill:none;stroke:#3EB6A6;stroke-width:5;stroke-miterlimit:10;}
	.st48{fill:#FFFFFF;stroke:#000000;stroke-miterlimit:10;}
	.st49{fill:#FFFFFF;stroke:#000000;stroke-width:2;stroke-miterlimit:10;}
	.st50{fill:#FFFFFF;stroke:#93539C;stroke-miterlimit:10;}
	.st51{fill:#FFFFFF;stroke:#3EB6A6;stroke-width:0.5;stroke-miterlimit:10;}
	.st52{fill:#FFFFFF;stroke:#93539C;stroke-linecap:round;stroke-miterlimit:10;}
	.st53{fill:none;stroke:#3EB6A6;stroke-width:0.25;stroke-miterlimit:10;}
	.st54{fill:#E1F1F0;stroke:#010202;stroke-miterlimit:10;}
	.st55{fill:none;stroke:#000000;stroke-linecap:round;stroke-miterlimit:10;}
	.st56{fill:#FFFFFF;stroke:#000000;stroke-width:0.75;stroke-miterlimit:10;}
	.st57{fill:#FFFFFF;stroke:#000000;stroke-width:0.5;stroke-miterlimit:10;}
	.st58{fill:#FFFFFF;stroke:#000000;stroke-linecap:round;stroke-linejoin:round;stroke-miterlimit:10;}
</style>
<g id="Capa_5">
</g>
<g id="integracion">
	<g>
		<polygon class="st4" points="640.95,755.58 640.95,685.46 655.37,733.35 668.69,724.37 683.95,742.76 709.05,715.39 
			723.76,749.17 736.1,741.47 744.7,749.6 756.08,745.75 770.78,753.87 786.02,750.03 796.41,755.58 		"/>
		<circle class="st1" cx="978.79" cy="583.46" r="23.46"/>
		<circle class="st1" cx="1042.03" cy="583.09" r="23.46"/>
		<path class="st4" d="M978.79,583.46v23.46c7.9,0,14.89-3.91,19.15-9.9"/>
		<path class="st4" d="M978.81,583.46l16.59-16.59c-4.89-4.89-11.4-7.17-17.8-6.84"/>
		<path class="st4" d="M1042.03,583.11l-23.42-1.36c-0.46,7.89,3.04,15.1,8.78,19.69"/>
		<path class="st4" d="M1042.03,583.09l-23.11,4.03c1.36,7.79,6.41,14,13.04,17.16"/>
		<path class="st4" d="M1042.03,583.08l22.73,5.82c1.96-7.66-0.09-15.4-4.84-21"/>
		<circle class="st7" cx="978.79" cy="583.46" r="12.81"/>
		<circle class="st7" cx="1042.03" cy="583.46" r="12.81"/>
		<circle class="st1" cx="1042.04" cy="638.75" r="23.46"/>
		<circle class="st1" cx="978.8" cy="638.38" r="23.46"/>
		<path class="st4" d="M1042.04,638.75l12.31,19.97c-14,8.2-27.86,0-31.46-6.41"/>
		<path class="st4" d="M1042.02,638.75l-16.59-16.59c4.89-4.89,11.4-7.17,17.8-6.84"/>
		<path class="st4" d="M978.8,638.4l23.42-1.36c0.46,7.89-3.04,15.1-8.78,19.69"/>
		<path class="st4" d="M978.8,638.38l23.11,4.03c-1.36,7.79-6.41,14-13.04,17.16"/>
		<path class="st4" d="M978.8,638.36l13.88-18.91c6.37,4.68,9.7,11.96,9.58,19.31"/>
		<path class="st4" d="M978.8,638.37l-22.73,5.82c-1.96-7.66,0.09-15.4,4.84-21"/>
		<rect x="635.97" y="680.87" class="st36" width="176.69" height="81.08"/>
		<rect x="821.46" y="680.87" class="st36" width="248.97" height="81.08"/>
		<rect x="835.55" y="742.12" class="st27" width="220.79" height="14.68"/>
		<rect x="835.55" y="722.96" class="st27" width="220.79" height="14.68"/>
		<rect x="835.55" y="704.62" class="st27" width="220.79" height="14.68"/>
		<rect x="835.55" y="685.46" class="st27" width="220.79" height="14.68"/>
		<rect x="835.55" y="742.12" class="st1" width="206.07" height="14.68"/>
		<rect x="835.55" y="722.96" class="st1" width="184.65" height="14.68"/>
		<rect x="835.55" y="704.62" class="st1" width="199.44" height="14.68"/>
		<rect x="835.55" y="685.46" class="st1" width="160.18" height="14.68"/>
		<rect x="950.4" y="552.42" class="st36" width="120.03" height="120.03"/>
		<rect x="635.97" y="552.42" class="st36" width="120.03" height="120.03"/>
		
			<rect x="634.36" y="636.04" transform="matrix(6.123234e-17 -1 1 6.123234e-17 9.1704 1295.2041)" class="st1" width="35.65" height="13.96"/>
		
			<rect x="632.62" y="617.2" transform="matrix(6.123234e-17 -1 1 6.123234e-17 45.1065 1293.4592)" class="st4" width="73.33" height="13.96"/>
		
			<rect x="653.44" y="620.79" transform="matrix(6.123234e-17 -1 1 6.123234e-17 58.7546 1314.295)" class="st1" width="66.18" height="13.96"/>
		
			<rect x="674.77" y="624.67" transform="matrix(6.123234e-17 -1 1 6.123234e-17 72.3356 1335.6327)" class="st4" width="58.42" height="13.96"/>
		
			<rect x="713.11" y="646.54" transform="matrix(6.123234e-17 -1 1 6.123234e-17 66.9302 1373.9667)" class="st1" width="14.68" height="13.96"/>
		
			<rect x="712.62" y="629.25" transform="matrix(6.123234e-17 -1 1 6.123234e-17 101.1239 1373.5811)" class="st4" width="49.46" height="13.96"/>
		<line class="st36" x1="641.88" y1="661.57" x2="747.65" y2="661.57"/>
		<path class="st39" d="M764.86,623.19v38.65h176.69v-42.4c0,0-4.46-24.51-39.14-18c-34.68,6.51-28.56,32.41-40.79,25.58
			c-12.24-6.83-14.79-5.92-18.87,0c-4.08,5.92-9.18,14.05-13.77,4.63c-4.59-9.42-1.53-30.35-10.71-24.73
			c-9.18,5.62-2.04,22.95-9.69,26.78c-7.65,3.83-8.16-11.65-14.28-9.52c-6.12,2.13-3.57,14.27-10.71,14.57
			C776.46,639.05,770.6,570.62,764.86,623.19z"/>
		<path class="st40" d="M941.55,661.84v-42.4c0,0-4.46-24.51-39.14-18c-34.68,6.51-28.56,32.41-40.79,25.58
			c-12.24-6.83-14.79-5.92-18.87,0c-4.08,5.92-9.18,14.05-13.77,4.63c-4.59-9.42-1.53-30.35-10.71-24.73
			c-9.18,5.62-2.04,22.95-9.69,26.78c-7.65,3.83-8.16-11.65-14.28-9.52c-6.12,2.13-3.57,14.27-10.71,14.57
			c-7.14,0.3-13-68.13-18.74-15.56v38.65"/>
		<rect x="764.86" y="553.14" class="st36" width="176.69" height="119.31"/>
		<rect x="619.91" y="542.61" class="st41" width="471.25" height="232.23"/>
		<polygon class="st42" points="619.91,542.06 619.91,524.77 698.95,524.77 698.95,540.06 1091.16,540.06 1091.16,542.27 
			619.91,542.27 		"/>
	</g>
	<line class="st43" x1="259.41" y1="774.34" x2="619.96" y2="774.34"/>
	<line class="st43" x1="514.16" y1="650.65" x2="619.96" y2="650.65"/>
	<line class="st43" x1="483.22" y1="714.14" x2="619.96" y2="714.14"/>
	<line class="st44" x1="77.49" y1="673.87" x2="260.34" y2="774.34"/>
	<line class="st44" x1="470.63" y1="624.23" x2="515.81" y2="650.65"/>
	<line class="st44" x1="373.9" y1="714.14" x2="491.24" y2="714.14"/>
	<line class="st45" x1="79.77" y1="526.5" x2="79.77" y2="675.64"/>
	<line class="st45" x1="293.39" y1="670.78" x2="375.44" y2="714.14"/>
	<line class="st45" x1="472.06" y1="572.89" x2="472.06" y2="626.77"/>
	<g>
		<g>
			<g>
				<polyline class="st1" points="393.34,530.28 393.34,523.83 386.89,523.83 				"/>
				<polyline class="st1" points="386.76,523.7 386.76,517.24 380.31,517.24 				"/>
				<polyline class="st1" points="380.31,517.24 380.31,510.79 373.85,510.79 				"/>
				<polyline class="st1" points="373.72,510.66 373.72,504.21 367.27,504.21 				"/>
				<polyline class="st1" points="367.27,504.21 367.27,497.75 360.82,497.75 				"/>
				<polyline class="st1" points="360.69,497.63 360.69,491.17 354.23,491.17 				"/>
			</g>
			<g>
				<polygon class="st39" points="393.34,523.76 420.99,508.19 420.99,514.78 393.34,530.35 				"/>
				<polygon class="st39" points="386.89,517.18 414.54,501.61 414.54,508.19 386.89,523.76 				"/>
				<polygon class="st39" points="380.31,510.73 407.96,495.16 407.96,501.74 380.31,517.31 				"/>
				<polygon class="st39" points="373.85,504.14 401.5,488.57 401.5,495.16 373.85,510.73 				"/>
				<polygon class="st39" points="367.27,497.69 394.92,482.12 394.92,488.7 367.27,504.27 				"/>
				<polygon class="st39" points="360.82,491.11 388.47,475.54 388.47,482.12 360.82,497.69 				"/>
			</g>
			<g>
				<polygon class="st4" points="393.34,523.76 420.99,508.19 414.54,508.19 386.89,523.76 				"/>
				<polygon class="st4" points="386.89,517.18 414.54,501.61 408.09,501.61 380.44,517.18 				"/>
				<polygon class="st4" points="380.31,510.73 407.96,495.16 401.5,495.16 373.85,510.73 				"/>
				<polygon class="st4" points="373.85,504.14 401.5,488.57 395.05,488.57 367.4,504.14 				"/>
				<polygon class="st4" points="367.27,497.69 394.92,482.12 388.47,482.12 360.82,497.69 				"/>
				<polygon class="st4" points="360.82,491.11 388.47,475.54 382.01,475.54 354.36,491.11 				"/>
			</g>
		</g>
		<g>
			<g>
				<polyline class="st1" points="363.31,621.83 363.31,615.38 369.76,615.38 				"/>
				<polyline class="st1" points="369.89,615.25 369.89,608.79 376.35,608.79 				"/>
				<polyline class="st1" points="376.35,608.79 376.35,602.34 382.8,602.34 				"/>
				<polyline class="st1" points="382.93,602.21 382.93,595.76 389.38,595.76 				"/>
				<polyline class="st1" points="389.38,595.76 389.38,589.3 395.84,589.3 				"/>
				<polyline class="st1" points="395.97,589.18 395.97,582.72 402.42,582.72 				"/>
			</g>
			<g>
				<polygon class="st39" points="363.31,615.31 335.66,599.74 335.66,606.33 363.31,621.9 				"/>
				<polygon class="st39" points="369.76,608.73 342.11,593.16 342.11,599.74 369.76,615.31 				"/>
				<polygon class="st39" points="376.35,602.28 348.7,586.71 348.7,593.29 376.35,608.86 				"/>
				<polygon class="st39" points="382.8,595.69 355.15,580.12 355.15,586.71 382.8,602.28 				"/>
				<polygon class="st39" points="389.38,589.24 361.73,573.67 361.73,580.25 389.38,595.82 				"/>
				<polygon class="st39" points="395.84,582.66 368.19,567.09 368.19,573.67 395.84,589.24 				"/>
			</g>
			<g>
				<polygon class="st4" points="363.31,615.31 335.66,599.74 342.11,599.74 369.76,615.31 				"/>
				<polygon class="st4" points="369.76,608.73 342.11,593.16 348.57,593.16 376.22,608.73 				"/>
				<polygon class="st4" points="376.35,602.28 348.7,586.71 355.15,586.71 382.8,602.28 				"/>
				<polygon class="st4" points="382.8,595.69 355.15,580.12 361.61,580.12 389.26,595.69 				"/>
				<polygon class="st4" points="389.38,589.24 361.73,573.67 368.19,573.67 395.84,589.24 				"/>
				<polygon class="st4" points="395.84,582.66 368.19,567.09 374.64,567.09 402.29,582.66 				"/>
			</g>
		</g>
		<g>
			<g>
				<polyline class="st1" points="189.7,610.06 189.7,603.61 183.25,603.61 				"/>
				<polyline class="st1" points="183.12,603.48 183.12,597.02 176.66,597.02 				"/>
				<polyline class="st1" points="176.66,597.02 176.66,590.57 170.21,590.57 				"/>
				<polyline class="st1" points="170.08,590.44 170.08,583.99 163.63,583.99 				"/>
				<polyline class="st1" points="163.63,583.99 163.63,577.53 157.17,577.53 				"/>
				<polyline class="st1" points="157.04,577.4 157.04,570.95 150.59,570.95 				"/>
			</g>
			<g>
				<polygon class="st39" points="189.7,603.54 217.35,587.97 217.35,594.56 189.7,610.13 				"/>
				<polygon class="st39" points="183.25,596.96 210.9,581.39 210.9,587.97 183.25,603.54 				"/>
				<polygon class="st39" points="176.66,590.51 204.31,574.94 204.31,581.52 176.66,597.09 				"/>
				<polygon class="st39" points="170.21,583.92 197.86,568.35 197.86,574.94 170.21,590.51 				"/>
				<polygon class="st39" points="163.63,577.47 191.28,561.9 191.28,568.48 163.63,584.05 				"/>
				<polygon class="st39" points="157.17,570.89 184.82,555.32 184.82,561.9 157.17,577.47 				"/>
			</g>
			<g>
				<polygon class="st4" points="189.7,603.54 217.35,587.97 210.9,587.97 183.25,603.54 				"/>
				<polygon class="st4" points="183.25,596.96 210.9,581.39 204.44,581.39 176.79,596.96 				"/>
				<polygon class="st4" points="176.66,590.51 204.31,574.94 197.86,574.94 170.21,590.51 				"/>
				<polygon class="st4" points="170.21,583.92 197.86,568.35 191.4,568.35 163.75,583.92 				"/>
				<polygon class="st4" points="163.63,577.47 191.28,561.9 184.82,561.9 157.17,577.47 				"/>
				<polygon class="st4" points="157.17,570.89 184.82,555.32 178.37,555.32 150.72,570.89 				"/>
			</g>
		</g>
		<g>
			<g>
				<polyline class="st1" points="400.62,477.08 400.62,470.62 394.16,470.62 				"/>
				<polyline class="st1" points="394.04,470.5 394.04,464.04 387.58,464.04 				"/>
				<polyline class="st1" points="387.58,464.04 387.58,457.59 381.13,457.59 				"/>
				<polyline class="st1" points="381,457.46 381,451 374.54,451 				"/>
				<polyline class="st1" points="374.54,451 374.54,444.55 368.09,444.55 				"/>
				<polyline class="st1" points="367.96,444.42 367.96,437.97 361.51,437.97 				"/>
			</g>
			<g>
				<polygon class="st39" points="400.62,470.56 428.27,454.99 428.27,461.57 400.62,477.14 				"/>
				<polygon class="st39" points="394.16,463.98 421.81,448.41 421.81,454.99 394.16,470.56 				"/>
				<polygon class="st39" points="387.58,457.52 415.23,441.95 415.23,448.54 387.58,464.11 				"/>
				<polygon class="st39" points="381.13,450.94 408.78,435.37 408.78,441.95 381.13,457.52 				"/>
				<polygon class="st39" points="374.54,444.49 402.2,428.92 402.2,435.5 374.54,451.07 				"/>
				<polygon class="st39" points="368.09,437.9 395.74,422.33 395.74,428.92 368.09,444.49 				"/>
			</g>
			<g>
				<polygon class="st4" points="400.62,470.56 428.27,454.99 421.81,454.99 394.16,470.56 				"/>
				<polygon class="st4" points="394.16,463.98 421.81,448.41 415.36,448.41 387.71,463.98 				"/>
				<polygon class="st4" points="387.58,457.52 415.23,441.95 408.78,441.95 381.13,457.52 				"/>
				<polygon class="st4" points="381.13,450.94 408.78,435.37 402.32,435.37 374.67,450.94 				"/>
				<polygon class="st4" points="374.54,444.49 402.2,428.92 395.74,428.92 368.09,444.49 				"/>
				<polygon class="st4" points="368.09,437.9 395.74,422.33 389.29,422.33 361.64,437.9 				"/>
			</g>
		</g>
		<g>
			<g>
				<polyline class="st1" points="267.51,285.5 267.51,279.04 273.96,279.04 				"/>
				<polyline class="st1" points="274.09,278.91 274.09,272.46 280.55,272.46 				"/>
				<polyline class="st1" points="280.55,272.46 280.55,266.01 287,266.01 				"/>
				<polyline class="st1" points="287.13,265.88 287.13,259.42 293.58,259.42 				"/>
				<polyline class="st1" points="293.58,259.42 293.58,252.97 300.04,252.97 				"/>
				<polyline class="st1" points="300.16,252.84 300.16,246.39 306.62,246.39 				"/>
			</g>
			<g>
				<polygon class="st39" points="267.51,278.98 239.86,263.41 239.86,269.99 267.51,285.56 				"/>
				<polygon class="st39" points="273.96,272.4 246.31,256.83 246.31,263.41 273.96,278.98 				"/>
				<polygon class="st39" points="280.55,265.94 252.9,250.37 252.9,256.95 280.55,272.52 				"/>
				<polygon class="st39" points="287,259.36 259.35,243.79 259.35,250.37 287,265.94 				"/>
				<polygon class="st39" points="293.58,252.9 265.93,237.34 265.93,243.92 293.58,259.49 				"/>
				<polygon class="st39" points="300.04,246.32 272.39,230.75 272.39,237.34 300.04,252.9 				"/>
			</g>
			<g>
				<polygon class="st4" points="267.51,278.98 239.86,263.41 246.31,263.41 273.96,278.98 				"/>
				<polygon class="st4" points="273.96,272.4 246.31,256.83 252.77,256.83 280.42,272.4 				"/>
				<polygon class="st4" points="280.55,265.94 252.9,250.37 259.35,250.37 287,265.94 				"/>
				<polygon class="st4" points="287,259.36 259.35,243.79 265.8,243.79 293.45,259.36 				"/>
				<polygon class="st4" points="293.58,252.9 265.93,237.34 272.39,237.34 300.04,252.9 				"/>
				<polygon class="st4" points="300.04,246.32 272.39,230.75 278.84,230.75 306.49,246.32 				"/>
			</g>
		</g>
		<g>
			<g>
				<polyline class="st1" points="221.77,527.59 221.77,521.13 228.22,521.13 				"/>
				<polyline class="st1" points="215.43,533.93 215.43,527.47 221.88,527.47 				"/>
				<polyline class="st1" points="228.35,521 228.35,514.55 234.81,514.55 				"/>
				<polyline class="st1" points="234.81,514.55 234.81,508.09 241.26,508.09 				"/>
				<polyline class="st1" points="241.39,507.97 241.39,501.51 247.84,501.51 				"/>
				<polyline class="st1" points="247.84,501.51 247.84,495.06 254.3,495.06 				"/>
				<polyline class="st1" points="254.43,494.93 254.43,488.48 260.88,488.48 				"/>
			</g>
			<g>
				<polygon class="st39" points="221.77,521.07 194.12,505.5 194.12,512.08 221.77,527.65 				"/>
				<polygon class="st39" points="228.22,514.48 200.57,498.92 200.57,505.5 228.22,521.07 				"/>
				<polygon class="st39" points="234.81,508.03 207.16,492.46 207.16,499.04 234.81,514.61 				"/>
				<polygon class="st39" points="241.26,501.45 213.61,485.88 213.61,492.46 241.26,508.03 				"/>
				<polygon class="st39" points="247.84,494.99 220.19,479.42 220.19,486.01 247.84,501.58 				"/>
				<polygon class="st39" points="254.3,488.41 226.65,472.84 226.65,479.42 254.3,494.99 				"/>
			</g>
			<g>
				<polygon class="st4" points="221.77,521.07 194.12,505.5 200.57,505.5 228.22,521.07 				"/>
				<polygon class="st4" points="228.22,514.48 200.57,498.92 207.03,498.92 234.68,514.48 				"/>
				<polygon class="st4" points="234.81,508.03 207.16,492.46 213.61,492.46 241.26,508.03 				"/>
				<polygon class="st4" points="241.26,501.45 213.61,485.88 220.06,485.88 247.72,501.45 				"/>
				<polygon class="st4" points="247.84,494.99 220.19,479.42 226.65,479.42 254.3,494.99 				"/>
				<polygon class="st4" points="254.3,488.41 226.65,472.84 233.1,472.84 260.75,488.41 				"/>
			</g>
		</g>
		<g>
			<g>
				<polyline class="st1" points="260.88,488.37 260.88,481.91 267.33,481.91 				"/>
				<polyline class="st1" points="267.46,481.79 267.46,475.33 273.92,475.33 				"/>
				<polyline class="st1" points="273.92,475.33 273.92,468.88 280.37,468.88 				"/>
				<polyline class="st1" points="280.5,468.75 280.5,462.29 286.95,462.29 				"/>
				<polyline class="st1" points="286.95,462.29 286.95,455.84 293.41,455.84 				"/>
				<polyline class="st1" points="293.54,455.71 293.54,449.26 299.99,449.26 				"/>
			</g>
			<g>
				<polygon class="st39" points="260.88,481.85 233.23,466.28 233.23,472.86 260.88,488.43 				"/>
				<polygon class="st39" points="267.33,475.27 239.68,459.7 239.68,466.28 267.33,481.85 				"/>
				<polygon class="st39" points="273.92,468.81 246.27,453.24 246.27,459.83 273.92,475.39 				"/>
				<polygon class="st39" points="280.37,462.23 252.72,446.66 252.72,453.24 280.37,468.81 				"/>
				<polygon class="st39" points="286.95,455.78 259.3,440.21 259.3,446.79 286.95,462.36 				"/>
				<polygon class="st39" points="293.41,449.19 265.76,433.62 265.76,440.21 293.41,455.78 				"/>
			</g>
			<g>
				<polygon class="st4" points="260.88,481.85 233.23,466.28 239.68,466.28 267.33,481.85 				"/>
				<polygon class="st4" points="267.33,475.27 239.68,459.7 246.14,459.7 273.79,475.27 				"/>
				<polygon class="st4" points="273.92,468.81 246.27,453.24 252.72,453.24 280.37,468.81 				"/>
				<polygon class="st4" points="280.37,462.23 252.72,446.66 259.18,446.66 286.83,462.23 				"/>
				<polygon class="st4" points="286.95,455.78 259.3,440.21 265.76,440.21 293.41,455.78 				"/>
				<polygon class="st4" points="293.41,449.19 265.76,433.62 272.21,433.62 299.86,449.19 				"/>
			</g>
		</g>
		<g id="deposito_1_">
			<g>
				<polygon class="st27" points="156.94,684.48 288.23,608.37 381.11,662.12 250.39,737.84 				"/>
				<g>
					<path class="st3" d="M288.23,608.37v-65.28c0-0.16-0.18-0.27-0.32-0.18l-133.04,75.58v65.65"/>
					<path class="st3" d="M288.23,608.37v-65.28c0-0.16,0.18-0.27,0.32-0.19l94.35,53.73v65.65"/>
					<polygon class="st10" points="156.07,684.13 288.23,608.37 381.56,662.23 249.4,738 					"/>
				</g>
				<polygon class="st48" points="351.69,669.7 309.84,645.22 331.88,632.48 373.73,656.96 				"/>
				<polygon class="st48" points="351.69,649.06 309.84,624.58 331.88,611.84 373.73,636.32 				"/>
				<polygon class="st48" points="351.69,628.36 309.84,603.89 331.88,591.15 373.73,615.62 				"/>
				<polygon class="st48" points="351.69,607.83 309.84,583.36 331.88,570.62 373.73,595.09 				"/>
				<g>
					<line class="st49" x1="309.84" y1="647.62" x2="309.84" y2="580.48"/>
					<line class="st49" x1="331.88" y1="635.18" x2="331.88" y2="568.05"/>
					<polygon class="st36" points="331.88,632.48 309.84,645.22 331.88,611.66 309.84,624.69 					"/>
					<polygon class="st36" points="331.88,591.15 309.84,603.89 331.88,570.32 309.84,583.36 					"/>
					<line class="st36" x1="309.84" y1="604.05" x2="331.88" y2="611.84"/>
					<line class="st36" x1="309.84" y1="624.58" x2="331.88" y2="591.02"/>
				</g>
				<polyline class="st48" points="351.69,669.7 309.84,645.22 331.88,632.48 373.73,656.96 				"/>
				<g id="caja_5_">
					<path class="st50" d="M326.02,640.08l-11.89-7.29c-0.02-0.01-0.02-0.04,0-0.05l9.99-5.77l11.93,7.31L326.02,640.08z"/>
					<path class="st50" d="M336.05,645.12v-10.85l-10.03,5.8v10.76c0,0.04,0.04,0.06,0.07,0.04L336.05,645.12z"/>
					<path class="st50" d="M314.09,643.61l0-10.8c0-0.02,0.02-0.04,0.04-0.02l11.89,7.29v10.76c0,0.04-0.04,0.06-0.08,0.04
						L314.09,643.61z"/>
					<polygon class="st50" points="319.58,645.45 319.58,641.27 324.18,644.09 324.18,648.27 					"/>
					<line class="st50" x1="330.09" y1="630.62" x2="320.05" y2="636.42"/>
				</g>
				<g id="caja2_3_">
					<path class="st50" d="M349.34,651.21l-21.01-12.19c-0.06-0.03-0.06-0.11,0-0.15l12.39-7.16l21.09,12.24
						c0.02,0.01,0.02,0.04,0,0.05L349.34,651.21z"/>
					<path class="st50" d="M361.86,657.5v-13.48c0-0.02-0.03-0.04-0.05-0.03l-12.47,7.21v13.51c0,0.01,0.01,0.01,0.01,0.01
						L361.86,657.5z"/>
					<path class="st50" d="M328.2,652.47v-13.38c0-0.07,0.07-0.11,0.13-0.07l21.01,12.19v13.51c0,0.01-0.01,0.01-0.01,0.01
						L328.2,652.47z"/>
					<polygon class="st50" points="336.37,655.54 336.37,650.32 347.9,656.99 347.9,662.21 					"/>
					<line class="st50" x1="350.87" y1="637.68" x2="338.35" y2="644.92"/>
				</g>
				<polyline class="st48" points="351.69,649.06 309.84,624.58 331.88,611.84 373.73,636.32 				"/>
				<polyline class="st48" points="351.69,628.36 309.84,603.89 331.88,591.15 373.73,615.62 				"/>
				<polyline class="st48" points="351.69,607.83 309.84,583.36 331.88,570.62 373.73,595.09 				"/>
				<g>
					<line class="st49" x1="351.69" y1="672.09" x2="351.69" y2="604.96"/>
					<line class="st49" x1="373.73" y1="659.66" x2="373.73" y2="592.52"/>
					<polygon class="st36" points="373.73,656.96 351.69,669.7 373.73,636.13 351.69,649.17 					"/>
					<polygon class="st36" points="373.73,615.62 351.69,628.36 373.73,594.8 351.69,607.83 					"/>
					<line class="st36" x1="351.69" y1="628.53" x2="373.73" y2="636.32"/>
					<line class="st36" x1="351.69" y1="649.06" x2="373.73" y2="615.49"/>
				</g>
			</g>
			<g>
				<polygon class="st48" points="191.11,690.74 222.66,673.74 199.59,661.87 168.04,678.88 				"/>
				<polygon class="st48" points="191.11,671.52 222.66,654.51 199.59,642.65 168.04,659.65 				"/>
				<polygon class="st48" points="191.11,652.24 222.66,635.24 199.59,623.37 168.04,640.38 				"/>
				<polygon class="st48" points="191.11,633.12 222.66,616.12 199.59,604.25 168.04,621.26 				"/>
				<g>
					<line class="st49" x1="222.66" y1="675.97" x2="222.66" y2="613.44"/>
					<line class="st49" x1="199.59" y1="664.39" x2="199.59" y2="601.86"/>
					<polygon class="st36" points="199.59,661.87 222.66,673.74 199.59,642.48 222.66,654.62 					"/>
					<polygon class="st36" points="199.59,623.37 222.66,635.24 199.59,603.98 222.66,616.12 					"/>
					<line class="st36" x1="222.66" y1="635.39" x2="199.59" y2="642.65"/>
					<line class="st36" x1="222.66" y1="654.51" x2="199.59" y2="623.25"/>
				</g>
				<polyline class="st48" points="191.11,690.74 222.66,673.74 199.59,661.87 168.04,678.88 				"/>
				<g id="caja2_2_">
					<path class="st50" d="M193.68,672.92l21.08-12.22c0.03-0.02,0.03-0.06,0-0.08l-12.45-7.2l-21.14,12.26L193.68,672.92z"/>
					<path class="st50" d="M181.16,679.22v-13.53l12.52,7.23v13.48c0,0.02-0.03,0.04-0.05,0.03L181.16,679.22z"/>
					<path class="st50" d="M214.82,674.19v-13.45c0-0.03-0.04-0.06-0.07-0.04l-21.08,12.22v13.48c0,0.02,0.03,0.04,0.05,0.03
						L214.82,674.19z"/>
					<polygon class="st50" points="206.65,677.25 206.65,672.03 195.12,678.7 195.12,683.92 					"/>
					<line class="st50" x1="192.16" y1="659.4" x2="204.67" y2="666.63"/>
				</g>
				<polyline class="st48" points="191.11,671.52 222.66,654.51 199.59,642.65 168.04,659.65 				"/>
				<g id="caja_4_">
					<path class="st50" d="M206.67,650.49l12.29-6.64c0.01-0.01,0.01-0.02,0-0.03l-9.68-6.32l-12.31,6.65L206.67,650.49z"/>
					<path class="st50" d="M196.38,654.98l0.59-10.83l9.7,6.34l-0.59,10.8c0,0.01-0.02,0.02-0.03,0.01L196.38,654.98z"/>
					<path class="st50" d="M218.39,654.67l0.59-10.8c0-0.01-0.01-0.02-0.02-0.01l-12.28,6.64l-0.59,10.8c0,0.01,0.01,0.02,0.03,0.02
						L218.39,654.67z"/>
					<polygon class="st50" points="212.76,656.16 212.99,651.98 208.24,654.55 208.01,658.72 					"/>
					<line class="st50" x1="203.12" y1="640.83" x2="212.83" y2="647.16"/>
				</g>
				<g id="caja_3_">
					<path class="st50" d="M193.08,657.98l12.29-6.64c0.01-0.01,0.01-0.02,0-0.03l-9.68-6.32l-12.08,6.53
						c-0.1,0.06-0.11,0.2-0.01,0.27L193.08,657.98z"/>
					<path class="st50" d="M182.79,662.47l0.58-10.56c0.01-0.12,0.14-0.19,0.24-0.12l9.48,6.19l-0.59,10.79
						c0,0.02-0.02,0.03-0.03,0.02L182.79,662.47z"/>
					<path class="st50" d="M204.8,662.16l0.59-10.8c0-0.01-0.01-0.02-0.02-0.01l-12.29,6.64l-0.59,10.79c0,0.02,0.02,0.03,0.03,0.02
						L204.8,662.16z"/>
					<polygon class="st50" points="199.17,663.65 199.4,659.47 194.65,662.04 194.42,666.22 					"/>
					<line class="st50" x1="189.53" y1="648.32" x2="199.24" y2="654.65"/>
				</g>
				<polyline class="st48" points="191.11,652.24 222.66,635.24 199.59,623.37 168.04,640.38 				"/>
				<polyline class="st48" points="191.11,633.12 222.66,616.12 199.59,604.25 168.04,621.26 				"/>
				<g id="caja2_1_">
					<path class="st50" d="M193.68,616.42l21.13-12.26c0,0,0-0.01,0-0.01l-12.51-7.23l-21.12,12.25c-0.01,0.01-0.01,0.02,0,0.02
						L193.68,616.42z"/>
					<path class="st50" d="M181.16,622.72v-13.51c0-0.01,0.01-0.02,0.02-0.01l12.5,7.22v13.47c0,0.03-0.03,0.05-0.05,0.03
						L181.16,622.72z"/>
					<path class="st50" d="M214.82,617.69v-13.52c0,0,0-0.01-0.01,0l-21.13,12.26v13.47c0,0.03,0.03,0.05,0.05,0.03L214.82,617.69z"
						/>
					<polygon class="st50" points="206.65,620.76 206.65,615.54 195.12,622.2 195.12,627.42 					"/>
					<line class="st50" x1="192.16" y1="602.9" x2="204.67" y2="610.13"/>
				</g>
				<g>
					<line class="st49" x1="191.11" y1="692.97" x2="191.11" y2="630.44"/>
					<line class="st49" x1="168.04" y1="681.39" x2="168.04" y2="618.86"/>
					<polygon class="st36" points="168.04,678.88 191.11,690.74 168.04,659.48 191.11,671.62 					"/>
					<polygon class="st36" points="168.04,640.38 191.11,652.24 168.04,620.98 191.11,633.12 					"/>
					<line class="st36" x1="191.11" y1="652.4" x2="168.04" y2="659.65"/>
					<line class="st36" x1="191.11" y1="671.52" x2="168.04" y2="640.26"/>
				</g>
			</g>
			<g id="pallet_1_">
				<ellipse class="st48" cx="262.24" cy="706.39" rx="1.79" ry="3.57"/>
				<ellipse class="st48" cx="263" cy="706.39" rx="1.79" ry="3.57"/>
				<ellipse class="st48" cx="238.99" cy="692.72" rx="1.79" ry="3.57"/>
				<ellipse class="st48" cx="239.75" cy="692.72" rx="1.79" ry="3.57"/>
				<ellipse class="st48" cx="283.95" cy="694.29" rx="1.79" ry="3.57"/>
				<ellipse class="st48" cx="284.71" cy="694.29" rx="1.79" ry="3.57"/>
				<ellipse class="st48" cx="307.2" cy="679.88" rx="1.79" ry="3.57"/>
				<ellipse class="st48" cx="307.96" cy="679.88" rx="1.79" ry="3.57"/>
				<path class="st33" d="M262.24,701.93l47.48-27.76c0.02-0.01,0.02-0.05,0-0.06l-24.98-14.44l-47.45,27.75
					c-0.04,0.02-0.04,0.07,0,0.09L262.24,701.93z"/>
				<path class="st18" d="M237.2,691.09v-3.54c0-0.04,0.05-0.07,0.08-0.05l24.95,14.42v3.53c0,0.04-0.05,0.07-0.08,0.05
					L237.2,691.09z"/>
				<path class="st18" d="M309.77,674.19v3.57l-47.45,27.75c-0.04,0.02-0.08-0.01-0.08-0.05v-3.53l47.48-27.76
					C309.74,674.15,309.77,674.17,309.77,674.19z"/>
			</g>
			<g>
				<path class="st50" d="M285.7,674.33l18.2-10.55c0.01,0,0.01-0.02,0-0.02l-10.77-6.22l-18.21,10.56L285.7,674.33z"/>
				<path class="st50" d="M274.92,679.76V668.1l10.78,6.23v11.63c0,0.01-0.01,0.02-0.02,0.01L274.92,679.76z"/>
				<path class="st50" d="M303.91,675.42v-11.64c0-0.01-0.01-0.01-0.02-0.01l-18.2,10.55v11.63c0,0.01,0.01,0.02,0.02,0.01
					L303.91,675.42z"/>
				<polygon class="st50" points="296.87,677.94 296.87,673.45 286.94,679.19 286.94,683.69 				"/>
				<line class="st50" x1="284.39" y1="662.68" x2="295.17" y2="668.92"/>
				<path class="st50" d="M253.47,679.93l18.21-10.56l-10.78-6.23l-18.17,10.54c-0.02,0.01-0.02,0.04,0,0.05L253.47,679.93z"/>
				<path class="st50" d="M242.69,685.36v-11.61c0-0.02,0.02-0.03,0.04-0.02l10.74,6.21v11.57c0,0.04-0.04,0.06-0.07,0.04
					L242.69,685.36z"/>
				<path class="st50" d="M271.68,681.02v-11.66l-18.21,10.56v11.57c0,0.04,0.04,0.06,0.07,0.04L271.68,681.02z"/>
				<polygon class="st50" points="264.65,683.54 264.65,679.04 254.71,684.79 254.71,689.29 				"/>
				<line class="st50" x1="252.16" y1="668.28" x2="262.94" y2="674.51"/>
				<path class="st50" d="M265.71,685.98l18.2-10.55c0.01,0,0.01-0.02,0-0.02l-10.77-6.22l-18.21,10.56L265.71,685.98z"/>
				<path class="st50" d="M254.93,691.41v-11.66l10.78,6.23v11.58c0,0.04-0.04,0.06-0.07,0.04L254.93,691.41z"/>
				<path class="st50" d="M283.93,687.08v-11.64c0-0.01-0.01-0.01-0.02-0.01l-18.19,10.55v11.58c0,0.04,0.04,0.06,0.07,0.04
					L283.93,687.08z"/>
				<polygon class="st50" points="276.89,689.59 276.89,685.1 266.95,690.84 266.95,695.34 				"/>
				<line class="st50" x1="264.4" y1="674.34" x2="275.19" y2="680.57"/>
				<path class="st50" d="M273.64,656.21l18.18-10.55c0.01-0.01,0.01-0.03,0-0.03l-10.75-6.21l-18.19,10.55
					c-0.01,0.01-0.01,0.02,0,0.02L273.64,656.21z"/>
				<path class="st50" d="M262.86,661.63V650c0-0.01,0.01-0.02,0.02-0.01l10.76,6.22v11.66L262.86,661.63z"/>
				<path class="st50" d="M291.85,657.3v-11.62c0-0.02-0.02-0.02-0.03-0.02l-18.18,10.55v11.66L291.85,657.3z"/>
				<polygon class="st50" points="284.81,660.71 284.81,656.21 274.88,661.95 274.88,666.45 				"/>
				<line class="st50" x1="272.33" y1="644.56" x2="283.11" y2="650.79"/>
				<polygon class="st50" points="285.88,662.26 304.09,651.7 304.09,651.7 293.31,645.47 275.1,656.03 				"/>
				<polygon class="st50" points="275.1,667.69 275.1,656.03 285.88,662.26 285.88,673.92 				"/>
				<polygon class="st50" points="304.09,663.35 304.09,651.7 304.09,651.7 285.88,662.26 285.88,673.92 				"/>
				<polygon class="st50" points="297.05,665.87 297.05,661.37 287.12,667.12 287.12,671.62 				"/>
				<line class="st50" x1="284.57" y1="650.61" x2="295.35" y2="656.85"/>
				<path class="st50" d="M253.65,667.86l18.19-10.55c0.01-0.01,0.01-0.02,0-0.02l-10.76-6.22l-18.19,10.55
					c-0.01,0.01-0.01,0.02,0,0.03L253.65,667.86z"/>
				<path class="st50" d="M242.87,673.28v-11.63c0-0.01,0.01-0.02,0.03-0.01l10.76,6.22v11.66L242.87,673.28z"/>
				<path class="st50" d="M271.86,668.95v-11.63c0-0.01-0.01-0.02-0.02-0.01l-18.19,10.55v11.66L271.86,668.95z"/>
				<polygon class="st50" points="264.83,671.47 264.83,666.97 254.89,672.72 254.89,677.21 				"/>
				<line class="st50" x1="252.34" y1="656.21" x2="263.12" y2="662.44"/>
				<path class="st50" d="M265.89,673.91l18.17-10.54c0.02-0.01,0.02-0.04,0-0.05l-10.74-6.21l-18.21,10.56L265.89,673.91z"/>
				<polygon class="st50" points="255.11,679.34 255.11,667.68 265.89,673.91 265.89,685.57 				"/>
				<path class="st50" d="M284.1,675.01v-11.6c0-0.02-0.03-0.04-0.05-0.03l-18.17,10.54v11.66L284.1,675.01z"/>
				<polygon class="st50" points="277.07,677.52 277.07,673.03 267.13,678.77 267.13,683.27 				"/>
				<line class="st50" x1="264.58" y1="662.27" x2="275.36" y2="668.5"/>
			</g>
			<polyline class="st33" points="281.26,611.14 281.26,553.69 260.14,564.58 260.14,623.37 			"/>
			<circle class="st36" cx="264.26" cy="594.75" r="1.49"/>
			<g>
				<polygon class="st7" points="245.51,593.89 245.91,592.24 244.05,590.16 240.26,591.33 239.18,591.88 239,593.6 				"/>
				<polygon class="st7" points="242.55,620.22 246.52,622.17 244.54,631.09 243.28,626.91 				"/>
				<path class="st51" d="M242.46,647.85l0.36,2.47c0,0,7.36-2.01,8.61-2.79c1.26-0.78-0.42-2.04-2.45-1.14
					c-0.96,0.48-1.85-0.36-1.85-0.36"/>
				<path class="st51" d="M232.83,641.73l-1.26,1.3c0,0,3.18,5.93,5.06,5.93s0.26-2.57-0.63-3.62c-0.9-1.05-0.29-1.13-0.29-1.13"/>
				<path class="st51" d="M240.43,636.69l-4.31,7.65c0,0-2.27-0.46-3.29-3.03c2.27-3.77,6.12-11.11,6.17-12.52"/>
				<path class="st51" d="M244.67,598.49c0,0,2.09-0.18,2.99,0.84c0.9,1.02,2.25,1.96,4.74,5.73c2.24,4.53-0.21,10.19-0.21,10.19
					s-0.29-1.22-1.83-0.27c-1.06-2.9,1-3.44-0.06-6.08c-0.54-1.34-3.18-5.55-3.18-5.55"/>
				<path class="st51" d="M239.32,597.86l0.09,1.47l0,0c3.08,2.79,5.33-0.15,5.33-0.15l0,0l-0.07-0.68c0,0-0.5,0.08-0.78-0.44
					l-3.91-0.75c-0.22,0.98-0.76,0.77-0.76,0.77"/>
				<path class="st51" d="M245.73,592.84c0,0-0.01,0.4-0.07,1c-0.19,1.71-0.86,5-3.32,4.66c-3.31-0.46-2.98-3.31-2.98-3.31
					s-1.09-0.92-1.09-1.48s0.4-2.12,1.5-1.89c2.02,0.41,3.29,0.55,4.69-0.95c0.93,2.09,1.27,1.89,1.27,1.89s-0.02-0.84-0.05-1.89
					s-1.16-3.13-4.31-2.81c-3.89,0.39-2.92,5-2.92,5"/>
				<path class="st51" d="M237.97,623.13l4.49,24.72c0,0,4.01-0.86,4.66-1.81c-0.54-3.41-3.83-23.86-3.83-23.86"/>
				<line class="st51" x1="237.97" y1="623.13" x2="236.63" y2="603.34"/>
				<path class="st51" d="M237.16,603.23c0,0-0.94,1.63-1.97,3.87c-0.98,2.13,0.47,7.12,0.47,7.12s-0.23,1.54-0.3,2.22
					c-0.08,0.74-0.24,1.74-0.24,1.74s-4.27-5.66-4.27-7.52c0-1.86,2.33-9.23,3.53-11.44c1.2-2.21,4.81-1.13,4.81-1.13"/>
				<path class="st51" d="M247.12,603.34c0,0,0.56,13.57,0,17.71l-2.49,9.44"/>
				<path class="st51" d="M237.96,592.44c0,0-0.76-4.65,3.23-4.85c3.98-0.21,4.83,2.34,4.85,2.85c0.02,0.51-0.16,1.16,0.07,1.33
					c0.23,0.17,1.37,0.17,0.82,0.82C246.74,592.81,240.03,593.1,237.96,592.44z"/>
				<g id="caja_2_">
					<path class="st50" d="M242.59,614.08l9.6-5.19c0.01,0,0.01-0.02,0-0.02l-7.57-4.94l-9.61,5.2c0,0,0,0.01,0,0.01L242.59,614.08z
						"/>
					<path class="st50" d="M234.54,617.59l0.46-8.45c0-0.01,0.01-0.01,0.01-0.01l7.58,4.95l-0.46,8.44c0,0.01-0.01,0.02-0.02,0.01
						L234.54,617.59z"/>
					<path class="st50" d="M251.75,617.35l0.46-8.44c0-0.01-0.01-0.02-0.02-0.01l-9.6,5.19l-0.46,8.44c0,0.01,0.01,0.02,0.02,0.01
						L251.75,617.35z"/>
					<polygon class="st50" points="247.35,618.51 247.52,615.25 243.81,617.25 243.63,620.52 					"/>
					<line class="st50" x1="239.81" y1="606.53" x2="247.4" y2="611.48"/>
				</g>
			</g>
			<g>
				<path class="st7" d="M294.39,650.79c0,0,7.18-2.39,9.22-0.64s0,12.05,0,12.05l-6.74,4.24l-3.08-9.15L294.39,650.79z"/>
				<polygon class="st7" points="295.41,645.52 295,643.87 296.86,641.79 300.66,642.97 301.74,643.52 301.92,645.23 				"/>
				<polygon class="st7" points="298.37,671.86 294.39,673.81 296.38,682.72 297.64,678.54 				"/>
				<path class="st51" d="M298.46,699.48l-0.36,2.47c0,0-7.36-2.01-8.61-2.79s0.42-2.04,2.45-1.14c0.96,0.48,1.85-0.36,1.85-0.36"/>
				<path class="st51" d="M308.09,693.36l1.26,1.3c0,0-3.18,5.93-5.06,5.93c-1.88,0-0.26-2.57,0.63-3.62
					c0.9-1.05,0.29-1.13,0.29-1.13"/>
				<path class="st51" d="M300.48,688.33l4.31,7.65c0,0,2.27-0.46,3.29-3.03c-2.27-3.77-6.12-11.11-6.17-12.52"/>
				<path class="st51" d="M296.24,650.12c0,0-2.09-0.18-2.99,0.84s-2.25,1.96-4.74,5.73c-2.24,4.53,0.21,10.19,0.21,10.19
					s0.29-1.22,1.83-0.27c1.06-2.9-1-3.44,0.06-6.08c0.54-1.34,3.18-5.55,3.18-5.55"/>
				<path class="st51" d="M301.6,649.49l-0.09,1.47l0,0c-3.08,2.79-5.33-0.15-5.33-0.15l0,0l0.07-0.68c0,0,0.5,0.08,0.78-0.44
					l3.91-0.75c0.22,0.98,0.76,0.77,0.76,0.77"/>
				<path class="st51" d="M295.19,644.48c0,0,0.01,0.4,0.07,1c0.19,1.71,0.86,5,3.32,4.66c3.31-0.46,2.98-3.31,2.98-3.31
					s1.09-0.92,1.09-1.48s-0.4-2.12-1.5-1.89c-2.02,0.41-3.29,0.55-4.69-0.95c-0.93,2.09-1.27,1.89-1.27,1.89s0.02-0.84,0.05-1.89
					c0.03-1.05,1.16-3.13,4.31-2.81c3.89,0.39,2.92,5,2.92,5"/>
				<path class="st51" d="M302.94,674.76l-4.49,24.72c0,0-4.01-0.86-4.66-1.81c0.54-3.41,3.83-23.86,3.83-23.86"/>
				<line class="st51" x1="302.94" y1="674.76" x2="304.28" y2="654.97"/>
				<path class="st51" d="M303.76,654.86c0,0,0.94,1.63,1.97,3.87c0.98,2.13-0.47,7.12-0.47,7.12s0.23,1.54,0.3,2.22
					c0.08,0.74,0.24,1.74,0.24,1.74s4.27-5.66,4.27-7.52s-2.33-9.23-3.53-11.44c-1.2-2.21-4.81-1.13-4.81-1.13"/>
				<path class="st51" d="M293.79,654.97c0,0-0.56,13.57,0,17.71l2.49,9.44"/>
				<path class="st51" d="M302.96,644.07c0,0,0.76-4.65-3.23-4.85c-3.98-0.21-4.83,2.34-4.85,2.85s0.16,1.16-0.07,1.33
					c-0.23,0.17-1.37,0.17-0.82,0.82C294.18,644.45,300.88,644.73,302.96,644.07z"/>
				<g id="caja_1_">
					<path class="st50" d="M298.33,665.72l-9.6-5.19c-0.01,0-0.01-0.02,0-0.02l7.57-4.94l9.61,5.2c0,0,0,0.01,0,0.01L298.33,665.72z
						"/>
					<path class="st50" d="M306.38,669.23l-0.46-8.45c0-0.01-0.01-0.01-0.01-0.01l-7.58,4.95l0.46,8.44c0,0.01,0.01,0.02,0.02,0.01
						L306.38,669.23z"/>
					<path class="st50" d="M289.17,668.98l-0.46-8.44c0-0.01,0.01-0.02,0.02-0.01l9.6,5.19l0.46,8.44c0,0.01-0.01,0.02-0.02,0.01
						L289.17,668.98z"/>
					<polygon class="st50" points="293.57,670.15 293.39,666.88 297.11,668.89 297.28,672.15 					"/>
					<line class="st50" x1="301.11" y1="658.16" x2="293.52" y2="663.12"/>
				</g>
			</g>
		</g>
		<g id="recepcion_1_">
			<polygon class="st39" points="358.05,555.58 450.93,608.61 581.58,533.83 488.57,478.75 			"/>
			<g>
				<path class="st3" d="M488.25,479.96v-65.28c0-0.16-0.18-0.27-0.32-0.18l-133.04,75.58v65.65"/>
				<path class="st3" d="M488.25,479.96v-65.28c0-0.16,0.18-0.27,0.32-0.19l94.35,53.73v65.65"/>
				<polygon class="st10" points="356.09,555.72 488.25,479.96 581.58,533.83 449.42,609.59 				"/>
			</g>
			<g>
				<path class="st12" d="M485.24,480.99l11.76-7.21c0.08-0.05,0.08-0.16,0-0.21l-9.86-5.7l-11.77,7.21c-0.07,0.05-0.07,0.15,0,0.2
					L485.24,480.99z"/>
				<path class="st12" d="M475.2,486.03l0-10.65c0-0.09,0.1-0.14,0.17-0.1l9.86,5.7v10.85L475.2,486.03z"/>
				<path class="st12" d="M497.17,484.52v-10.63c0-0.09-0.1-0.15-0.18-0.1l-11.74,7.2v10.85L497.17,484.52z"/>
				<path class="st12" d="M485.24,470.14l11.77-7.22c0.07-0.04,0.07-0.15,0-0.19l-9.88-5.71l-11.86,7.27
					c-0.03,0.02-0.03,0.07,0,0.09L485.24,470.14z"/>
				<path class="st12" d="M475.2,475.12v-10.69c0-0.04,0.04-0.06,0.07-0.04l9.96,5.76v10.85l-9.98-5.77
					C475.23,475.2,475.2,475.16,475.2,475.12z"/>
				<path class="st12" d="M497.17,473.61v-10.58c0-0.09-0.09-0.14-0.17-0.09l-11.76,7.21v10.85l11.87-7.28
					C497.15,473.69,497.17,473.65,497.17,473.61z"/>
				<path class="st12" d="M485.24,459.46l11.91-7.3c0.01,0,0.01-0.02,0-0.02l-10.02-5.79l-11.88,7.28c-0.02,0.02-0.02,0.05,0,0.07
					L485.24,459.46z"/>
				<path class="st12" d="M475.2,464.48v-10.75c0-0.03,0.03-0.05,0.06-0.03l9.98,5.77v10.85l-10.01-5.78
					C475.21,464.52,475.2,464.5,475.2,464.48z"/>
				<path class="st12" d="M497.17,462.93v-10.76c0-0.01-0.01-0.01-0.02-0.01l-11.91,7.3v10.85l11.88-7.28
					C497.15,463.01,497.17,462.97,497.17,462.93z"/>
				<polyline class="st52" points="488.57,459.25 489.81,459.98 494.4,457.17 493.16,456.43 				"/>
				<polyline class="st52" points="488.57,470.45 489.81,471.18 494.4,468.37 493.16,467.63 				"/>
				<polyline class="st52" points="488.57,480.63 489.81,481.37 494.4,478.55 493.16,477.82 				"/>
			</g>
			<g id="mujer_2_">
				<path class="st7" d="M471.58,498.43c0,0,0.05,1.02-0.01,1.23s-0.11,0.47-0.05,0.66c0.06,0.19,0.38,1.52,0.38,1.52l-0.05,0.42
					l0.25-0.04l0.09-0.4l0.08-1.05l0.02-0.06c0,0,0.55,0.28,0.63,2.38c-0.16-0.09-0.21,0.11-0.21,0.11s-0.18,0.65-0.07,0.7
					c0.1,0.06,0.34-0.35,0.34-0.35s0.21,0.53,0.26,0.49s0.09-0.87,0.09-0.87l0.33-0.36l0.15-0.26l0.18-0.16l0.1-0.71l0.21,0.56
					l0.15,0.83l0.12,0.12l0.1-0.12l0.03-0.98l-0.38-1.18l-0.25-0.68l-1.14-1.36l-0.38-0.76L471.58,498.43z"/>
				<path class="st51" d="M467.67,473.61c0,0,0.28-1.3-1.11-1.97c-0.88-1.14-3.01-1.82-4.5-0.96s-1.84,2.84-1.35,4.38
					c0.13,0.16,0.18,1.73-0.63,2.03c-0.81,0.3-2.23,1.05-2.3,2.14c-0.07,1.09,0.03,1.27-1.51,2.06s-0.69,2.47-0.37,3.75
					c0.46-0.19,0.65-0.97,1.94-2.04c0,0,2.15-0.32,4.33-0.32"/>
				<path class="st7" d="M466.7,481.79l-2.08-0.69l-3.37,0.12l-1.37,17.7l7.26,1.91l1.53-1.88
					C468.67,498.95,468.94,482.87,466.7,481.79z"/>
				<path class="st51" d="M460.65,507.89c-1.08,1.61-4.34,0.86-4.34,0.86s-0.29-4.32,2.57-7.1"/>
				<path class="st51" d="M463.11,514.27l-4.97,7.02l-3.17-1.85c0,0,3.89-4.66,4.43-5.98s1.46-5.22,1.46-5.22"/>
				<path class="st51" d="M457.19,494.56c-0.72,7.34-5.66,16.7-5.66,16.7s4.86,0.64,4.78-1.19s0.16-3.24,0.44-3.84
					c0.28-0.6,2.17-4.7,4.07-8.77c5.26-11.04,0.95-16.61,0.95-16.61s-3.72,0.58-4.29,3.01c-0.57,2.43-0.61,3.79-1.17,5.26
					s-1.05,5.23,1.17,5.43s4.38-4.79,4.38-4.79s-1.44-0.08-2.35-1.44c-0.92,1.04-2.02,2.99-2.02,2.99"/>
				<path class="st51" d="M467.89,497.73c-0.74-3.57-0.14-2.93-0.1-8.63c0.04-5.7-1.75-7.69-1.75-7.69s0.25,0.01,0.63,0.13
					c0.73,0.22,1.93,0.82,2.8,2.42c1.32,2.43,1.95,7.18,3.19,9.25c1.24,2.07,1.63,4.27,0,4.86c-1.63,0.6-2.54,0.95-3.8-0.58"/>
				<path class="st51" d="M468.67,490.97c-0.67,4.11,1.67,17.06,2.55,20.57c0.88,3.51-5.18-3.14-5.18-3.14l1.85-10.53"/>
				<path class="st51" d="M463.23,500.24l6.64,20.87l-3.71,1.32l-7.39-19.5l-0.15-0.66c0,0,0.96-2.45,2.03-4.55
					c2.93,1.38,7.24,0,7.24,0s0.66,4.13-0.54,6.64c-1.2,2.51-1.32,4.69-1.32,4.69"/>
				<path class="st51" d="M466.4,522.43c0,0,1.71,3.03,1.83,4.03c0.12,1-0.04,1.44,1.83,1.24c1.87-0.2,5.22-2.71,4.98-3.83
					c-0.24-1.12-1.83,0.48-3.95-0.24s-1.89-2.28-1.89-2.28"/>
				<path class="st51" d="M455.46,519.72c0,0,0.01,0.99-1.27,1.31s-1.44,1.52-0.32,2.75s2.82,3.55,4.6,3.19s0.54-1.47-0.37-2.43
					s-2.04-1.94-0.37-3.49"/>
				<path class="st51" d="M472.82,523.78c0,0,0.17,1.84-2.28,1.99s-2.45,0.15-2.45,0.15"/>
				<path class="st51" d="M458.1,524.54c0,0,0.66,0.84-0.63,0.52s-3.8-3.47-3.28-4.03"/>
				<g>
					<path class="st53" d="M472.53,498.11c0,0,0.16,0.63,0.88,1.35s0.78,1.04,0.81,1.15c0.04,0.11,0.13,0.62,0.25,0.89
						s0.21,0.66,0.21,0.78c0,0.11-0.04,0.51-0.02,0.68s-0.11,0.28-0.19,0.17s-0.18-0.66-0.19-0.94c0-0.15-0.16-0.42-0.24-0.48"/>
					<path class="st53" d="M474.23,501.39c0,0-0.1,0.07-0.14,0.2s-0.05,0.77-0.15,0.9c-0.1,0.13-0.23,0.16-0.23,0.16"/>
					<path class="st53" d="M473.75,501.34c0,0-0.04,0.84-0.01,1.13c0.04,0.29-0.15,0.41-0.2,0.45c-0.05,0.05-0.21,0.26-0.21,0.26"/>
					<path class="st53" d="M473.41,501.12c0,0-0.16,0.44-0.01,1.4c0.04,0.19,0.05,0.17,0.04,0.25c-0.01,0.09-0.15,0.47-0.15,0.58
						s0.02,0.48,0.01,0.58c-0.01,0.1-0.06,0.17-0.17,0.05c-0.11-0.12-0.23-1.01-0.27-1.38c-0.03-0.36-0.11-1.04-0.31-1.49
						c-0.2-0.44-0.38-0.63-0.45-0.71"/>
					<path class="st53" d="M471.58,498.47c0,0,0.05,1.12-0.05,1.35c-0.1,0.23-0.05,0.46,0.07,0.76s0.33,1.1,0.3,1.33
						c-0.03,0.23-0.06,0.32-0.05,0.35c0.01,0.03,0.22,0.06,0.3-0.18c0.08-0.23,0.01-0.77,0.05-1.04c0.04-0.27,0.11-0.37,0.11-0.37"
						/>
					<path class="st53" d="M472.9,502.95c0,0-0.28,0.28-0.28,0.57c0,0.29-0.07,0.37,0.04,0.41s0.32-0.49,0.32-0.49"/>
				</g>
				<path class="st7" d="M459.91,488.75c0,0,0.8-0.77,0.92-1.05c0.12-0.28,1.12-0.7,1.12-0.7s0.82-0.5,0.83-0.72
					c0.2,0.16,0.04,0.53-0.13,0.62c-0.17,0.1-0.67,0.66-0.67,0.82c0.54-0.02,1.56-0.82,1.56-0.82s1.21-0.92,1.31-0.92
					c0.1,0,0.22,0.08,0.09,0.19c-0.13,0.11-0.52,0.57-0.55,0.69c-0.03,0.12,0.67-0.49,0.67-0.49s0.31-0.2,0.36-0.08
					c0.05,0.12-0.59,0.76-0.64,0.9c-0.05,0.15,0.48-0.22,0.64-0.23c0.16,0,0.15,0.02,0.02,0.16c-0.13,0.14-0.66,0.6-0.66,0.6
					s0.49-0.24,0.53-0.17c0.04,0.06-0.1,0.24-0.33,0.47c-0.22,0.23-0.52,0.53-0.95,0.66s-0.87,0.51-0.87,0.51s-1.53,0.09-1.82,0.17
					s-0.43,0.12-0.43,0.12S459.94,488.98,459.91,488.75z"/>
				<g>
					<path class="st53" d="M460.89,489.51c0,0-0.04-0.17,0.98-0.16c1.02,0.01,1.29-0.18,1.39-0.23c0.1-0.05,0.53-0.34,0.81-0.45
						s0.62-0.32,0.7-0.4c0.08-0.08,0.33-0.39,0.47-0.49c0.14-0.11,0.12-0.27-0.01-0.26c-0.13,0.02-0.59,0.33-0.8,0.53
						c-0.11,0.1-0.26,0.16-0.35,0.15"/>
					<path class="st53" d="M463.04,488.19c0,0,0.2-0.42,0.99-0.99c0.16-0.11,0.16-0.08,0.21-0.15s0.23-0.44,0.31-0.51
						c0.08-0.08,0.36-0.33,0.42-0.41c0.06-0.08,0.07-0.16-0.09-0.16s-0.89,0.55-1.17,0.78c-0.28,0.23-0.82,0.65-1.27,0.82
						c-0.45,0.17-0.72,0.17-0.82,0.18"/>
					<path class="st53" d="M463.81,487.99c0,0,0.32-0.35,0.63-0.54c0.16-0.11,0.16-0.08,0.21-0.15s0.28-0.42,0.36-0.49
						c0.08-0.08,0.3-0.35,0.37-0.43c0.06-0.08,0.07-0.16-0.09-0.16c-0.16,0.01-0.78,0.59-1.06,0.82"/>
					<path class="st53" d="M459.88,488.75c0,0,0.83-0.75,0.92-0.98s0.29-0.36,0.59-0.49c0.3-0.13,1.02-0.55,1.16-0.73
						c0.14-0.18,0.19-0.27,0.22-0.28c0.03-0.01,0.19,0.12,0.09,0.34c-0.11,0.22-0.54,0.55-0.7,0.77c-0.16,0.22-0.19,0.34-0.19,0.34"
						/>
					<path class="st53" d="M464.43,488.05c0.15-0.15,0.14-0.13,0.2-0.19c0.06-0.06,0.34-0.37,0.43-0.43
						c0.09-0.06,0.35-0.3,0.43-0.37c0.08-0.07,0.1-0.15-0.06-0.17c-0.16-0.02-0.78,0.44-1.09,0.63"/>
				</g>
				<path class="st51" d="M462.73,478.19c0,0,1.5,2.89,3.51,1.75c2.02-1.14,1.44-4.2,1.42-6.32c-0.01-0.79-1.3-1.33-1.3-1.33
					s-0.33,1-1.81,1.42c-1.48,0.42-2.18,0.7-2.18,2.23c-0.4-0.82-1.29-1.09-1.39-0.25c-0.1,0.84,0.7,1.57,1.12,2.02
					c0,0,0.21,2.59,0.18,2.89s-0.52,0.28-0.52,0.28c4.14,2.73,4.28,0.54,4.28,0.54s-0.52,0.12-0.58-1.15"/>
			</g>
			<g>
				<path class="st48" d="M509.63,502.31c0.58,6.04-2.21,12.38-8.4,15.68l-40.71,21.7c-4.75,2.53-10.48,2.65-15.24,0.13
					c-2.97-1.58-5.17-3.86-6.58-6.48c-0.4-0.73-0.55-1.52-0.49-2.28l-0.01,0.56v-19.35l71.5-26.94v19.53"/>
				<path class="st48" d="M506.36,475.44c-1.71-2.19-5.07-2.1-6.62,0.21c-1.06,1.58-2.32,3.03-3.77,4.35l-5.97,5.42
					c-3.74,3.11-7.71,5.89-11.89,8.36c-4.32,2.87-8.84,5.4-13.55,7.6c-4,2.04-8.15,3.69-12.45,4.93c-3.29,1.25-6.7,2.03-10.22,2.37
					c-0.12,0.03-0.24,0.05-0.37,0.07c-2.74,0.49-4.14,3.55-2.82,5.99c1.41,2.62,3.6,4.91,6.58,6.48c4.76,2.52,10.49,2.41,15.24-0.13
					l40.71-21.7C510.45,494.48,512.13,482.83,506.36,475.44z"/>
			</g>
			<path class="st54" d="M430.92,471.88c0,5.11-3.61,9.25-8.07,9.25s-8.07-3.24-8.07-8.35s3.61-10.15,8.07-10.15
				S430.92,466.77,430.92,471.88z"/>
			<circle cx="422.62" cy="472.1" r="0.61"/>
			<line class="st55" x1="422.63" y1="472.1" x2="422.63" y2="467.35"/>
			<line class="st55" x1="422.63" y1="472.1" x2="425.32" y2="472.1"/>
			<path class="st54" d="M449.85,461.14c0,5.11-3.61,9.25-8.07,9.25s-8.07-3.24-8.07-8.35s3.61-10.15,8.07-10.15
				S449.85,456.03,449.85,461.14z"/>
			<circle cx="441.56" cy="461.36" r="0.61"/>
			<line class="st55" x1="441.56" y1="461.36" x2="439.18" y2="457.25"/>
			<line class="st55" x1="441.86" y1="461.79" x2="443.95" y2="463.47"/>
			<path class="st54" d="M467.6,449.74c0,5.11-3.61,9.25-8.07,9.25c-4.46,0-8.07-3.24-8.07-8.35s3.61-10.15,8.07-10.15
				C463.98,440.49,467.6,444.63,467.6,449.74z"/>
			<g>
				<polyline class="st48" points="549.42,533.87 544.33,518.79 570.93,519.01 565.82,533.87 				"/>
				<ellipse class="st48" cx="557.62" cy="517.47" rx="13.73" ry="5.21"/>
				<ellipse class="st48" cx="557.62" cy="518.47" rx="11.05" ry="4.19"/>
				<path class="st48" d="M565.88,533.49c0,1.73-3.7,3.14-8.26,3.14c-4.56,0-8.26-1.4-8.26-3.14"/>
				<path class="st12" d="M557.22,517.59c0.9-3.06,5.17-16.75,10.18-18.55c2.66,5.6-7.61,16.39-9.91,18.71
					C557.37,517.88,557.17,517.76,557.22,517.59z"/>
				<path class="st12" d="M553.25,496.71c5.52,2.81,4,17.63,3.59,20.87c-0.02,0.17-0.25,0.2-0.32,0.04
					C555.36,514.64,550.38,501.2,553.25,496.71"/>
				<path class="st12" d="M545.1,499.2c6.16,0.65,10.01,15.05,10.79,18.22c0.04,0.17-0.17,0.28-0.28,0.15
					C553.47,515.21,544.02,504.43,545.1,499.2"/>
				<path class="st12" d="M562.63,497.29c3.77,4.91-3.99,17.63-5.76,20.38c-0.09,0.15-0.32,0.07-0.3-0.1
					C556.8,514.39,558.1,500.11,562.63,497.29"/>
				<path class="st12" d="M575.28,506.1c-0.18,6.19-14.23,11.14-17.33,12.16c-0.16,0.05-0.29-0.14-0.17-0.27
					C559.97,515.67,569.99,505.43,575.28,506.1"/>
				<path class="st12" d="M539.96,504.96c5.97-1.65,14.83,10.32,16.72,12.99c0.1,0.14-0.05,0.32-0.21,0.24
					C553.61,516.78,540.87,510.21,539.96,504.96"/>
				<ellipse class="st4" cx="557.21" cy="518.27" rx="1.4" ry="1.14"/>
			</g>
			<g>
				<polyline class="st12" points="469.92,563.08 465.38,560.87 447.33,569.8 451.75,572.33 				"/>
				<path class="st12" d="M470.19,585.35v-22.1c0,0,0-0.01-0.01,0l-24.05,11.81v21.97c0,0.06,0.06,0.1,0.12,0.07L470.19,585.35z"/>
				<path class="st12" d="M405.5,574.13v-21.99c0-0.05,0.06-0.09,0.1-0.06l40.53,22.98v21.96c0,0.06-0.07,0.1-0.12,0.07
					L405.5,574.13z"/>
				<path class="st12" d="M405.5,574.23v-22.06c0-0.03,0.02-0.05,0.04-0.06l24.27-10.29l4.08,2.48c0,0,0,0.01,0,0.01l-17.9,7.73"/>
				<path class="st12" d="M433.89,558.02V544.6c0-0.15-0.15-0.24-0.28-0.19l-17.27,7.46l9.48,5.72"/>
				<polyline class="st12" points="425.42,557.2 433.89,553.24 457.06,564.98 447.33,569.8 				"/>
				<path class="st12" d="M446.13,575.07l-40.51-22.97c-0.05-0.03-0.05-0.1,0.01-0.12l5.97-2.43l40.15,22.76L446.13,575.07z"/>
			</g>
			<polygon class="st48" points="465.52,503.1 486.63,491.16 492.82,494.82 471.37,507.05 			"/>
			<polygon class="st48" points="474.29,494.3 474.29,506.07 493.54,495.18 493.54,483.55 			"/>
			<polygon class="st48" points="479.72,504.81 487.42,500.51 490.67,502.43 482.79,506.88 			"/>
			<polygon class="st48" points="483.42,504.4 483.42,496.91 486.27,495.3 486.27,502.77 			"/>
			<polyline class="st33" points="386.85,538.59 386.85,479.03 365.73,489.92 365.73,550.83 			"/>
			<circle class="st36" cx="370.13" cy="523.77" r="1.49"/>
			<g>
				<path class="st12" d="M411.87,526.47l11.67-7.16c0.12-0.07,0.11-0.24,0-0.31l-9.77-5.65l-11.81,7.24
					c-0.05,0.03-0.05,0.11,0,0.14L411.87,526.47z"/>
				<path class="st12" d="M401.84,531.52v-10.7c0-0.06,0.07-0.1,0.12-0.07l9.91,5.73v10.82c0,0.01-0.01,0.02-0.03,0.01
					L401.84,531.52z"/>
				<path class="st12" d="M423.8,530l0-10.53c0-0.14-0.15-0.22-0.27-0.15l-11.66,7.15v10.82c0,0.01,0.01,0.02,0.03,0.01L423.8,530z"
					/>
				<path class="st12" d="M411.87,515.62l11.69-7.16c0.11-0.07,0.11-0.23,0-0.29l-9.79-5.66l-11.86,7.27
					c-0.03,0.02-0.03,0.06,0,0.08L411.87,515.62z"/>
				<path class="st12" d="M401.84,520.62V509.9c0-0.04,0.04-0.06,0.07-0.04l9.96,5.76v10.85l-9.99-5.77
					C401.85,520.68,401.84,520.65,401.84,520.62z"/>
				<path class="st12" d="M423.8,519.06v-10.44c0-0.13-0.15-0.21-0.26-0.14l-11.67,7.15v10.85l11.84-7.26
					C423.77,519.17,423.8,519.12,423.8,519.06z"/>
				<path class="st12" d="M411.87,504.94l11.9-7.3c0.01-0.01,0.01-0.02,0-0.03l-10.01-5.78l-11.92,7.3c-0.01,0-0.01,0.01,0,0.02
					L411.87,504.94z"/>
				<path class="st12" d="M401.84,509.99v-10.83c0-0.01,0.01-0.01,0.01-0.01l10.02,5.79v10.85L401.84,509.99z"/>
				<path class="st12" d="M423.8,508.48v-10.81c0-0.01-0.02-0.02-0.03-0.02l-11.9,7.3v10.85L423.8,508.48z"/>
				<polyline class="st52" points="415.2,504.73 416.44,505.47 421.04,502.65 419.79,501.91 				"/>
				<polyline class="st52" points="415.2,515.93 416.44,516.67 421.04,513.85 419.79,513.12 				"/>
				<polyline class="st52" points="415.2,526.12 416.44,526.85 421.04,524.04 419.79,523.3 				"/>
			</g>
			<g>
				<polyline class="st48" points="449.39,518.63 447.28,512.39 458.29,512.48 456.18,518.63 				"/>
				<ellipse class="st48" cx="452.78" cy="511.84" rx="5.68" ry="2.16"/>
				<ellipse class="st48" cx="452.78" cy="512.25" rx="4.57" ry="1.74"/>
				<path class="st48" d="M456.2,518.47c0,0.72-1.53,1.3-3.42,1.3c-1.89,0-3.42-0.58-3.42-1.3"/>
				<path class="st21" d="M452.62,511.89c0.37-1.27,2.14-6.93,4.22-7.68c1.1,2.32-3.15,6.79-4.1,7.75
					C452.68,512.01,452.6,511.96,452.62,511.89z"/>
				<path class="st21" d="M450.97,503.24c2.29,1.16,1.66,7.3,1.49,8.64c-0.01,0.07-0.11,0.08-0.13,0.02
					C451.85,510.67,449.78,505.11,450.97,503.24"/>
				<path class="st21" d="M447.6,504.28c2.55,0.27,4.15,6.23,4.47,7.54c0.02,0.07-0.07,0.11-0.12,0.06
					C451.06,510.9,447.15,506.44,447.6,504.28"/>
				<path class="st21" d="M454.85,503.49c1.56,2.03-1.65,7.3-2.38,8.44c-0.04,0.06-0.13,0.03-0.13-0.04
					C452.44,510.56,452.98,504.65,454.85,503.49"/>
				<path class="st21" d="M460.09,507.13c-0.07,2.56-5.89,4.61-7.18,5.03c-0.07,0.02-0.12-0.06-0.07-0.11
					C453.75,511.1,457.9,506.85,460.09,507.13"/>
				<path class="st21" d="M445.47,506.66c2.47-0.68,6.14,4.27,6.92,5.38c0.04,0.06-0.02,0.13-0.09,0.1
					C451.12,511.55,445.85,508.83,445.47,506.66"/>
				<ellipse class="st1" cx="452.61" cy="512.17" rx="0.58" ry="0.47"/>
			</g>
			<circle cx="459.3" cy="449.96" r="0.61"/>
			<line class="st55" x1="459.52" y1="449.74" x2="462.26" y2="445.85"/>
			<line class="st55" x1="459.3" y1="449.96" x2="458.59" y2="452.56"/>
		</g>
		<g id="oficina_1_">
			<polygon class="st27" points="224.63,195.29 355.29,118.65 482.09,199.17 352.52,276 			"/>
			<g>
				<path class="st3" d="M225.77,196.09l129.52-77.43l0.33-74.82c0-0.16-0.17-0.25-0.31-0.17l-129.44,77.38l-0.33,74.92
					C225.54,196.08,225.67,196.15,225.77,196.09z"/>
				<path class="st3" d="M355.29,118.65l0.33-74.82c0-0.16,0.18-0.25,0.31-0.17l126.33,80.24l-0.34,75.18"/>
				<path class="st10" d="M225.75,196.1l129.54-77.44L482,199.24c0.04,0.03,0.04,0.09,0,0.12l-129.65,77.51l-126.6-80.52
					C225.65,196.29,225.65,196.15,225.75,196.1z"/>
			</g>
			<polyline class="st27" points="254.75,160.15 254.75,140.44 262.89,136.43 262.89,155.16 262.89,119.22 271.85,114.26 
				271.85,150.19 			"/>
			<polyline class="st27" points="284.08,142.63 284.08,115.28 293.47,110.12 293.47,135.75 293.47,121.04 305.13,114.32 
				305.13,129.8 305.13,93.15 316.12,86.23 316.12,123.87 			"/>
			<polyline class="st27" points="370.33,112.7 370.33,84.01 380.66,89.74 380.66,119.69 380.66,101.78 390.8,106.75 390.8,125.49 
				390.8,84.81 404.7,92.99 404.7,133.83 			"/>
			<polyline class="st27" points="408.52,136.63 408.52,110.63 420.56,117.71 420.56,143.67 			"/>
			<polyline class="st27" points="454.28,144.74 442.46,137.66 442.46,157.7 454.28,164.94 			"/>
			<polygon class="st36" points="248.96,163.42 248.96,117.23 324.54,73.16 324.54,118.82 			"/>
			<g id="hombre_3_">
				<polygon class="st7" points="293.7,128.78 291.91,127.49 291.61,127.42 291.51,126.93 291.3,126.88 291.2,126.82 290.9,125.72 
					290.42,125.35 290.62,124.38 291.07,123.59 291.4,123.18 291.65,123.32 291.72,123.54 292.27,123.17 292.97,122.69 
					293.07,122.87 292.84,123.45 292.46,123.82 292.06,124.16 291.72,124.66 292.46,124.47 293.25,124.26 293.74,124.18 
					294.01,123.51 294.19,123.36 294.31,123.4 294.43,123.7 294.43,124.47 294.35,124.92 294.51,125.54 294.84,126.06 
					294.99,126.49 295.07,126.97 				"/>
				<g>
					<path class="st53" d="M294.94,127.2c0,0,0.29-0.67-0.28-1.43c-0.57-0.76-0.17-1.49-0.21-1.87c-0.03-0.39-0.09-0.53-0.26-0.54
						c-0.17-0.01-0.47,0.65-0.45,0.82"/>
					<path class="st53" d="M293.72,124.66c0,0,0.06,0.43,0.02,0.53"/>
					<path class="st53" d="M294.25,125.72c0,0-0.44-0.15-0.5-0.15"/>
					<path class="st53" d="M290.95,125.77c0,0-0.3-0.28-0.48-0.37c-0.18-0.09,0.13-1,0.28-1.34c0.16-0.34,0.58-0.74,0.64-0.88
						c0.17-0.01,0.39,0.25,0.3,0.45"/>
					<path class="st53" d="M291.51,127.01c0,0-0.19-0.12-0.31-0.2c-0.08-0.22-0.35-1.54-0.44-1.87c-0.09-0.32,0.55-0.81,0.72-1.04
						c0.17-0.23,0.45-0.54,0.62-0.61c0.17-0.06,0.64-0.39,0.82-0.59c0.12-0.1,0.24,0.17,0.09,0.47c-0.15,0.3-0.39,0.59-0.54,0.64
						s-0.54,0.42-0.77,0.9"/>
					<path class="st53" d="M291.89,127.45c0,0-0.2,0.02-0.27-0.03s-0.28-1.85-0.33-2.01s-0.19-0.5,0.18-0.62
						c0.37-0.12,0.65-0.18,1.12-0.36s1.39-0.26,1.39-0.26s0.16,0.21-0.12,0.43s-1.09,0.42-1.26,0.52s-0.5,0.13-0.5,0.27
						c0,0.15,0.02,0.33,0.02,0.29"/>
					<path class="st53" d="M293.75,128.81c0,0-0.32-0.2-0.54-0.37c-0.22-0.16-1.08-0.84-1.25-0.91c-0.17-0.08-0.08-0.39-0.11-0.75
						c-0.03-0.35-0.09-0.7-0.04-0.84c0.04-0.14,0.45-0.32,0.55-0.38c0.1-0.06,0.35-0.26,0.44-0.3c0.09-0.03,0.62,0,1.13-0.13
						c0.15-0.05,0.18,0.15,0.02,0.29c-0.16,0.14-0.49,0.25-0.7,0.26s-0.72,0.44-0.76,0.59c-0.04,0.15-0.02,0.29,0.11,0.39"/>
				</g>
				<polygon class="st7" points="303.5,117.9 303.09,116.25 304.95,114.17 308.75,115.35 309.83,115.89 310.01,117.61 				"/>
				<path class="st51" d="M309.78,122.08l-0.18,1.25l-5.63,0.27l0.37-1.1c0,0,0.5,0.08,0.78-0.44l3.91-0.75
					C309.24,122.29,309.78,122.08,309.78,122.08"/>
				<polygon class="st7" points="303.74,122.98 311.39,123.36 310.63,145.57 304.33,147.02 302.58,142.72 				"/>
				<path class="st51" d="M306.55,171.86l-0.36,2.47c0,0-7.36-2.01-8.61-2.79s0.42-2.04,2.45-1.14c0.96,0.48,1.85-0.36,1.85-0.36"/>
				<path class="st51" d="M316.18,165.74l1.26,1.3c0,0-3.18,5.93-5.06,5.93c-1.88,0-0.26-2.57,0.63-3.62
					c0.9-1.05,0.29-1.13,0.29-1.13"/>
				<path class="st51" d="M308.57,160.7l4.31,7.65c0,0,2.27-0.46,3.29-3.03c-2.27-3.77-6.12-11.11-6.17-12.52"/>
				<path class="st51" d="M303.56,143.02l0.78-20.51c0,0-2.09-0.18-2.99,0.84s-3.17,5.56-3.65,5.68c-1.2-1.08-2.57-2.15-2.57-2.15
					s-1.08,2.09-2.03,2.21c1.08,2.39,3.89,5.86,5.32,5.71c1.44-0.15,3.47-2.6,3.47-2.6"/>
				<path class="st51" d="M304.32,122.98c0,0,2.24,2.79,5.33,0"/>
				<path class="st51" d="M303.28,116.85c0,0,0.01,0.4,0.07,1c0.19,1.71,0.86,5,3.32,4.66c3.31-0.46,2.98-3.31,2.98-3.31
					s1.09-0.92,1.09-1.48s0.01-0.86-1.09-0.64c-2.02,0.41-3.69-0.71-5.1-2.2c-0.93,2.09-1.75,2.3-1.75,2.3s0.49-1.26,0.52-2.3
					c0.03-1.05,1.16-3.13,4.31-2.81c3.89,0.39,2.92,5,2.92,5"/>
				<path class="st51" d="M304.88,151.37l-1.32-8.35c0,0,4.9,1.26,7.48,1.08c-0.12,1.5,0,3.05,0,3.05l-4.49,24.72
					c0,0-4.01-0.86-4.66-1.81c0.54-3.41,3.83-23.86,3.83-23.86"/>
				<path class="st51" d="M312.37,127.35c0,0,0.94,1.63,1.97,3.87c0.98,2.13-0.47,7.12-0.47,7.12s0.23,1.54,0.3,2.22
					c0.08,0.74,0.24,1.74,0.24,1.74s4.27-5.66,4.27-7.52s-2.33-9.23-3.53-11.44s-5.38-1.26-5.38-1.26s-2.75,17.08,0.48,25.1
					c3.29-0.35,4.72-0.76,4.72-0.76L312.37,127.35"/>
				<path class="st51" d="M301.88,127.35c0,0,0.24,15.43-0.3,19.56c1.91,1.02,2.43-1,2.43-1c-0.28-0.67-0.4-4.27-0.4-4.27
					l0.55-14.43"/>
			</g>
			<polygon class="st36" points="367.94,65.75 454.28,118.9 454.28,164.94 367.94,111.43 			"/>
			<g>
				<polyline class="st48" points="379.73,158.5 401.47,171.56 401.67,141.33 				"/>
				<path class="st48" d="M270.55,178l99.89-58.76l30.83,19.16L298.5,196.94l-27.96-18.89C270.53,178.03,270.53,178.01,270.55,178z"
					/>
				<path class="st48" d="M270.2,178.74l-0.2,33.47l27.93,18.28l0.2-32.92l-27.88-18.84C270.23,178.71,270.2,178.72,270.2,178.74z"
					/>
				<polygon class="st48" points="401.64,146.42 401.64,139.03 298.87,197.58 298.87,204.96 				"/>
			</g>
			<polygon class="st48" points="335.47,147.96 368.51,129.27 378.2,135.01 344.62,154.14 			"/>
			<polygon class="st48" points="348.54,134.93 348.54,154.14 379.98,136.36 379.98,117.37 			"/>
			<polygon class="st48" points="357.7,150.64 369.75,143.91 374.83,146.92 362.5,153.89 			"/>
			<polygon class="st49" points="363.48,149.99 363.48,138.27 367.94,135.75 367.94,147.45 			"/>
			<polyline class="st17" points="326.37,167.8 320.17,179.28 317.9,178.41 			"/>
			<polyline class="st57" points="317.14,178.3 318.64,179.7 322.05,173.8 			"/>
			<polyline class="st17" points="315.56,174.55 305.09,183.12 304.51,181.91 			"/>
			<polyline class="st57" points="303.49,181.62 304.07,183.31 308.43,179.49 			"/>
			<polygon class="st12" points="294.35,175.44 310.12,166.32 320.77,172.82 316.88,175.34 315.56,174.55 303.49,181.62 			"/>
			<polygon class="st12" points="306.51,175.3 318.62,161.69 330.78,164.53 327.88,168.14 326.37,167.8 317.14,178.3 			"/>
			<g>
				<polygon class="st7" points="375.79,189.97 375.65,192.3 379.08,194.19 379.5,191.27 				"/>
				<path class="st48" d="M375.79,177.99V167.2c0-0.02,0.02-0.03,0.04-0.02l20.07,10.82l-9.34,5.63"/>
				<polyline class="st48" points="386.76,183.52 375.79,177.59 364.26,184.43 375.51,190.09 				"/>
				<path class="st48" d="M401.79,178.72l-24.09-12.7l-1.87,1.11c-0.02,0.01-0.02,0.04,0,0.05l20.38,10.98"/>
				<path class="st48" d="M379.66,191.41l25.06-14.4c0.02-0.01,0.02-0.03,0-0.04l-3.23-1.79l-25.44,14.41L379.66,191.41z"/>
				<polyline class="st48" points="355.77,181.97 357.73,180.96 375.79,190.44 375.79,192.3 				"/>
				<path class="st48" d="M355.67,202.42l0.1-20.42c0-0.01,0.01-0.02,0.03-0.02l20.03,10.5l1.9,1l1.77,0.93
					c0.01,0,0.01-3.15,0.01-3.14v23.95c0,0.01-0.01,0.02-0.03,0.02l-23.79-12.79C355.68,202.44,355.67,202.43,355.67,202.42z"/>
				<path class="st48" d="M404.76,199.79v-22.77c0-0.02-0.02-0.03-0.04-0.02l-25.35,14.41l0.16,23.69c0,0.02-0.02,0.14-0.01,0.14
					L404.76,199.79z"/>
			</g>
			<polyline class="st48" points="375.79,189.47 375.79,192.57 375.79,190.44 			"/>
			<g>
				<polygon class="st7" points="344.55,209.72 344.4,212.05 347.83,213.94 348.26,211.01 				"/>
				<path class="st48" d="M344.55,197.74v-10.79c0-0.02,0.02-0.03,0.04-0.02l20.07,10.82l-9.34,5.63"/>
				<polyline class="st48" points="355.52,203.27 344.55,197.34 333.02,204.18 344.27,209.84 				"/>
				<path class="st48" d="M370.55,198.47l-24.09-12.7l-1.87,1.11c-0.02,0.01-0.02,0.04,0,0.05l20.38,10.98"/>
				<path class="st48" d="M348.42,211.16l25.06-14.4c0.02-0.01,0.02-0.03,0-0.04l-3.23-1.79l-25.44,14.41L348.42,211.16z"/>
				<polyline class="st48" points="324.52,201.72 326.49,200.71 344.55,210.19 344.55,212.05 				"/>
				<path class="st48" d="M324.43,220.32l0.1-18.57c0-0.01,0.01-0.02,0.03-0.02l20.03,10.5l1.9,1l1.77,0.93
					c0.01,0,0.01-3.15,0.01-3.14v23.95c0,0.01-0.01,0.02-0.03,0.02l-23.79-13.72C324.43,221.26,324.43,220.33,324.43,220.32z"/>
				<path class="st48" d="M373.52,219.54v-22.77c0-0.02-0.02-0.03-0.04-0.02l-25.35,14.41l0.16,23.69c0,0.02-0.02,0.14-0.01,0.14
					L373.52,219.54z"/>
			</g>
		</g>
		<g id="oficina2_1_">
			<polygon class="st27" points="33.7,352.26 161.56,278.74 271.72,343.5 144.76,417.91 			"/>
			<g>
				<path class="st3" d="M161.53,204.58L33.32,278.3c-0.12,0.07-0.19,0.19-0.19,0.32v73.31c0,0.29,0.31,0.47,0.56,0.32l127.86-73.52
					V204.6C161.56,204.59,161.55,204.58,161.53,204.58z"/>
				<path class="st3" d="M161.59,204.58l111.6,65.6v74.18l-111.63-65.62V204.6C161.56,204.59,161.58,204.58,161.59,204.58z"/>
				<path class="st10" d="M273.19,344.07l-128.43,73.84L33.4,352.74c-0.12-0.07-0.12-0.24,0-0.3l128.16-73.69L273.19,344.07z"/>
			</g>
			<polyline class="st33" points="241.22,325.69 241.22,266.9 262.34,277.79 262.34,337.92 			"/>
			<circle class="st36" cx="257.94" cy="310.87" r="1.49"/>
			<g>
				<polygon class="st7" points="78.33,328.1 78.33,312.76 93.6,306.74 114.01,313.16 120.41,317.7 119.95,333.89 92.2,343.31 				
					"/>
				<line class="st48" x1="93.25" y1="315.55" x2="93.46" y2="305.69"/>
				<polyline class="st48" points="92.22,327.85 82.06,322.5 93.25,315.01 103.59,321.49 113.71,327.29 				"/>
				<path class="st48" d="M121.42,325.05v-6.7l-2.72-1.37l-23.32-12.59l-1.89,1.08c-0.02,0.01-0.02,0.04,0,0.05l19.64,10.8
					l5.83,3.06v4.92"/>
				<polyline class="st48" points="74.98,320.66 76.8,319.6 98.95,331.36 98.95,335.57 				"/>
				<path class="st48" d="M72.15,339.81l0.48-20.42c0-0.01,0.01-0.02,0.03-0.02l19.83,10.88l1.88,1.03l1.75,0.96
					c0.01,0,0.07-0.01,0.07,0l-0.45,20.8c0,0.01-0.01,0.02-0.03,0.02l-23.55-13.24C72.15,339.82,72.15,339.82,72.15,339.81z"/>
				<path class="st48" d="M121.28,338.1l0.14-15.1c0-0.02-25.24,14.07-25.24,14.07l-0.41,15.85c0,0.02-0.03,0.14-0.01,0.14
					L121.28,338.1z"/>
				<line class="st48" x1="72.63" y1="319.39" x2="72.63" y2="313.86"/>
				<line class="st48" x1="95.24" y1="304.64" x2="95.24" y2="299.68"/>
				<path class="st48" d="M74.72,314.84L95.22,300c0.02-0.01,0.02-0.03,0-0.04l-1.71-0.93l-20.89,14.83L74.72,314.84z"/>
				<path class="st48" d="M74.72,314.84l-0.1,26.37l-2.46-1.4V314.3c0-0.39,0.42-0.64,0.77-0.45L74.72,314.84z"/>
			</g>
			<g>
				<polyline class="st27" points="169.64,252.51 169.68,236.7 180.01,242.43 179.96,258.42 180.01,254.47 190.16,259.44 
					190.12,264.39 190.16,237.5 204.05,245.68 204.01,272.55 				"/>
				<polyline class="st27" points="207.83,275.33 207.87,258.69 219.91,265.77 219.87,281.45 				"/>
				<polygon class="st36" points="167.3,217.52 222.21,249.41 222.21,283.24 167.3,250.98 				"/>
			</g>
			<g>
				<polyline class="st48" points="138.7,337.15 161.36,351.13 161.56,320.9 				"/>
				<path class="st48" d="M71.79,333.93l58.54-34.19l30.83,18.23l-61.41,33.05l-27.96-17.04C71.77,333.97,71.77,333.94,71.79,333.93
					z"/>
				<path class="st48" d="M71.44,334.68l-0.2,33.47l27.93,16.42l0.2-32.92l-27.88-16.99C71.47,334.64,71.44,334.65,71.44,334.68z"/>
				<polygon class="st48" points="161.53,325.99 161.53,318.61 100.12,351.66 100.12,359.04 				"/>
			</g>
			<polygon class="st48" points="109.64,324.24 137.21,308.65 145.3,313.44 117.28,329.4 			"/>
			<polygon class="st48" points="120.55,313.37 120.55,329.4 146.78,314.56 146.78,298.72 			"/>
			<polygon class="st48" points="128.19,326.48 138.25,320.86 142.49,323.37 132.2,329.19 			"/>
			<polygon class="st49" points="133.02,325.94 133.02,316.16 136.74,314.06 136.74,323.82 			"/>
			<g>
				<path class="st12" d="M151.76,284.68l11.67-7.16c0.12-0.07,0.11-0.24,0-0.31l-9.77-5.65l-11.81,7.24
					c-0.05,0.03-0.05,0.11,0,0.14L151.76,284.68z"/>
				<path class="st12" d="M141.73,289.73v-10.7c0-0.06,0.07-0.1,0.12-0.07l9.91,5.73v10.82c0,0.01-0.01,0.02-0.03,0.01
					L141.73,289.73z"/>
				<path class="st12" d="M163.69,288.21v-10.53c0-0.14-0.15-0.22-0.27-0.15l-11.66,7.15v10.82c0,0.01,0.01,0.02,0.03,0.01
					L163.69,288.21z"/>
				<path class="st12" d="M151.76,273.83l11.69-7.16c0.11-0.07,0.11-0.23,0-0.29l-9.79-5.66L141.79,268c-0.03,0.02-0.03,0.06,0,0.08
					L151.76,273.83z"/>
				<path class="st12" d="M141.73,278.83v-10.72c0-0.04,0.04-0.06,0.07-0.04l9.96,5.76v10.85l-9.99-5.77
					C141.74,278.89,141.73,278.86,141.73,278.83z"/>
				<path class="st12" d="M163.69,277.27l0-10.44c0-0.13-0.15-0.21-0.26-0.14l-11.67,7.15v10.85l11.84-7.26
					C163.66,277.39,163.69,277.33,163.69,277.27z"/>
				<path class="st12" d="M151.76,263.16l11.9-7.3c0.01-0.01,0.01-0.02,0-0.03l-10.01-5.78l-11.92,7.3c-0.01,0-0.01,0.01,0,0.02
					L151.76,263.16z"/>
				<path class="st12" d="M141.73,268.2v-10.83c0-0.01,0.01-0.01,0.01-0.01l10.02,5.79V274L141.73,268.2z"/>
				<path class="st12" d="M163.69,266.69l0-10.81c0-0.01-0.02-0.02-0.03-0.02l-11.9,7.3V274L163.69,266.69z"/>
				<polyline class="st52" points="155.09,262.94 156.33,263.68 160.93,260.86 159.68,260.13 				"/>
				<polyline class="st52" points="155.09,274.14 156.33,274.88 160.93,272.06 159.68,271.33 				"/>
				<polyline class="st52" points="155.09,284.33 156.33,285.06 160.93,282.25 159.68,281.51 				"/>
			</g>
			<g>
				<path class="st7" d="M132.1,348.54l13.78-1.56l-3.8-3.1l3.14-11.89l6.65-4.45l12.13,0.9l0.41,6.8l1.04,6.98l-3.43,5.2
					l-1.12,3.07l-0.35,2.25l-17.86,2.6C142.68,355.34,131.5,350.2,132.1,348.54z"/>
				<path class="st36" d="M129.53,372.48l2.94-21.03c0,0,0-0.82,1.29,0c1.29,0.82,5.39,2.92,5.39,2.92s1.47,0.04,1.96,2.61
					c0.49,2.57,3.67,25.59,3.67,25.59"/>
				<line class="st36" x1="151.88" y1="368.3" x2="153.68" y2="353.92"/>
				<path class="st36" d="M171.04,375.89l-6.37-21.12c0,0-0.86-2.47-3.16-2.8"/>
				<path class="st12" d="M146.79,347.43l-14.6,0.7c-0.4,0.02-0.6,0.49-0.33,0.79c1.4,1.57,5.16,5.17,10.77,5.98
					c7.22,1.04,9-4.77,6.43-6.12c-2.57-1.35-6.43-3.61-6.98-4.9s1.41-11.51,6.24-14.57c4.84-3.06,14.88-1.47,15.61-0.31
					c0.73,1.16,0.37,5.08,0.98,8.33s0.8,5.02,0,5.94c-0.8,0.92-3,3.37-3.8,4.96s-1.04,3.06-0.43,3.43c0.61,0.37,2.57,0.12,1.78-0.86
					c-0.8-0.98-2.02-0.75-2.02-0.75"/>
				<path class="st12" d="M144.77,355.02c0,0,13.69-1.09,17.8-3.58"/>
			</g>
			<g>
				<path class="st7" d="M106.36,361.22l13.78-1.56l-3.8-3.1l3.14-11.89l6.65-4.45l12.13,0.9l0.41,6.8l1.04,6.98l-3.43,5.2
					l-1.12,3.07l-0.35,2.25l-17.86,2.6C116.94,368.02,105.77,362.88,106.36,361.22z"/>
				<path class="st36" d="M103.79,385.16l2.94-21.03c0,0,0-0.82,1.29,0c1.29,0.82,5.39,2.92,5.39,2.92s1.47,0.04,1.96,2.61
					c0.49,2.57,3.67,25.59,3.67,25.59"/>
				<line class="st36" x1="126.14" y1="380.98" x2="127.94" y2="366.61"/>
				<path class="st36" d="M145.3,388.57l-6.37-21.12c0,0-0.86-2.47-3.16-2.8"/>
				<path class="st12" d="M121.06,360.11l-14.6,0.7c-0.4,0.02-0.6,0.49-0.33,0.79c1.4,1.57,5.16,5.17,10.77,5.98
					c7.22,1.04,9-4.77,6.43-6.12c-2.57-1.35-6.43-3.61-6.98-4.9c-0.55-1.29,1.41-11.51,6.24-14.57c4.84-3.06,14.88-1.47,15.61-0.31
					c0.73,1.16,0.37,5.08,0.98,8.33s0.8,5.02,0,5.94s-3,3.37-3.8,4.96s-1.04,3.06-0.43,3.43c0.61,0.37,2.57,0.12,1.78-0.86
					s-2.02-0.75-2.02-0.75"/>
				<path class="st12" d="M119.04,367.7c0,0,13.69-1.09,17.8-3.58"/>
			</g>
		</g>
		<g id="oficina4_1_">
			<polygon class="st27" points="233.98,410.88 361.84,337.36 450.57,386.12 321.28,458.89 			"/>
			<g>
				<path class="st3" d="M361.43,262.16l-128.21,73.72c-0.12,0.07-0.19,0.19-0.19,0.32v73.31c0,0.29,0.31,0.47,0.56,0.32
					l127.86-73.52v-74.14C361.46,262.16,361.45,262.15,361.43,262.16z"/>
				<path class="st3" d="M361.49,262.16l88.36,50.1v73.61c0,0.25-0.27,0.4-0.48,0.28l-87.9-49.83v-74.14
					C361.46,262.16,361.48,262.15,361.49,262.16z"/>
				<path class="st10" d="M449.37,386.42l-127.95,73.57l-88.13-49.67c-0.12-0.07-0.12-0.24,0-0.3l128.16-73.69l87.91,49.54
					C449.58,385.98,449.58,386.29,449.37,386.42z"/>
			</g>
			<polyline class="st33" points="259.99,394.37 259.99,335.59 238.87,346.48 238.87,406.61 			"/>
			<circle class="st36" cx="243.27" cy="379.56" r="1.49"/>
			<g>
				<polyline class="st27" points="335.46,323.95 335.42,308.13 325.09,313.87 325.14,329.86 325.09,325.91 314.94,330.87 
					314.98,335.82 314.94,308.94 301.05,317.11 301.09,343.98 				"/>
				<polyline class="st27" points="297.27,346.77 297.22,330.13 285.18,337.21 285.23,352.88 				"/>
				<polygon class="st36" points="337.8,288.96 282.89,320.84 282.89,354.67 337.8,322.42 				"/>
			</g>
			<g>
				<polygon class="st7" points="404.39,351.94 404.39,336.6 389.12,330.57 368.71,337 362.32,341.54 362.77,357.73 390.52,367.15 
									"/>
				<line class="st48" x1="389.47" y1="339.39" x2="389.27" y2="329.53"/>
				<polyline class="st48" points="390.51,351.69 400.66,346.34 389.47,338.85 379.13,345.33 369.01,351.13 				"/>
				<path class="st48" d="M361.3,348.89v-6.7l2.72-1.37l23.32-12.59l1.89,1.08c0.02,0.01,0.02,0.04,0,0.05l-19.64,10.8l-5.83,3.06
					v4.92"/>
				<polyline class="st48" points="407.74,344.49 405.92,343.43 383.77,355.19 383.77,359.4 				"/>
				<path class="st48" d="M410.57,363.65l-0.48-20.42c0-0.01-0.01-0.02-0.03-0.02l-19.83,10.88l-1.88,1.03l-1.75,0.96
					c-0.01,0-0.07-0.01-0.07,0l0.45,20.8c0,0.01,0.01,0.02,0.03,0.02l23.55-13.24C410.57,363.66,410.57,363.66,410.57,363.65z"/>
				<path class="st48" d="M361.44,361.94l-0.14-15.1c0-0.02,25.24,14.07,25.24,14.07l0.41,15.85c0,0.02,0.03,0.14,0.01,0.14
					L361.44,361.94z"/>
				<line class="st48" x1="410.09" y1="343.23" x2="410.09" y2="337.7"/>
				<line class="st48" x1="387.48" y1="328.47" x2="387.48" y2="323.52"/>
				<path class="st48" d="M408.01,338.67l-20.51-14.83c-0.02-0.01-0.02-0.03,0-0.04l1.71-0.93l20.89,14.83L408.01,338.67z"/>
				<path class="st48" d="M408.01,338.67l0.1,26.37l2.46-1.4v-25.51c0-0.39-0.42-0.64-0.77-0.45L408.01,338.67z"/>
			</g>
			<g>
				<polyline class="st48" points="344.02,360.98 321.36,374.97 321.16,344.74 				"/>
				<path class="st48" d="M410.93,357.77l-58.54-34.19l-30.83,18.23l61.41,33.05l27.96-17.04
					C410.95,357.8,410.95,357.78,410.93,357.77z"/>
				<path class="st48" d="M411.28,358.51l0.2,33.47l-27.93,16.42l-0.2-32.92l27.88-16.99C411.25,358.48,411.28,358.49,411.28,358.51
					z"/>
				<polygon class="st48" points="321.19,349.83 321.19,342.45 382.61,375.49 382.61,382.88 				"/>
			</g>
			<g>
				<polygon class="st7" points="348.44,392.62 348.63,394.94 345.23,396.9 344.75,393.98 				"/>
				<path class="st48" d="M348.21,380.64l-0.2-10.79c0-0.02-0.02-0.03-0.04-0.02l-19.87,11.19l9.44,5.46"/>
				<polyline class="st48" points="337.35,386.37 348.2,380.24 359.86,386.86 348.72,392.73 				"/>
				<path class="st48" d="M322.23,381.86l23.85-13.15l1.89,1.08c0.02,0.01,0.02,0.04,0,0.05l-20.18,11.36"/>
				<path class="st48" d="M344.59,394.13l-25.33-13.93c-0.02-0.01-0.02-0.03,0-0.04l3.19-1.85l25.71,13.93L344.59,394.13z"/>
				<polyline class="st48" points="368.31,384.25 366.32,383.27 348.45,393.09 348.48,394.95 				"/>
				<path class="st48" d="M368.79,404.69l-0.48-20.42c0-0.01-0.01-0.02-0.03-0.02l-19.83,10.88l-1.88,1.03l-1.75,0.96
					c-0.01,0-0.07-3.15-0.07-3.14l0.45,23.95c0,0.01,0.01,0.02,0.03,0.02l23.55-13.24C368.78,404.71,368.79,404.7,368.79,404.69z"/>
				<path class="st48" d="M319.65,402.98l-0.43-22.76c0-0.02,0.02-0.03,0.04-0.02l25.62,13.93l0.28,23.68
					c0,0.02,0.03,0.14,0.01,0.14L319.65,402.98z"/>
			</g>
			<polygon class="st48" points="373.08,348.08 345.51,332.49 337.42,337.27 365.45,353.24 			"/>
			<polygon class="st48" points="362.17,337.21 362.17,353.24 335.94,338.4 335.94,322.55 			"/>
			<polygon class="st48" points="354.53,350.32 344.47,344.7 340.23,347.21 350.52,353.03 			"/>
			<polygon class="st49" points="349.71,349.78 349.71,340 345.98,337.9 345.98,347.66 			"/>
			<g>
				<polyline class="st48" points="315.63,451.26 311.53,439.12 332.95,439.3 328.83,451.26 				"/>
				<ellipse class="st48" cx="322.23" cy="438.06" rx="11.05" ry="4.2"/>
				<ellipse class="st48" cx="322.23" cy="438.86" rx="8.9" ry="3.38"/>
				<path class="st48" d="M328.88,450.95c0,1.39-2.98,2.53-6.65,2.53s-6.65-1.13-6.65-2.53"/>
				<path class="st12" d="M321.91,438.16c0.72-2.47,4.16-13.48,8.2-14.94c2.14,4.51-6.13,13.2-7.98,15.07
					C322.03,438.38,321.87,438.29,321.91,438.16z"/>
				<path class="st12" d="M318.71,421.34c4.45,2.26,3.22,14.19,2.89,16.8c-0.02,0.14-0.2,0.16-0.26,0.03
					C320.42,435.78,316.4,424.96,318.71,421.34"/>
				<path class="st12" d="M312.15,423.35c4.96,0.53,8.06,12.11,8.69,14.67c0.03,0.13-0.13,0.22-0.23,0.12
					C318.89,436.23,311.28,427.55,312.15,423.35"/>
				<path class="st12" d="M326.26,421.81c3.04,3.96-3.21,14.19-4.63,16.41c-0.07,0.12-0.25,0.06-0.24-0.08
					C321.57,435.57,322.62,424.08,326.26,421.81"/>
				<path class="st12" d="M336.45,428.9c-0.14,4.99-11.46,8.97-13.96,9.79c-0.13,0.04-0.23-0.12-0.14-0.22
					C324.12,436.61,332.19,428.36,336.45,428.9"/>
				<path class="st12" d="M308.02,427.98c4.81-1.33,11.94,8.31,13.46,10.46c0.08,0.11-0.04,0.26-0.17,0.2
					C319.01,437.5,308.75,432.21,308.02,427.98"/>
				<ellipse class="st4" cx="321.9" cy="438.7" rx="1.12" ry="0.92"/>
			</g>
		</g>
		<g id="oficina3_1_">
			<polygon class="st39" points="24.2,535.62 116.86,590.76 249.02,514.99 155.69,461.13 			"/>
			<g>
				<path class="st3" d="M155.69,461.13v-65.28c0-0.16-0.18-0.27-0.32-0.18L22.34,471.25v65.65"/>
				<path class="st3" d="M155.69,461.13v-65.28c0-0.16,0.18-0.27,0.32-0.19l94.35,53.73v65.65"/>
				<polygon class="st10" points="23.53,536.89 155.69,461.13 249.02,514.99 116.86,590.76 				"/>
			</g>
			<polyline class="st33" points="219.56,499.12 219.56,440.33 240.68,451.23 240.68,511.36 			"/>
			<circle class="st36" cx="236.28" cy="484.31" r="1.49"/>
			<g>
				<polyline class="st48" points="149.39,481.48 172.05,493.61 172.25,463.38 				"/>
				<path class="st48" d="M41.13,500.05l99.89-55.98l30.83,16.38L69.08,518.99L41.13,500.1C41.11,500.09,41.11,500.06,41.13,500.05z
					"/>
				<path class="st48" d="M40.78,500.8l-0.2,33.47l27.93,18.28l0.2-32.92l-27.88-18.84C40.81,500.76,40.78,500.77,40.78,500.8z"/>
				<polygon class="st48" points="172.22,468.47 172.22,461.09 69.46,519.63 69.46,527.01 				"/>
			</g>
			<g>
				<path class="st7" d="M84.91,520.85l13.78-1.56l-3.8-3.1l3.14-11.89l6.65-4.45l12.13,0.9l0.41,6.8l1.04,6.98l-3.43,5.2
					l-1.12,3.07l-0.35,2.25l-17.86,2.6C95.5,527.64,84.32,522.5,84.91,520.85z"/>
				<path class="st36" d="M82.35,544.78l2.94-21.03c0,0,0-0.82,1.29,0c1.29,0.82,5.39,2.92,5.39,2.92s1.47,0.04,1.96,2.61
					c0.49,2.57,3.67,25.59,3.67,25.59"/>
				<line class="st36" x1="104.69" y1="540.61" x2="106.49" y2="526.23"/>
				<path class="st36" d="M123.85,548.2l-6.37-21.12c0,0-0.86-2.47-3.16-2.8"/>
				<path class="st12" d="M99.61,519.73l-14.6,0.7c-0.4,0.02-0.6,0.49-0.33,0.79c1.4,1.57,5.16,5.17,10.77,5.98
					c7.22,1.04,9-4.77,6.43-6.12c-2.57-1.35-6.43-3.61-6.98-4.9c-0.55-1.29,1.41-11.51,6.24-14.57c4.84-3.06,14.88-1.47,15.61-0.31
					s0.37,5.08,0.98,8.33c0.61,3.24,0.8,5.02,0,5.94c-0.8,0.92-3,3.37-3.8,4.96c-0.8,1.59-1.04,3.06-0.43,3.43
					c0.61,0.37,2.57,0.12,1.78-0.86s-2.02-0.75-2.02-0.75"/>
				<path class="st12" d="M97.59,527.32c0,0,13.69-1.09,17.8-3.58"/>
			</g>
			<g>
				<path class="st7" d="M134.23,493.23l13.78-1.56l-3.8-3.1l3.14-11.89l6.65-4.45l12.13,0.9l0.41,6.8l1.04,6.98l-3.43,5.2
					l-1.12,3.07l-0.35,2.25l-17.86,2.6C144.82,500.03,133.64,494.88,134.23,493.23z"/>
				<path class="st36" d="M131.67,517.16l2.94-21.03c0,0,0-0.82,1.29,0c1.29,0.82,5.39,2.92,5.39,2.92s1.47,0.04,1.96,2.61
					c0.49,2.57,3.67,25.59,3.67,25.59"/>
				<line class="st36" x1="154.01" y1="512.99" x2="155.81" y2="498.61"/>
				<path class="st36" d="M173.18,520.58l-6.37-21.12c0,0-0.86-2.47-3.16-2.8"/>
				<path class="st12" d="M148.93,492.11l-14.6,0.7c-0.4,0.02-0.6,0.49-0.33,0.79c1.4,1.57,5.16,5.17,10.77,5.98
					c7.22,1.04,9-4.77,6.43-6.12s-6.43-3.61-6.98-4.9c-0.55-1.29,1.41-11.51,6.24-14.57s14.88-1.47,15.61-0.31
					c0.73,1.16,0.37,5.08,0.98,8.33s0.8,5.02,0,5.94c-0.8,0.92-3,3.37-3.8,4.96s-1.04,3.06-0.43,3.43c0.61,0.37,2.57,0.12,1.78-0.86
					s-2.02-0.75-2.02-0.75"/>
				<path class="st12" d="M146.91,499.71c0,0,13.69-1.09,17.8-3.58"/>
			</g>
			<g>
				<path class="st58" d="M117.89,469.25c1.71-0.96,18.22-10.2,18.22-10.2c0.31-0.17,0.69-0.18,1.01-0.01l11.13,5.91
					c0.73,0.39,0.75,1.42,0.03,1.84l-19.24,11.14c-0.35,0.2-0.78,0.19-1.11-0.04l-10.11-6.83
					C117.49,470.76,116.78,469.94,117.89,469.25z"/>
				<path class="st48" d="M116.4,454.85v13.62c0,0.45,0.48,0.73,0.87,0.51l18.57-10.49c0.18-0.1,0.3-0.3,0.3-0.51v-13.29
					c0-0.44-0.48-0.73-0.86-0.51l-18.57,10.16C116.51,454.44,116.4,454.63,116.4,454.85z"/>
				<line class="st57" x1="127.48" y1="450.65" x2="117.49" y2="456.12"/>
				<line class="st57" x1="127.48" y1="451.57" x2="117.49" y2="457.04"/>
				<line class="st57" x1="127.48" y1="452.5" x2="117.49" y2="457.97"/>
				<line class="st57" x1="127.48" y1="453.43" x2="117.49" y2="458.9"/>
				<line class="st57" x1="123.2" y1="456.62" x2="117.49" y2="459.82"/>
				<line class="st57" x1="127.48" y1="456.16" x2="117.49" y2="461.63"/>
				<line class="st57" x1="123.2" y1="459.36" x2="117.49" y2="462.56"/>
				<line class="st57" x1="123.2" y1="457.55" x2="117.49" y2="460.75"/>
				<polygon class="st57" points="128.52,449.77 128.52,460.63 134.84,457.07 134.84,446.45 				"/>
			</g>
			<g>
				<path class="st58" d="M71.87,495.13c1.71-0.96,18.22-10.2,18.22-10.2c0.31-0.17,0.69-0.18,1.01-0.01l11.13,5.91
					c0.73,0.39,0.75,1.42,0.03,1.84l-19.24,11.14c-0.35,0.2-0.78,0.19-1.11-0.04l-10.11-6.83
					C71.47,496.64,70.76,495.82,71.87,495.13z"/>
				<path class="st48" d="M70.38,480.73v13.62c0,0.45,0.48,0.73,0.87,0.51l18.57-10.49c0.18-0.1,0.3-0.3,0.3-0.51v-13.29
					c0-0.44-0.48-0.73-0.86-0.51l-18.57,10.16C70.5,480.32,70.38,480.51,70.38,480.73z"/>
				<line class="st57" x1="81.47" y1="476.53" x2="71.47" y2="482"/>
				<line class="st57" x1="81.47" y1="477.45" x2="71.47" y2="482.92"/>
				<line class="st57" x1="81.47" y1="478.38" x2="71.47" y2="483.85"/>
				<line class="st57" x1="81.47" y1="479.31" x2="71.47" y2="484.77"/>
				<line class="st57" x1="77.18" y1="482.5" x2="71.47" y2="485.7"/>
				<line class="st57" x1="81.47" y1="482.04" x2="71.47" y2="487.51"/>
				<line class="st57" x1="77.18" y1="485.24" x2="71.47" y2="488.44"/>
				<line class="st57" x1="77.18" y1="483.43" x2="71.47" y2="486.63"/>
				<polygon class="st57" points="82.5,475.64 82.5,486.51 88.83,482.95 88.83,472.33 				"/>
				<polygon class="st57" points="71.47,490.74 71.47,492.82 81.47,487.08 81.47,485.24 				"/>
			</g>
			<polygon class="st36" points="38.73,468.46 138.37,410.91 138.37,438.76 39.26,494.05 			"/>
		</g>
		<g id="hombre_2_">
			<polygon class="st7" points="406.19,512.6 407.99,511.32 408.28,511.24 408.39,510.76 408.59,510.71 408.7,510.64 409,509.54 
				409.48,509.18 409.27,508.21 408.83,507.42 408.5,507 408.25,507.14 408.18,507.36 407.62,507 406.93,506.51 406.83,506.7 
				407.06,507.27 407.44,507.64 407.84,507.98 408.17,508.48 407.44,508.3 406.65,508.08 406.16,508.01 405.89,507.34 405.7,507.18 
				405.59,507.22 405.47,507.52 405.47,508.3 405.54,508.74 405.38,509.36 405.06,509.88 404.91,510.32 404.83,510.8 			"/>
			<g>
				<path class="st53" d="M404.96,511.02c0,0-0.29-0.67,0.28-1.43c0.57-0.76,0.17-1.49,0.21-1.87c0.03-0.39,0.09-0.53,0.26-0.54
					c0.17-0.01,0.47,0.65,0.45,0.82"/>
				<path class="st53" d="M406.18,508.48c0,0-0.06,0.43-0.02,0.53"/>
				<path class="st53" d="M405.65,509.54c0,0,0.44-0.15,0.5-0.15"/>
				<path class="st53" d="M408.95,509.59c0,0,0.3-0.28,0.48-0.37c0.18-0.09-0.13-1-0.28-1.34c-0.16-0.34-0.58-0.74-0.64-0.88
					c-0.17-0.01-0.39,0.25-0.3,0.45"/>
				<path class="st53" d="M408.39,510.84c0,0,0.19-0.12,0.31-0.2c0.08-0.22,0.35-1.54,0.44-1.87c0.09-0.32-0.55-0.81-0.72-1.04
					c-0.17-0.23-0.45-0.54-0.62-0.61c-0.17-0.06-0.64-0.39-0.82-0.59c-0.12-0.1-0.24,0.17-0.09,0.47c0.15,0.3,0.39,0.59,0.54,0.64
					c0.15,0.05,0.54,0.42,0.77,0.9"/>
				<path class="st53" d="M408.01,511.27c0,0,0.2,0.02,0.27-0.03c0.07-0.05,0.28-1.85,0.33-2.01c0.06-0.16,0.19-0.5-0.18-0.62
					c-0.37-0.12-0.65-0.18-1.12-0.36c-0.47-0.19-1.39-0.26-1.39-0.26s-0.16,0.21,0.12,0.43c0.28,0.22,1.09,0.42,1.26,0.52
					c0.17,0.1,0.5,0.13,0.5,0.27c0,0.15-0.02,0.33-0.02,0.29"/>
				<path class="st53" d="M406.15,512.63c0,0,0.32-0.2,0.54-0.37c0.22-0.16,1.08-0.84,1.25-0.91s0.08-0.39,0.11-0.75
					c0.03-0.35,0.09-0.7,0.04-0.84s-0.45-0.32-0.55-0.38c-0.1-0.06-0.35-0.26-0.44-0.3s-0.62,0-1.13-0.13
					c-0.15-0.05-0.18,0.15-0.02,0.29s0.49,0.25,0.7,0.26c0.21,0.01,0.72,0.44,0.76,0.59c0.04,0.15,0.02,0.29-0.11,0.39"/>
			</g>
			<polygon class="st7" points="396.4,501.72 396.8,500.08 394.95,498 391.15,499.17 390.07,499.72 389.89,501.43 			"/>
			<path class="st51" d="M390.12,505.91l0.18,1.25l5.63,0.27l-0.37-1.1c0,0-0.5,0.08-0.78-0.44l-3.91-0.75
				C390.66,506.11,390.12,505.91,390.12,505.91"/>
			<polygon class="st7" points="396.16,506.81 388.51,507.18 389.26,529.39 395.56,530.85 397.32,526.54 			"/>
			<path class="st51" d="M393.35,555.69l0.36,2.47c0,0,7.36-2.01,8.61-2.79c1.26-0.78-0.42-2.04-2.45-1.14
				c-0.96,0.48-1.85-0.36-1.85-0.36"/>
			<path class="st51" d="M383.72,549.57l-1.26,1.3c0,0,3.18,5.93,5.06,5.93c1.88,0,0.26-2.57-0.63-3.62
				c-0.9-1.05-0.29-1.13-0.29-1.13"/>
			<path class="st51" d="M391.33,544.53l-4.31,7.65c0,0-2.27-0.46-3.29-3.03c2.27-3.77,6.12-11.11,6.17-12.52"/>
			<path class="st51" d="M396.34,526.84l-0.78-20.51c0,0,2.09-0.18,2.99,0.84c0.9,1.02,3.17,5.56,3.65,5.68
				c1.2-1.08,2.57-2.15,2.57-2.15s1.08,2.09,2.03,2.21c-1.08,2.39-3.89,5.86-5.32,5.71c-1.44-0.15-3.47-2.6-3.47-2.6"/>
			<path class="st51" d="M395.58,506.81c0,0-2.24,2.79-5.33,0"/>
			<path class="st51" d="M396.62,500.68c0,0-0.01,0.4-0.07,1c-0.19,1.71-0.86,5-3.32,4.66c-3.31-0.46-2.98-3.31-2.98-3.31
				s-1.09-0.92-1.09-1.48c0-0.56-0.01-0.86,1.09-0.64c2.02,0.41,3.69-0.71,5.1-2.2c0.93,2.09,1.75,2.3,1.75,2.3s-0.49-1.26-0.52-2.3
				c-0.03-1.05-1.16-3.13-4.31-2.81c-3.89,0.39-2.92,5-2.92,5"/>
			<path class="st51" d="M395.02,535.19l1.32-8.35c0,0-4.9,1.26-7.48,1.08c0.12,1.5,0,3.05,0,3.05l4.49,24.72
				c0,0,4.01-0.86,4.66-1.81c-0.54-3.41-3.83-23.86-3.83-23.86"/>
			<path class="st51" d="M387.52,511.17c0,0-0.94,1.63-1.97,3.87c-0.98,2.13,0.47,7.12,0.47,7.12s-0.23,1.54-0.3,2.22
				c-0.08,0.74-0.24,1.74-0.24,1.74s-4.27-5.66-4.27-7.52c0-1.86,2.33-9.23,3.53-11.44s5.38-1.26,5.38-1.26s2.75,17.08-0.48,25.1
				c-3.29-0.35-4.72-0.76-4.72-0.76L387.52,511.17"/>
			<path class="st51" d="M398.02,511.17c0,0-0.24,15.43,0.3,19.56c-1.91,1.02-2.43-1-2.43-1c0.28-0.67,0.4-4.27,0.4-4.27
				l-0.55-14.43"/>
		</g>
		<g id="mujer_1_">
			<path class="st7" d="M214.22,475.51c0,0,0.05,1.09-0.01,1.31c-0.06,0.22-0.12,0.5-0.06,0.7c0.06,0.2,0.41,1.62,0.41,1.62
				l-0.06,0.45l0.27-0.04l0.1-0.43l0.08-1.12l0.02-0.06c0,0,0.59,0.3,0.68,2.54c-0.17-0.1-0.23,0.12-0.23,0.12s-0.19,0.69-0.08,0.75
				c0.11,0.06,0.37-0.38,0.37-0.38s0.22,0.57,0.27,0.52c0.05-0.05,0.1-0.93,0.1-0.93l0.35-0.39l0.16-0.28l0.19-0.18l0.11-0.76
				l0.23,0.6l0.16,0.89l0.13,0.13l0.11-0.13l0.03-1.04l-0.41-1.26l-0.26-0.72l-1.21-1.45l-0.41-0.81L214.22,475.51z"/>
			<path class="st51" d="M210.05,449.02c0,0,0.3-1.39-1.18-2.11c-0.94-1.21-3.21-1.95-4.8-1.02c-1.6,0.93-1.96,3.03-1.44,4.67
				c0.14,0.18,0.19,1.85-0.67,2.17s-2.38,1.12-2.46,2.28c-0.08,1.16,0.03,1.36-1.61,2.2c-1.64,0.85-0.73,2.63-0.4,4
				c0.49-0.21,0.69-1.03,2.08-2.17c0,0,2.3-0.35,4.62-0.35"/>
			<path class="st7" d="M209.01,457.75l-2.22-0.73l-3.59,0.13l-1.46,18.89l7.75,2.04l1.63-2.01
				C211.12,476.06,211.4,458.9,209.01,457.75z"/>
			<path class="st51" d="M202.56,485.59c-1.16,1.71-4.63,0.92-4.63,0.92s-0.31-4.61,2.74-7.58"/>
			<path class="st51" d="M205.19,492.4l-5.3,7.49l-3.38-1.98c0,0,4.15-4.98,4.72-6.38c0.57-1.4,1.56-5.57,1.56-5.57"/>
			<path class="st51" d="M198.86,471.38c-0.77,7.83-6.04,17.82-6.04,17.82s5.19,0.68,5.1-1.27c-0.09-1.95,0.17-3.46,0.47-4.09
				s2.31-5.01,4.34-9.36c5.61-11.78,1.01-17.72,1.01-17.72s-3.97,0.62-4.57,3.21s-0.65,4.04-1.25,5.61
				c-0.59,1.57-1.12,5.59,1.25,5.79c2.37,0.21,4.67-5.11,4.67-5.11s-1.53-0.09-2.51-1.53c-0.98,1.11-2.16,3.19-2.16,3.19"/>
			<path class="st51" d="M210.29,474.75c-0.79-3.81-0.15-3.13-0.11-9.21c0.04-6.08-1.87-8.21-1.87-8.21s0.27,0.02,0.67,0.14
				c0.78,0.24,2.06,0.88,2.98,2.58c1.4,2.59,2.08,7.66,3.4,9.87c1.32,2.21,1.74,4.55,0,5.19s-2.71,1.02-4.06-0.62"/>
			<path class="st51" d="M211.12,467.54c-0.72,4.38,1.78,18.21,2.72,21.95c0.94,3.74-5.53-3.35-5.53-3.35l1.98-11.23"/>
			<path class="st51" d="M205.31,477.43l7.08,22.27l-3.96,1.4l-7.88-20.8l-0.16-0.7c0,0,1.02-2.62,2.17-4.85
				c3.13,1.47,7.72,0,7.72,0s0.7,4.4-0.57,7.08c-1.28,2.68-1.41,5-1.41,5"/>
			<path class="st51" d="M208.69,501.11c0,0,1.83,3.23,1.96,4.3s-0.04,1.53,1.96,1.32c2-0.21,5.57-2.89,5.32-4.08
				c-0.26-1.19-1.96,0.51-4.21-0.26s-2.02-2.43-2.02-2.43"/>
			<path class="st51" d="M197.02,498.22c0,0,0.01,1.06-1.35,1.4s-1.53,1.62-0.34,2.94s3.01,3.79,4.91,3.4s0.58-1.57-0.4-2.59
				c-0.98-1.02-2.17-2.06-0.39-3.72"/>
			<path class="st51" d="M215.55,502.55c0,0,0.18,1.97-2.43,2.13c-2.61,0.16-2.61,0.16-2.61,0.16"/>
			<path class="st51" d="M199.84,503.36c0,0,0.7,0.89-0.67,0.55s-4.05-3.7-3.5-4.3"/>
			<g>
				<path class="st53" d="M215.24,475.16c0,0,0.17,0.67,0.94,1.45s0.83,1.11,0.87,1.22c0.04,0.11,0.14,0.66,0.27,0.95
					s0.22,0.71,0.22,0.83s-0.04,0.54-0.02,0.73c0.02,0.19-0.11,0.3-0.2,0.19c-0.09-0.11-0.19-0.7-0.2-1.01
					c0-0.16-0.18-0.45-0.25-0.51"/>
				<path class="st53" d="M217.05,478.66c0,0-0.11,0.07-0.15,0.21c-0.04,0.14-0.05,0.82-0.16,0.96c-0.11,0.14-0.24,0.17-0.24,0.17"
					/>
				<path class="st53" d="M216.53,478.61c0,0-0.05,0.89-0.01,1.21c0.04,0.31-0.16,0.43-0.21,0.48c-0.05,0.05-0.23,0.27-0.23,0.27"/>
				<path class="st53" d="M216.17,478.37c0,0-0.17,0.46-0.01,1.49c0.04,0.2,0.06,0.18,0.04,0.27c-0.01,0.09-0.16,0.5-0.16,0.62
					c0,0.12,0.02,0.51,0.01,0.62c-0.01,0.11-0.07,0.18-0.18,0.05s-0.25-1.08-0.29-1.47c-0.03-0.38-0.12-1.11-0.33-1.58
					c-0.21-0.47-0.41-0.67-0.48-0.75"/>
				<path class="st53" d="M214.23,475.55c0,0,0.05,1.2-0.05,1.44c-0.11,0.24-0.05,0.49,0.07,0.81c0.13,0.32,0.35,1.18,0.32,1.42
					c-0.03,0.24-0.07,0.34-0.05,0.38s0.23,0.06,0.32-0.19c0.09-0.25,0.01-0.82,0.06-1.11c0.04-0.29,0.11-0.4,0.11-0.4"/>
				<path class="st53" d="M215.63,480.32c0,0-0.3,0.3-0.3,0.61c0,0.3-0.08,0.39,0.05,0.44s0.34-0.52,0.34-0.52"/>
			</g>
			<path class="st7" d="M201.77,465.17c0,0,0.85-0.82,0.98-1.12c0.13-0.3,1.2-0.75,1.2-0.75s0.87-0.54,0.89-0.77
				c0.21,0.17,0.04,0.56-0.14,0.66s-0.71,0.7-0.71,0.87c0.57-0.02,1.66-0.87,1.66-0.87s1.29-0.98,1.4-0.98c0.11,0,0.23,0.09,0.1,0.2
				c-0.14,0.11-0.56,0.6-0.59,0.73c-0.03,0.13,0.72-0.53,0.72-0.53s0.33-0.22,0.38-0.09c0.05,0.13-0.63,0.81-0.68,0.97
				c-0.06,0.16,0.51-0.24,0.69-0.24c0.17-0.01,0.16,0.02,0.02,0.17s-0.7,0.64-0.7,0.64s0.52-0.26,0.57-0.19
				c0.05,0.07-0.11,0.26-0.35,0.51s-0.55,0.56-1.01,0.7c-0.46,0.14-0.93,0.55-0.93,0.55s-1.63,0.1-1.95,0.19
				c-0.31,0.09-0.46,0.13-0.46,0.13S201.8,465.42,201.77,465.17z"/>
			<g>
				<path class="st53" d="M202.82,465.99c0,0-0.04-0.18,1.05-0.17c1.09,0.01,1.37-0.19,1.48-0.24s0.57-0.37,0.86-0.48
					s0.66-0.34,0.74-0.43c0.08-0.09,0.36-0.41,0.5-0.53s0.13-0.29-0.01-0.27c-0.14,0.02-0.63,0.36-0.85,0.57
					c-0.11,0.11-0.28,0.17-0.38,0.16"/>
				<path class="st53" d="M205.11,464.57c0,0,0.21-0.45,1.05-1.06c0.17-0.12,0.17-0.08,0.22-0.16s0.24-0.47,0.33-0.55
					c0.09-0.08,0.38-0.35,0.45-0.43s0.08-0.17-0.09-0.17c-0.17,0.01-0.95,0.58-1.24,0.83c-0.3,0.25-0.88,0.7-1.36,0.88
					c-0.48,0.18-0.76,0.18-0.88,0.19"/>
				<path class="st53" d="M205.93,464.36c0,0,0.34-0.38,0.67-0.57c0.17-0.12,0.17-0.08,0.22-0.16s0.3-0.44,0.39-0.53
					c0.09-0.08,0.32-0.37,0.39-0.46s0.08-0.17-0.09-0.17c-0.17,0.01-0.83,0.63-1.13,0.88"/>
				<path class="st53" d="M201.74,465.17c0,0,0.89-0.8,0.98-1.05s0.31-0.38,0.63-0.52c0.32-0.14,1.08-0.58,1.23-0.78
					s0.2-0.29,0.23-0.3c0.03-0.01,0.21,0.12,0.09,0.36c-0.12,0.24-0.57,0.58-0.75,0.82c-0.17,0.24-0.2,0.36-0.2,0.36"/>
				<path class="st53" d="M206.59,464.43c0.16-0.16,0.15-0.14,0.21-0.2c0.07-0.06,0.36-0.39,0.46-0.46c0.1-0.07,0.38-0.31,0.46-0.39
					c0.08-0.08,0.1-0.16-0.06-0.18c-0.17-0.02-0.84,0.47-1.17,0.67"/>
			</g>
			<path class="st51" d="M204.78,453.91c0,0,1.6,3.08,3.75,1.87c2.15-1.21,1.53-4.48,1.52-6.75c-0.02-0.85-1.39-1.42-1.39-1.42
				s-0.35,1.07-1.93,1.52c-1.58,0.45-2.33,0.75-2.33,2.38c-0.43-0.88-1.37-1.16-1.48-0.27c-0.11,0.89,0.75,1.67,1.2,2.15
				c0,0,0.22,2.76,0.19,3.08s-0.56,0.3-0.56,0.3c4.41,2.91,4.56,0.57,4.56,0.57s-0.56,0.12-0.62-1.23"/>
		</g>
		<g id="hombre_1_">
			<polygon class="st7" points="409.71,340.94 407.92,339.65 407.62,339.57 407.52,339.09 407.31,339.04 407.21,338.98 
				406.9,337.88 406.42,337.51 406.63,336.54 407.07,335.75 407.41,335.33 407.65,335.47 407.73,335.7 408.28,335.33 408.98,334.85 
				409.07,335.03 408.85,335.61 408.46,335.98 408.07,336.32 407.73,336.81 408.47,336.63 409.25,336.41 409.74,336.34 
				410.01,335.67 410.2,335.51 410.31,335.56 410.44,335.86 410.44,336.63 410.36,337.08 410.52,337.7 410.84,338.21 410.99,338.65 
				411.08,339.13 			"/>
			<g>
				<path class="st53" d="M410.95,339.36c0,0,0.29-0.67-0.28-1.43s-0.17-1.49-0.21-1.87c-0.03-0.39-0.09-0.53-0.26-0.54
					c-0.17-0.01-0.47,0.65-0.45,0.82"/>
				<path class="st53" d="M409.72,336.81c0,0,0.06,0.43,0.02,0.53"/>
				<path class="st53" d="M410.25,337.88c0,0-0.44-0.15-0.5-0.15"/>
				<path class="st53" d="M406.95,337.92c0,0-0.3-0.28-0.48-0.37c-0.18-0.09,0.13-1,0.28-1.34c0.16-0.34,0.58-0.74,0.64-0.88
					c0.17-0.01,0.39,0.25,0.3,0.45"/>
				<path class="st53" d="M407.51,339.17c0,0-0.19-0.12-0.31-0.2c-0.08-0.22-0.35-1.54-0.44-1.87c-0.09-0.32,0.55-0.81,0.72-1.04
					c0.17-0.23,0.45-0.54,0.62-0.61c0.17-0.06,0.64-0.39,0.82-0.59c0.12-0.1,0.24,0.17,0.09,0.47c-0.15,0.3-0.39,0.59-0.54,0.64
					c-0.15,0.05-0.54,0.42-0.77,0.9"/>
				<path class="st53" d="M407.89,339.61c0,0-0.2,0.02-0.27-0.03s-0.28-1.85-0.33-2.01s-0.19-0.5,0.18-0.62s0.65-0.18,1.12-0.36
					c0.47-0.19,1.39-0.26,1.39-0.26s0.16,0.21-0.12,0.43s-1.09,0.42-1.26,0.52c-0.17,0.1-0.5,0.13-0.5,0.27
					c0,0.15,0.02,0.33,0.02,0.29"/>
				<path class="st53" d="M409.75,340.96c0,0-0.32-0.2-0.54-0.37s-1.08-0.84-1.25-0.91c-0.17-0.08-0.08-0.39-0.11-0.75
					c-0.03-0.35-0.09-0.7-0.04-0.84c0.04-0.14,0.45-0.32,0.55-0.38c0.1-0.06,0.35-0.26,0.44-0.3c0.09-0.03,0.62,0,1.13-0.13
					c0.15-0.05,0.18,0.15,0.02,0.29c-0.16,0.14-0.49,0.25-0.7,0.26c-0.21,0.01-0.72,0.44-0.76,0.59c-0.04,0.15-0.02,0.29,0.11,0.39"
					/>
			</g>
			<polygon class="st7" points="419.5,330.06 419.1,328.41 420.96,326.33 424.76,327.5 425.83,328.05 426.01,329.77 			"/>
			<path class="st51" d="M425.78,334.24l-0.18,1.25l-5.63,0.27l0.37-1.1c0,0,0.5,0.08,0.78-0.44l3.91-0.75
				C425.24,334.44,425.78,334.24,425.78,334.24"/>
			<polygon class="st7" points="419.74,335.14 427.4,335.51 426.64,357.72 420.34,359.18 418.59,354.87 			"/>
			<path class="st51" d="M422.55,384.02l-0.36,2.47c0,0-7.36-2.01-8.61-2.79c-1.26-0.78,0.42-2.04,2.45-1.14
				c0.96,0.48,1.85-0.36,1.85-0.36"/>
			<path class="st51" d="M432.18,377.9l1.26,1.3c0,0-3.18,5.93-5.06,5.93s-0.26-2.57,0.63-3.62c0.9-1.05,0.29-1.13,0.29-1.13"/>
			<path class="st51" d="M424.58,372.86l4.31,7.65c0,0,2.27-0.46,3.29-3.03c-2.27-3.77-6.12-11.11-6.17-12.52"/>
			<path class="st51" d="M419.56,355.17l0.78-20.51c0,0-2.09-0.18-2.99,0.84s-3.17,5.56-3.65,5.68c-1.2-1.08-2.57-2.15-2.57-2.15
				s-1.08,2.09-2.03,2.21c1.08,2.39,3.89,5.86,5.32,5.71c1.44-0.15,3.47-2.6,3.47-2.6"/>
			<path class="st51" d="M420.32,335.14c0,0,2.24,2.79,5.33,0"/>
			<path class="st51" d="M419.29,329.01c0,0,0.01,0.4,0.07,1c0.19,1.71,0.86,5,3.32,4.66c3.31-0.46,2.98-3.31,2.98-3.31
				s1.09-0.92,1.09-1.48s0.01-0.86-1.09-0.64c-2.02,0.41-3.69-0.71-5.1-2.2c-0.93,2.09-1.75,2.3-1.75,2.3s0.49-1.26,0.52-2.3
				c0.03-1.05,1.16-3.13,4.31-2.81c3.89,0.39,2.92,5,2.92,5"/>
			<path class="st51" d="M420.88,363.53l-1.32-8.35c0,0,4.9,1.26,7.48,1.08c-0.12,1.5,0,3.05,0,3.05l-4.49,24.72
				c0,0-4.01-0.86-4.66-1.81c0.54-3.41,3.83-23.86,3.83-23.86"/>
			<path class="st51" d="M428.38,339.5c0,0,0.94,1.63,1.97,3.87c0.98,2.13-0.47,7.12-0.47,7.12s0.23,1.54,0.3,2.22
				c0.08,0.74,0.24,1.74,0.24,1.74s4.27-5.66,4.27-7.52c0-1.86-2.33-9.23-3.53-11.44s-5.38-1.26-5.38-1.26s-2.75,17.08,0.48,25.1
				c3.29-0.35,4.72-0.76,4.72-0.76L428.38,339.5"/>
			<path class="st51" d="M417.89,339.5c0,0,0.24,15.43-0.3,19.56c1.91,1.02,2.43-1,2.43-1c-0.28-0.67-0.4-4.27-0.4-4.27l0.55-14.43"
				/>
		</g>
	</g>
</g>
</svg>
