<?xml version="1.0" encoding="utf-8"?>
<!-- Generator: Adobe Illustrator 24.0.0, SVG Export Plug-In . SVG Version: 6.00 Build 0)  -->
<svg version="1.1" xmlns="http://www.w3.org/2000/svg" xmlns:xlink="http://www.w3.org/1999/xlink" x="0px" y="0px"
	 viewBox="0 0 344.68 305.2" style="enable-background:new 0 0 344.68 305.2;" xml:space="preserve">
<style type="text/css">
	.st0{opacity:0.15;fill:#3EB6A6;}
	.st1{fill:#3EB6A6;}
	.st2{opacity:0.3;}
	.st3{fill:#FFFFFF;stroke:#3EB6A6;stroke-width:3;stroke-miterlimit:10;}
	.st4{fill:#93539C;}
	.st5{fill:#FFFFFF;stroke:#93539C;stroke-width:7;stroke-miterlimit:10;}
	.st6{fill:none;stroke:#000000;stroke-width:10;stroke-miterlimit:10;}
	.st7{fill:#FFFFFF;}
	.st8{fill:#FFFFFF;stroke:#3EB6A6;stroke-width:3;stroke-linecap:round;stroke-miterlimit:10;}
	.st9{fill:#FFFFFF;stroke:#93539C;stroke-width:3;stroke-miterlimit:10;}
	.st10{fill:none;stroke:#3EB6A6;stroke-width:3;stroke-miterlimit:10;}
	.st11{fill:none;stroke:#93539C;stroke-width:3;stroke-miterlimit:10;}
	.st12{fill:#FFFFFF;stroke:#93539C;stroke-width:2;stroke-miterlimit:10;}
	.st13{fill-rule:evenodd;clip-rule:evenodd;fill:#FFFFFF;stroke:#3EB6A6;stroke-width:3;stroke-miterlimit:10;}
	.st14{fill:none;stroke:#93539C;stroke-width:0.5;stroke-miterlimit:10;}
	.st15{fill:none;stroke:#93539C;stroke-width:0.25;stroke-linecap:round;stroke-linejoin:round;stroke-miterlimit:10;}
	.st16{fill:none;stroke:#93539C;stroke-width:0.5;stroke-linecap:round;stroke-linejoin:round;stroke-miterlimit:10;}
	.st17{fill:none;stroke:#000000;stroke-width:0.5;stroke-miterlimit:10;}
	.st18{fill:#FFFFFF;stroke:#3EB6A6;stroke-width:2;stroke-miterlimit:10;}
	.st19{fill:none;stroke:#93539C;stroke-width:2;stroke-linecap:round;stroke-miterlimit:10;}
	.st20{fill:none;stroke:#93539C;stroke-width:3;stroke-linecap:round;stroke-miterlimit:10;}
	.st21{fill:#FFFFFF;stroke:#3EB6A6;stroke-miterlimit:10;}
	.st22{fill:none;stroke:#93539C;stroke-linecap:round;stroke-miterlimit:10;}
	.st23{fill:none;stroke:#3EB6A6;stroke-miterlimit:10;}
	.st24{fill:none;stroke:#FFFFFF;stroke-width:3;stroke-miterlimit:10;}
	.st25{opacity:0.35;fill:#FFFFFF;stroke:#93539C;stroke-width:2;stroke-miterlimit:10;}
	.st26{fill:none;stroke:#93539C;stroke-width:2;stroke-miterlimit:10;}
	.st27{fill:#E1F1F0;}
	.st28{fill:#010202;}
	.st29{fill:none;}
	.st30{fill:#1A1533;}
	.st31{fill:#FFFFFF;stroke:#010202;stroke-miterlimit:10;}
	.st32{fill:none;stroke:#010202;stroke-miterlimit:10;}
	.st33{fill:none;stroke:#3EB6A6;stroke-width:2;stroke-miterlimit:10;}
	.st34{fill:none;stroke:#34B4A4;stroke-width:0.75;stroke-miterlimit:10;}
	.st35{fill:#FFFFFF;stroke:#000000;stroke-width:3;stroke-miterlimit:10;}
	.st36{fill:none;stroke:#000000;stroke-miterlimit:10;}
	.st37{fill:#3EB6A6;stroke:#010202;stroke-miterlimit:10;}
	.st38{fill:#93539C;stroke:#E9DCEB;stroke-miterlimit:10;}
	.st39{fill:#E9DCEB;}
	.st40{fill:none;stroke:#93539C;stroke-miterlimit:10;}
	.st41{fill:none;stroke:#000000;stroke-width:3;stroke-miterlimit:10;}
	.st42{stroke:#000000;stroke-miterlimit:10;}
	.st43{fill:none;stroke:#010202;stroke-width:3;stroke-miterlimit:10;}
	.st44{fill:none;stroke:#93539C;stroke-width:5;stroke-miterlimit:10;}
	.st45{fill:none;stroke:#3EB6A6;stroke-width:7;stroke-miterlimit:10;}
	.st46{fill:none;stroke:#93539C;stroke-width:4;stroke-miterlimit:10;}
	.st47{fill:none;stroke:#3EB6A6;stroke-width:5;stroke-miterlimit:10;}
	.st48{fill:#FFFFFF;stroke:#000000;stroke-miterlimit:10;}
	.st49{fill:#FFFFFF;stroke:#000000;stroke-width:2;stroke-miterlimit:10;}
	.st50{fill:#FFFFFF;stroke:#93539C;stroke-miterlimit:10;}
	.st51{fill:#FFFFFF;stroke:#3EB6A6;stroke-width:0.5;stroke-miterlimit:10;}
	.st52{fill:#FFFFFF;stroke:#93539C;stroke-linecap:round;stroke-miterlimit:10;}
	.st53{fill:none;stroke:#3EB6A6;stroke-width:0.25;stroke-miterlimit:10;}
	.st54{fill:#E1F1F0;stroke:#010202;stroke-miterlimit:10;}
	.st55{fill:none;stroke:#000000;stroke-linecap:round;stroke-miterlimit:10;}
	.st56{fill:#FFFFFF;stroke:#000000;stroke-width:0.75;stroke-miterlimit:10;}
	.st57{fill:#FFFFFF;stroke:#000000;stroke-width:0.5;stroke-miterlimit:10;}
	.st58{fill:#FFFFFF;stroke:#000000;stroke-linecap:round;stroke-linejoin:round;stroke-miterlimit:10;}
</style>
<g id="Capa_5">
	<path class="st27" d="M70.13,141.56c-3.99-7.45-7.5-17.39-1.79-23.62c4.73-5.16,13.48-4.68,18.38-9.67
		c4.05-4.13,4.2-10.6,6.54-15.89c3.95-8.92,14-13.76,23.7-14.73s19.41,1.16,29.09,2.33c5.78,0.7,11.93,1,17.12-1.63
		c7.99-4.04,11.22-13.48,15.26-21.47S190.28,40.74,198.94,43c6.64,1.73,10.29,8.91,11.74,15.61c1.45,6.71,1.63,13.89,5.03,19.85
		c3.1,5.45,8.96,9.36,15.22,9.7c6.27,0.35,12.69-3.08,15.55-8.66c1.57-3.06,2.07-6.58,3.64-9.64c4.68-9.09,19.45-10.37,25.62-2.22
		c5.13,6.78,4.31,17.36,10.93,22.7c3.04,2.45,7.08,3.24,10.53,5.08c6.41,3.42,10.4,10.44,11.39,17.63
		c0.99,7.2-0.73,14.54-3.54,21.24c-2.25,5.36-5.24,10.54-6.11,16.29c-0.88,5.75,1.03,12.48,6.25,15.06
		c2.04,1.01,4.37,1.28,6.47,2.18c7.85,3.34,9.57,14.67,5.16,21.97c-4.41,7.3-12.87,11.13-21.14,13.2s-16.92,2.86-24.8,6.13
		c-11.42,4.75-21.15,14.65-33.51,15.09c-13.9,0.49-25.44-11.23-39.21-13.17c-16.62-2.34-31.42,9.73-47.34,15.05
		c-9.05,3.03-20,3.52-27.21-2.73c-5.52-4.78-7.68-12.51-12.99-17.53c-4.82-4.56-11.56-6.3-17.94-8.12
		c-6.38-1.82-13.08-4.13-17.18-9.35c-1.35,0-4.1-5.66-4.3-6.87c-0.5-2.98,0.82-7.26,1.16-10.28
		C73.5,161.08,75.09,150.83,70.13,141.56z"/>
	<path class="st3" d="M301.71,181.82c0-37.85-19.4-71.18-48.79-90.57c-17.11-11.29-37.6-17.86-59.63-17.86
		c-21.79,0-42.07,6.42-59.06,17.48c-29.72,19.34-49.36,52.85-49.36,90.94l55.5-0.3c0-20.71,11.8-38.65,29.05-47.48
		c7.28-3.73,15.53-5.83,24.26-5.83c8.69,0,16.9,2.08,24.16,5.77c17.3,8.81,29.16,26.79,29.16,47.54L301.71,181.82z"/>
	<line class="st10" x1="134.39" y1="90.87" x2="169.39" y2="133.77"/>
	<line class="st10" x1="253.23" y1="90.87" x2="218.23" y2="133.77"/>
	<g>
		<g>
			<path class="st28" d="M257.2,134.47c-0.78-0.89-1.19-1.33-2.05-2.16c-1.47,0.71-2.21,1.07-3.68,1.78
				c0.98,0.94,1.44,1.44,2.31,2.46c-0.42,0.12-0.63,0.18-1.06,0.31c-1.2-1.39-1.84-2.05-3.23-3.28c3.81-1.85,5.72-2.77,9.53-4.62
				c1.37,1.22,2.01,1.87,3.2,3.25c-0.38,0.18-0.56,0.27-0.94,0.45c-0.82-0.95-1.25-1.41-2.16-2.29c-1.22,0.59-1.83,0.88-3.04,1.47
				c0.86,0.83,1.27,1.26,2.05,2.16C257.76,134.2,257.57,134.29,257.2,134.47z M264.68,131.7c-1.17-0.44-1.76-0.65-2.98-1.06
				c-0.38-0.4-0.57-0.59-0.97-0.98c1.12,0.26,1.68,0.4,2.77,0.69C263.99,130.89,264.22,131.16,264.68,131.7z"/>
			<path class="st28" d="M256.03,141.43c1.23-1.32,1.84-1.98,3.05-3.28c0-0.01-0.01-0.01-0.01-0.02c-1.95,0.2-2.94,0.3-4.92,0.52
				c-0.35-0.46-0.53-0.69-0.89-1.14c2.57-0.23,3.85-0.33,6.37-0.52c1.32-1.61,1.97-2.41,3.25-3.99c0.39,0.48,0.57,0.72,0.94,1.21
				c-1.04,1.17-1.57,1.76-2.63,2.95c0,0.01,0.01,0.01,0.01,0.02c1.75-0.17,2.62-0.25,4.35-0.4c0.31,0.5,0.45,0.75,0.74,1.26
				c-2.22,0.08-3.34,0.13-5.6,0.24c-1.52,1.78-2.29,2.68-3.86,4.49C256.51,142.22,256.36,141.96,256.03,141.43z"/>
			<path class="st28" d="M267.38,140.2c-3.81,1.85-5.72,2.77-9.53,4.62c-0.24-0.51-0.36-0.76-0.61-1.25
				c3.81-1.85,5.72-2.77,9.53-4.62C267.02,139.44,267.14,139.69,267.38,140.2z"/>
			<path class="st28" d="M267.63,143.55c-0.29-0.8-0.44-1.19-0.78-1.97c0.38-0.18,0.56-0.27,0.94-0.45
				c0.89,2.07,1.25,3.14,1.79,5.34c-0.38,0.18-0.56,0.27-0.94,0.45c-0.2-0.82-0.32-1.23-0.57-2.04c-3.44,1.66-5.16,2.5-8.59,4.16
				c-0.17-0.53-0.26-0.8-0.45-1.33C262.48,146.05,264.19,145.22,267.63,143.55z"/>
			<path class="st28" d="M268.2,153.88c-1.92,0.93-2.88,1.4-4.8,2.33c-1.67,0.81-2.53,0.24-2.81-1.72c-0.29-2.03,0.43-3.2,1.99-3.96
				c1.93-0.93,2.89-1.4,4.82-2.33c1.62-0.78,2.73-0.21,3,1.65C270.66,151.79,269.71,153.16,268.2,153.88z M267.73,149.59
				c-1.98,0.96-2.97,1.44-4.95,2.39c-1.07,0.52-1.39,1.25-1.27,2.14c0.13,0.93,0.59,1.22,1.72,0.68c1.96-0.95,2.94-1.42,4.9-2.37
				c1.01-0.49,1.46-1.21,1.32-2.16C269.32,149.31,268.76,149.08,267.73,149.59z"/>
		</g>
	</g>
	<line class="st20" x1="191.67" y1="179.64" x2="229.11" y2="99.29"/>
	<line class="st29" x1="194.31" y1="78.09" x2="201.79" y2="85.56"/>
	<polyline class="st4" points="236.05,102.76 222.26,96.34 232.37,92.66 	"/>
	<g>
		<g>
			<path class="st1" d="M111.64,159.53c0.27-1.71,0.44-2.56,0.84-4.24c0.41,0.24,0.61,0.36,1.02,0.6c-0.28,1.16-0.4,1.75-0.62,2.93
				c1.35,0.8,2.02,1.2,3.37,2c0.2-1.12,0.32-1.67,0.58-2.77c0.41,0.24,0.61,0.36,1.02,0.6c-0.26,1.1-0.38,1.65-0.58,2.77
				c1.98,1.17,2.96,1.76,4.94,2.93c-0.1,0.52-0.14,0.78-0.22,1.31C117.84,163.21,115.77,161.98,111.64,159.53z"/>
			<path class="st1" d="M118.62,156.19c1.93,1.14,2.9,1.72,4.83,2.86c-0.14,0.51-0.21,0.76-0.35,1.27
				c-4.14-2.45-6.21-3.68-10.35-6.13c0.22-0.84,0.33-1.25,0.58-2.08c0.53-1.77,1.53-2.22,3.24-1.21c0.19,0.11,0.28,0.17,0.47,0.28
				c1.41,0.83,1.78,1.73,1.77,2.47c0.49-0.6,1.11-0.64,2.49,0.17c0.89,0.52,2.53,1.52,3.23,1.78c-0.17,0.48-0.25,0.72-0.41,1.21
				c-0.69-0.23-2.43-1.29-3.15-1.72c-1.34-0.79-1.8-0.81-2.16,0.36C118.74,155.74,118.7,155.89,118.62,156.19z M117.68,155.63
				c0.09-0.31,0.13-0.47,0.23-0.77c0.34-1.12-0.12-1.75-1.23-2.4c-0.18-0.11-0.28-0.16-0.46-0.27c-0.95-0.56-1.62-0.61-1.97,0.58
				c-0.09,0.28-0.13,0.43-0.21,0.71C115.49,154.34,116.22,154.77,117.68,155.63z"/>
			<path class="st1" d="M122.26,151.01c1.23,1,1.85,1.5,3.08,2.5c-0.2,0.49-0.29,0.74-0.48,1.23c-3.86-3.21-5.78-4.81-9.61-8.01
				c0.29-0.69,0.43-1.03,0.74-1.7c4.49,1.69,6.74,2.54,11.25,4.24c-0.24,0.49-0.36,0.73-0.6,1.23c-1.43-0.55-2.14-0.83-3.57-1.38
				C122.74,149.87,122.58,150.25,122.26,151.01z M122.01,148.67c-2.46-0.96-4.34-1.72-5.36-2.19c-0.01,0.02-0.01,0.03-0.02,0.05
				c0.78,0.51,2.94,2.3,4.7,3.72C121.58,149.61,121.72,149.3,122.01,148.67z"/>
			<path class="st1" d="M127.19,142.4c0.14,0.08,0.21,0.12,0.35,0.21c1.32,0.78,2.57,1.85,1.46,3.76c-1.06,1.83-2.47,1.42-3.99,0.52
				c-2.11-1.25-3.16-1.87-5.26-3.12c-1.66-0.98-2.2-2.28-1.37-3.71c1.03-1.78,2.49-1.34,3.85-0.54c0.16,0.1,0.24,0.14,0.4,0.24
				c-0.28,0.45-0.42,0.67-0.7,1.12c-0.19-0.12-0.29-0.17-0.49-0.29c-0.82-0.49-1.59-0.76-2.07,0.07c-0.46,0.8,0.05,1.37,0.96,1.91
				c2.15,1.27,3.22,1.91,5.37,3.18c1.04,0.61,1.84,0.78,2.31-0.01c0.48-0.83-0.12-1.39-1.1-1.96c-0.17-0.1-0.26-0.15-0.43-0.26
				C126.77,143.07,126.91,142.85,127.19,142.4z"/>
			<path class="st1" d="M128.36,139.98c1.19,0.97,1.78,1.46,2.97,2.44c-0.3,0.43-0.45,0.65-0.74,1.09c-3.7-3.12-5.54-4.68-9.21-7.79
				c0.43-0.61,0.65-0.9,1.1-1.5c4.65,1.78,6.98,2.68,11.65,4.48c-0.35,0.42-0.52,0.64-0.86,1.07c-1.48-0.58-2.21-0.88-3.69-1.46
				C129.08,138.97,128.84,139.3,128.36,139.98z M128.47,137.85c-2.54-1.01-4.48-1.8-5.53-2.29c-0.01,0.02-0.02,0.03-0.03,0.04
				c0.77,0.51,2.84,2.24,4.54,3.63C127.85,138.67,128.05,138.4,128.47,137.85z"/>
			<path class="st1" d="M132.61,135.35c0.24,0.14,0.36,0.21,0.6,0.36c0.97,0.58,1.76,0.58,2.35-0.05c0.6-0.65,0.31-1.21-0.82-1.88
				c-1.21-0.72-1.91-0.78-3.64-0.33c-1.76,0.46-2.7,0.66-4.23-0.24c-1.31-0.78-2.29-1.9-0.96-3.3c1.26-1.34,2.65-1.05,3.96-0.27
				c0.19,0.11,0.29,0.17,0.48,0.28c-0.37,0.37-0.55,0.55-0.92,0.93c-0.18-0.11-0.27-0.16-0.45-0.27c-0.86-0.51-1.56-0.7-2.13-0.08
				c-0.58,0.62-0.09,1.15,0.72,1.63c0.96,0.57,1.47,0.61,2.96,0.21c2.26-0.6,3.27-0.61,4.99,0.41c1.45,0.86,2.4,1.97,0.98,3.49
				c-1.35,1.46-2.79,1.26-4.15,0.45c-0.24-0.14-0.36-0.21-0.59-0.35C132.09,135.94,132.26,135.74,132.61,135.35z"/>
			<path class="st1" d="M135.3,125.37c2.09,1.24,3.13,1.85,5.22,3.09c1.82,1.08,2,2.15,0.59,3.35c-1.46,1.25-2.97,1.14-4.66,0.14
				c-2.09-1.24-3.14-1.86-5.23-3.1c-1.76-1.04-2-2.26-0.66-3.4C131.95,124.27,133.67,124.4,135.3,125.37z M132.16,127.92
				c2.15,1.27,3.22,1.91,5.37,3.18c1.16,0.69,2,0.62,2.63,0.08c0.67-0.57,0.58-1.12-0.65-1.85c-2.13-1.26-3.19-1.89-5.32-3.15
				c-1.1-0.65-1.98-0.68-2.66-0.1C130.85,126.66,131.03,127.25,132.16,127.92z"/>
		</g>
	</g>
	<g>
		<g>
			<path class="st4" d="M174.86,103.95c0,2.25,0,3.37,0,5.62c-0.5,0.18-0.74,0.28-1.24,0.47c0-4.81,0-7.22,0-12.03
				c0.81-0.32,1.22-0.47,2.04-0.76c1.76-0.62,2.64-0.08,2.64,1.91c0,0.22,0,0.33,0,0.55c0,1.63-0.57,2.47-1.2,2.9
				c0.75,0.04,1.1,0.52,1.1,2.12c0,1.03-0.02,2.96,0.12,3.68c-0.49,0.15-0.74,0.22-1.23,0.38c-0.15-0.7-0.12-2.73-0.12-3.57
				c0-1.56-0.22-1.94-1.38-1.53C175.29,103.79,175.15,103.84,174.86,103.95z M174.86,102.86c0.31-0.11,0.46-0.17,0.76-0.28
				c1.11-0.39,1.41-1.14,1.41-2.42c0-0.21,0-0.32,0-0.54c0-1.1-0.3-1.67-1.47-1.26c-0.28,0.1-0.42,0.15-0.7,0.25
				C174.86,100.32,174.86,101.17,174.86,102.86z"/>
			<path class="st4" d="M183.73,101.27c-1.08,0.21-1.62,0.33-2.7,0.59c0,1.86,0,2.79,0,4.65c1.22-0.3,1.83-0.43,3.07-0.66
				c-0.07,0.48-0.1,0.73-0.17,1.21c-1.68,0.32-2.51,0.5-4.16,0.95c0-4.81,0-7.22,0-12.03c1.64-0.44,2.47-0.63,4.13-0.94
				c0,0.47,0,0.71,0,1.18c-1.15,0.22-1.72,0.34-2.85,0.62c0,1.54,0,2.31,0,3.84c1.07-0.26,1.61-0.38,2.7-0.59
				C183.73,100.57,183.73,100.8,183.73,101.27z"/>
			<path class="st4" d="M190.14,106.25c-0.41,0.03-0.62,0.05-1.03,0.09c-0.03-0.19-0.07-0.76-0.08-1.03c-0.31,0.92-1,1.3-1.79,1.4
				c-1.68,0.21-2.23-0.9-2.23-2.82c0-2.41,0-3.61,0-6.02c0-1.97,0.8-3.34,2.6-3.55c2.12-0.26,2.51,1.24,2.51,2.77
				c0,0.12,0,0.18,0,0.31c-0.52,0.04-0.78,0.06-1.3,0.11c0-0.13,0-0.2,0-0.34c0-0.84-0.1-1.81-1.22-1.68
				c-0.85,0.1-1.27,0.7-1.27,2.06c0,2.48,0,3.72,0,6.2c0,1.19,0.31,1.89,1.2,1.78c1.12-0.14,1.31-1.16,1.31-2.7
				c0-0.77,0-1.15,0-1.92c-0.54,0.05-0.81,0.08-1.35,0.15c0-0.45,0-0.67,0-1.12c1.06-0.13,1.6-0.18,2.66-0.26
				C190.14,102.3,190.14,103.62,190.14,106.25z"/>
			<path class="st4" d="M192.96,94.08c0,3.74,0,5.61,0,9.35c0,0.99,0.35,1.65,1.27,1.65c0.94,0,1.26-0.63,1.26-1.65
				c0-3.74,0-5.61,0-9.36c0.53,0.01,0.79,0.02,1.31,0.04c0,3.72,0,5.59,0,9.31c0,1.86-0.85,2.82-2.6,2.82
				c-1.7,0-2.55-0.87-2.55-2.78c0-3.74,0-5.6,0-9.34C192.18,94.1,192.44,94.09,192.96,94.08z"/>
			<path class="st4" d="M198.55,94.22c0.52,0.04,0.78,0.06,1.3,0.11c0,4.35,0,6.53,0,10.88c1.23,0.12,1.84,0.2,3.06,0.39
				c-0.06,0.45-0.09,0.68-0.14,1.13c-1.68-0.26-2.52-0.35-4.22-0.48C198.55,101.44,198.55,99.04,198.55,94.22z"/>
			<path class="st4" d="M205.33,103.34c-0.23,1.49-0.35,2.23-0.58,3.73c-0.52-0.1-0.78-0.14-1.3-0.23c0.8-4.68,1.19-7.01,1.99-11.66
				c0.73,0.15,1.1,0.23,1.82,0.4c0.82,5.01,1.23,7.52,2.04,12.55c-0.53-0.15-0.8-0.22-1.33-0.35c-0.25-1.6-0.37-2.39-0.62-3.99
				C206.55,103.6,206.15,103.51,205.33,103.34z M207.19,102.57c-0.42-2.75-0.72-4.86-0.84-6.02c-0.02,0-0.03-0.01-0.05-0.01
				c-0.04,0.92-0.48,3.53-0.8,5.66C206.18,102.34,206.52,102.41,207.19,102.57z"/>
			<path class="st4" d="M211.57,103.19c0,2.25,0,3.37,0,5.62c-0.5-0.16-0.75-0.24-1.26-0.39c0-4.81,0-7.22,0-12.03
				c0.83,0.25,1.24,0.38,2.06,0.66c1.77,0.6,2.62,1.74,2.62,3.73c0,0.22,0,0.33,0,0.55c0,1.63-0.55,2.08-1.18,2.08
				c0.74,0.56,1.08,1.27,1.08,2.88c0,1.03-0.02,2.94,0.11,3.76c-0.48-0.19-0.72-0.28-1.21-0.46c-0.15-0.8-0.12-2.82-0.12-3.66
				c0-1.56-0.21-2.09-1.37-2.49C212.01,103.33,211.86,103.29,211.57,103.19z M211.57,102.1c0.31,0.1,0.46,0.15,0.77,0.25
				c1.12,0.38,1.4-0.17,1.4-1.45c0-0.21,0-0.32,0-0.54c0-1.1-0.29-1.88-1.47-2.27c-0.28-0.1-0.42-0.14-0.71-0.23
				C211.57,99.56,211.57,100.41,211.57,102.1z"/>
		</g>
	</g>
</g>
<g id="integracion">
</g>
</svg>
