<?xml version="1.0" encoding="utf-8"?>
<!-- Generator: Adobe Illustrator 24.0.0, SVG Export Plug-In . SVG Version: 6.00 Build 0)  -->
<svg version="1.1" xmlns="http://www.w3.org/2000/svg" xmlns:xlink="http://www.w3.org/1999/xlink" x="0px" y="0px"
	 viewBox="0 0 344.68 305.2" style="enable-background:new 0 0 344.68 305.2;" xml:space="preserve">
<style type="text/css">
	.st0{opacity:0.15;fill:#3EB6A6;}
	.st1{fill:#3EB6A6;}
	.st2{opacity:0.3;}
	.st3{fill:#FFFFFF;stroke:#3EB6A6;stroke-width:3;stroke-miterlimit:10;}
	.st4{fill:#93539C;}
	.st5{fill:#FFFFFF;stroke:#93539C;stroke-width:7;stroke-miterlimit:10;}
	.st6{fill:none;stroke:#000000;stroke-width:10;stroke-miterlimit:10;}
	.st7{fill:#FFFFFF;}
	.st8{fill:#FFFFFF;stroke:#3EB6A6;stroke-width:3;stroke-linecap:round;stroke-miterlimit:10;}
	.st9{fill:#FFFFFF;stroke:#93539C;stroke-width:3;stroke-miterlimit:10;}
	.st10{fill:none;stroke:#3EB6A6;stroke-width:3;stroke-miterlimit:10;}
	.st11{fill:none;stroke:#93539C;stroke-width:3;stroke-miterlimit:10;}
	.st12{fill:#FFFFFF;stroke:#93539C;stroke-width:2;stroke-miterlimit:10;}
	.st13{fill-rule:evenodd;clip-rule:evenodd;fill:#FFFFFF;stroke:#3EB6A6;stroke-width:3;stroke-miterlimit:10;}
	.st14{fill:none;stroke:#93539C;stroke-width:0.5;stroke-miterlimit:10;}
	.st15{fill:none;stroke:#93539C;stroke-width:0.25;stroke-linecap:round;stroke-linejoin:round;stroke-miterlimit:10;}
	.st16{fill:none;stroke:#93539C;stroke-width:0.5;stroke-linecap:round;stroke-linejoin:round;stroke-miterlimit:10;}
	.st17{fill:none;stroke:#000000;stroke-width:0.5;stroke-miterlimit:10;}
	.st18{fill:#FFFFFF;stroke:#3EB6A6;stroke-width:2;stroke-miterlimit:10;}
	.st19{fill:none;stroke:#93539C;stroke-width:2;stroke-linecap:round;stroke-miterlimit:10;}
	.st20{fill:none;stroke:#93539C;stroke-width:3;stroke-linecap:round;stroke-miterlimit:10;}
	.st21{fill:#FFFFFF;stroke:#3EB6A6;stroke-miterlimit:10;}
	.st22{fill:none;stroke:#93539C;stroke-linecap:round;stroke-miterlimit:10;}
	.st23{fill:none;stroke:#3EB6A6;stroke-miterlimit:10;}
	.st24{fill:none;stroke:#FFFFFF;stroke-width:3;stroke-miterlimit:10;}
	.st25{opacity:0.35;fill:#FFFFFF;stroke:#93539C;stroke-width:2;stroke-miterlimit:10;}
	.st26{fill:none;stroke:#93539C;stroke-width:2;stroke-miterlimit:10;}
	.st27{fill:#E1F1F0;}
	.st28{fill:#010202;}
	.st29{fill:none;}
	.st30{fill:#1A1533;}
	.st31{fill:#FFFFFF;stroke:#010202;stroke-miterlimit:10;}
	.st32{fill:none;stroke:#010202;stroke-miterlimit:10;}
	.st33{fill:none;stroke:#3EB6A6;stroke-width:2;stroke-miterlimit:10;}
	.st34{fill:none;stroke:#34B4A4;stroke-width:0.75;stroke-miterlimit:10;}
	.st35{fill:#FFFFFF;stroke:#000000;stroke-width:3;stroke-miterlimit:10;}
	.st36{fill:none;stroke:#000000;stroke-miterlimit:10;}
	.st37{fill:#3EB6A6;stroke:#010202;stroke-miterlimit:10;}
	.st38{fill:#93539C;stroke:#E9DCEB;stroke-miterlimit:10;}
	.st39{fill:#E9DCEB;}
	.st40{fill:none;stroke:#93539C;stroke-miterlimit:10;}
	.st41{fill:none;stroke:#000000;stroke-width:3;stroke-miterlimit:10;}
	.st42{stroke:#000000;stroke-miterlimit:10;}
	.st43{fill:none;stroke:#010202;stroke-width:3;stroke-miterlimit:10;}
	.st44{fill:none;stroke:#93539C;stroke-width:5;stroke-miterlimit:10;}
	.st45{fill:none;stroke:#3EB6A6;stroke-width:7;stroke-miterlimit:10;}
	.st46{fill:none;stroke:#93539C;stroke-width:4;stroke-miterlimit:10;}
	.st47{fill:none;stroke:#3EB6A6;stroke-width:5;stroke-miterlimit:10;}
	.st48{fill:#FFFFFF;stroke:#000000;stroke-miterlimit:10;}
	.st49{fill:#FFFFFF;stroke:#000000;stroke-width:2;stroke-miterlimit:10;}
	.st50{fill:#FFFFFF;stroke:#93539C;stroke-miterlimit:10;}
	.st51{fill:#FFFFFF;stroke:#3EB6A6;stroke-width:0.5;stroke-miterlimit:10;}
	.st52{fill:#FFFFFF;stroke:#93539C;stroke-linecap:round;stroke-miterlimit:10;}
	.st53{fill:none;stroke:#3EB6A6;stroke-width:0.25;stroke-miterlimit:10;}
	.st54{fill:#E1F1F0;stroke:#010202;stroke-miterlimit:10;}
	.st55{fill:none;stroke:#000000;stroke-linecap:round;stroke-miterlimit:10;}
	.st56{fill:#FFFFFF;stroke:#000000;stroke-width:0.75;stroke-miterlimit:10;}
	.st57{fill:#FFFFFF;stroke:#000000;stroke-width:0.5;stroke-miterlimit:10;}
	.st58{fill:#FFFFFF;stroke:#000000;stroke-linecap:round;stroke-linejoin:round;stroke-miterlimit:10;}
</style>
<g id="Capa_5">
	<path class="st27" d="M67.13,141.17c-3.99-7.45-7.5-17.39-1.79-23.62c4.73-5.16,13.48-4.68,18.38-9.67
		c4.05-4.13,4.2-10.6,6.54-15.89c3.95-8.92,14-13.76,23.7-14.73c9.7-0.97,19.41,1.16,29.09,2.33c5.78,0.7,11.93,1,17.12-1.63
		c7.99-4.04,11.22-13.48,15.26-21.47c4.04-7.99,11.85-16.15,20.51-13.89c6.64,1.73,10.29,8.91,11.74,15.61
		c1.45,6.71,1.63,13.89,5.03,19.85c3.1,5.45,8.96,9.36,15.22,9.7c6.27,0.35,12.69-3.08,15.55-8.66c1.57-3.06,2.07-6.58,3.64-9.64
		c4.68-9.09,19.45-10.37,25.62-2.22c5.13,6.78,4.31,17.36,10.93,22.7c3.04,2.45,7.08,3.24,10.53,5.08
		c6.41,3.42,10.4,10.44,11.39,17.63s-0.73,14.54-3.54,21.24c-2.25,5.36-5.24,10.54-6.11,16.29s1.03,12.48,6.25,15.06
		c2.04,1.01,4.37,1.28,6.47,2.18c7.85,3.34,9.57,14.67,5.16,21.97c-4.41,7.3-12.87,11.13-21.14,13.2s-16.92,2.86-24.8,6.13
		c-11.42,4.75-21.15,14.65-33.51,15.09c-13.9,0.49-25.44-11.23-39.21-13.17c-16.62-2.34-31.42,9.73-47.34,15.05
		c-9.05,3.03-20,3.52-27.21-2.73c-5.52-4.78-7.68-12.51-12.99-17.53c-4.82-4.56-11.56-6.3-17.94-8.12
		c-6.61-1.88-12.45-4.24-17.18-9.34c-1.92-2.07-4.06-3.8-4.21-6.68c-0.17-3.44,2.24-7.32,3.02-10.64
		C73.46,161.49,71.5,149.34,67.13,141.17z"/>
	<path class="st3" d="M256,209.85H100.6c-2.63,0-4.77-2.13-4.77-4.77V78.85c0-2.63,2.13-4.77,4.77-4.77H256
		c2.63,0,4.77,2.13,4.77,4.77v126.23C260.76,207.71,258.63,209.85,256,209.85z"/>
	<circle class="st30" cx="123.24" cy="88.8" r="6.23"/>
	<circle class="st30" cx="151.28" cy="88.8" r="6.23"/>
	<circle class="st30" cx="205.81" cy="88.8" r="6.23"/>
	<circle class="st30" cx="179.32" cy="88.8" r="6.23"/>
	<circle class="st30" cx="233.85" cy="88.8" r="6.23"/>
	<path class="st4" d="M124.92,91.66h-3.36c-1.66,0-3.01-1.35-3.01-3.01V70.79c0-1.66,1.35-3.01,3.01-3.01h3.36
		c1.66,0,3.01,1.35,3.01,3.01v17.86C127.93,90.31,126.58,91.66,124.92,91.66z"/>
	<path class="st4" d="M152.96,91.66h-3.36c-1.66,0-3.01-1.35-3.01-3.01V70.79c0-1.66,1.35-3.01,3.01-3.01h3.36
		c1.66,0,3.01,1.35,3.01,3.01v17.86C155.97,90.31,154.62,91.66,152.96,91.66z"/>
	<path class="st4" d="M181,91.66h-3.36c-1.66,0-3.01-1.35-3.01-3.01V70.79c0-1.66,1.35-3.01,3.01-3.01H181
		c1.66,0,3.01,1.35,3.01,3.01v17.86C184.01,90.31,182.66,91.66,181,91.66z"/>
	<path class="st4" d="M207.48,91.66h-3.36c-1.66,0-3.01-1.35-3.01-3.01V70.79c0-1.66,1.35-3.01,3.01-3.01h3.36
		c1.66,0,3.01,1.35,3.01,3.01v17.86C210.49,90.31,209.15,91.66,207.48,91.66z"/>
	<path class="st4" d="M235.53,91.66h-3.36c-1.66,0-3.01-1.35-3.01-3.01V70.79c0-1.66,1.35-3.01,3.01-3.01h3.36
		c1.66,0,3.01,1.35,3.01,3.01v17.86C238.53,90.31,237.19,91.66,235.53,91.66z"/>
	<rect x="103.29" y="114.26" class="st26" width="26.88" height="26.88"/>
	<rect x="103.29" y="145.23" class="st26" width="26.88" height="26.88"/>
	<rect x="103.29" y="176.2" class="st26" width="26.88" height="26.88"/>
	<rect x="134.25" y="114.26" class="st26" width="26.88" height="26.88"/>
	<rect x="134.25" y="145.23" class="st26" width="26.88" height="26.88"/>
	<rect x="134.25" y="176.2" class="st26" width="26.88" height="26.88"/>
	<rect x="165.21" y="114.26" class="st26" width="26.88" height="26.88"/>
	<rect x="165.21" y="145.23" class="st26" width="26.88" height="26.88"/>
	<rect x="165.21" y="176.2" class="st26" width="26.88" height="26.88"/>
	<rect x="196.17" y="114.26" class="st26" width="26.88" height="26.88"/>
	<rect x="196.17" y="145.23" class="st26" width="26.88" height="26.88"/>
	<rect x="196.17" y="176.2" class="st26" width="26.88" height="26.88"/>
	<rect x="227.13" y="114.26" class="st26" width="26.88" height="26.88"/>
	<rect x="227.13" y="145.23" class="st26" width="26.88" height="26.88"/>
	<rect x="227.13" y="176.2" class="st26" width="26.88" height="26.88"/>
	<circle class="st18" cx="248.1" cy="165.86" r="46.54"/>
	<line class="st19" x1="248.1" y1="119.33" x2="248.1" y2="122.57"/>
	<line class="st19" x1="248.1" y1="209.15" x2="248.1" y2="212.4"/>
	<line class="st19" x1="294.64" y1="165.86" x2="291.39" y2="165.86"/>
	<line class="st19" x1="204.81" y1="165.86" x2="201.56" y2="165.86"/>
	<line class="st19" x1="281.01" y1="132.96" x2="278.71" y2="135.25"/>
	<line class="st19" x1="217.49" y1="196.47" x2="215.19" y2="198.77"/>
	<line class="st19" x1="281.01" y1="198.77" x2="278.71" y2="196.47"/>
	<line class="st19" x1="217.49" y1="135.25" x2="215.19" y2="132.96"/>
	<line class="st20" x1="248.3" y1="134.1" x2="248.3" y2="165.86"/>
	<line class="st20" x1="270.31" y1="165.86" x2="248.1" y2="165.86"/>
	<circle class="st20" cx="248.1" cy="165.37" r="1.36"/>
	<circle class="st10" cx="248.1" cy="165.86" r="46.54"/>
</g>
<g id="integracion">
</g>
</svg>
