<?xml version="1.0" encoding="utf-8"?>
<!-- Generator: Adobe Illustrator 24.0.0, SVG Export Plug-In . SVG Version: 6.00 Build 0)  -->
<svg version="1.1" xmlns="http://www.w3.org/2000/svg" xmlns:xlink="http://www.w3.org/1999/xlink" x="0px" y="0px"
	 viewBox="0 0 500.94 424.34" style="enable-background:new 0 0 500.94 424.34;" xml:space="preserve">
<style type="text/css">
	.st0{opacity:0.15;fill:#3EB6A6;}
	.st1{fill:#3EB6A6;}
	.st2{opacity:0.3;}
	.st3{fill:#FFFFFF;stroke:#3EB6A6;stroke-width:3;stroke-miterlimit:10;}
	.st4{fill:#93539C;}
	.st5{fill:#FFFFFF;stroke:#93539C;stroke-width:7;stroke-miterlimit:10;}
	.st6{fill:none;stroke:#000000;stroke-width:10;stroke-miterlimit:10;}
	.st7{fill:#FFFFFF;}
	.st8{fill:#FFFFFF;stroke:#3EB6A6;stroke-width:3;stroke-linecap:round;stroke-miterlimit:10;}
	.st9{fill:#FFFFFF;stroke:#93539C;stroke-width:3;stroke-miterlimit:10;}
	.st10{fill:none;stroke:#3EB6A6;stroke-width:3;stroke-miterlimit:10;}
	.st11{fill:none;stroke:#93539C;stroke-width:3;stroke-miterlimit:10;}
	.st12{fill:#FFFFFF;stroke:#93539C;stroke-width:2;stroke-miterlimit:10;}
	.st13{fill-rule:evenodd;clip-rule:evenodd;fill:#FFFFFF;stroke:#3EB6A6;stroke-width:3;stroke-miterlimit:10;}
	.st14{fill:none;stroke:#93539C;stroke-width:0.5;stroke-miterlimit:10;}
	.st15{fill:none;stroke:#93539C;stroke-width:0.25;stroke-linecap:round;stroke-linejoin:round;stroke-miterlimit:10;}
	.st16{fill:none;stroke:#93539C;stroke-width:0.5;stroke-linecap:round;stroke-linejoin:round;stroke-miterlimit:10;}
	.st17{fill:none;stroke:#000000;stroke-width:0.5;stroke-miterlimit:10;}
	.st18{fill:#FFFFFF;stroke:#3EB6A6;stroke-width:2;stroke-miterlimit:10;}
	.st19{fill:none;stroke:#93539C;stroke-width:2;stroke-linecap:round;stroke-miterlimit:10;}
	.st20{fill:none;stroke:#93539C;stroke-width:3;stroke-linecap:round;stroke-miterlimit:10;}
	.st21{fill:#FFFFFF;stroke:#3EB6A6;stroke-miterlimit:10;}
	.st22{fill:none;stroke:#93539C;stroke-linecap:round;stroke-miterlimit:10;}
	.st23{fill:none;stroke:#3EB6A6;stroke-miterlimit:10;}
	.st24{fill:none;stroke:#FFFFFF;stroke-width:3;stroke-miterlimit:10;}
	.st25{opacity:0.35;fill:#FFFFFF;stroke:#93539C;stroke-width:2;stroke-miterlimit:10;}
	.st26{fill:none;stroke:#93539C;stroke-width:2;stroke-miterlimit:10;}
	.st27{fill:#E1F1F0;}
	.st28{fill:#010202;}
	.st29{fill:none;}
	.st30{fill:#1A1533;}
	.st31{fill:#FFFFFF;stroke:#010202;stroke-miterlimit:10;}
	.st32{fill:none;stroke:#010202;stroke-miterlimit:10;}
	.st33{fill:none;stroke:#3EB6A6;stroke-width:2;stroke-miterlimit:10;}
	.st34{fill:none;stroke:#34B4A4;stroke-width:0.75;stroke-miterlimit:10;}
	.st35{fill:#FFFFFF;stroke:#000000;stroke-width:3;stroke-miterlimit:10;}
	.st36{fill:none;stroke:#000000;stroke-miterlimit:10;}
	.st37{fill:#3EB6A6;stroke:#010202;stroke-miterlimit:10;}
	.st38{fill:#93539C;stroke:#E9DCEB;stroke-miterlimit:10;}
	.st39{fill:#E9DCEB;}
	.st40{fill:none;stroke:#93539C;stroke-miterlimit:10;}
	.st41{fill:none;stroke:#000000;stroke-width:3;stroke-miterlimit:10;}
	.st42{stroke:#000000;stroke-miterlimit:10;}
	.st43{fill:none;stroke:#010202;stroke-width:3;stroke-miterlimit:10;}
	.st44{fill:none;stroke:#93539C;stroke-width:5;stroke-miterlimit:10;}
	.st45{fill:none;stroke:#3EB6A6;stroke-width:7;stroke-miterlimit:10;}
	.st46{fill:none;stroke:#93539C;stroke-width:4;stroke-miterlimit:10;}
	.st47{fill:none;stroke:#3EB6A6;stroke-width:5;stroke-miterlimit:10;}
	.st48{fill:#FFFFFF;stroke:#000000;stroke-miterlimit:10;}
	.st49{fill:#FFFFFF;stroke:#000000;stroke-width:2;stroke-miterlimit:10;}
	.st50{fill:#FFFFFF;stroke:#93539C;stroke-miterlimit:10;}
	.st51{fill:#FFFFFF;stroke:#3EB6A6;stroke-width:0.5;stroke-miterlimit:10;}
	.st52{fill:#FFFFFF;stroke:#93539C;stroke-linecap:round;stroke-miterlimit:10;}
	.st53{fill:none;stroke:#3EB6A6;stroke-width:0.25;stroke-miterlimit:10;}
	.st54{fill:#E1F1F0;stroke:#010202;stroke-miterlimit:10;}
	.st55{fill:none;stroke:#000000;stroke-linecap:round;stroke-miterlimit:10;}
	.st56{fill:#FFFFFF;stroke:#000000;stroke-width:0.75;stroke-miterlimit:10;}
	.st57{fill:#FFFFFF;stroke:#000000;stroke-width:0.5;stroke-miterlimit:10;}
	.st58{fill:#FFFFFF;stroke:#000000;stroke-linecap:round;stroke-linejoin:round;stroke-miterlimit:10;}
</style>
<g id="Capa_5">
	<g>
		<g>
			<g>
				<path class="st4" d="M286.68,153.49l-1.19,3.64h-1.07c1.01-3,2.56-7.68,3.69-11.08h1.31l3.84,11.08h-1.15l-1.21-3.64H286.68z
					 M290.61,152.55c-1.03-3.08-1.66-4.75-1.87-5.58h-0.03c-0.32,1.33-0.92,3.03-1.76,5.58H290.61z"/>
				<path class="st4" d="M294.73,157.13v-11.66h1.01v11.66H294.73z"/>
				<path class="st4" d="M296.97,149.08h1.35v-2.4h1.01v2.4h1.7v0.87h-1.7v5.38c0,0.72,0.18,1.02,0.88,1.02
					c0.23,0,0.52-0.03,0.68-0.06v0.81c-0.27,0.1-0.69,0.13-0.96,0.13c-1.03,0-1.61-0.38-1.61-1.65v-5.64h-1.35V149.08z"/>
				<path class="st4" d="M307.84,155.46c0,0.56,0.06,1.3,0.13,1.67h-0.95c-0.05-0.29-0.11-0.71-0.11-1.35
					c-0.3,0.87-1.13,1.49-2.5,1.49c-1.96,0-2.52-1.36-2.52-2.44c0-1.12,0.7-2.53,3.62-2.53c0.57,0,0.96,0,1.34,0v-0.86
					c0-0.8-0.22-1.7-1.75-1.7c-1.26,0-1.74,0.56-1.89,1.56h-1c0.13-1.38,0.92-2.4,2.94-2.4c1.6,0,2.71,0.69,2.71,2.46V155.46z
					 M306.87,153.12c-0.33,0-0.86,0-1.39,0c-2.14,0-2.55,0.87-2.55,1.68c0,0.88,0.53,1.59,1.63,1.59c1.7,0,2.31-1.15,2.31-3.11
					V153.12z"/>
				<path class="st4" d="M320.2,156.59c0,2.52-1,3.9-3.32,3.9c-2.26,0-2.95-1.21-3.07-2.33h1.01c0.2,1,1,1.47,2.09,1.47
					c1.88,0,2.31-1.26,2.31-3.13v-0.72c-0.42,0.95-1.1,1.43-2.45,1.43c-1.88,0-3.09-1.61-3.09-4.1c0-2.63,1.42-4.17,3.29-4.17
					c1.27,0,1.99,0.54,2.21,1.24c0-0.4,0.04-0.88,0.06-1.08h1c-0.02,0.38-0.03,1.21-0.03,2.3V156.59z M314.74,153.08
					c0,2.04,0.87,3.18,2.24,3.18c1.67,0,2.25-1.06,2.25-3.23c0-2.21-0.54-3.19-2.18-3.19C315.58,149.84,314.74,151.12,314.74,153.08
					z"/>
				<path class="st4" d="M323.11,153.27c-0.01,1.85,0.79,3.13,2.3,3.13c1.42,0,1.86-1.03,2.03-1.47h1
					c-0.22,0.88-0.94,2.36-3.09,2.36c-2.5,0-3.27-2.07-3.27-4.22c0-1.97,0.96-4.15,3.34-4.15c2.46,0,3.16,1.99,3.16,3.76
					c0,0.02,0,0.57,0,0.59H323.11z M327.56,152.46c-0.04-1.54-0.66-2.67-2.18-2.67c-1.74,0-2.15,1.62-2.24,2.67H327.56z"/>
				<path class="st4" d="M330.41,151.81c0-1.27-0.01-2.4-0.03-2.74h1c0.02,0.39,0.02,0.91,0.02,1.72c0.42-1.12,1.37-1.85,2.67-1.87
					V150c-1.87,0.1-2.65,1.36-2.65,3.05v4.08h-1.01V151.81z"/>
				<path class="st4" d="M335.94,153.27c-0.01,1.85,0.79,3.13,2.3,3.13c1.42,0,1.86-1.03,2.03-1.47h1
					c-0.22,0.88-0.94,2.36-3.09,2.36c-2.5,0-3.27-2.07-3.27-4.22c0-1.97,0.96-4.15,3.34-4.15c2.46,0,3.16,1.99,3.16,3.76
					c0,0.02,0,0.57,0,0.59H335.94z M340.39,152.46c-0.04-1.54-0.66-2.67-2.18-2.67c-1.74,0-2.15,1.62-2.24,2.67H340.39z"/>
				<path class="st4" d="M343.25,151.6c0-1.69-0.02-2.18-0.03-2.53h1c0.02,0.16,0.05,1.03,0.04,1.35c0.34-0.76,1.04-1.51,2.42-1.51
					c1.42,0,2.57,0.75,2.57,3.05v5.17h-1.03v-5.04c0-1.27-0.46-2.25-1.74-2.25c-1.62,0-2.23,1.26-2.23,3.05v4.23h-1.01V151.6z"/>
				<path class="st4" d="M357.58,154.65c-0.36,1.56-1.35,2.63-3.13,2.63c-2.19,0-3.32-1.49-3.32-4.21c0-2.23,1.08-4.16,3.39-4.16
					c1.96,0,2.92,1.32,3.06,2.74h-1.04c-0.18-0.99-0.76-1.86-2.04-1.86c-1.6,0-2.31,1.38-2.31,3.28c0,2.13,0.81,3.33,2.3,3.33
					c1.19,0,1.74-0.73,2.07-1.76H357.58z"/>
				<path class="st4" d="M359.29,145.47h1.01v1.62h-1.01V145.47z M359.29,149.08h1.01v8.05h-1.01V149.08z"/>
				<path class="st4" d="M368.13,155.46c0,0.56,0.06,1.3,0.13,1.67h-0.95c-0.05-0.29-0.11-0.71-0.11-1.35
					c-0.3,0.87-1.13,1.49-2.5,1.49c-1.96,0-2.52-1.36-2.52-2.44c0-1.12,0.7-2.53,3.62-2.53c0.57,0,0.96,0,1.34,0v-0.86
					c0-0.8-0.22-1.7-1.75-1.7c-1.26,0-1.74,0.56-1.89,1.56h-1c0.13-1.38,0.92-2.4,2.94-2.4c1.6,0,2.71,0.69,2.71,2.46V155.46z
					 M367.15,153.12c-0.33,0-0.86,0-1.39,0c-2.14,0-2.55,0.87-2.55,1.68c0,0.88,0.53,1.59,1.63,1.59c1.7,0,2.31-1.15,2.31-3.11
					V153.12z"/>
			</g>
		</g>
	</g>
	<g>
		<g>
			<g>
				<path class="st4" d="M349.54,257.27h-0.85c-0.05-0.3-0.09-0.76-0.11-1.71c-0.59,1.33-1.67,1.87-3.32,1.87
					c-2.89,0-4.25-2.5-4.25-5.65c0-3.22,1.62-5.75,4.66-5.75c2.24,0,3.55,1.18,3.9,3.17h-1.04c-0.38-1.38-1.22-2.24-2.9-2.24
					c-2.42,0-3.52,2.1-3.52,4.82c0,2.47,1,4.72,3.3,4.72c2.63,0,3.1-1.82,3.1-4.09v-0.08h-3.08v-0.96h4.11
					C349.54,252.12,349.54,257.21,349.54,257.27z"/>
				<path class="st4" d="M352.42,253.41c-0.01,1.85,0.79,3.13,2.3,3.13c1.42,0,1.86-1.03,2.03-1.47h1
					c-0.22,0.88-0.94,2.36-3.09,2.36c-2.5,0-3.27-2.07-3.27-4.22c0-1.97,0.96-4.15,3.34-4.15c2.46,0,3.16,1.99,3.16,3.76
					c0,0.02,0,0.57,0,0.59H352.42z M356.87,252.61c-0.04-1.54-0.66-2.67-2.18-2.67c-1.74,0-2.15,1.62-2.24,2.67H356.87z"/>
				<path class="st4" d="M359.73,251.96c0-1.27-0.01-2.4-0.03-2.74h1c0.02,0.39,0.02,0.91,0.02,1.72c0.42-1.12,1.37-1.85,2.67-1.87
					v1.08c-1.87,0.1-2.65,1.36-2.65,3.05v4.08h-1.01V251.96z"/>
				<path class="st4" d="M365.25,253.41c-0.01,1.85,0.79,3.13,2.3,3.13c1.42,0,1.86-1.03,2.03-1.47h1
					c-0.22,0.88-0.94,2.36-3.09,2.36c-2.5,0-3.27-2.07-3.27-4.22c0-1.97,0.96-4.15,3.34-4.15c2.46,0,3.16,1.99,3.16,3.76
					c0,0.02,0,0.57,0,0.59H365.25z M369.7,252.61c-0.04-1.54-0.66-2.67-2.18-2.67c-1.74,0-2.15,1.62-2.24,2.67H369.7z"/>
				<path class="st4" d="M372.56,251.75c0-1.69-0.02-2.18-0.03-2.53h1c0.02,0.16,0.05,1.03,0.04,1.35c0.34-0.76,1.04-1.51,2.42-1.51
					c1.42,0,2.57,0.75,2.57,3.05v5.17h-1.03v-5.04c0-1.27-0.46-2.25-1.74-2.25c-1.62,0-2.23,1.26-2.23,3.05v4.23h-1.01V251.75z"/>
				<path class="st4" d="M386.89,254.8c-0.36,1.56-1.35,2.63-3.13,2.63c-2.19,0-3.32-1.49-3.32-4.21c0-2.23,1.08-4.16,3.39-4.16
					c1.96,0,2.92,1.32,3.06,2.74h-1.04c-0.18-0.99-0.76-1.86-2.04-1.86c-1.6,0-2.31,1.38-2.31,3.28c0,2.13,0.81,3.33,2.3,3.33
					c1.19,0,1.74-0.73,2.07-1.76H386.89z"/>
				<path class="st4" d="M388.61,245.61h1.01v1.62h-1.01V245.61z M388.61,249.22h1.01v8.05h-1.01V249.22z"/>
				<path class="st4" d="M397.44,255.6c0,0.56,0.06,1.3,0.13,1.67h-0.95c-0.05-0.29-0.11-0.71-0.11-1.35
					c-0.3,0.87-1.13,1.49-2.5,1.49c-1.96,0-2.52-1.36-2.52-2.44c0-1.12,0.7-2.53,3.62-2.53c0.57,0,0.96,0,1.34,0v-0.86
					c0-0.8-0.22-1.7-1.75-1.7c-1.26,0-1.74,0.56-1.89,1.56h-1c0.13-1.38,0.92-2.4,2.94-2.4c1.6,0,2.71,0.69,2.71,2.46V255.6z
					 M396.47,253.26c-0.33,0-0.86,0-1.39,0c-2.14,0-2.55,0.87-2.55,1.68c0,0.88,0.53,1.59,1.63,1.59c1.7,0,2.31-1.15,2.31-3.11
					V253.26z"/>
				<path class="st4" d="M403.85,251.73c0-1.37-0.02-2.15-0.03-2.51h1c0.02,0.21,0.05,0.95,0.04,1.21c0.35-0.71,1.05-1.37,2.26-1.37
					c1.06,0,1.76,0.46,2.08,1.44c0.35-0.76,1.14-1.44,2.38-1.44c1.17,0,2.35,0.59,2.35,2.73v5.49h-1v-5.31
					c0-1.08-0.34-1.98-1.59-1.98c-1.36,0-1.93,1.18-1.93,2.5v4.79h-0.99v-5.38c0-1.09-0.43-1.9-1.55-1.9c-1.22,0-2,0.98-2,2.65v4.64
					h-1.01V251.73z"/>
				<path class="st4" d="M416.84,253.41c-0.01,1.85,0.79,3.13,2.3,3.13c1.42,0,1.86-1.03,2.03-1.47h1
					c-0.22,0.88-0.94,2.36-3.09,2.36c-2.5,0-3.27-2.07-3.27-4.22c0-1.97,0.96-4.15,3.34-4.15c2.46,0,3.16,1.99,3.16,3.76
					c0,0.02,0,0.57,0,0.59H416.84z M421.28,252.61c-0.04-1.54-0.66-2.67-2.18-2.67c-1.74,0-2.15,1.62-2.24,2.67H421.28z"/>
				<path class="st4" d="M430.15,245.61v9.62c0,0.71,0,1.54,0.03,2.04h-1c-0.02-0.21-0.04-0.73-0.04-1.28
					c-0.44,1.02-1.11,1.42-2.45,1.42c-2.1,0-3.12-1.79-3.12-4.16c0-2.29,1.17-4.2,3.36-4.2c1.34,0,1.98,0.56,2.21,1.05v-4.5H430.15z
					 M424.62,253.21c0,2.13,0.97,3.3,2.29,3.3c1.87,0,2.26-1.46,2.26-3.47c0-2.43-0.76-3.07-2.17-3.07
					C425.55,249.97,424.62,251.17,424.62,253.21z"/>
				<path class="st4" d="M432.59,245.61h1.01v1.62h-1.01V245.61z M432.59,249.22h1.01v8.05h-1.01V249.22z"/>
				<path class="st4" d="M441.43,255.6c0,0.56,0.06,1.3,0.13,1.67h-0.95c-0.05-0.29-0.11-0.71-0.11-1.35
					c-0.3,0.87-1.13,1.49-2.5,1.49c-1.96,0-2.52-1.36-2.52-2.44c0-1.12,0.7-2.53,3.62-2.53c0.57,0,0.96,0,1.34,0v-0.86
					c0-0.8-0.22-1.7-1.75-1.7c-1.26,0-1.74,0.56-1.89,1.56h-1c0.13-1.38,0.92-2.4,2.94-2.4c1.6,0,2.71,0.69,2.71,2.46V255.6z
					 M440.45,253.26c-0.33,0-0.86,0-1.39,0c-2.14,0-2.55,0.87-2.55,1.68c0,0.88,0.53,1.59,1.63,1.59c1.7,0,2.31-1.15,2.31-3.11
					V253.26z"/>
			</g>
		</g>
	</g>
	<g>
		<g>
			<g>
				<path class="st4" d="M390.55,335.55h3.59c2.05,0,3.47,1.07,3.47,2.98c0,2.13-1.47,3.16-3.64,3.16h-2.35v4.95h-1.06V335.55z
					 M391.61,340.77h2.32c1.53,0,2.58-0.51,2.58-2.22c0-1.43-1.04-2.1-2.58-2.1h-2.32V340.77z"/>
				<path class="st4" d="M399.83,342.77c-0.01,1.85,0.79,3.13,2.3,3.13c1.42,0,1.86-1.03,2.03-1.47h1
					c-0.22,0.88-0.94,2.36-3.09,2.36c-2.5,0-3.28-2.07-3.28-4.22c0-1.97,0.96-4.15,3.34-4.15c2.46,0,3.16,1.99,3.16,3.76
					c0,0.02,0,0.57-0.01,0.59H399.83z M404.28,341.96c-0.04-1.54-0.66-2.67-2.18-2.67c-1.74,0-2.15,1.62-2.24,2.67H404.28z"/>
				<path class="st4" d="M407.14,341.31c0-1.27-0.01-2.4-0.03-2.74h1c0.02,0.39,0.02,0.91,0.02,1.72c0.42-1.12,1.37-1.85,2.67-1.87
					v1.08c-1.87,0.1-2.65,1.36-2.65,3.05v4.08h-1.01V341.31z"/>
				<path class="st4" d="M412.44,344.36c0.17,1.02,0.93,1.58,1.97,1.58c1.25,0,1.71-0.71,1.71-1.46c0-0.8-0.53-1.25-1.95-1.63
					c-1.89-0.51-2.42-1.21-2.42-2.26c0-1.08,0.76-2.17,2.56-2.17c1.87,0,2.57,1.07,2.68,2.27h-1c-0.16-0.74-0.53-1.43-1.73-1.43
					c-1.04,0-1.49,0.52-1.49,1.26c0,0.67,0.3,1.04,1.73,1.42c2,0.54,2.64,1.2,2.64,2.47c0,1.44-1.11,2.37-2.78,2.37
					c-1.55,0-2.8-0.75-2.95-2.42H412.44z"/>
				<path class="st4" d="M425.3,342.46c0,2.33-0.98,4.3-3.5,4.3c-2.38,0-3.38-2.04-3.38-4.26c0-2.16,1.17-4.08,3.48-4.08
					C424.06,338.41,425.3,340.09,425.3,342.46z M419.48,342.5c0,1.91,0.82,3.38,2.4,3.38c1.68,0,2.35-1.43,2.35-3.41
					c0-1.8-0.8-3.16-2.39-3.16C420.28,339.3,419.48,340.64,419.48,342.5z"/>
				<path class="st4" d="M427.17,341.1c0-1.69-0.02-2.18-0.03-2.53h1c0.02,0.16,0.05,1.03,0.04,1.35c0.34-0.76,1.04-1.51,2.42-1.51
					c1.42,0,2.57,0.75,2.57,3.05v5.17h-1.03v-5.04c0-1.27-0.46-2.25-1.73-2.25c-1.62,0-2.23,1.26-2.23,3.05v4.23h-1.01V341.1z"/>
				<path class="st4" d="M441,344.96c0,0.56,0.06,1.3,0.13,1.67h-0.95c-0.05-0.29-0.11-0.71-0.11-1.35c-0.3,0.87-1.13,1.49-2.5,1.49
					c-1.96,0-2.52-1.36-2.52-2.44c0-1.12,0.7-2.53,3.62-2.53c0.57,0,0.96,0,1.34,0v-0.86c0-0.8-0.22-1.7-1.75-1.7
					c-1.26,0-1.74,0.56-1.89,1.56h-1c0.13-1.38,0.92-2.4,2.94-2.4c1.6,0,2.71,0.69,2.71,2.46V344.96z M440.02,342.61
					c-0.33,0-0.86,0-1.39,0c-2.14,0-2.55,0.87-2.55,1.68c0,0.88,0.53,1.59,1.63,1.59c1.7,0,2.31-1.15,2.31-3.11V342.61z"/>
				<path class="st4" d="M443.44,346.63v-11.66h1.01v11.66H443.44z"/>
				<path class="st4" d="M456.25,344.96c0,0.56,0.06,1.3,0.13,1.67h-0.95c-0.05-0.29-0.11-0.71-0.11-1.35
					c-0.3,0.87-1.13,1.49-2.5,1.49c-1.96,0-2.52-1.36-2.52-2.44c0-1.12,0.7-2.53,3.62-2.53c0.57,0,0.96,0,1.34,0v-0.86
					c0-0.8-0.22-1.7-1.75-1.7c-1.26,0-1.74,0.56-1.89,1.56h-1c0.13-1.38,0.92-2.4,2.94-2.4c1.6,0,2.71,0.69,2.71,2.46V344.96z
					 M455.27,342.61c-0.33,0-0.86,0-1.39,0c-2.14,0-2.55,0.87-2.55,1.68c0,0.88,0.53,1.59,1.63,1.59c1.7,0,2.31-1.15,2.31-3.11
					V342.61z"/>
				<path class="st4" d="M462.66,341.1c0-1.69-0.02-2.18-0.03-2.53h1c0.02,0.16,0.05,1.03,0.04,1.35c0.34-0.76,1.04-1.51,2.42-1.51
					c1.42,0,2.57,0.75,2.57,3.05v5.17h-1.03v-5.04c0-1.27-0.46-2.25-1.73-2.25c-1.62,0-2.23,1.26-2.23,3.05v4.23h-1.01V341.1z"/>
				<path class="st4" d="M471.11,334.97h1.01v1.62h-1.01V334.97z M471.11,338.57h1.01v8.05h-1.01V338.57z"/>
				<path class="st4" d="M474.61,338.57c1.21,3.66,1.98,6.04,2.23,7.1h0.02c0.16-0.83,1.82-5.67,2.3-7.1h1.02l-2.79,8.05h-1.17
					l-2.68-8.05H474.61z"/>
				<path class="st4" d="M482.06,342.77c-0.01,1.85,0.79,3.13,2.3,3.13c1.42,0,1.86-1.03,2.03-1.47h1
					c-0.22,0.88-0.94,2.36-3.09,2.36c-2.5,0-3.27-2.07-3.27-4.22c0-1.97,0.96-4.15,3.34-4.15c2.46,0,3.16,1.99,3.16,3.76
					c0,0.02,0,0.57,0,0.59H482.06z M486.51,341.96c-0.04-1.54-0.66-2.67-2.18-2.67c-1.74,0-2.15,1.62-2.24,2.67H486.51z"/>
				<path class="st4" d="M489.36,346.63v-11.66h1.01v11.66H489.36z"/>
				<path class="st4" d="M408.29,348.97v9.62c0,0.71,0,1.54,0.03,2.04h-1c-0.02-0.21-0.04-0.73-0.04-1.28
					c-0.44,1.02-1.11,1.42-2.45,1.42c-2.1,0-3.12-1.79-3.12-4.16c0-2.29,1.17-4.2,3.36-4.2c1.34,0,1.98,0.56,2.21,1.05v-4.5H408.29z
					 M402.77,356.56c0,2.13,0.97,3.3,2.29,3.3c1.87,0,2.26-1.46,2.26-3.47c0-2.43-0.76-3.07-2.17-3.07
					C403.69,353.33,402.77,354.52,402.77,356.56z"/>
				<path class="st4" d="M411.21,356.77c-0.01,1.85,0.79,3.13,2.3,3.13c1.42,0,1.86-1.03,2.03-1.47h1
					c-0.22,0.88-0.94,2.36-3.09,2.36c-2.5,0-3.27-2.07-3.27-4.22c0-1.97,0.96-4.15,3.34-4.15c2.46,0,3.16,1.99,3.16,3.76
					c0,0.02,0,0.57,0,0.59H411.21z M415.66,355.96c-0.04-1.54-0.66-2.67-2.18-2.67c-1.74,0-2.15,1.62-2.24,2.67H415.66z"/>
				<path class="st4" d="M428.79,356.46c0,2.33-0.98,4.3-3.5,4.3c-2.39,0-3.38-2.04-3.38-4.26c0-2.16,1.17-4.08,3.48-4.08
					C427.55,352.41,428.79,354.09,428.79,356.46z M422.97,356.5c0,1.91,0.82,3.38,2.4,3.38c1.68,0,2.35-1.43,2.35-3.41
					c0-1.8-0.8-3.16-2.39-3.16C423.77,353.3,422.97,354.64,422.97,356.5z"/>
				<path class="st4" d="M431.67,359.56v4.3h-1.01v-8.89c0-1.11,0-1.9-0.03-2.39h1c0.02,0.28,0.04,0.92,0.04,1.39
					c0.43-0.92,1.27-1.55,2.58-1.55c1.78,0,2.99,1.43,2.99,4.04c0,2.74-1.43,4.31-3.3,4.31
					C432.73,360.76,432.04,360.25,431.67,359.56z M436.19,356.5c0-2.01-0.82-3.17-2.23-3.17c-1.8,0-2.33,1.3-2.33,3.3
					c0,1.86,0.33,3.22,2.24,3.22C435.3,359.85,436.19,358.63,436.19,356.5z"/>
				<path class="st4" d="M439.58,356.77c-0.01,1.85,0.79,3.13,2.3,3.13c1.42,0,1.86-1.03,2.03-1.47h1
					c-0.22,0.88-0.94,2.36-3.09,2.36c-2.5,0-3.27-2.07-3.27-4.22c0-1.97,0.96-4.15,3.34-4.15c2.46,0,3.16,1.99,3.16,3.76
					c0,0.02,0,0.57,0,0.59H439.58z M444.02,355.96c-0.04-1.54-0.66-2.67-2.18-2.67c-1.74,0-2.15,1.62-2.24,2.67H444.02z"/>
				<path class="st4" d="M446.88,355.31c0-1.27-0.01-2.4-0.03-2.74h1c0.02,0.39,0.02,0.91,0.02,1.72c0.42-1.12,1.37-1.85,2.67-1.87
					v1.08c-1.87,0.1-2.65,1.36-2.65,3.05v4.08h-1.01V355.31z"/>
				<path class="st4" d="M457.32,358.96c0,0.56,0.06,1.3,0.13,1.67h-0.95c-0.05-0.29-0.11-0.71-0.11-1.35
					c-0.3,0.87-1.13,1.49-2.5,1.49c-1.96,0-2.52-1.36-2.52-2.44c0-1.12,0.7-2.53,3.62-2.53c0.57,0,0.96,0,1.34,0v-0.86
					c0-0.8-0.22-1.7-1.75-1.7c-1.26,0-1.74,0.56-1.89,1.56h-1c0.13-1.38,0.92-2.4,2.94-2.4c1.6,0,2.71,0.69,2.71,2.46V358.96z
					 M456.34,356.61c-0.33,0-0.86,0-1.39,0c-2.14,0-2.55,0.87-2.55,1.68c0,0.88,0.53,1.59,1.63,1.59c1.7,0,2.31-1.15,2.31-3.11
					V356.61z"/>
				<path class="st4" d="M465.65,358.15c-0.36,1.56-1.35,2.63-3.13,2.63c-2.19,0-3.32-1.49-3.32-4.21c0-2.23,1.08-4.16,3.39-4.16
					c1.96,0,2.92,1.32,3.06,2.74h-1.04c-0.18-0.99-0.76-1.86-2.04-1.86c-1.6,0-2.31,1.38-2.31,3.28c0,2.13,0.81,3.33,2.3,3.33
					c1.19,0,1.74-0.73,2.07-1.76H465.65z"/>
				<path class="st4" d="M467.36,348.97h1.01v1.62h-1.01V348.97z M467.36,352.57h1.01v8.05h-1.01V352.57z"/>
				<path class="st4" d="M477.12,356.46c0,2.33-0.98,4.3-3.5,4.3c-2.38,0-3.38-2.04-3.38-4.26c0-2.16,1.17-4.08,3.48-4.08
					C475.89,352.41,477.12,354.09,477.12,356.46z M471.3,356.5c0,1.91,0.82,3.38,2.4,3.38c1.68,0,2.35-1.43,2.35-3.41
					c0-1.8-0.8-3.16-2.39-3.16C472.11,353.3,471.3,354.64,471.3,356.5z"/>
				<path class="st4" d="M478.99,355.1c0-1.69-0.02-2.18-0.03-2.53h1c0.02,0.16,0.05,1.03,0.04,1.35c0.34-0.76,1.04-1.51,2.42-1.51
					c1.42,0,2.57,0.75,2.57,3.05v5.17h-1.03v-5.04c0-1.27-0.46-2.25-1.73-2.25c-1.62,0-2.23,1.26-2.23,3.05v4.23h-1.01V355.1z"/>
				<path class="st4" d="M487.91,356.77c-0.01,1.85,0.79,3.13,2.3,3.13c1.42,0,1.86-1.03,2.03-1.47h1
					c-0.22,0.88-0.94,2.36-3.09,2.36c-2.5,0-3.28-2.07-3.28-4.22c0-1.97,0.96-4.15,3.34-4.15c2.46,0,3.16,1.99,3.16,3.76
					c0,0.02,0,0.57-0.01,0.59H487.91z M492.36,355.96c-0.04-1.54-0.66-2.67-2.18-2.67c-1.74,0-2.15,1.62-2.24,2.67H492.36z"/>
				<path class="st4" d="M495.47,358.36c0.17,1.02,0.93,1.58,1.97,1.58c1.25,0,1.71-0.71,1.71-1.46c0-0.8-0.53-1.25-1.95-1.63
					c-1.89-0.51-2.42-1.21-2.42-2.26c0-1.08,0.76-2.17,2.56-2.17c1.87,0,2.57,1.07,2.68,2.27h-1c-0.15-0.74-0.53-1.43-1.72-1.43
					c-1.04,0-1.49,0.52-1.49,1.26c0,0.67,0.29,1.04,1.73,1.42c2,0.54,2.64,1.2,2.64,2.47c0,1.44-1.11,2.37-2.77,2.37
					c-1.55,0-2.8-0.75-2.95-2.42H495.47z"/>
			</g>
		</g>
	</g>
	<polygon class="st3" points="258.73,168.56 310.67,262.81 72.31,262.78 125.14,168.93 	"/>
	<polygon class="st3" points="318.29,276.63 371.51,374.23 9.57,374.23 65.4,275.05 316.94,275.05 	"/>
	<polygon class="st38" points="134.38,152.51 192.74,48.84 249.16,151.2 249.91,152.51 	"/>
	<polygon class="st3" points="258.73,168.56 287.91,171.82 335.92,258.93 310.67,262.81 	"/>
	<polygon class="st3" points="65.4,275.05 109.21,270.24 341.72,270.24 392.16,361.92 371.51,374.23 316.94,275.05 	"/>
	<polygon class="st38" points="134.38,152.51 172.98,156.97 279.76,156.97 226.92,61.15 192.92,48.9 249.91,152.51 	"/>
	<line class="st3" x1="341.72" y1="270.24" x2="316.94" y2="275.05"/>
	<line class="st38" x1="249.19" y1="152.51" x2="279.76" y2="156.97"/>
	<g>
		<g>
			<path class="st7" d="M157.98,138.51h-3.27v4.68h3.76l-0.29,2.11h-5.77v-14.86h5.74v2.13h-3.45v3.84h3.27V138.51z"/>
			<path class="st7" d="M161.25,140.92v0.92c0,1.11,0.33,1.72,1.2,1.72c0.89,0,1.13-0.85,1.13-1.81c0-1.6-0.34-2.09-1.94-3.35
				c-1.6-1.26-2.45-2.07-2.45-4.27c0-1.96,0.59-3.94,3.28-3.93c2.74,0,3.17,1.96,3.17,3.57v0.79h-2.27v-0.73
				c0-1.04-0.17-1.66-0.94-1.66c-0.75,0-0.94,0.65-0.94,1.63c0,1.05,0.2,1.56,1.51,2.52c2.22,1.64,2.91,2.6,2.91,5.09
				c0,2.11-0.74,4.11-3.51,4.11c-2.75,0-3.42-1.75-3.42-3.71v-0.88H161.25z"/>
			<path class="st7" d="M168.73,132.56h-2.39v-2.13h7.08v2.13h-2.4v12.73h-2.29V132.56z"/>
			<path class="st7" d="M176.71,138.65v6.65h-2.29v-14.86h3.17c2.26,0,3.6,0.91,3.6,3.58v0.57c0,2.28-0.94,2.86-1.51,3.1
				c0.87,0.41,1.36,1.03,1.36,3.05c0,1.25-0.02,3.67,0.14,4.57h-2.21c-0.2-0.9-0.16-3.34-0.16-4.42c0-1.81-0.23-2.23-1.56-2.23
				H176.71z M176.71,136.76h0.53c1.21,0,1.66-0.46,1.66-2.07v-0.51c0-1.15-0.24-1.85-1.54-1.85h-0.65V136.76z"/>
			<path class="st7" d="M184.76,141.32l-0.52,3.98h-2.33l2.39-14.86h3.24l2.49,14.86h-2.4l-0.58-3.98H184.76z M186.77,139.21
				c-0.34-2.52-0.66-4.92-0.83-6.6h-0.08c-0.06,1.22-0.51,4.41-0.81,6.6H186.77z"/>
			<path class="st7" d="M192.6,132.56h-2.39v-2.13h7.08v2.13h-2.4v12.73h-2.29V132.56z"/>
			<path class="st7" d="M203.83,138.51h-3.27v4.68h3.76l-0.29,2.11h-5.77v-14.86h5.74v2.13h-3.45v3.84h3.27V138.51z M204.92,127.27
				l-2.83,2.26h-2.14l2.16-2.26H204.92z"/>
			<path class="st7" d="M212.24,145.3h-1.79c-0.06-0.26-0.11-0.8-0.13-1.12c-0.41,0.99-1.27,1.33-2.23,1.33
				c-2.19,0-2.89-1.58-2.89-4.1v-6.98c0-2.43,0.95-4.21,3.53-4.21c3.12,0,3.45,2.29,3.45,3.89v0.48h-2.29v-0.59
				c0-0.78-0.11-1.69-1.16-1.69c-0.83,0-1.19,0.58-1.19,1.76v7.6c0,1.19,0.34,1.81,1.17,1.81c0.99,0,1.24-0.83,1.24-2.36v-2.17h-1.3
				v-1.97h3.59V145.3z"/>
			<path class="st7" d="M216.4,130.43v14.86h-2.29v-14.86H216.4z"/>
			<path class="st7" d="M224.86,140.85v0.58c0,1.7-0.28,4.08-3.43,4.08c-2.75,0-3.34-1.72-3.34-3.99v-7.49
				c0-2.29,1.04-3.81,3.38-3.81c2.79,0,3.32,1.85,3.32,3.91v0.67h-2.3v-0.93c0-0.99-0.23-1.55-1.03-1.55
				c-0.78,0-1.04,0.54-1.04,1.56v7.86c0,0.97,0.19,1.72,1.06,1.72c0.83,0,1.05-0.65,1.05-1.76v-0.83H224.86z"/>
			<path class="st7" d="M233.12,134.38v6.94c0,2.85-1.21,4.19-3.73,4.19c-2.42,0-3.5-1.38-3.5-4.15v-7c0-2.85,1.43-4.14,3.65-4.14
				C231.79,130.22,233.12,131.52,233.12,134.38z M228.22,134.15v7.48c0,1.23,0.45,1.81,1.27,1.81c0.89,0,1.29-0.54,1.29-1.85v-7.46
				c0-1.18-0.36-1.83-1.29-1.83C228.67,132.31,228.22,132.9,228.22,134.15z"/>
		</g>
	</g>
	<g>
		<g>
			<path class="st4" d="M165.56,240.58h-2.89v-1.76h7.65v1.76h-2.87v16.08h-1.9V240.58z"/>
			<path class="st4" d="M173.3,250.97l-0.85,5.69h-1.92l2.93-17.84h2.7l3.05,17.84h-1.99l-0.92-5.69H173.3z M176.06,249.23
				c-0.62-3.93-1.07-6.96-1.24-8.65h-0.08c-0.07,1.38-0.7,5.39-1.18,8.65H176.06z M178.8,235l-3.15,2.67h-1.84l2.59-2.67H178.8z"/>
			<path class="st4" d="M187.65,251.55v0.6c0,2.27-0.41,4.75-3.63,4.75c-3.09,0-3.62-2.19-3.62-4.81v-9.07
				c0-2.85,1.23-4.43,3.64-4.43c2.99,0,3.53,2.13,3.53,4.46v0.7h-1.93v-0.84c0-1.41-0.22-2.59-1.63-2.59
				c-1.34,0-1.67,1.06-1.67,2.63v9.26c0,1.79,0.39,2.97,1.73,2.97c1.39,0,1.64-1.21,1.64-2.89v-0.75H187.65z"/>
			<path class="st4" d="M190.97,240.58h-2.89v-1.76h7.65v1.76h-2.87v16.08h-1.9V240.58z"/>
			<path class="st4" d="M198.88,238.82v17.84h-1.9v-17.84H198.88z"/>
			<path class="st4" d="M208.37,251.55v0.6c0,2.27-0.41,4.75-3.63,4.75c-3.09,0-3.62-2.19-3.62-4.81v-9.07
				c0-2.85,1.23-4.43,3.64-4.43c2.99,0,3.53,2.13,3.53,4.46v0.7h-1.93v-0.84c0-1.41-0.22-2.59-1.63-2.59
				c-1.34,0-1.67,1.06-1.67,2.63v9.26c0,1.79,0.39,2.97,1.73,2.97c1.39,0,1.64-1.21,1.64-2.89v-0.75H208.37z"/>
			<path class="st4" d="M217.52,243.21v8.99c0,3.13-1.29,4.71-3.95,4.71c-2.76,0-3.77-1.76-3.77-4.68v-9.01
				c0-3.03,1.38-4.62,3.9-4.62C216.33,238.59,217.52,240.39,217.52,243.21z M211.73,243.12v9.26c0,2,0.73,2.8,1.92,2.8
				c1.26,0,1.92-0.77,1.92-2.89v-9.17c0-1.89-0.65-2.8-1.94-2.8C212.36,240.32,211.73,241.18,211.73,243.12z"/>
		</g>
	</g>
	<g>
		<g>
			<path class="st4" d="M151.78,354.52v8.99c0,3.13-1.29,4.71-3.95,4.71c-2.76,0-3.77-1.76-3.77-4.68v-9.01
				c0-3.03,1.38-4.62,3.9-4.62C150.59,349.9,151.78,351.7,151.78,354.52z M145.99,354.43v9.26c0,2,0.73,2.8,1.92,2.8
				c1.26,0,1.92-0.77,1.92-2.89v-9.17c0-1.89-0.65-2.8-1.94-2.8C146.62,351.63,145.99,352.49,145.99,354.43z"/>
			<path class="st4" d="M154.02,350.14h3.26c2.65,0,3.91,1.34,3.91,4.22v1.08c0,2.68-0.8,4.66-4.04,4.66h-1.23v7.87h-1.9V350.14z
				 M155.91,358.51h1.06c2.02,0,2.32-1.24,2.32-3.09v-0.96c0-1.45-0.32-2.71-2.15-2.71h-1.23V358.51z"/>
			<path class="st4" d="M168.98,359.34h-4v6.89h4.54l-0.26,1.75h-6.18v-17.84h6.13v1.76h-4.23v5.7h4V359.34z"/>
			<path class="st4" d="M172.97,359.64v8.33h-1.9v-17.84h3.12c2.68,0,4,1.16,4,4.11v0.82c0,2.42-0.85,3.42-1.82,3.76
				c1.13,0.42,1.66,1.27,1.66,3.66c0,1.52-0.03,4.38,0.17,5.5h-1.85c-0.23-1.11-0.19-4.11-0.19-5.36c0-2.31-0.33-2.97-2.09-2.97
				H172.97z M172.97,358.03h1.17c1.69,0,2.14-0.98,2.14-2.89v-0.79c0-1.63-0.44-2.6-2.23-2.6h-1.07V358.03z"/>
			<path class="st4" d="M182.04,362.28l-0.85,5.69h-1.92l2.93-17.84h2.7l3.05,17.84h-1.99l-0.92-5.69H182.04z M184.8,360.54
				c-0.62-3.93-1.07-6.96-1.24-8.65h-0.08c-0.07,1.38-0.7,5.39-1.18,8.65H184.8z"/>
			<path class="st4" d="M196.4,362.86v0.6c0,2.27-0.41,4.75-3.63,4.75c-3.09,0-3.62-2.19-3.62-4.81v-9.07
				c0-2.85,1.23-4.43,3.64-4.43c2.99,0,3.53,2.13,3.53,4.46v0.7h-1.93v-0.84c0-1.41-0.22-2.59-1.63-2.59
				c-1.34,0-1.67,1.06-1.67,2.63v9.26c0,1.79,0.39,2.97,1.73,2.97c1.39,0,1.64-1.21,1.64-2.89v-0.75H196.4z"/>
			<path class="st4" d="M200.12,350.14v17.84h-1.9v-17.84H200.12z"/>
			<path class="st4" d="M210.08,354.52v8.99c0,3.13-1.29,4.71-3.95,4.71c-2.76,0-3.77-1.76-3.77-4.68v-9.01
				c0-3.03,1.38-4.62,3.9-4.62C208.9,349.9,210.08,351.7,210.08,354.52z M204.3,354.43v9.26c0,2,0.73,2.8,1.92,2.8
				c1.26,0,1.92-0.77,1.92-2.89v-9.17c0-1.89-0.65-2.8-1.94-2.8C204.92,351.63,204.3,352.49,204.3,354.43z"/>
			<path class="st4" d="M212.32,367.97v-17.84h2.26c0.96,3.3,3.44,12.65,3.73,14.11h0.04c-0.1-2.4-0.13-4.91-0.13-7.82v-6.29h1.79
				v17.84h-2.19c-0.95-3.35-3.51-13.17-3.84-14.58h-0.03c0.12,2.15,0.17,5,0.17,8.22v6.37H212.32z"/>
			<path class="st4" d="M228.54,359.34h-4v6.89h4.54l-0.26,1.75h-6.18v-17.84h6.13v1.76h-4.23v5.7h4V359.34z"/>
			<path class="st4" d="M231.59,362.95v1.03c0,1.68,0.58,2.58,1.83,2.58c1.28,0,1.78-0.92,1.78-2.88c0-2.09-0.46-2.9-2.34-4.36
				c-1.91-1.49-2.88-2.39-2.88-5.02c0-2.26,0.68-4.43,3.48-4.41c2.66,0.01,3.36,1.78,3.36,4.05v0.83h-1.89v-0.78
				c0-1.48-0.29-2.44-1.51-2.44c-1.22,0-1.54,1.07-1.54,2.47c0,1.66,0.33,2.29,1.97,3.53c2.48,1.87,3.26,2.92,3.26,5.88
				c0,2.51-0.72,4.79-3.73,4.79c-2.88,0-3.7-1.89-3.7-4.24v-1.02H231.59z"/>
		</g>
	</g>
</g>
<g id="integracion">
</g>
</svg>
