<?xml version="1.0" encoding="utf-8"?>
<!-- Generator: Adobe Illustrator 24.0.0, SVG Export Plug-In . SVG Version: 6.00 Build 0)  -->
<svg version="1.1" xmlns="http://www.w3.org/2000/svg" xmlns:xlink="http://www.w3.org/1999/xlink" x="0px" y="0px"
	 viewBox="0 0 344.68 305.2" style="enable-background:new 0 0 344.68 305.2;" xml:space="preserve">
<style type="text/css">
	.st0{opacity:0.15;fill:#3EB6A6;}
	.st1{fill:#3EB6A6;}
	.st2{opacity:0.3;}
	.st3{fill:#FFFFFF;stroke:#3EB6A6;stroke-width:3;stroke-miterlimit:10;}
	.st4{fill:#93539C;}
	.st5{fill:#FFFFFF;stroke:#93539C;stroke-width:7;stroke-miterlimit:10;}
	.st6{fill:none;stroke:#000000;stroke-width:10;stroke-miterlimit:10;}
	.st7{fill:#FFFFFF;}
	.st8{fill:#FFFFFF;stroke:#3EB6A6;stroke-width:3;stroke-linecap:round;stroke-miterlimit:10;}
	.st9{fill:#FFFFFF;stroke:#93539C;stroke-width:3;stroke-miterlimit:10;}
	.st10{fill:none;stroke:#3EB6A6;stroke-width:3;stroke-miterlimit:10;}
	.st11{fill:none;stroke:#93539C;stroke-width:3;stroke-miterlimit:10;}
	.st12{fill:#FFFFFF;stroke:#93539C;stroke-width:2;stroke-miterlimit:10;}
	.st13{fill-rule:evenodd;clip-rule:evenodd;fill:#FFFFFF;stroke:#3EB6A6;stroke-width:3;stroke-miterlimit:10;}
	.st14{fill:none;stroke:#93539C;stroke-width:0.5;stroke-miterlimit:10;}
	.st15{fill:none;stroke:#93539C;stroke-width:0.25;stroke-linecap:round;stroke-linejoin:round;stroke-miterlimit:10;}
	.st16{fill:none;stroke:#93539C;stroke-width:0.5;stroke-linecap:round;stroke-linejoin:round;stroke-miterlimit:10;}
	.st17{fill:none;stroke:#000000;stroke-width:0.5;stroke-miterlimit:10;}
	.st18{fill:#FFFFFF;stroke:#3EB6A6;stroke-width:2;stroke-miterlimit:10;}
	.st19{fill:none;stroke:#93539C;stroke-width:2;stroke-linecap:round;stroke-miterlimit:10;}
	.st20{fill:none;stroke:#93539C;stroke-width:3;stroke-linecap:round;stroke-miterlimit:10;}
	.st21{fill:#FFFFFF;stroke:#3EB6A6;stroke-miterlimit:10;}
	.st22{fill:none;stroke:#93539C;stroke-linecap:round;stroke-miterlimit:10;}
	.st23{fill:none;stroke:#3EB6A6;stroke-miterlimit:10;}
	.st24{fill:none;stroke:#FFFFFF;stroke-width:3;stroke-miterlimit:10;}
	.st25{opacity:0.35;fill:#FFFFFF;stroke:#93539C;stroke-width:2;stroke-miterlimit:10;}
	.st26{fill:none;stroke:#93539C;stroke-width:2;stroke-miterlimit:10;}
	.st27{fill:#E1F1F0;}
	.st28{fill:#010202;}
	.st29{fill:none;}
	.st30{fill:#1A1533;}
	.st31{fill:#FFFFFF;stroke:#010202;stroke-miterlimit:10;}
	.st32{fill:none;stroke:#010202;stroke-miterlimit:10;}
	.st33{fill:none;stroke:#3EB6A6;stroke-width:2;stroke-miterlimit:10;}
	.st34{fill:none;stroke:#34B4A4;stroke-width:0.75;stroke-miterlimit:10;}
	.st35{fill:#FFFFFF;stroke:#000000;stroke-width:3;stroke-miterlimit:10;}
	.st36{fill:none;stroke:#000000;stroke-miterlimit:10;}
	.st37{fill:#3EB6A6;stroke:#010202;stroke-miterlimit:10;}
	.st38{fill:#93539C;stroke:#E9DCEB;stroke-miterlimit:10;}
	.st39{fill:#E9DCEB;}
	.st40{fill:none;stroke:#93539C;stroke-miterlimit:10;}
	.st41{fill:none;stroke:#000000;stroke-width:3;stroke-miterlimit:10;}
	.st42{stroke:#000000;stroke-miterlimit:10;}
	.st43{fill:none;stroke:#010202;stroke-width:3;stroke-miterlimit:10;}
	.st44{fill:none;stroke:#93539C;stroke-width:5;stroke-miterlimit:10;}
	.st45{fill:none;stroke:#3EB6A6;stroke-width:7;stroke-miterlimit:10;}
	.st46{fill:none;stroke:#93539C;stroke-width:4;stroke-miterlimit:10;}
	.st47{fill:none;stroke:#3EB6A6;stroke-width:5;stroke-miterlimit:10;}
	.st48{fill:#FFFFFF;stroke:#000000;stroke-miterlimit:10;}
	.st49{fill:#FFFFFF;stroke:#000000;stroke-width:2;stroke-miterlimit:10;}
	.st50{fill:#FFFFFF;stroke:#93539C;stroke-miterlimit:10;}
	.st51{fill:#FFFFFF;stroke:#3EB6A6;stroke-width:0.5;stroke-miterlimit:10;}
	.st52{fill:#FFFFFF;stroke:#93539C;stroke-linecap:round;stroke-miterlimit:10;}
	.st53{fill:none;stroke:#3EB6A6;stroke-width:0.25;stroke-miterlimit:10;}
	.st54{fill:#E1F1F0;stroke:#010202;stroke-miterlimit:10;}
	.st55{fill:none;stroke:#000000;stroke-linecap:round;stroke-miterlimit:10;}
	.st56{fill:#FFFFFF;stroke:#000000;stroke-width:0.75;stroke-miterlimit:10;}
	.st57{fill:#FFFFFF;stroke:#000000;stroke-width:0.5;stroke-miterlimit:10;}
	.st58{fill:#FFFFFF;stroke:#000000;stroke-linecap:round;stroke-linejoin:round;stroke-miterlimit:10;}
</style>
<g id="Capa_5">
	<path class="st27" d="M54.79,142.6c-3.99-7.45-7.5-17.39-1.79-23.62c4.73-5.16,13.48-4.68,18.38-9.67
		c4.05-4.13,4.2-10.6,6.54-15.89c3.95-8.92,14-13.76,23.7-14.73s19.41,1.16,29.09,2.33c5.78,0.7,11.93,1,17.12-1.63
		c7.99-4.04,11.22-13.48,15.26-21.47c4.04-7.99,11.85-16.15,20.51-13.89c6.64,1.73,10.29,8.91,11.74,15.61
		c1.45,6.71,1.63,13.89,5.03,19.85c3.1,5.45,8.96,9.36,15.22,9.7c6.27,0.35,12.69-3.08,15.55-8.66c1.57-3.06,2.07-6.58,3.64-9.64
		c4.68-9.09,19.45-10.37,25.62-2.22c5.13,6.78,4.31,17.36,10.93,22.7c3.04,2.45,7.08,3.24,10.53,5.08
		c6.41,3.42,10.4,10.44,11.39,17.63c0.99,7.2-0.73,14.54-3.54,21.24c-2.25,5.36-5.24,10.54-6.11,16.29
		c-0.88,5.75,1.03,12.48,6.25,15.06c2.04,1.01,4.37,1.28,6.47,2.18c7.85,3.34,9.57,14.67,5.16,21.97
		c-4.41,7.3-12.87,11.13-21.14,13.2c-8.27,2.08-16.92,2.86-24.8,6.13c-11.42,4.75-21.15,14.65-33.51,15.09
		c-13.9,0.49-25.44-11.23-39.21-13.17c-16.62-2.34-31.42,9.73-47.34,15.05c-9.05,3.03-20,3.52-27.21-2.73
		c-5.52-4.78-7.68-12.51-12.99-17.53c-4.82-4.56-11.56-6.3-17.94-8.12c-6.61-1.88-12.45-4.24-17.18-9.34
		c-1.92-2.07-4.06-3.8-4.21-6.68c-0.17-3.44,2.24-7.32,3.02-10.64C61.13,162.92,59.17,150.77,54.79,142.6z"/>
	<path class="st31" d="M152.04,188.2v4.79c0,0-2.72-0.04-2.72,2.56s2.72,1.64,2.72,1.64v5.01c0,0-2.88,0.16-2.72,1.78
		c0.16,1.62,2.72,1.62,2.72,1.62v5.01c0,0-2.89,0.81-2.73,2.26c0.17,1.46,2.73,1.29,2.73,1.29v3.56l10.38,8.73h24.42l10.19-9.22
		v-8.25c0,0,2.43,0.06,2.26-1.67c-0.16-1.73-2.1-1.98-2.1-1.98l0.46-5.13c0,0,1.66-0.06,1.66-2c0-1.94-2.12-1.41-2.12-1.41v-4.47
		c0,0,1.96-0.64,2.11-2.74c0.15-2.1-2.27-1.39-2.27-1.39v-4.03"/>
	<path class="st7" d="M141.21,107.63l6.36-10.84l5.3-1.59l1.49-5.26l8.5-4.25l3.45,0.85c0,0,7.63-5.2,15.33-3.44
		s5.96,9.24,5.96,9.24s-1.17-4.7,4-4.4c5.17,0.31,12.4,3.41,13.26,8.11c6.27,1.69,12.75,9.12,9.21,15.22
		c-3.54,6.09-11.93,7.38-11.93,7.38s-4.73,6.43-8.35,7.27c-3.61,0.84-1.61,5.17-3.96,6.26c-2.35,1.08-11.7,3.25-11.7,3.25
		l-4.74,4.44l-3.46,5.46l-5.95,1.29l-3.13-1.62l2.58-4.07l-2.03-3.08l-9.24,0.27l-9.56-6.9l-3.24-8.78l2.19-6.77L141.21,107.63z"/>
	<line class="st32" x1="189.91" y1="189" x2="196.42" y2="188.46"/>
	<line class="st32" x1="152.52" y1="193.02" x2="165.34" y2="191.57"/>
	<line class="st32" x1="152.67" y1="196.92" x2="196.72" y2="192.46"/>
	<line class="st32" x1="152.04" y1="202.2" x2="196.56" y2="196.92"/>
	<line class="st32" x1="152.04" y1="205.6" x2="197.11" y2="200.23"/>
	<line class="st32" x1="152.04" y1="210.61" x2="196.69" y2="205.28"/>
	<line class="st32" x1="151.63" y1="214.17" x2="197.02" y2="208.99"/>
	<path class="st3" d="M147.06,180.16c0,0,0.22,10.35,23.28,11.64c23.07,1.29,31.26-7.11,31.26-16.38s-0.86-15.99,14.23-38.5
		s10.56-45.15-4.74-63.26s-39.67-21.13-59.29-11.21s-28.46,31.05-28.24,45.27s6.21,22.21,12.16,32.45
		c5.95,10.24,11.12,21.02,11.12,24.04S147.06,180.16,147.06,180.16z"/>
	<g>
		<path class="st20" d="M149.79,100.02c0,0,9.41-2.19,9.3,12.75c7.63-2.19,13.27,1.25,14.32,6.79c4.91-5.54,13.8-2.4,17.24,2.82
			c3.45,5.23-3.14,13.64-8.99,12.57s-8.47-3.79-8.47-3.79s-8.99,4.08-14.11,2.19c-2.61-1.05-2.61-6.38-4.6-6.58
			c-1.99-0.21-10.35,0.31-12.75-10.35c-2.4-10.66,1.15-17.66,10.35-20.69c0.42-8.99,11.29-10.97,13.8-8.47"/>
		<path class="st20" d="M160.87,96.78c0,0,0.63-8.36,8.47-12.23c7.84-3.87,17.45,0.63,18.6,4.91c1.15,4.28-2.51,5.64-4.6,5.43"/>
		<path class="st20" d="M141.74,116.43c0,0-5.85,9.62,3.87,17.98s22.46,3.41,24.34-2.01"/>
		<path class="st20" d="M151.35,112.04c0,0-2.4,6.06,3.03,9.62c5.43,3.55,10.24-0.63,10.24-0.63s2.3,7.19,8.26,6.62
			c5.96-0.56,9.41-5.06,9.41-5.06"/>
		<path class="st20" d="M187.6,88.63c0,0,14.54-4.49,17.26,8.15"/>
		<path class="st20" d="M199.33,102.22c0,0-0.31-8.26,8.88-4.7c9.2,3.55,6.58,14.84,3.97,17.56c-2.61,2.72-5.64,3.45-10.03,3.55"/>
		<path class="st20" d="M177.06,102.64c0,0,0.63-3.87,8.47-1.99c7.84,1.88,6.07,8.57,6.07,8.57s7.3-2.51,10.02,2.82
			c2.72,5.33-0.73,10.35-3.24,12.44c-2.51,2.09-6.79,1.25-6.79,1.25"/>
		<path class="st20" d="M176.02,93.02c0,0-6.48-3.24-8.26,5.02c-1.78,8.26,10.97,11.6,14.53,8.67c0,4.91-0.1,6.38,3.34,7"/>
		<path class="st20" d="M162.38,138.18c0,0,3.51,5.74-1.51,6.79c8.47,6.06,12.23-3.81,12.85-6.09c0.63-2.28,5.64-4.65,8.57-3.83"/>
	</g>
</g>
<g id="integracion">
</g>
</svg>
