<?xml version="1.0" encoding="utf-8"?>
<!-- Generator: Adobe Illustrator 24.0.0, SVG Export Plug-In . SVG Version: 6.00 Build 0)  -->
<svg version="1.1" xmlns="http://www.w3.org/2000/svg" xmlns:xlink="http://www.w3.org/1999/xlink" x="0px" y="0px"
	 viewBox="0 0 312.51 280.44" style="enable-background:new 0 0 312.51 280.44;" xml:space="preserve">
<style type="text/css">
	.st0{opacity:0.15;fill:#3EB6A6;}
	.st1{fill:#3EB6A6;}
	.st2{opacity:0.3;}
	.st3{fill:#FFFFFF;stroke:#3EB6A6;stroke-width:3;stroke-miterlimit:10;}
	.st4{fill:#93539C;}
	.st5{fill:#FFFFFF;stroke:#93539C;stroke-width:7;stroke-miterlimit:10;}
	.st6{fill:none;stroke:#000000;stroke-width:10;stroke-miterlimit:10;}
	.st7{fill:#FFFFFF;}
	.st8{fill:#FFFFFF;stroke:#3EB6A6;stroke-width:3;stroke-linecap:round;stroke-miterlimit:10;}
	.st9{fill:#FFFFFF;stroke:#93539C;stroke-width:3;stroke-miterlimit:10;}
	.st10{fill:none;stroke:#3EB6A6;stroke-width:3;stroke-miterlimit:10;}
	.st11{fill:none;stroke:#93539C;stroke-width:3;stroke-miterlimit:10;}
	.st12{fill:#FFFFFF;stroke:#93539C;stroke-width:2;stroke-miterlimit:10;}
	.st13{fill-rule:evenodd;clip-rule:evenodd;fill:#FFFFFF;stroke:#3EB6A6;stroke-width:3;stroke-miterlimit:10;}
	.st14{fill:none;stroke:#93539C;stroke-width:0.5;stroke-miterlimit:10;}
	.st15{fill:none;stroke:#93539C;stroke-width:0.25;stroke-linecap:round;stroke-linejoin:round;stroke-miterlimit:10;}
	.st16{fill:none;stroke:#93539C;stroke-width:0.5;stroke-linecap:round;stroke-linejoin:round;stroke-miterlimit:10;}
	.st17{fill:none;stroke:#000000;stroke-width:0.5;stroke-miterlimit:10;}
	.st18{fill:#FFFFFF;stroke:#3EB6A6;stroke-width:2;stroke-miterlimit:10;}
	.st19{fill:none;stroke:#93539C;stroke-width:2;stroke-linecap:round;stroke-miterlimit:10;}
	.st20{fill:none;stroke:#93539C;stroke-width:3;stroke-linecap:round;stroke-miterlimit:10;}
	.st21{fill:#FFFFFF;stroke:#3EB6A6;stroke-miterlimit:10;}
	.st22{fill:none;stroke:#93539C;stroke-linecap:round;stroke-miterlimit:10;}
	.st23{fill:none;stroke:#3EB6A6;stroke-miterlimit:10;}
	.st24{fill:none;stroke:#FFFFFF;stroke-width:3;stroke-miterlimit:10;}
	.st25{opacity:0.35;fill:#FFFFFF;stroke:#93539C;stroke-width:2;stroke-miterlimit:10;}
	.st26{fill:none;stroke:#93539C;stroke-width:2;stroke-miterlimit:10;}
	.st27{fill:#E1F1F0;}
	.st28{fill:#010202;}
	.st29{fill:none;}
	.st30{fill:#1A1533;}
	.st31{fill:#FFFFFF;stroke:#010202;stroke-miterlimit:10;}
	.st32{fill:none;stroke:#010202;stroke-miterlimit:10;}
	.st33{fill:none;stroke:#3EB6A6;stroke-width:2;stroke-miterlimit:10;}
	.st34{fill:none;stroke:#34B4A4;stroke-width:0.75;stroke-miterlimit:10;}
	.st35{fill:#FFFFFF;stroke:#000000;stroke-width:3;stroke-miterlimit:10;}
	.st36{fill:none;stroke:#000000;stroke-miterlimit:10;}
	.st37{fill:#3EB6A6;stroke:#010202;stroke-miterlimit:10;}
	.st38{fill:#93539C;stroke:#E9DCEB;stroke-miterlimit:10;}
	.st39{fill:#E9DCEB;}
	.st40{fill:none;stroke:#93539C;stroke-miterlimit:10;}
	.st41{fill:none;stroke:#000000;stroke-width:3;stroke-miterlimit:10;}
	.st42{stroke:#000000;stroke-miterlimit:10;}
	.st43{fill:none;stroke:#010202;stroke-width:3;stroke-miterlimit:10;}
	.st44{fill:none;stroke:#93539C;stroke-width:5;stroke-miterlimit:10;}
	.st45{fill:none;stroke:#3EB6A6;stroke-width:7;stroke-miterlimit:10;}
	.st46{fill:none;stroke:#93539C;stroke-width:4;stroke-miterlimit:10;}
	.st47{fill:none;stroke:#3EB6A6;stroke-width:5;stroke-miterlimit:10;}
	.st48{fill:#FFFFFF;stroke:#000000;stroke-miterlimit:10;}
	.st49{fill:#FFFFFF;stroke:#000000;stroke-width:2;stroke-miterlimit:10;}
	.st50{fill:#FFFFFF;stroke:#93539C;stroke-miterlimit:10;}
	.st51{fill:#FFFFFF;stroke:#3EB6A6;stroke-width:0.5;stroke-miterlimit:10;}
	.st52{fill:#FFFFFF;stroke:#93539C;stroke-linecap:round;stroke-miterlimit:10;}
	.st53{fill:none;stroke:#3EB6A6;stroke-width:0.25;stroke-miterlimit:10;}
	.st54{fill:#E1F1F0;stroke:#010202;stroke-miterlimit:10;}
	.st55{fill:none;stroke:#000000;stroke-linecap:round;stroke-miterlimit:10;}
	.st56{fill:#FFFFFF;stroke:#000000;stroke-width:0.75;stroke-miterlimit:10;}
	.st57{fill:#FFFFFF;stroke:#000000;stroke-width:0.5;stroke-miterlimit:10;}
	.st58{fill:#FFFFFF;stroke:#000000;stroke-linecap:round;stroke-linejoin:round;stroke-miterlimit:10;}
</style>
<g id="Capa_5">
	<path class="st0" d="M57.86,135.27c-3.99-7.45-7.5-17.39-1.79-23.62c4.73-5.16,13.48-4.68,18.38-9.67
		c4.05-4.13,4.2-10.6,6.54-15.89c3.95-8.92,14-13.76,23.7-14.73c9.7-0.97,19.41,1.16,29.09,2.33c5.78,0.7,11.93,1,17.12-1.63
		c7.99-4.04,11.22-13.48,15.26-21.47s11.85-16.15,20.51-13.89c6.64,1.73,10.29,8.91,11.74,15.61c1.45,6.71,1.63,13.89,5.03,19.85
		c3.1,5.45,8.96,9.36,15.22,9.7c6.27,0.35,12.69-3.08,15.55-8.66c1.57-3.06,2.07-6.58,3.64-9.64c4.68-9.09,19.45-10.37,25.62-2.22
		c5.13,6.78,4.31,17.36,10.93,22.7c3.04,2.45,7.08,3.24,10.53,5.08c6.41,3.42,10.4,10.44,11.39,17.63s-0.73,14.54-3.54,21.24
		c-2.25,5.36-5.24,10.54-6.11,16.29c-0.88,5.75,1.03,12.48,6.25,15.06c2.04,1.01,4.37,1.28,6.47,2.18
		c7.85,3.34,9.57,14.67,5.16,21.97s-12.87,11.13-21.14,13.2c-8.27,2.08-16.92,2.86-24.8,6.13c-11.42,4.75-21.15,14.65-33.51,15.09
		c-13.9,0.49-25.44-11.23-39.21-13.17c-16.62-2.34-31.42,9.73-47.34,15.05c-9.05,3.03-20,3.52-27.21-2.73
		c-5.52-4.78-7.68-12.51-12.99-17.53c-4.82-4.56-11.56-6.3-17.94-8.12c-6.61-1.88-12.45-4.24-17.18-9.34
		c-1.92-2.07-4.06-3.8-4.21-6.68c-0.17-3.44,2.24-7.32,3.02-10.64C64.2,155.59,62.23,143.44,57.86,135.27z"/>
	<g>
		<path class="st12" d="M232.73,134.4c0,0,2.2,0.95,2.71-0.71c0.54-1.78,1.07-1.76,2.64-1.28c2.43,0.74,12.22,3.71,12.22,3.71
			s0.74,0.21,0.43,1.25c-0.38,1.25-1.14,3.75-1.14,3.75"/>
		<path class="st12" d="M238.19,161.38l-26.45-8.03c-2.65-0.81-4.15-3.61-3.35-6.26l4.12-13.57c0.81-2.65,3.61-4.15,6.26-3.35
			l26.45,8.03c2.65,0.81,4.15,3.61,3.35,6.26l-4.12,13.57C243.64,160.68,240.84,162.18,238.19,161.38z"/>
		
			<rect x="236.86" y="125.76" transform="matrix(0.2904 -0.9569 0.9569 0.2904 37.4321 325.6558)" class="st12" width="2.87" height="23.65"/>
	</g>
	<path class="st3" d="M286.81,145.24l-65.95,36.81c-2.47,1.38-5.61,0.49-6.99-1.98l-0.86-1.53c-1.38-2.47-0.49-5.61,1.98-6.99
		l65.95-36.81c2.47-1.38,5.61-0.49,6.99,1.98l0.86,1.53C290.17,140.72,289.28,143.87,286.81,145.24z"/>
	<polygon class="st3" points="222.53,187.87 290.66,149.84 293.03,154.1 274.77,185.74 285.7,205.33 272.13,212.91 261.19,193.32 
		225.21,192.14 	"/>
	<path class="st13" d="M185.77,149.85l4.86-10.41l15.5,29.04l-30.73-2.26l4.31-6.57c0,0-92.25-49.33-128.52-26.18
		c0-4.09-0.93-27.64-0.93-27.64S114.38,94.19,185.77,149.85z"/>
	<g>
		<path class="st12" d="M189.35,63.7c0,0,2.21-0.58,1.62-2.12c-0.64-1.65-0.23-1.95,1.23-2.51c2.25-0.87,11.34-4.39,11.34-4.39
			s0.68-0.28,1.05,0.69c0.45,1.16,1.35,3.48,1.35,3.48"/>
		<path class="st12" d="M209.06,80.81l-24.11,9.34c-2.59,1-5.49-0.28-6.5-2.87l-4.71-12.15c-1-2.59,0.28-5.49,2.87-6.5l24.11-9.34
			c2.59-1,5.49,0.28,6.5,2.87l4.71,12.15C212.93,76.9,211.64,79.81,209.06,80.81z"/>
		
			<rect x="184.13" y="61.45" transform="matrix(0.9325 -0.3611 0.3611 0.9325 -9.4997 74.8003)" class="st12" width="22.53" height="2.73"/>
	</g>
	<g>
		<polygon class="st12" points="144.05,107.36 100.7,102.97 104.23,68.13 120.42,69.46 121.11,71.94 147.33,75 		"/>
		
			<rect x="104.96" y="77.18" transform="matrix(0.9949 0.1007 -0.1007 0.9949 9.644 -12.025)" class="st14" width="37.96" height="24.67"/>
		<line class="st15" x1="106.66" y1="73.79" x2="107.91" y2="73.92"/>
		<line class="st15" x1="107.4" y1="73.09" x2="106.59" y2="73.84"/>
		<line class="st15" x1="106.6" y1="73.73" x2="107.24" y2="74.63"/>
		<line class="st15" x1="110.73" y1="74.21" x2="109.48" y2="74.08"/>
		<line class="st15" x1="110.15" y1="73.37" x2="110.79" y2="74.27"/>
		<line class="st15" x1="110.8" y1="74.16" x2="109.99" y2="74.91"/>
		<line class="st15" x1="116.31" y1="72.5" x2="117.1" y2="73.48"/>
		<line class="st15" x1="116.22" y1="73.39" x2="117.19" y2="72.59"/>
		
			<rect x="118.23" y="75.58" transform="matrix(0.9949 0.1007 -0.1007 0.9949 8.3184 -12.4912)" class="st16" width="19.32" height="1.14"/>
		<line class="st17" x1="107.48" y1="78.16" x2="132.29" y2="80.67"/>
		<line class="st17" x1="107.36" y1="79.42" x2="136.19" y2="82.34"/>
		<line class="st17" x1="117.19" y1="83.34" x2="140.35" y2="85.69"/>
		<line class="st17" x1="117.5" y1="85.96" x2="140.09" y2="88.24"/>
		<line class="st17" x1="139.86" y1="90.58" x2="128.56" y2="89.44"/>
		<line class="st17" x1="127.78" y1="89.36" x2="120.98" y2="88.67"/>
		<line class="st17" x1="116.49" y1="90.31" x2="139.65" y2="92.65"/>
		<line class="st17" x1="116.79" y1="92.92" x2="139.39" y2="95.21"/>
		<line class="st17" x1="139.15" y1="97.55" x2="127.85" y2="96.4"/>
		<line class="st17" x1="127.07" y1="96.32" x2="120.28" y2="95.64"/>
	</g>
	<g>
		<circle class="st18" cx="184.02" cy="116.26" r="15.44"/>
		<line class="st19" x1="172.16" y1="106.36" x2="172.99" y2="107.05"/>
		<line class="st19" x1="195.05" y1="125.46" x2="195.87" y2="126.15"/>
		<line class="st19" x1="193.91" y1="104.4" x2="193.22" y2="105.23"/>
		<line class="st19" x1="174.81" y1="127.29" x2="174.12" y2="128.11"/>
		<line class="st19" x1="182.63" y1="100.88" x2="182.73" y2="101.95"/>
		<line class="st19" x1="185.31" y1="130.56" x2="185.4" y2="131.64"/>
		<line class="st19" x1="199.4" y1="114.87" x2="198.32" y2="114.97"/>
		<line class="st19" x1="169.71" y1="117.55" x2="168.64" y2="117.64"/>
		<line class="st20" x1="175.97" y1="109.45" x2="184.06" y2="116.21"/>
		<line class="st20" x1="188.74" y1="110.6" x2="184.02" y2="116.26"/>
		<circle class="st20" cx="183.89" cy="116.15" r="0.45"/>
		<circle class="st10" cx="184.02" cy="116.26" r="15.44"/>
	</g>
	<g>
		<circle class="st21" cx="152.29" cy="62.5" r="8.9"/>
		<line class="st22" x1="157.37" y1="55.19" x2="157.02" y2="55.7"/>
		<line class="st22" x1="147.56" y1="69.29" x2="147.2" y2="69.8"/>
		<line class="st22" x1="159.59" y1="67.58" x2="159.08" y2="67.23"/>
		<line class="st22" x1="145.49" y1="57.76" x2="144.98" y2="57.41"/>
		<line class="st22" x1="161.05" y1="60.93" x2="160.44" y2="61.04"/>
		<line class="st22" x1="144.14" y1="63.96" x2="143.53" y2="64.06"/>
		<line class="st22" x1="153.86" y1="71.26" x2="153.75" y2="70.65"/>
		<line class="st22" x1="150.83" y1="54.34" x2="150.72" y2="53.73"/>
		<line class="st22" x1="155.79" y1="57.53" x2="152.32" y2="62.52"/>
		<line class="st22" x1="155.78" y1="64.92" x2="152.29" y2="62.5"/>
		<circle class="st22" cx="152.34" cy="62.42" r="0.26"/>
		<circle class="st23" cx="152.29" cy="62.5" r="9.42"/>
	</g>
	<g>
		<circle class="st21" cx="238.3" cy="90.74" r="8.9"/>
		<line class="st22" x1="233.75" y1="83.09" x2="234.07" y2="83.62"/>
		<line class="st22" x1="242.52" y1="97.86" x2="242.84" y2="98.4"/>
		<line class="st22" x1="245.95" y1="86.2" x2="245.41" y2="86.51"/>
		<line class="st22" x1="231.18" y1="94.97" x2="230.64" y2="95.29"/>
		<line class="st22" x1="240.49" y1="82.12" x2="240.34" y2="82.72"/>
		<line class="st22" x1="236.25" y1="98.77" x2="236.1" y2="99.37"/>
		<line class="st22" x1="246.92" y1="92.94" x2="246.32" y2="92.79"/>
		<line class="st22" x1="230.27" y1="88.7" x2="229.67" y2="88.55"/>
		<line class="st22" x1="235.23" y1="85.5" x2="238.33" y2="90.72"/>
		<line class="st22" x1="241.95" y1="88.57" x2="238.3" y2="90.74"/>
		<circle class="st22" cx="238.25" cy="90.66" r="0.26"/>
		<circle class="st23" cx="238.3" cy="90.74" r="9.42"/>
	</g>
</g>
<g id="integracion">
</g>
</svg>
